<?xml version="1.0" encoding="utf-8"?>
<!-- Generator: Adobe Illustrator 26.0.2, SVG Export Plug-In . SVG Version: 6.00 Build 0)  -->
<svg version="1.1" id="Layer_1" xmlns="http://www.w3.org/2000/svg" xmlns:xlink="http://www.w3.org/1999/xlink" x="0px" y="0px"
	 viewBox="0 0 19 20.2" style="enable-background:new 0 0 19 20.2;" xml:space="preserve">
<style type="text/css">
	.st0{fill:#222222;}
	.st1{fill:#E5E5E4;}
</style>
<path class="st0" d="M0.7,9.6h8.4l0-8.4H0.7V9.6z M3.2,2.9h3.4v0.8H4v1.4h2.5v0.7L4,5.8v1.4h2.5V8H3.2V2.9z"/>
<path class="st0" d="M0.7,19h8.4l0-8.4H0.7V19z M3.2,16.6h2.5v-1.4H3.2v0v-2.9h3.4V13H4.1v1.4h2.5V15v1.9v0.6H3.2V16.6z"/>
<path class="st0" d="M10.1,1.3v8.4l8.4,0V1.3H10.1z M13.8,2.9h0.9v3.6h-0.9V2.9z M14.7,8h-0.9V7.2h0.9V8z"/>
<rect x="10.1" y="10.6" class="st1" width="8.4" height="8.4"/>
<path class="st0" d="M14.7,16.5h-0.8v-3.5h0.8V16.5z"/>
<path class="st0" d="M16,14.4v0.8h-3.5v-0.8H16z"/>
</svg>
