<svg xmlns="http://www.w3.org/2000/svg" xmlns:xlink="http://www.w3.org/1999/xlink" version="1.1" id="Layer_1" x="0px" y="0px" viewBox="0 0 203.5 23.1" style="enable-background:new 0 0 203.5 23.1;" xml:space="preserve"><script xmlns=""/><link xmlns="" type="text/css" rel="stylesheet" id="dark-mode-custom-link"/><link xmlns="" type="text/css" rel="stylesheet" id="dark-mode-general-link"/><style xmlns="" lang="en" type="text/css" id="dark-mode-custom-style"/><style xmlns="" lang="en" type="text/css" id="dark-mode-native-style"/><style xmlns="" lang="en" type="text/css" id="dark-mode-native-sheet"/><script xmlns=""/>
<style type="text/css">
	.st0{fill:#000222;}
</style>
<path class="st0" d="M7.2,16.3c0,0-0.7-0.2-0.7-1.1V3.2L1,6v10.1l9.6,5.2l2.9-1.6C13.5,19.6,7.2,16.3,7.2,16.3z"/>
<path class="st0" d="M28.7,17.6V3.2h-3.6v15.6h9.3v-1.3H28.7z"/>
<path class="st0" d="M45.4,4.8V3.2h-9.3v15.6h3.6V12h5.2v-1.3h-5.2V4.8L45.4,4.8z"/>
<path class="st0" d="M10.8,1L7.9,2.6L14.4,6c0,0,0.7,0.5,0.7,1.3v3.4l-4.8-2.4v3.1l4.1,2.2c0,0,0.7,0.3,0.7,0.9V19l5-2.7V6  C20,6,10.8,1,10.8,1z"/>
<path class="st0" d="M61.7,3.2h8.7v1.7h-6.6v5H70v1.7h-6.2v5.6h6.9v1.7h-8.9L61.7,3.2C61.8,3.2,61.7,3.2,61.7,3.2z M72.6,7.2h1.9  v1.4c0.2-0.6,0.7-0.9,1.2-1.2c0.6-0.3,1.2-0.5,1.8-0.5c0.8,0,1.4,0.1,1.9,0.4c0.5,0.3,0.8,0.6,1,0.9c0.2,0.4,0.3,0.8,0.4,1.1  c0,0.4,0.1,0.8,0.1,1.3V19h-2v-9c0,0-0.1-0.5-0.2-0.8c-0.1-0.2-0.3-0.5-0.6-0.6c-0.3-0.2-0.6-0.2-1-0.2c-0.6,0-1.2,0.2-1.7,0.6  s-0.8,1-0.8,1.8V19h-2C72.6,19,72.6,7.2,72.6,7.2z M84.1,3.7h2v3.5h2.2v1.4h-2.2v7.6c0,0.5,0.1,0.8,0.3,1c0.2,0.2,0.5,0.3,1,0.3h0.8  V19c-0.5,0.1-1,0.1-1.6,0.1c-1,0-1.6-0.2-2-0.6s-0.5-0.9-0.5-1.8V8.6h-1.8V7.2h1.8V3.7z M91.3,13.3V15c0,0,0.1,0.9,0.3,1.4  c0.2,0.5,0.4,0.8,0.7,1.1c0.3,0.3,0.8,0.4,1.3,0.4c0.4,0,0.8-0.1,1.1-0.3s0.5-0.5,0.7-0.8l0.3-0.8c0.1-0.3,0.1-0.6,0.1-0.8h2  c0,0.4-0.1,0.8-0.2,1.2c-0.1,0.5-0.4,0.9-0.7,1.4c-0.3,0.5-0.7,0.8-1.3,1.1s-1.2,0.5-2.1,0.5c-1.5,0-2.6-0.5-3.3-1.5s-1-2.5-1-4.6  c0-0.8,0.1-1.6,0.2-2.3c0.1-0.8,0.3-1.4,0.6-2c0.3-0.6,0.8-1.1,1.4-1.5c0.6-0.4,1.4-0.6,2.3-0.6c0.9,0,1.6,0.2,2.2,0.5  c0.6,0.4,1,0.8,1.3,1.3c0.3,0.6,0.5,1.1,0.6,1.8c0.1,0.7,0.1,1.3,0.1,2.1v0.8L91.3,13.3L91.3,13.3z M95.8,11.8v-0.7  c0-0.4,0-0.8-0.1-1c-0.1-0.4-0.2-0.7-0.4-0.9c-0.2-0.3-0.4-0.5-0.7-0.7c-0.3-0.2-0.6-0.3-1-0.3c-0.5,0-0.9,0.1-1.2,0.4  c-0.3,0.3-0.5,0.6-0.7,0.8c-0.2,0.4-0.3,0.7-0.3,1c-0.1,0.4-0.1,0.7-0.1,0.8v0.5C91.3,11.8,95.8,11.8,95.8,11.8z M100.2,7.2h2V9  c0.3-0.7,0.7-1.1,1.1-1.5s1-0.6,1.6-0.6c0.4,0,0.7,0,0.9,0.1v1.8h-0.1l-0.9-0.1c-0.3,0-0.5,0.1-0.8,0.2c-0.3,0.1-0.6,0.3-0.8,0.6  c-0.3,0.3-0.5,0.6-0.6,0.8c-0.2,0.4-0.2,0.8-0.2,1.2V19h-2V7.2H100.2L100.2,7.2z M107.2,7.2h1.9v1.4c0.1-0.5,0.5-0.8,1-1.2  c0.5-0.4,1.1-0.6,1.7-0.6c1.4,0,2.5,0.6,3.1,1.6c0.7,1,1,2.5,1,4.4c0,0.8-0.1,1.5-0.2,2.2s-0.4,1.4-0.7,2.1  c-0.3,0.7-0.7,1.1-1.3,1.6c-0.5,0.4-1.2,0.6-2,0.6c-0.6,0-1.1-0.2-1.6-0.5c-0.5-0.3-0.8-0.7-1.1-1.2v5.2h-2V7.2  C107,7.2,107.2,7.2,107.2,7.2z M109.2,14.8c0.1,0.6,0.2,1,0.4,1.4c0.2,0.5,0.4,0.8,0.8,1c0.3,0.3,0.8,0.4,1.3,0.4  c0.9,0,1.5-0.4,1.8-1.2c0.3-0.8,0.5-2,0.5-3.7c0-1.4-0.2-2.5-0.5-3.3c-0.3-0.8-0.9-1.1-1.8-1.1c-0.5,0-1,0.1-1.3,0.4  c-0.3,0.2-0.6,0.6-0.8,0.9s-0.3,0.8-0.4,1.4c-0.1,0.6-0.1,1.2-0.1,2C109.1,13.6,109.1,14.2,109.2,14.8z M118.2,7.2h2V9  c0.3-0.7,0.7-1.1,1.1-1.5s1-0.6,1.6-0.6c0.4,0,0.7,0,0.9,0.1v1.8h-0.1l-0.9-0.1c-0.3,0-0.5,0.1-0.8,0.2c-0.3,0.1-0.6,0.3-0.8,0.6  c-0.3,0.3-0.5,0.6-0.6,0.8c-0.2,0.4-0.2,0.8-0.2,1.2V19h-2V7.2H118.2L118.2,7.2z M125.3,3.2h2v2.2h-2C125.3,5.4,125.3,3.2,125.3,3.2  z M125.3,7.2h2V19h-2V7.2z M135.5,10.6c0-0.8-0.1-1.4-0.4-1.8s-0.8-0.6-1.4-0.6c-0.2,0-0.4,0-0.6,0.1c-0.2,0-0.4,0.1-0.7,0.3  c-0.2,0.1-0.4,0.3-0.5,0.6c-0.1,0.3-0.2,0.6-0.2,0.9c0,0.6,0.2,0.9,0.6,1.2s1,0.5,1.9,0.8l0.6,0.2c0.5,0.2,0.9,0.3,1.2,0.5  c0.3,0.2,0.6,0.3,0.9,0.6c0.3,0.2,0.5,0.6,0.7,0.9s0.2,0.8,0.2,1.4c0,1.2-0.4,2.2-1.1,2.7c-0.7,0.7-1.7,0.9-2.9,0.9  c-1,0-1.8-0.2-2.4-0.5s-1-0.7-1.3-1.1c-0.3-0.5-0.4-0.8-0.5-1.3c-0.1-0.5-0.1-0.8-0.1-1.3h2c0,0.8,0.2,1.5,0.5,2  c0.3,0.5,1,0.8,1.8,0.8c0.2,0,0.4,0,0.6-0.1s0.4-0.2,0.7-0.3l0.6-0.6c0.1-0.3,0.2-0.6,0.2-0.9s-0.1-0.7-0.2-0.8  c-0.1-0.3-0.3-0.5-0.6-0.7c-0.3-0.2-0.9-0.5-1.9-0.8c-0.2-0.1-0.3-0.1-0.4-0.1h-0.1c-0.5-0.2-0.9-0.3-1.2-0.5  c-0.3-0.1-0.6-0.3-0.9-0.6c-0.3-0.2-0.5-0.6-0.6-0.9c-0.2-0.4-0.2-0.8-0.2-1.4c0-1,0.4-1.9,1.1-2.4s1.7-0.8,2.9-0.8  c0.9,0,1.6,0.1,2.1,0.4s0.9,0.6,1.2,0.9c0.3,0.4,0.4,0.8,0.5,1.1c0.1,0.4,0.1,0.8,0.1,1.3L135.5,10.6L135.5,10.6L135.5,10.6z   M141.4,13.3V15c0,0,0.1,0.9,0.3,1.4c0.2,0.5,0.4,0.8,0.7,1.1s0.8,0.4,1.3,0.4c0.4,0,0.8-0.1,1.1-0.3s0.5-0.5,0.7-0.8l0.3-0.8  c0.1-0.3,0.1-0.6,0.1-0.8h2c0,0.4-0.1,0.8-0.2,1.2c-0.1,0.5-0.4,0.9-0.7,1.4s-0.7,0.8-1.3,1.1s-1.2,0.5-2.1,0.5  c-1.5,0-2.6-0.5-3.3-1.5s-1-2.5-1-4.6c0-0.8,0.1-1.6,0.2-2.3c0.1-0.8,0.3-1.4,0.6-2c0.3-0.6,0.8-1.1,1.4-1.5s1.4-0.6,2.3-0.6  s1.6,0.2,2.2,0.5c0.6,0.4,1,0.8,1.3,1.3c0.3,0.6,0.5,1.1,0.6,1.8c0.1,0.7,0.1,1.3,0.1,2.1v0.8L141.4,13.3L141.4,13.3z M145.9,11.8  v-0.7c0-0.4,0-0.8-0.1-1c-0.1-0.4-0.2-0.7-0.4-0.9c-0.2-0.3-0.4-0.5-0.7-0.7c-0.3-0.2-0.6-0.3-1-0.3c-0.5,0-0.9,0.1-1.2,0.4  c-0.3,0.3-0.5,0.6-0.7,0.8c-0.2,0.4-0.3,0.7-0.3,1c-0.1,0.4-0.1,0.7-0.1,0.8v0.5C141.4,11.8,145.9,11.8,145.9,11.8z M156.1,3.2h4.3  c0.6,0,1.1,0,1.6,0.1c0.5,0.1,1,0.3,1.6,0.6c0.6,0.3,1,0.8,1.4,1.4s0.6,1.5,0.6,2.5c0,1.4-0.4,2.5-1.3,3.4s-2.1,1.2-3.5,1.2h-2.6  v6.7h-2.1L156.1,3.2L156.1,3.2z M158.1,10.7h2.5c0.8,0,1.5-0.3,2-0.8c0.5-0.6,0.8-1.3,0.8-2.2s-0.2-1.6-0.7-2.1  c-0.5-0.5-1.2-0.8-2.2-0.8h-2.3L158.1,10.7L158.1,10.7L158.1,10.7z M166.5,10.6c0.1-0.8,0.4-1.4,0.7-2c0.3-0.6,0.8-1,1.4-1.3  c0.6-0.3,1.3-0.5,2.2-0.5c0.9,0,1.6,0.2,2.2,0.5c0.6,0.3,1.1,0.8,1.4,1.3s0.6,1.2,0.7,2c0.1,0.8,0.2,1.5,0.2,2.4s-0.1,1.7-0.2,2.4  c-0.1,0.8-0.4,1.4-0.7,2c-0.3,0.6-0.8,1-1.4,1.3c-0.6,0.3-1.3,0.5-2.2,0.5c-0.9,0-1.6-0.2-2.2-0.5s-1.1-0.8-1.4-1.3s-0.6-1.2-0.7-2  c-0.1-0.8-0.2-1.5-0.2-2.4C166.3,12.1,166.3,11.3,166.5,10.6z M172,17.4c0.3-0.3,0.6-0.6,0.8-1c0.2-0.5,0.3-0.9,0.4-1.5  c0.1-0.6,0.1-1.2,0.1-1.9s0-1.3-0.1-1.9s-0.2-1-0.4-1.5s-0.4-0.8-0.8-1c-0.3-0.3-0.8-0.4-1.3-0.4c-0.5,0-0.9,0.1-1.2,0.4  c-0.3,0.3-0.6,0.6-0.7,1c-0.2,0.5-0.3,0.9-0.4,1.5c-0.1,0.6-0.1,1.2-0.1,1.9s0,1.3,0.1,1.9s0.2,1,0.4,1.5c0.2,0.5,0.4,0.8,0.7,1  s0.7,0.4,1.2,0.4C171.3,17.8,171.7,17.7,172,17.4z M177.4,7.2h2V9c0.3-0.7,0.7-1.1,1.1-1.5s1-0.6,1.6-0.6c0.4,0,0.7,0,0.9,0.1v1.8  h-0.1L182,8.7c-0.3,0-0.5,0.1-0.8,0.2s-0.6,0.3-0.8,0.6c-0.3,0.3-0.5,0.6-0.6,0.8c-0.2,0.4-0.2,0.8-0.2,1.2V19h-2V7.2H177.4  L177.4,7.2z M185.1,3.7h2v3.5h2.2v1.4h-2.2v7.6c0,0.5,0.1,0.8,0.3,1c0.2,0.2,0.5,0.3,1,0.3h0.8V19c-0.5,0.1-1,0.1-1.6,0.1  c-1,0-1.6-0.2-2-0.6s-0.5-0.9-0.5-1.8V8.6h-1.8V7.2h1.8L185.1,3.7L185.1,3.7z M190.4,10.7c0-1.3,0.3-2.3,1-2.9  c0.7-0.6,1.7-0.9,3.2-0.9c0.9,0,1.6,0.1,2.2,0.4c0.5,0.2,0.9,0.5,1.1,0.8c0.2,0.4,0.4,0.7,0.4,1c0.1,0.4,0.1,0.8,0.1,1.2v6.6  c0,0.3,0,0.6,0.1,0.8c0.1,0.2,0.2,0.2,0.5,0.2c0.2,0,0.4,0,0.5-0.1v1.3l-0.5,0.1h-1.2c-0.1,0-0.4-0.1-0.5-0.2  c-0.1-0.1-0.3-0.3-0.4-0.5s-0.2-0.5-0.2-0.8c-0.3,0.5-0.7,0.9-1.3,1.2s-1.1,0.5-1.7,0.5c-1.1,0-2-0.3-2.6-0.9  c-0.6-0.6-0.9-1.4-0.9-2.5c0-0.8,0.2-1.5,0.6-2.1s1-0.9,1.8-1.1l2.6-0.8c0.7-0.2,1.1-0.4,1.2-0.7c0.1-0.2,0.2-0.6,0.2-1.1  c0-1.1-0.7-1.8-2-1.8c-0.5,0-0.9,0.1-1.2,0.3c-0.3,0.2-0.5,0.4-0.7,0.7s-0.2,0.5-0.2,0.8v0.8L190.4,10.7L190.4,10.7L190.4,10.7z   M196.3,12.5c-0.2,0.2-0.4,0.4-0.7,0.5c-0.3,0.1-0.7,0.3-1.2,0.4c-0.7,0.2-1.1,0.4-1.4,0.5c-0.3,0.2-0.6,0.5-0.7,0.8  c-0.2,0.3-0.2,0.7-0.2,1.1c0,0.7,0.1,1.1,0.4,1.5s0.7,0.6,1.4,0.6s1.2-0.2,1.8-0.7c0.6-0.5,0.8-0.9,0.8-1.6v-3L196.3,12.5  L196.3,12.5z M201.2,3.2h2v15.6h-2C201.2,18.9,201.2,3.2,201.2,3.2z"/>
</svg>