<svg width="30" height="30" viewBox="0 0 30 30" fill="none" xmlns="http://www.w3.org/2000/svg">
<rect width="30" height="30" fill="#F2F3F3"/>
<path d="M24 19.0605L21.3105 16.3711C21.1713 16.2319 21.0061 16.1212 20.8242 16.0459C20.6878 15.9894 20.5439 15.9539 20.3975 15.9395L20.25 15.9316C20.053 15.9316 19.8578 15.9705 19.6758 16.0459C19.4939 16.1212 19.3287 16.2319 19.1895 16.3711L18.3105 17.25L19.2803 18.2197C19.5732 18.5126 19.5732 18.9874 19.2803 19.2803C18.9874 19.5732 18.5126 19.5732 18.2197 19.2803L13.0605 14.1211C12.9213 13.9819 12.7561 13.8712 12.5742 13.7959C12.3922 13.7205 12.197 13.6816 12 13.6816C11.803 13.6816 11.6078 13.7205 11.4258 13.7959C11.2439 13.8712 11.0787 13.9819 10.9395 14.1211L6 19.0605V21C6 21.1989 6.07907 21.3896 6.21973 21.5303C6.36038 21.6709 6.55109 21.75 6.75 21.75H23.25C23.4489 21.75 23.6396 21.6709 23.7803 21.5303C23.9209 21.3896 24 21.1989 24 21V19.0605ZM17.25 10.125C17.5111 10.125 17.7627 10.2159 17.9629 10.3799L18.0459 10.4541L18.1201 10.5371C18.2841 10.7373 18.375 10.9889 18.375 11.25C18.375 11.5484 18.2569 11.8349 18.0459 12.0459C17.8349 12.2569 17.5484 12.375 17.25 12.375C16.9516 12.375 16.6651 12.2569 16.4541 12.0459C16.2431 11.8349 16.125 11.5484 16.125 11.25C16.125 10.9516 16.2431 10.6651 16.4541 10.4541C16.6651 10.2431 16.9516 10.125 17.25 10.125ZM24 9C24 8.80109 23.9209 8.61038 23.7803 8.46973C23.6396 8.32907 23.4489 8.25 23.25 8.25H6.75C6.55109 8.25 6.36038 8.32907 6.21973 8.46973C6.07907 8.61038 6 8.80109 6 9V16.9395L9.87891 13.0605C10.1574 12.7821 10.4878 12.5609 10.8516 12.4102C11.2155 12.2594 11.606 12.1816 12 12.1816L12.2939 12.1963C12.5871 12.2252 12.8753 12.297 13.1484 12.4102C13.5122 12.5609 13.8426 12.7821 14.1211 13.0605L17.25 16.1895L18.1289 15.3105C18.4074 15.0321 18.7378 14.8109 19.1016 14.6602C19.4655 14.5094 19.856 14.4316 20.25 14.4316L20.5439 14.4463C20.8371 14.4752 21.1253 14.547 21.3984 14.6602C21.7622 14.8109 22.0926 15.0321 22.3711 15.3105L24 16.9395V9ZM25.5 21C25.5 21.5967 25.2628 22.1689 24.8408 22.5908C24.4189 23.0128 23.8467 23.25 23.25 23.25H6.75C6.15326 23.25 5.58114 23.0128 5.15918 22.5908C4.73722 22.1689 4.5 21.5967 4.5 21V9C4.5 8.40326 4.73722 7.83114 5.15918 7.40918C5.58114 6.98722 6.15326 6.75 6.75 6.75H23.25C23.8467 6.75 24.4189 6.98722 24.8408 7.40918C25.2628 7.83114 25.5 8.40326 25.5 9V21Z" fill="#C3C3C5"/>
</svg>
