<?xml version="1.0" encoding="utf-8"?>
<!-- Generator: Adobe Illustrator 24.0.1, SVG Export Plug-In . SVG Version: 6.00 Build 0)  -->
<svg version="1.1" id="Layer_1" xmlns="http://www.w3.org/2000/svg" xmlns:xlink="http://www.w3.org/1999/xlink" x="0px" y="0px"
	 viewBox="0 0 841.89 595.28" style="enable-background:new 0 0 841.89 595.28;" xml:space="preserve">
<style type="text/css">
	.st0{stroke:#000000;stroke-width:1.5;stroke-miterlimit:10;}
</style>
<g>
	<g>
		<g>
			<g>
				<path d="M248.33,326.06v-14.3c-12.21,12.22-23.55,16.09-43.82,16.09c-21.17,0-33.09-3.59-42.33-13.12
					c-6.55-6.85-10.43-17.28-10.43-28.02c0-26.23,18.78-41.44,50.08-41.44h46.5v-16.1c0-22.95-11.33-35.17-40.54-35.17
					c-20.27,0-30.71,5.07-39.65,18.19l-11.03-9.54c12.23-17,27.43-22.06,50.68-22.06c37.86,0,55.75,17,55.75,47.1v98.37H248.33z
					 M248.33,257.49h-44.71c-24.74,0-36.66,9.84-36.66,28.92c0,19.08,11.63,28.02,37.56,28.02c13.11,0,25.64-1.2,35.77-11.03
					c5.37-5.07,8.05-14.01,8.05-27.43V257.49z"/>
				<path d="M358.3,326.06c-22.66,0-34.58-15.8-34.58-37.56V193.7h-19.68v-11.33h19.68v-45.9h15.21v45.9h32.49v11.33h-32.49v95.1
					c0,14.9,6.85,23.85,22.06,23.85h10.43v13.41H358.3z"/>
				<path d="M512.4,326.06v-89.14c0-27.72-14.01-42.92-39.64-42.92c-25.63,0-40.55,15.79-40.55,42.92v89.14h-15.2V113.8h15.2v85.55
					c10.74-12.52,25.05-18.77,42.34-18.77c32.8,0,53.06,20.57,53.06,53.66v91.82H512.4z"/>
				<path d="M590.47,257.49c0,36.37,16.4,56.64,46.8,56.64c16.99,0,27.43-5.07,39.66-17.28l11.33,8.94
					c-14.61,14.61-28.02,22.07-51.87,22.07c-39.66,0-61.11-25.64-61.11-73.64c0-46.2,21.45-73.64,57.54-73.64
					c35.77,0,57.52,26.24,57.52,70.07v6.85H590.47z M670.07,218.14c-6.26-14.9-20.87-24.14-37.26-24.14c-16.4,0-31,9.24-37.28,24.14
					c-3.57,8.94-4.47,13.42-5.06,27.13h84.66C674.54,231.56,673.64,227.08,670.07,218.14 M636.68,150.17h-17.29l28.91-43.82h19.97
					L636.68,150.17z"/>
			</g>
			<g>
				<polygon points="168.73,409.51 159.38,382.26 151.75,382.26 165.75,420.62 171.71,420.62 185.72,382.26 178.1,382.26 				"/>
				<path d="M214.75,381.84c-6.64,0-10.61,1.75-13.71,6.06l-0.89,1.23l5.25,4.53l1.04-1.53c1.9-2.78,3.99-3.72,8.29-3.72
					c6.84,0,8.24,2.77,8.24,6.93v2.26h-9.69c-8.55,0-13.86,4.51-13.86,11.78c0,3.08,1.09,5.98,3.02,8c2.61,2.66,5.83,3.69,11.5,3.69
					c3.93,0,6.63-0.59,9.04-2.11v1.65H230v-25.64C230,386.51,224.58,381.84,214.75,381.84z M222.99,403.89v2.86
					c0,2.74-0.48,4.6-1.44,5.52c-1.92,1.84-4.24,2.2-7.6,2.2c-6.93,0-7.51-2.66-7.51-5.16c0-2.52,0.83-5.42,7.3-5.42H222.99z"/>
				<path d="M261.23,381.84c-3.31,0-6.22,0.85-8.67,2.53v-2.12h-7v38.36h7v-23.39c0-5.69,2.93-8.82,8.26-8.82
					c5.31,0,8.01,2.97,8.01,8.82v23.39h7.02v-24.06c0-4.51-1.43-8.29-4.14-10.92C269.11,383.12,265.58,381.84,261.23,381.84z"/>
				<path d="M316.28,410.68c-2.8,2.79-4.94,3.73-8.51,3.73c-7.28,0-9.37-5.39-9.71-10.52h24.33v-3.33c0-11.55-6.02-18.72-15.7-18.72
					c-9.68,0-15.69,7.51-15.69,19.6c0,12.66,5.88,19.63,16.56,19.63c6.6,0,10.19-2.25,13.83-5.88l1.33-1.32l-5.4-4.23L316.28,410.68
					z M298.11,397.6c0.14-1.84,0.38-2.73,1.02-4.31c1.24-2.96,4.21-4.88,7.56-4.88c3.36,0,6.32,1.91,7.54,4.87
					c0.64,1.58,0.89,2.48,1.03,4.32H298.11z"/>
				<path d="M356.69,398.2l-5.67-0.52c-5.18-0.44-5.61-2.4-5.61-4.21c0-4.24,3.96-5.13,7.28-5.13c3.44,0,6.42,0.9,8.86,2.66
					l1.14,0.83l4.79-4.81l-1.49-1.15c-3.34-2.57-8.19-4.04-13.3-4.04c-8.51,0-14.23,4.67-14.23,11.62c0,4.46,2.09,9.96,12.07,10.8
					l5.77,0.49c4.34,0.42,5.21,1.95,5.21,4.27c0,3.62-2.99,5.45-8.89,5.45c-4.58,0-7.85-1.2-10.31-3.76l-1.17-1.22l-4.94,4.94
					l1.22,1.17c3.91,3.74,8.79,5.48,15.36,5.48c9.51,0,15.65-4.73,15.65-12.06C368.44,400.24,361.73,398.64,356.69,398.2z"/>
				<path d="M402.66,398.2l-5.69-0.52c-5.18-0.44-5.61-2.4-5.61-4.21c0-4.24,3.96-5.13,7.29-5.13c3.45,0,6.43,0.9,8.86,2.66
					l1.14,0.83l4.82-4.81l-1.51-1.15c-3.36-2.57-8.21-4.04-13.32-4.04c-8.51,0-14.24,4.67-14.24,11.62c0,4.46,2.09,9.96,12.06,10.8
					l5.79,0.49c4.81,0.47,5.21,2.45,5.21,4.27c0,3.62-2.99,5.45-8.9,5.45c-4.58,0-7.85-1.19-10.29-3.76l-1.17-1.23l-4.92,4.94
					l1.21,1.17c3.88,3.74,8.75,5.49,15.33,5.49c9.53,0,15.68-4.73,15.68-12.06C414.42,400.24,407.7,398.64,402.66,398.2z"/>
				<path d="M444.68,381.84c-6.64,0-10.61,1.76-13.7,6.06l-0.88,1.22l5.22,4.55l1.05-1.54c1.9-2.78,4-3.72,8.31-3.72
					c6.82,0,8.22,2.77,8.22,6.93v2.26h-9.69c-8.56,0-13.87,4.51-13.87,11.78c0,3.01,1.12,6,3.02,7.99c2.58,2.66,5.81,3.7,11.52,3.7
					c3.91,0,6.61-0.59,9.02-2.11v1.66h7.06v-25.64C459.96,386.51,454.53,381.84,444.68,381.84z M451.43,412.28
					c-1.9,1.84-4.21,2.2-7.55,2.2c-6.93,0-7.51-2.66-7.51-5.16c0-2.52,0.83-5.42,7.31-5.42h9.23v2.86
					C452.9,409.49,452.41,411.35,451.43,412.28z"/>
				<path d="M491.13,381.84c-2.76,0-5.83,0.36-8.74,2.55v-18.86h-7.01v55.09h7.01v-2.12c2.91,2.21,5.98,2.58,8.74,2.58
					c3.87,0,7.51-1.33,9.74-3.55l0,0c3.32-3.32,5-8.73,5-16.07c0-7.35-1.68-12.76-5-16.07
					C498.64,383.13,495.09,381.84,491.13,381.84z M482.4,401.45c0-9.26,2.38-13.04,8.22-13.04c5.85,0,8.24,3.78,8.24,13.04
					c0,9.25-2.39,13.02-8.24,13.02C484.78,414.48,482.4,410.7,482.4,401.45z"/>
				<path d="M539.41,381.84c-3.24,0-6.28,0.96-8.62,2.64v-2.21h-7.03v38.35h7.03v-23.24c0-4.46,2.39-8.96,7.73-8.96
					c2.46,0,3.68,0.51,5.42,2.27l1.17,1.18l5.05-5.03l-1.16-1.17C546.38,383.02,543.42,381.84,539.41,381.84z"/>
				<path d="M590.71,405.65c0,5.69-2.92,8.82-8.23,8.82c-5.32,0-8.02-2.97-8.02-8.82v-23.4h-7.01v24.06c0,4.56,1.44,8.35,4.14,10.94
					c2.61,2.54,6.12,3.82,10.45,3.82c3.27,0,6.2-0.87,8.66-2.55v2.09h7.03v-38.36h-7.03V405.65z"/>
				<path d="M629.13,381.84c-3.32,0-6.23,0.85-8.69,2.53v-2.12h-7.01v38.36h7.01v-23.39c0-5.69,2.93-8.82,8.24-8.82
					c5.32,0,8.01,2.97,8.01,8.82v23.39h7.04v-24.06c0-4.51-1.44-8.29-4.15-10.91C637.01,383.12,633.5,381.84,629.13,381.84z"/>
				<path d="M685.5,386.18c-2.83-2.84-6.61-4.34-10.93-4.34s-8.09,1.5-10.91,4.34c-4.3,4.32-4.85,10.43-4.85,15.26
					c0,4.85,0.55,10.96,4.86,15.28c2.86,2.85,6.63,4.35,10.9,4.35s8.05-1.5,10.92-4.35l0,0c4.29-4.27,4.84-10.41,4.84-15.28
					C690.33,396.58,689.78,390.46,685.5,386.18z M668.48,390.9c1.6-1.6,3.76-2.48,6.09-2.48c2.34,0,4.51,0.88,6.1,2.48
					c2.45,2.47,2.66,6.74,2.66,10.55c0,3.82-0.2,8.1-2.65,10.55c-3.19,3.19-8.98,3.21-12.2,0c-2.43-2.43-2.63-6.72-2.63-10.55
					C665.84,397.62,666.05,393.34,668.48,390.9z"/>
			</g>
		</g>
	</g>
	<g>
		<path class="st0" d="M436.83,485.42c-1.7,0.89-5.48,2.07-10.29,2.07c-10.8,0-17.83-7.33-17.83-18.28
			c0-11.03,7.55-19.02,19.24-19.02c3.85,0,7.25,0.96,9.03,1.85l-1.48,5.03c-1.55-0.89-4-1.7-7.55-1.7
			c-8.21,0-12.66,6.07-12.66,13.54c0,8.29,5.33,13.39,12.43,13.39c3.7,0,6.14-0.96,7.99-1.78L436.83,485.42z"/>
		<path class="st0" d="M476.94,485.42c-1.7,0.89-5.48,2.07-10.29,2.07c-10.8,0-17.84-7.33-17.84-18.28
			c0-11.03,7.55-19.02,19.24-19.02c3.85,0,7.25,0.96,9.03,1.85l-1.48,5.03c-1.55-0.89-4-1.7-7.55-1.7
			c-8.21,0-12.66,6.07-12.66,13.54c0,8.29,5.33,13.39,12.43,13.39c3.7,0,6.14-0.96,7.99-1.78L476.94,485.42z"/>
		<path d="M380.33,449.52c-6.64,0-10.61,1.76-13.7,6.06l-0.88,1.22l5.22,4.55l1.05-1.54c1.9-2.78,4-3.72,8.31-3.72
			c6.82,0,8.22,2.77,8.22,6.93v2.26h-9.69c-8.56,0-13.87,4.51-13.87,11.78c0,3.01,1.12,6,3.02,7.99c2.58,2.66,5.81,3.7,11.52,3.7
			c3.91,0,6.61-0.59,9.02-2.11v1.66h7.06v-25.64C395.61,454.18,390.19,449.52,380.33,449.52z M387.09,479.95
			c-1.9,1.84-4.21,2.2-7.55,2.2c-6.93,0-7.51-2.66-7.51-5.16c0-2.52,0.83-5.42,7.31-5.42h9.23v2.86
			C388.55,477.17,388.06,479.02,387.09,479.95z"/>
	</g>
</g>
</svg>
