<?xml version="1.0" encoding="utf-8"?>
<!-- Generator: Adobe Illustrator 16.0.0, SVG Export Plug-In . SVG Version: 6.00 Build 0)  -->
<!DOCTYPE svg PUBLIC "-//W3C//DTD SVG 1.1//EN" "http://www.w3.org/Graphics/SVG/1.1/DTD/svg11.dtd">
<svg version="1.1" id="Layer_1" xmlns="http://www.w3.org/2000/svg" xmlns:xlink="http://www.w3.org/1999/xlink" x="0px" y="0px"
	 width="46.732px" height="23.107px" viewBox="0 0 46.732 23.107" enable-background="new 0 0 46.732 23.107" xml:space="preserve">
<g>
	<path fill="#231F20" d="M20.223,11.198c-0.238-0.248-0.506-0.411-0.781-0.411c-0.754,0-1.209,0.592-1.209,1.236
		s0.454,1.234,1.209,1.234c0.318,0,0.612-0.137,0.8-0.387l0.685,0.737c-0.421,0.421-1.124,0.573-1.484,0.573
		c-1.241,0-2.238-0.864-2.238-2.159c0-1.296,0.997-2.162,2.238-2.162c0.525,0,1.099,0.188,1.493,0.625L20.223,11.198z M24.005,9.862
		c1.243,0,2.237,0.866,2.237,2.162c0,1.295-0.994,2.159-2.237,2.159c-1.245,0-2.238-0.864-2.238-2.159
		C21.767,10.727,22.76,9.862,24.005,9.862z M24.005,13.258c0.755,0,1.21-0.592,1.21-1.234c0-0.644-0.455-1.236-1.21-1.236
		s-1.21,0.592-1.21,1.236C22.795,12.666,23.249,13.258,24.005,13.258z M27.631,9.965h1.028v0.651h0.018
		c0.222-0.471,0.679-0.754,1.219-0.754c0.127,0,0.248,0.025,0.368,0.06v0.995c-0.17-0.042-0.335-0.076-0.497-0.076
		c-0.971,0-1.107,0.815-1.107,1.038v2.203h-1.028V9.965z M31.546,9.965h0.979v0.66h0.017c0.188-0.412,0.575-0.763,1.26-0.763
		c1.108,0,1.501,0.78,1.501,1.621v2.598h-1.028v-2.083c0-0.454-0.033-1.209-0.753-1.209c-0.679,0-0.945,0.498-0.945,1.047v2.246
		h-1.029V9.965L31.546,9.965z M37.722,12.382c0.068,0.61,0.53,0.978,1.104,0.978c0.516,0,0.849-0.238,1.106-0.557l0.738,0.557
		c-0.48,0.593-1.09,0.822-1.74,0.822c-1.244,0-2.239-0.864-2.239-2.159c0-1.296,0.995-2.162,2.239-2.162
		c1.148,0,1.929,0.805,1.929,2.237v0.283H37.722z M39.83,11.611c-0.01-0.599-0.403-0.977-1.048-0.977
		c-0.609,0-0.986,0.386-1.061,0.977H39.83z M42.247,9.965h1.027v0.651h0.019c0.224-0.471,0.677-0.754,1.217-0.754
		c0.129,0,0.248,0.025,0.37,0.06v0.995c-0.172-0.042-0.337-0.076-0.497-0.076c-0.97,0-1.108,0.815-1.108,1.038v2.203h-1.027V9.965
		L42.247,9.965z M5.748,14.243c-0.035-0.216-0.063-0.487-0.063-0.73v-1.843c0-0.614-0.133-1.089-0.441-1.41
		c-0.31-0.32-0.781-0.475-1.425-0.475c-0.635,0-1.296,0.216-1.753,0.681l-0.049,0.046l0.049,0.05l0.493,0.518l0.051-0.046
		c0.323-0.296,0.785-0.449,1.228-0.447c0.651,0.006,0.987,0.284,0.995,0.874v0.059H4.627c-1.045,0-2.761,0.073-2.774,1.573
		c0.002,0.883,0.775,1.341,1.664,1.343h0.005c0.598,0,1.058-0.257,1.359-0.634c0.004,0.154,0.013,0.328,0.046,0.47l0.014,0.054
		h0.823L5.748,14.243L5.748,14.243z M4.833,12.262v0.205c-0.025,0.67-0.41,1.221-1.194,1.223c-0.531-0.007-0.874-0.179-0.876-0.672
		c0.004-0.514,0.52-0.754,1.424-0.756H4.833z M12.708,13.477l-0.096,0.051c-0.174,0.092-0.391,0.135-0.585,0.135
		c-0.562-0.007-0.546-0.347-0.557-0.896v-2.023h1.234v-0.725H11.47V8.83h-0.832v1.188H9.726v0.725h0.913v2.228
		c0.002,0.438,0.037,0.8,0.216,1.064c0.178,0.266,0.496,0.407,0.998,0.407h0.004c0.269,0,0.586-0.046,0.841-0.16l0.042-0.017
		L12.708,13.477z"/>
	<circle fill="#231F20" cx="7.347" cy="13.523" r="0.652"/>
	<circle fill="#231F20" cx="14.588" cy="13.523" r="0.651"/>
</g>
</svg>
