<svg xmlns="http://www.w3.org/2000/svg" width="46.733" height="23.107" viewBox="0 0 46.733 23.107"><path fill-rule="evenodd" clip-rule="evenodd" fill="#231F20" d="M44.158 5.755c-.217-.225-.482-.335-.796-.335-.315 0-.581.11-.793.335-.217.225-.323.498-.323.829 0 .331.106.605.323.83.216.224.478.339.793.339.314 0 .579-.115.796-.339.217-.225.323-.499.323-.83 0-.331-.106-.604-.323-.829zm-2.864 3.619h.592l.253.049.119.102c.061.086.089.229.089.429v2.978c0 .201-.028.343-.089.43-.07.098-.196.147-.372.147h-.552v1.074h4.135v-1.073h-.527c-.176 0-.303-.049-.372-.147-.062-.086-.09-.229-.09-.43v-4.629h-3.187v1.07h.001zm-1.961-.253c-.217.041-.38.13-.494.269-.119.143-.176.323-.176.548 0 .294.102.519.31.678.184.139.425.209.715.209.291 0 .54-.127.744-.38.192-.241.286-.511.286-.813 0-.397-.119-.74-.36-1.022l-.073-.078c-.282-.289-.625-.432-1.03-.432-.351 0-.666.131-.94.396l-.105.115c-.184.204-.335.458-.457.764h-.025v-1.07h-3.032v1.07h.527c.176 0 .303.049.372.151.061.086.089.229.089.429v2.978c0 .201-.028.343-.089.43-.07.098-.196.147-.372.147h-.527v1.074h4.11v-1.074h-.527c-.176 0-.303-.049-.372-.147-.061-.086-.09-.229-.09-.43v-2.402c0-.364.102-.703.302-1.026.225-.356.49-.531.801-.531l.22.025c.07.021.132.061.193.122zm-7.387.054c.201-.242.421-.36.662-.36l.237.028.208.049c-.241.208-.36.429-.36.67 0 .221.066.401.197.544.13.147.302.221.51.221.298 0 .527-.082.694-.249.168-.171.253-.408.253-.715 0-.294-.086-.544-.253-.752l-.18-.18c-.268-.221-.591-.331-.963-.331-.462 0-.899.172-1.308.511l-.106.094-.159-.094c-.6-.339-1.201-.511-1.794-.511-.707 0-1.315.172-1.83.511l-.098.065c-.613.437-.919 1.034-.919 1.786 0 .487.069.891.208 1.217.143.327.364.601.662.826-.384.159-.654.323-.805.49-.2.212-.298.507-.298.879 0 .277.102.531.306.76.18.204.405.355.67.449v.025c-.298.057-.543.159-.727.302-.234.184-.352.417-.352.707 0 .878 1.079 1.315 3.236 1.315 1.16 0 2.035-.127 2.623-.38.748-.319 1.124-.862 1.124-1.634 0-.633-.237-1.091-.707-1.365-.364-.208-.874-.314-1.536-.314h-2.606c-.135 0-.274-.036-.409-.114-.167-.094-.249-.216-.249-.367 0-.094.029-.18.081-.257.049-.07.106-.111.176-.131.36.151.797.225 1.311.225.854 0 1.545-.204 2.072-.609.588-.45.883-1.091.883-1.924 0-.399-.151-.86-.454-1.387zm-2.97.212c.123-.31.319-.465.584-.465.266 0 .462.155.584.465.106.274.16.679.16 1.214 0 .531-.054.931-.16 1.204-.123.307-.319.458-.584.458-.265 0-.461-.151-.584-.458-.106-.274-.159-.674-.159-1.204-.001-.536.052-.941.159-1.214zm2.897 6.594c0 .184-.188.327-.564.421-.339.086-.801.131-1.377.131s-1.034-.045-1.373-.131c-.375-.094-.564-.237-.564-.421 0-.217.188-.367.564-.454.295-.065.752-.097 1.373-.097.625 0 1.083.032 1.377.097.376.087.564.237.564.454zm-7.698-7.37c-.503-.339-1.111-.511-1.826-.511-.715 0-1.328.172-1.846.511-.168.11-.323.237-.466.38-.625.618-.935 1.435-.935 2.451 0 1.058.265 1.871.801 2.448.555.596 1.373.895 2.447.895.764 0 1.43-.184 1.99-.548.641-.42 1.009-1.005 1.103-1.761h-1.487c-.054.364-.225.654-.523.875-.249.187-.511.282-.776.282-.49 0-.837-.196-1.046-.589-.159-.298-.236-.731-.236-1.292h4.237c0-1.079-.282-1.948-.845-2.61-.179-.209-.376-.384-.592-.531zm-1.087.882c.168.209.25.487.25.834v.351h-1.941v-.351c0-.347.086-.625.253-.834.175-.212.416-.319.723-.319.303 0 .54.107.715.319zm-8.31-2.733c.176 0 .302.049.372.147.061.086.09.229.09.429v5.598c0 .201-.029.343-.09.43-.07.098-.196.147-.372.147h-.551v1.074h4.135v-1.075h-.527c-.175 0-.302-.049-.372-.147-.061-.086-.09-.229-.09-.43v-7.248h-3.187v1.075h.592zm-4.993 0c.179 0 .303.049.372.147.061.086.09.229.09.429v5.598c0 .201-.029.343-.09.43-.069.098-.193.147-.372.147h-.551v1.074h4.134v-1.075h-.527c-.175 0-.302-.049-.371-.147-.061-.086-.09-.229-.09-.43v-7.248h-3.183v1.075h.588zm-1.148 6.267v-.74h-.707v.311c0 .359-.037.608-.106.747-.061.119-.168.18-.319.18-.098 0-.164-.041-.196-.123-.029-.073-.045-.212-.045-.416v-2.496c0-.928-.233-1.573-.695-1.928-.4-.307-1.074-.462-2.018-.462-.748 0-1.377.098-1.88.294-.73.287-1.098.756-1.098 1.414 0 .306.111.547.335.731.209.175.47.261.785.261.282 0 .515-.065.699-.2.208-.156.315-.372.315-.646 0-.216-.086-.393-.262-.527-.143-.11-.326-.184-.547-.212v-.028c.256-.167.595-.254 1.012-.254.83 0 1.246.392 1.246 1.181 0 .384-.2.658-.597.822-.167.069-.605.164-1.307.286-.604.102-1.042.249-1.311.433-.396.274-.597.695-.597 1.263 0 .658.176 1.143.532 1.45.322.278.801.417 1.441.417.421 0 .788-.078 1.107-.229.319-.151.609-.392.874-.722.098.306.286.547.56.719.25.155.539.233.862.233.719 0 1.218-.127 1.491-.376.283-.255.426-.716.426-1.383zm-4.568-1.07l.544-.229c.233-.094.405-.176.519-.245v.915c0 .327-.061.584-.188.776-.159.233-.404.351-.739.351-.217 0-.389-.057-.515-.172-.143-.127-.217-.323-.217-.58-.001-.343.2-.616.596-.816z"/></svg>