<?xml version="1.0" encoding="utf-8"?>
<!-- Generator: Adobe Illustrator 16.0.0, SVG Export Plug-In . SVG Version: 6.00 Build 0)  -->
<!DOCTYPE svg PUBLIC "-//W3C//DTD SVG 1.1//EN" "http://www.w3.org/Graphics/SVG/1.1/DTD/svg11.dtd">
<svg version="1.1" id="Layer_1" xmlns="http://www.w3.org/2000/svg" xmlns:xlink="http://www.w3.org/1999/xlink" x="0px" y="0px"
	 width="46.732px" height="23.107px" viewBox="0 0 46.732 23.107" enable-background="new 0 0 46.732 23.107" xml:space="preserve">
<g>
	<path fill-rule="evenodd" clip-rule="evenodd" fill="#000003" d="M18.016,5.352c0.309,0.031,0.685,0.029,0.961,0.15
		c0.093,0.041,0.336,0.1,0.383,0.187c0.013,0.065,0.023,0.131,0.035,0.196c0.078,0.147,0.155,0.294,0.232,0.44
		c0.066,0.091,0.203,0.125,0.289,0.198c0.044-0.015,0.086-0.031,0.128-0.046c0.091-0.656-0.997-0.661-0.567-1.507
		c0.24-0.475,1.082-0.83,1.738-0.604c0.318,0.11,0.588,0.299,0.869,0.475c0.281,0.176,0.592,0.321,0.871,0.5
		c1.234,0.788,2.962,2.044,4.486,0.672c0.176-0.156,0.352-0.439,0.406-0.707c0.025-0.117-0.007-0.269,0.035-0.371
		c-0.085-0.108-0.133-0.267-0.221-0.383c-0.136-0.178-0.391-0.229-0.626-0.313c0.047,0.063,0.167,0.073,0.232,0.116
		c0.236,0.158,0.419,0.356,0.498,0.673c0.057,0.226-0.076,0.391-0.128,0.521c-0.158,0.404-0.432,0.559-0.904,0.696
		c-0.106,0.031-0.233,0.089-0.358,0.046c-0.145,0.094-0.657,0.061-0.894-0.012c-1.031-0.317-1.723-0.94-2.598-1.38
		c-0.469-0.236-0.861-0.639-1.426-0.812c-0.242-0.074-0.451-0.043-0.684-0.058c-0.152,0.042-0.303,0.085-0.453,0.127
		c-0.464,0.194-0.781,0.478-0.928,1.009c-0.029,0.108-0.084,0.295-0.045,0.429c-0.191-0.026-0.373-0.148-0.569-0.198
		c-0.308-0.076-0.611-0.092-1.021-0.069C17.805,5.412,17.912,5.342,18.016,5.352z M19.836,6.292
		c-0.004,0.004-0.009,0.008-0.012,0.011c-0.174-0.035-0.367-0.379-0.359-0.557C19.636,5.842,19.824,6.044,19.836,6.292z"/>
	<path fill-rule="evenodd" clip-rule="evenodd" fill="#000003" d="M17.737,5.387c0-0.004,0-0.008,0-0.012
		c-0.023-0.034-0.011-0.03-0.059-0.046c0.005,0.016,0.009,0.031,0.013,0.046c-0.419,0.091-0.808,0.284-0.997,0.604
		c0.115-0.108,0.232-0.216,0.348-0.325C17.215,5.532,17.492,5.418,17.737,5.387z"/>
	<path fill-rule="evenodd" clip-rule="evenodd" fill="#000003" d="M16.682,6.036c-0.008,0-0.016,0-0.023,0
		C16.679,6.047,16.662,6.048,16.682,6.036z"/>
	<path fill-rule="evenodd" clip-rule="evenodd" fill="#000003" d="M39.409,7.115c0.377,0.026,0.762-0.039,1.194,0.104
		c0.66,0.219,1.259,0.512,1.773,0.939c0.045-0.077,0.322,0.189,0.359,0.232c0.15,0.142,0.302,0.286,0.452,0.429
		c0.05,0.073,0.101,0.146,0.151,0.219c0.13,0.132,0.291,0.199,0.382,0.36c0.216,0.382,0.396,0.789,0.568,1.228
		c0.003,0.005,0.003,0.009,0.004,0.013c-0.029-0.118-0.056-0.25-0.085-0.36c0.008-0.02,0.016-0.039,0.023-0.058
		c-0.204-0.397-0.346-0.79-0.638-1.184c-0.09-0.12-0.243-0.188-0.337-0.301c-0.709-0.862-1.687-1.569-2.829-1.89
		c-0.312-0.088-0.759-0.056-1.078-0.093c-0.288-0.033-0.503-0.032-0.777,0.023c-0.415,0.085-0.683,0.03-1.021,0.151
		c-0.641,0.231-1.317,0.599-1.982,0.812c-0.069,0.046-0.139,0.093-0.209,0.139c-0.377,0.16-0.859,0.384-1.229,0.429
		c-0.329,0.04-0.75,0.221-1.136,0.104c-0.308-0.093-0.573-0.268-0.847-0.36c-0.086-0.135-0.016-0.395-0.092-0.603
		c-0.155-0.423-0.381-1.098-0.917-1.182c-0.035,0.015-0.069,0.031-0.104,0.046c-0.033,0.111-0.026,0.246,0.008,0.388
		c0.001-0.002,0.003-0.004,0.005-0.005c0.007,0.003,0.015,0.007,0.022,0.011c-0.007,0.007-0.015,0.014-0.021,0.022
		c0.12,0.46,0.516,0.998,0.741,1.161c-0.065,0.426-0.836,1.054-1.357,0.893c-0.151-0.047-0.42-0.059-0.638-0.14
		c-0.458-0.168-1.027-0.723-1.287-1.124c-0.234-0.364-0.304-1.552,0.464-1.229c0.011,0,0.023,0,0.035,0c0-0.008,0-0.016,0-0.023
		c-0.101-0.03-0.151-0.079-0.278-0.081c-0.073,0.019-0.147,0.038-0.221,0.058c-0.412,0.245-0.179,1.095,0.023,1.414
		c0.351,0.556,0.812,0.988,1.414,1.311c0.091,0.048,0.267,0.052,0.384,0.104c0.278,0.127,1.002,0.02,1.193-0.139
		c0.144-0.12,0.236-0.276,0.349-0.429c0.064-0.088,0.151-0.172,0.161-0.313c0.114,0.031,0.153,0.135,0.244,0.186
		c0.274,0.152,0.611,0.357,0.928,0.348c0.062-0.002,0.273,0.141,0.324,0.104C35.627,8.591,37.141,6.955,39.409,7.115z M31.849,7.753
		c-0.008,0.004-0.016,0.007-0.023,0.011c-0.283-0.216-0.806-0.91-0.695-1.391c0.015-0.012,0.03-0.023,0.046-0.035
		C31.753,6.444,31.877,7.234,31.849,7.753z"/>
	<path fill-rule="evenodd" clip-rule="evenodd" fill="#000003" d="M44.558,12.947c0.13-0.52,0.008-1.643-0.244-2.076
		c0.015-0.007,0.031-0.015,0.046-0.023c-0.021-0.049-0.041-0.111-0.058-0.178c0.012,0.075-0.038,0.11-0.023,0.201
		c0.027,0.066,0.055,0.131,0.081,0.198c0.262,0.705,0.055,1.507-0.115,2.191c-0.491,1.97-2.45,3.464-4.396,3.885
		c-0.774,0.167-1.875-0.102-2.597-0.291c-0.064,0.022-0.543-0.109-0.638-0.15c-0.276-0.116-0.612-0.364-0.904-0.44
		c0.386,0.385,0.927,0.521,1.483,0.742c0.446,0.178,1.494,0.471,2.111,0.429c0.278-0.018,0.776,0.097,1.009-0.022
		c0.299-0.154,0.724-0.254,1.09-0.383c0.642-0.227,1.688-1.039,2.052-1.554c0.33-0.466,0.765-0.938,0.963-1.555
		c-0.021-0.044,0.155-0.929,0.186-0.974C44.587,12.947,44.573,12.947,44.558,12.947z"/>
	<path fill-rule="evenodd" clip-rule="evenodd" fill="#000003" d="M22.665,6.535c0-0.012,0-0.023,0-0.035
		c-0.062-0.019-0.124-0.039-0.187-0.058c-0.014,0.034-0.011,0.024-0.011,0.058C22.533,6.512,22.6,6.524,22.665,6.535z"/>
	<path fill-rule="evenodd" clip-rule="evenodd" fill="#000003" d="M22.723,6.582c0.008-0.015,0.016-0.031,0.023-0.046
		c-0.012,0-0.023,0-0.035,0c-0.004,0.011-0.008,0.023-0.012,0.034C22.707,6.573,22.715,6.577,22.723,6.582z"/>
	<path fill-rule="evenodd" clip-rule="evenodd" fill="#000003" d="M22.793,6.64c0.007-0.012,0.015-0.023,0.023-0.035
		c-0.02-0.012-0.04-0.023-0.059-0.035C22.77,6.593,22.781,6.617,22.793,6.64z"/>
	<path fill-rule="evenodd" clip-rule="evenodd" fill="#000003" d="M23.094,7.045c0.004-0.007,0.008-0.015,0.012-0.023
		c-0.014-0.161-0.157-0.338-0.279-0.394c-0.004,0.008-0.006,0.016-0.01,0.023c0.102,0.121,0.207,0.204,0.254,0.383
		C23.078,7.038,23.086,7.042,23.094,7.045z"/>
	<path fill-rule="evenodd" clip-rule="evenodd" fill="#000003" d="M31.036,6.709c0.005,0.008,0.009,0.015,0.013,0.023l0.001-0.001
		c-0.002-0.01-0.004-0.019-0.006-0.028C31.041,6.705,31.039,6.707,31.036,6.709z"/>
	<path fill-rule="evenodd" clip-rule="evenodd" fill="#000003" d="M18.549,8.553c0.131,0.052,0.961,0.294,0.996,0.267
		c0.557,0.056,1.351,0.208,1.659,0.046c0.078-0.042,0.274-0.053,0.336-0.046c0.099-0.063,0.263-0.104,0.382-0.14
		c0.055-0.039,0.108-0.077,0.162-0.116c0.604-0.248,1.197-0.69,1.057-1.484c-0.012-0.008-0.023-0.015-0.035-0.023
		c-0.004,0.008-0.008,0.015-0.012,0.023c-0.012,0.116,0.044,0.245,0.012,0.371c-0.15,0.599-0.609,0.848-1.148,1.032
		c-0.111,0.039-0.32,0.157-0.487,0.127c-0.472-0.085-1.1,0.089-1.727-0.15c-0.167-0.031-0.333-0.062-0.499-0.092
		c-0.621-0.304-1.24-0.592-1.879-0.881c-0.398-0.181-0.885-0.335-1.299-0.406c-0.15-0.026-0.426,0.126-0.463,0
		c-0.094,0.031-0.186,0.063-0.279,0.093c-0.076,0-0.154,0-0.23,0c-0.336,0.119-0.827,0.268-1.103,0.499
		c-0.163,0.136-0.283,0.309-0.429,0.463c-0.107,0.115-0.26,0.255-0.313,0.418c-0.019,0.015-0.038,0.03-0.057,0.046
		c-0.312-0.261-0.458-0.645-0.835-0.835c-0.516-0.26-1.204-0.562-1.786-0.695C9.94,6.924,9.129,7.033,8.519,6.918
		c-0.13,0.078-0.944,0.056-1.09,0.093C7.32,7.038,7.182,7.102,7.058,7.138C6.951,7.1,6.51,7.199,6.396,7.242
		C5.907,7.43,5.391,7.651,4.924,7.88C4.813,7.935,4.612,7.919,4.507,7.996c-0.484,0.353-0.984,0.707-1.38,1.17
		C3.069,9.275,3.011,9.384,2.952,9.492c-0.25,0.368-0.469,0.778-0.648,1.229c-0.155,0.388-0.217,0.985-0.163,1.438
		c0.014,0.122,0.061,0.289,0.046,0.395c-0.03,0.218,0.033,0.481,0.081,0.66c0.104,0.395,0.074,0.723,0.231,1.078
		c0.058,0.132,0.185,0.251,0.256,0.361c0.093,0.144,0.115,0.322,0.208,0.463c0.264,0.401,0.572,0.724,0.951,1.009
		c0.146,0.15,0.294,0.301,0.44,0.451c0.47,0.293,1.068,0.563,1.658,0.72c0.113,0.004,0.224,0.009,0.336,0.013
		c0.195,0.042,0.42,0.12,0.557,0.172c0.108-0.004,0.217-0.008,0.325-0.01c0.291,0.074,0.784,0.099,1.102,0.046
		c0.209-0.036,0.515-0.132,0.661-0.058c0.015-0.024,0.03-0.047,0.046-0.07c0.775-0.026,1.338-0.529,1.867-0.938
		c0.133-0.104,0.339-0.219,0.417-0.371c-0.228,0.102-0.377,0.255-0.58,0.371c-0.423,0.242-0.919,0.391-1.461,0.509
		c-0.424,0.093-0.998,0.057-1.38,0.024c-0.198,0.014-0.395,0.03-0.592,0.046c-0.214-0.088-0.367-0.088-0.65-0.046
		c-0.111-0.196-0.478-0.164-0.73-0.232c-0.453-0.123-0.917-0.207-1.287-0.43c-1.377-0.828-2.272-2.037-2.413-4.012
		c-0.002-0.04-0.004-0.08-0.006-0.12c-0.002,0.012-0.005,0.014-0.017,0.028c0,0.007,0,0.015,0,0.022
		c-0.004-0.047-0.007-0.093-0.011-0.14c0.015,0.014,0.02,0.023,0.026,0.037C2.172,10.345,3.28,8.858,4.541,8.228
		c0.128-0.064,0.291-0.084,0.406-0.127C5.09,8.048,5.226,7.895,5.4,7.857c0.109-0.024,0.27-0.032,0.394-0.093
		C6.489,7.422,8.073,7.217,8.89,7.336C9.045,7.328,9.199,7.32,9.353,7.312c0.231,0.023,0.431,0.055,0.603,0.093
		c0.097-0.004,0.193-0.008,0.29-0.012c0.031,0.016,0.063,0.031,0.093,0.047c0.042-0.012,0.085-0.024,0.127-0.035
		c0.278,0.058,0.528,0.152,0.731,0.244c0.122,0.055,0.274-0.014,0.428,0.046c0.629,0.245,1.107,0.574,1.519,1.032
		c-0.023,0.176-0.108,0.313-0.162,0.452c-0.244,0.637-0.021,1.503,0.36,1.855c0.09,0.083,0.253,0.018,0.348,0.046
		c0.445-0.332,0.058-1.237-0.07-1.623c-0.011-0.008-0.023-0.016-0.034-0.024c-0.004,0.004-0.008,0.008-0.012,0.012
		c0.081,0.212,0.517,1.325,0.14,1.542c-0.077,0.015-0.154,0.031-0.231,0.046c-0.47-0.251-0.658-1.074-0.477-1.751
		c0.054-0.146,0.108-0.293,0.163-0.44c0.012-0.008,0.024-0.016,0.035-0.023c0.129,0.175,0.226,0.367,0.348,0.556
		c0.004,0.007,0.008,0.015,0.011,0.023c0.004,0,0.008,0,0.012,0c-0.024-0.219-0.191-0.539-0.336-0.65
		c0.013-0.291,0.247-0.513,0.463-0.672c0.117-0.105,0.233-0.209,0.348-0.314c0.465-0.269,1.137-0.447,1.809-0.324
		C16.783,7.61,17.713,8.217,18.549,8.553z M2.222,12.02c-0.004,0.004-0.008,0.008-0.012,0.012c-0.007-0.008-0.015-0.016-0.023-0.024
		c0.004-0.03,0.008-0.061,0.012-0.092C2.224,11.941,2.223,11.966,2.222,12.02z M2.211,11.73c-0.004,0-0.007,0-0.011,0
		c-0.049-0.063-0.012-0.181,0-0.254C2.242,11.522,2.216,11.644,2.211,11.73z M2.211,11.359c0-0.016,0-0.031,0-0.046
		c0.008,0,0.016,0,0.023,0C2.227,11.328,2.219,11.343,2.211,11.359z"/>
	<path fill-rule="evenodd" clip-rule="evenodd" fill="#000003" d="M17.436,8.877c0.003-0.015,0.008-0.03,0.012-0.046
		c-0.012,0-0.023,0-0.035,0c0.004,0.016,0.008,0.031,0.012,0.046C17.428,8.877,17.432,8.877,17.436,8.877z"/>
	<path fill-rule="evenodd" clip-rule="evenodd" fill="#000003" d="M11.95,12.97c-0.271-0.372-0.699-0.646-1.263-0.695
		c0.091-0.066,0.233-0.049,0.348-0.093c0.221-0.086,0.454-0.289,0.58-0.476c0.174-0.257,0.259-0.774,0.116-1.079
		c-0.01-0.023-0.035-0.141-0.034-0.196c-0.023-0.019-0.046-0.039-0.07-0.058c0.004-0.031,0.008-0.063,0.012-0.092
		c-0.031-0.016-0.063-0.031-0.092-0.047c-0.044-0.05-0.075-0.188-0.14-0.254C10.97,9.526,9.882,9.385,9.249,9.492
		C9.238,9.477,9.226,9.461,9.214,9.446C9.053,9.566,8.565,9.427,8.299,9.481c-0.917,0-1.832,0-2.749,0
		C5.532,9.519,5.525,9.548,5.539,9.596c0,0.008,0,0.016,0,0.023c0.183,0.108,0.56,0.032,0.8,0.082
		c0.166,0.271,0.101,1.039,0.138,1.369c0.01,0.086-0.057,0.615-0.057,0.615c0.091,0.232,0.001,0.636,0.034,0.974
		c0.05,0.502,0.035,1.068,0,1.483c0.012,0.066,0.023,0.132,0.035,0.198c-0.019,0.267-0.038,0.533-0.058,0.799
		c-0.143,0.073-0.591,0.046-0.858,0.048c-0.011,0.014-0.023,0.03-0.034,0.046c0.008,0.034,0.015,0.068,0.023,0.104
		c0.165,0.098,0.395-0.002,0.592,0.012c0.228,0.01,0.455,0.022,0.684,0.034c0.117-0.02,0.476-0.046,0.625-0.024
		c0.554,0.085,0.992,0.045,1.554,0c0.065,0.017,0.131,0.032,0.197,0.047c0.435-0.045,1.093,0.032,1.565-0.114
		c0.427-0.133,0.672-0.301,0.998-0.523c0.139-0.093,0.291-0.399,0.359-0.556c0-0.066,0-0.133,0-0.197
		c0.052-0.102,0.1-0.437-0.011-0.558C12.218,13.416,11.972,12.998,11.95,12.97z M11.615,13.643
		c-0.322-0.004-0.424-0.256-0.649-0.221c-0.104,0.017-0.158,0.129-0.244,0.186c-0.065,0.008-0.131,0.016-0.197,0.023
		c-0.012-0.012-0.023-0.023-0.035-0.034c0.016-0.008,0.031-0.016,0.047-0.023c-0.016-0.066-0.031-0.133-0.047-0.197
		c0.004-0.008,0.008-0.017,0.012-0.023c0.263,0,0.525,0,0.788,0c0.074,0.02,0.192,0.051,0.267,0.034
		C11.575,13.473,11.595,13.557,11.615,13.643z M11.522,13.249c-0.085,0.062-0.853-0.004-1.043,0.047
		c-0.043-0.097-0.085-0.194-0.128-0.29c0.066,0,0.132,0,0.197,0c0.012,0.073,0.023,0.146,0.035,0.221
		c0.004,0.003,0.007,0.007,0.011,0.011c0.1-0.016,0.132-0.023,0.244-0.023c0.078-0.056,0.09-0.149,0.15-0.22
		c0.112,0.037,0.274,0.037,0.429,0.035C11.452,13.101,11.488,13.176,11.522,13.249z M11.058,12.68
		c0.096,0.077,0.193,0.155,0.29,0.231c0.004,0.012,0.008,0.024,0.011,0.035c-0.127-0.011-0.255-0.023-0.382-0.035
		c-0.055-0.029-0.087-0.058-0.104-0.127c-0.085,0.004-0.17,0.008-0.256,0.012c-0.011,0.023-0.023,0.047-0.034,0.069
		c-0.062,0.029-0.183,0.026-0.279,0.023c-0.042-0.081-0.085-0.163-0.127-0.244C10.496,12.65,10.799,12.748,11.058,12.68z
		 M10.791,12.53c0,0.005,0,0.009,0,0.011c-0.254-0.002-0.51-0.006-0.765-0.011c-0.081-0.024-0.124-0.099-0.232-0.116
		c-0.014-0.032-0.008-0.02-0.011-0.046C10.22,12.369,10.472,12.445,10.791,12.53z M9.666,12.24c0-0.008,0-0.016,0-0.022
		c0.154-0.049,0.296-0.162,0.383-0.279c0.235,0.008,0.471,0.015,0.707,0.023C10.508,12.115,10.042,12.242,9.666,12.24z
		 M10.954,11.834c-0.135,0.082-0.651,0.027-0.8,0.023c0.031-0.144,0.092-0.192,0.221-0.221c0.05,0.059,0.1,0.117,0.15,0.175
		c0.296-0.03,0.291-0.169,0.499-0.175c0.004-0.023,0.008-0.046,0.012-0.069c-0.031,0-0.062,0-0.093,0
		c0.012-0.083,0.019-0.146-0.023-0.198c-0.008,0-0.015,0-0.023,0c0-0.003,0-0.007,0-0.011c0.089,0,0.177,0,0.267,0
		c0.015,0.008,0.031,0.015,0.046,0.023C11.173,11.594,11.03,11.675,10.954,11.834z M10.27,11.532
		c0.015-0.065,0.03-0.131,0.046-0.197c0.092,0.004,0.186,0.007,0.278,0.011c-0.071,0.048-0.148,0.065-0.163,0.174
		c-0.037,0.018-0.083,0.025-0.15,0.023C10.277,11.54,10.273,11.536,10.27,11.532z M11.232,11.266
		c-0.147,0.059-0.723-0.015-0.928-0.023c0.008-0.054,0.016-0.108,0.023-0.162c0.047-0.056,0.776,0.009,0.927,0.012
		C11.271,11.155,11.25,11.209,11.232,11.266z M10.304,10.756c0.038-0.02,0.112-0.036,0.163-0.012c0.042,0.03,0.125,0.168,0.139,0.22
		c-0.096,0-0.193,0-0.29,0C10.312,10.895,10.308,10.825,10.304,10.756z M11.267,10.999c-0.17-0.007-0.34-0.015-0.51-0.023
		c0.096-0.06,0.169-0.127,0.231-0.22c0.089,0.003,0.178,0.007,0.267,0.011C11.259,10.844,11.263,10.922,11.267,10.999z
		 M11.244,10.698c-0.156,0.031-0.304-0.037-0.313-0.197c-0.105,0-0.209,0-0.314,0c-0.042,0.043-0.084,0.085-0.127,0.127
		c-0.073,0-0.146,0-0.22,0c-0.02-0.077-0.039-0.154-0.058-0.231c0.317,0.012,0.634,0.023,0.951,0.035
		C11.19,10.521,11.217,10.609,11.244,10.698z M11.069,10.257c0.021,0.026,0.023,0.04,0.023,0.093
		c-0.313-0.015-0.626-0.031-0.939-0.046c-0.027-0.074-0.054-0.147-0.081-0.221c0.046,0,0.093,0,0.139,0
		c0.068,0.035,0.054,0.139,0.163,0.163c0.122,0.027,0.312-0.149,0.499-0.151C10.947,10.141,11.018,10.19,11.069,10.257z
		 M10.861,10.014c-0.069-0.004-0.139-0.008-0.208-0.012c-0.034-0.022-0.031-0.03-0.046-0.069c-0.248-0.052-0.362,0.069-0.614,0.069
		C9.925,9.929,9.86,9.856,9.794,9.781c0.356,0.067,0.71,0.047,1.009,0.163C10.823,9.967,10.842,9.99,10.861,10.014z M10.362,9.723
		c0,0.004,0,0.008,0,0.012c-0.136,0.016-0.846-0.034-0.916-0.117C9.755,9.64,10.089,9.632,10.362,9.723z M8.182,9.723
		c0.22-0.015,0.441-0.03,0.661-0.046c0.364,0.064,0.583,0.082,0.835,0.232c0.503,0.302,0.625,1.41,0.267,1.902
		c-0.311,0.425-1.121,0.459-1.786,0.417C8.16,11.307,8.168,10.435,8.182,9.723z M6.594,9.7C6.631,9.652,6.73,9.665,6.779,9.631
		c0.182,0.035,0.694,0.064,0.847,0.023C7.634,9.67,7.642,9.685,7.649,9.7C7.548,9.815,6.814,9.743,6.594,9.747
		C6.59,9.743,6.586,9.74,6.583,9.736C6.586,9.723,6.59,9.712,6.594,9.7z M6.617,9.817C6.798,9.823,7.6,9.831,7.626,9.852
		c0.052,0.051,0.04,0.139,0.035,0.231c-0.008,0.004-0.016,0.008-0.023,0.011c-0.338-0.09-0.735-0.08-1.055-0.069
		C6.579,9.987,6.575,9.948,6.571,9.909C6.586,9.879,6.602,9.848,6.617,9.817z M6.571,10.141c0.012-0.012,0.023-0.023,0.035-0.035
		c0.108,0.046,0.226,0.024,0.371,0.023c0,0.004,0,0.008,0,0.012c-0.027,0.015-0.054,0.031-0.081,0.046c0,0.058,0,0.116,0,0.173
		c-0.008,0.004-0.016,0.008-0.023,0.012c-0.085-0.004-0.17-0.008-0.255-0.012C6.563,10.325,6.565,10.236,6.571,10.141z
		 M7.069,10.535c0.085-0.023,0.17-0.046,0.256-0.069c0.1,0.007,0.2,0.015,0.301,0.023c0.004,0.007,0.008,0.015,0.012,0.023
		c0,0.042,0,0.085,0,0.127c-0.313-0.027-0.714-0.08-1.055-0.035c0-0.042,0-0.084,0-0.127c0.007-0.011,0.015-0.023,0.023-0.035
		c0.111,0.004,0.224,0.008,0.336,0.012C6.984,10.482,7.027,10.509,7.069,10.535z M6.594,10.709c0.004-0.007,0.008-0.015,0.012-0.023
		c0.286,0.043,0.658,0.072,1.02,0.07c0.004,0.05,0.008,0.101,0.012,0.15c-0.311,0.088-0.694-0.12-1.055-0.023
		C6.577,10.805,6.578,10.774,6.594,10.709z M6.617,12.24c-0.025-0.071-0.033-0.188,0-0.255c0.333,0.008,0.665,0.016,0.998,0.023
		c0,0.074,0,0.147,0,0.221C7.45,12.304,6.891,12.242,6.617,12.24z M6.954,12.333c-0.035,0.056-0.06,0.101-0.07,0.186
		c-0.05,0.022-0.2,0.028-0.255,0c-0.008-0.009-0.016-0.015-0.023-0.023c0-0.054,0-0.108,0-0.162
		C6.721,12.333,6.838,12.333,6.954,12.333z M7.603,12.379c0.012,0.004,0.023,0.008,0.035,0.012
		c-0.008,0.066-0.016,0.132-0.023,0.197c-0.089-0.02-0.178-0.039-0.267-0.058c-0.039-0.075-0.098-0.12-0.128-0.186
		C7.353,12.342,7.538,12.33,7.603,12.379z M7.348,11.324c0.092,0,0.186,0,0.278,0c0.025,0.073,0.003,0.153,0,0.267
		c-0.091,0.021-0.144,0.026-0.278,0.023c-0.004-0.004-0.008-0.007-0.012-0.011C7.375,11.473,7.383,11.456,7.348,11.324z
		 M6.583,10.988c0.011-0.012,0.023-0.023,0.034-0.035c0.337,0.023,0.673,0.046,1.009,0.07c0,0.069,0,0.138,0,0.208
		c-0.133,0.043-0.369,0.007-0.511-0.023c-0.148-0.032-0.349,0.024-0.532,0.023C6.583,11.15,6.583,11.069,6.583,10.988z
		 M6.848,11.579c-0.084,0.011-0.169,0.023-0.254,0.034c0-0.084,0-0.169,0-0.254c0.019-0.008,0.039-0.016,0.058-0.023
		c0.058,0,0.115,0,0.173,0C6.807,11.431,6.805,11.497,6.848,11.579z M6.617,11.684c0.252,0.077,0.733-0.064,0.962,0.023
		c0.054,0.032,0.051,0.093,0.035,0.163c-0.035,0.019-0.07,0.038-0.105,0.058c-0.124-0.02-0.247-0.039-0.371-0.058
		c-0.178,0.011-0.355,0.023-0.533,0.034C6.586,11.839,6.592,11.733,6.617,11.684z M6.594,12.68c0.004-0.007,0.008-0.015,0.012-0.022
		C6.769,12.631,6.942,12.656,7,12.773c0.2,0.09,0.254-0.071,0.348-0.104c0.088,0.004,0.177,0.007,0.267,0.011
		c0.013,0.072,0.009,0.146,0.011,0.243c-0.109,0.047-0.764,0.014-1.02,0.013C6.604,12.84,6.617,12.773,6.594,12.68z M7.626,13.342
		c-0.212,0.048-0.718-0.016-1.009-0.011c0-0.102,0-0.202,0-0.302c0.008-0.004,0.016-0.008,0.023-0.013
		c0.191,0.052,0.719,0.058,0.963,0.023C7.635,13.111,7.623,13.245,7.626,13.342z M6.64,13.435c0.027-0.009,0.054-0.017,0.081-0.023
		c0.294,0.004,0.588,0.007,0.882,0.011c0.032,0.091,0.032,0.203,0.023,0.325c-0.008,0.008-0.015,0.015-0.023,0.022
		c-0.201-0.024-0.687-0.454-0.754-0.068c-0.073,0.01-0.146,0.022-0.22,0.034c-0.008-0.093-0.016-0.187-0.023-0.279
		C6.617,13.449,6.629,13.441,6.64,13.435z M6.64,14.235c0.023-0.036,0.034-0.027,0.07-0.048c0.292,0.004,0.587,0.008,0.881,0.012
		c0.043,0.053,0.039,0.169,0.034,0.268c-0.11,0.031-0.125-0.028-0.208-0.034c-0.225-0.019-0.502,0.031-0.789,0.034
		C6.633,14.389,6.636,14.311,6.64,14.235z M6.629,14.061c0-0.07,0-0.141,0-0.209c0-0.008,0-0.016,0-0.024
		c0.038-0.004,0.078-0.008,0.116-0.012c0.133,0.032,0.202,0.131,0.302,0.162c0.188,0.061,0.217-0.094,0.302-0.126
		c0.07-0.028,0.189,0.008,0.255-0.012c0.004,0,0.008,0,0.012,0c0,0.088,0,0.179,0,0.267C7.401,14.145,6.839,14.117,6.629,14.061z
		 M7.626,15.162c-0.36,0.046-0.576,0-0.951,0c-0.004-0.02-0.008-0.038-0.012-0.058c0-0.051,0-0.101,0-0.15
		c0.215-0.024,0.469,0.148,0.662-0.024c0.1,0.004,0.2,0.008,0.301,0.012C7.626,15.015,7.626,15.09,7.626,15.162z M7.637,14.815
		c-0.058,0.021-0.125-0.002-0.208-0.012c-0.048-0.07-0.096-0.133-0.139-0.209c-0.104,0.012-0.208,0.022-0.313,0.034
		c-0.023,0.05-0.047,0.101-0.07,0.15c-0.038,0.02-0.077,0.04-0.115,0.058c-0.051,0-0.101,0-0.151,0
		c-0.007-0.088-0.015-0.178-0.023-0.267c0.031-0.008,0.062-0.014,0.093-0.021c0.297,0.008,0.595,0.014,0.893,0.021
		C7.651,14.631,7.644,14.729,7.637,14.815z M7.661,10.315c0,0.008,0,0.016,0,0.023c-0.084,0.058-0.206,0.035-0.29,0.047
		c-0.025-0.088-0.04-0.15-0.081-0.232c0.123,0,0.247,0,0.371,0c0.004,0.004,0.008,0.008,0.011,0.012
		C7.669,10.215,7.665,10.265,7.661,10.315z M8.495,15.15c-0.067-0.015-0.187-0.046-0.254-0.034c-0.023-0.024-0.046-0.046-0.069-0.07
		c0.023-0.018,0.015-0.016,0.058-0.022c-0.013-0.092-0.083-0.178-0.093-0.244c0.011-0.012,0.023-0.022,0.035-0.034
		c0.031-0.11,0.005-0.314,0-0.417c-0.004-0.359-0.008-0.72-0.012-1.079c0.027-0.247-0.1-0.667,0.023-0.788
		c0.098-0.064,0.128,0.018,0.231,0c0.477-0.082,0.935,0.004,1.333,0.104c-0.007,0.022-0.015,0.046-0.023,0.069
		c0.205,0.046,0.213,0.116,0.348,0.244c-0.012,0.037-0.023,0.076-0.035,0.115c0.027,0,0.054,0,0.081,0
		c0.508,0.866-0.048,1.81-0.8,2.063C9.125,15.124,8.72,15.198,8.495,15.15z M9.238,15.22c0.146-0.11,0.418-0.114,0.556-0.243
		c0.283,0.004,0.611,0.08,0.881,0.01c0.016,0.013,0.031,0.024,0.046,0.036C10.333,15.26,9.771,15.226,9.238,15.22z M11.232,14.686
		c-0.27,0.348-0.771,0.183-1.299,0.197c0-0.004,0-0.009,0-0.011c0.093-0.094,0.186-0.187,0.279-0.278
		c0.077,0.004,0.155,0.008,0.232,0.012c-0.005,0.047-0.003,0.072,0.035,0.104c0.052,0.093,0.256,0.116,0.382,0.057
		c0.081-0.041,0.096-0.099,0.127-0.173c0.089,0.004,0.178,0.008,0.267,0.012C11.248,14.633,11.24,14.659,11.232,14.686z
		 M11.463,14.444c-0.118,0.088-0.245,0.056-0.44,0.046c-0.005-0.036-0.002-0.034,0.012-0.07c-0.328-0.234-0.404,0.028-0.719,0.059
		c0.046-0.116,0.092-0.232,0.138-0.35c0.296,0.099,0.762-0.002,1.091,0.024c0.003,0.004,0.007,0.008,0.011,0.012
		C11.526,14.258,11.494,14.349,11.463,14.444z M11.603,14.014c-0.227,0.133-0.808-0.042-1.136,0.047c-0.004,0-0.008,0-0.012,0
		c0.024-0.116,0.047-0.233,0.07-0.35c0.042,0.004,0.085,0.009,0.127,0.013c0.086,0.01,0.139,0.105,0.15,0.187
		c0.078,0.018,0.155,0.038,0.232,0.058c0.122-0.058,0.176-0.148,0.267-0.232c0.084,0.022,0.227,0.03,0.313,0
		C11.645,13.837,11.626,13.915,11.603,14.014z"/>
	<path fill-rule="evenodd" clip-rule="evenodd" fill="#000003" d="M31.326,13.168c-0.023-0.289-0.103-0.678-0.058-0.939
		c-0.016-0.016-0.03-0.031-0.047-0.046c-0.035,0-0.068,0-0.104,0c0.003,0.041-0.223,0.403-0.255,0.533
		c-0.207,0.82-0.682,1.443-1.346,1.843c-0.013,0.008-0.322,0.162-0.324,0.162c-0.054,0.011-0.109-0.02-0.186,0.024
		c-0.2,0.112-0.55,0.251-0.824,0.242c-0.173-0.411,0.06-0.912-0.034-1.496c-0.058-0.358,0.02-0.708-0.022-1.101
		c-0.028-0.257-0.039-0.554,0-0.765c-0.009-0.127-0.017-0.256-0.023-0.383c0.074-0.497-0.031-1.022,0-1.507
		c0.379,0,0.539-0.016,0.857,0c0.004-0.063,0.008-0.124,0.012-0.186c-0.09-0.036-0.638,0.002-0.846-0.023
		c-0.009-0.004-0.017-0.008-0.023-0.012c-0.041,0.014-0.046,0.06-0.129,0.047c-0.794-0.127-1.749-0.055-2.516-0.07
		c-0.017,0.034-0.029,0.061-0.011,0.104c0.011,0.012,0.022,0.023,0.034,0.035c0.089,0.088,0.426-0.067,0.626,0.081
		c0.069,0.039,0.166,0.745,0.14,0.858c-0.055,0.231-0.029,0.619,0.012,0.985c0.016,0.147-0.023,0.357-0.047,0.487
		c-0.01,0.058,0.022,0.24,0.035,0.313c0.04,0.23-0.019,0.475-0.047,0.604c0,0,0.038,0.205,0.035,0.255
		c-0.017,0.29,0.078,1.168-0.035,1.286c0.023,0.024,0.047,0.049,0.07,0.07c-0.021,0.036-0.036,0.093-0.07,0.116
		c0.041,0.076,0.008,0.181,0.023,0.291c-0.033,0.036-0.052,0.044-0.069,0.104c-0.186,0-0.913,0.004-0.997,0.057
		c-0.036,0.027-0.048,0.078-0.059,0.128c0,0.004,0,0.008,0,0.012c0.19,0.059,0.369,0,0.521-0.023
		c0.094-0.015,0.105,0.031,0.15,0.046c0.18,0.058,0.3-0.01,0.395-0.034c0.008,0.012,0.016,0.024,0.024,0.034
		c0.028-0.015,0.022,0.012,0.034-0.046c0.033,0.004,0.275,0.05,0.278,0.069c0.026-0.014,0.104-0.08,0.162-0.058
		c0.012,0.02,0.023,0.038,0.034,0.058c0.008-0.012,0.017-0.023,0.024-0.033c0.276-0.097,0.941,0.076,1.345,0.033
		c0.029-0.004,0.382,0,0.382,0c0.027-0.012,0.019-0.063,0.07-0.058c0.046,0.02,0.093,0.038,0.14,0.058
		c0.462-0.069,1.183-0.105,1.6-0.023c0.081-0.019,0.162-0.038,0.243-0.057c0.204-0.023,0.688,0.045,0.777,0.08
		c0.004,0,0.008,0,0.011,0c0.067-0.102,0.073-0.457,0.013-0.567c0.026-0.02,0.054-0.04,0.081-0.058
		C31.2,14.324,31.365,13.618,31.326,13.168z M26.376,12.379c0.297-0.117,0.837-0.041,1.171-0.034
		c0.007,0.085,0.015,0.169,0.023,0.255c-0.009,0.012-0.017,0.023-0.023,0.035c-0.12-0.016-0.239-0.031-0.36-0.047
		c-0.018-0.021-0.027-0.113-0.035-0.162c-0.08-0.014-0.15-0.084-0.254-0.058c-0.063,0.015-0.09,0.065-0.174,0.081
		c-0.008,0.042-0.017,0.086-0.024,0.127c-0.104,0.008-0.208,0.016-0.313,0.023C26.382,12.513,26.396,12.463,26.376,12.379z
		 M26.781,10.512c-0.119,0-0.239,0-0.358,0c-0.017-0.087-0.049-0.187-0.059-0.29c0.125,0.011,0.248,0.023,0.371,0.034
		c-0.002,0.091-0.012,0.118-0.022,0.22C26.735,10.49,26.758,10.501,26.781,10.512z M26.376,11.718
		c0.023-0.063,0.013-0.111,0.022-0.163c0.02-0.026,0.038-0.054,0.059-0.08c0.087,0.007,0.132,0.027,0.196,0
		c0.053,0.128,0.118,0.123,0.221,0.196c0.081-0.019,0.162-0.038,0.243-0.058c0.034-0.058,0.069-0.115,0.104-0.173
		c0.112,0.004,0.224,0.008,0.336,0.011c0,0.101,0,0.201,0,0.302C27.164,11.742,26.77,11.73,26.376,11.718z M27.558,11.846
		c0,0.057,0,0.115,0,0.173c-0.39-0.012-0.78-0.023-1.171-0.035c0-0.038,0-0.077,0-0.115c0.008,0,0.016,0,0.023,0
		C26.487,11.823,27.373,11.844,27.558,11.846z M27.558,12.252c-0.031,0.013-0.878,0.016-0.938-0.012
		c-0.082-0.037-0.138-0.084-0.243-0.093c0-0.004,0-0.008,0-0.012c0.086-0.059,0.28,0.013,0.382-0.035
		c0.26,0.009,0.519,0.016,0.777,0.023c0.012,0.023,0.022,0.047,0.035,0.069C27.567,12.213,27.562,12.232,27.558,12.252z
		 M27.558,11.324c-0.166,0.154-0.485-0.101-0.544-0.163c-0.147,0.006-0.224,0.035-0.279,0.163c-0.149-0.002-0.197-0.028-0.29,0
		c-0.015-0.019-0.03-0.038-0.046-0.058c-0.027-0.069-0.002-0.162-0.022-0.22c0.015-0.02,0.029-0.039,0.046-0.058
		c0.186,0.015,0.342,0.048,0.476-0.023c0.211,0.043,0.424,0.086,0.649,0.023C27.575,11.028,27.602,11.229,27.558,11.324z
		 M27.571,10.848c-0.082,0.071-0.86,0.028-1.16,0.023c-0.022-0.048-0.012-0.107-0.023-0.162c0-0.019,0-0.038,0-0.057
		c0.077-0.004,0.211,0.015,0.278-0.024c0.306,0.012,0.611,0.024,0.916,0.035C27.585,10.734,27.596,10.788,27.571,10.848z
		 M27.06,10.512c0.044-0.072,0.146-0.136,0.197-0.231c0.1,0.032,0.215,0.01,0.324,0.023c0,0.088,0,0.178,0,0.267
		C27.387,10.59,27.236,10.528,27.06,10.512z M26.527,9.654c0.214,0.075,0.706,0.038,1.031,0.082
		c0.004,0.027,0.009,0.054,0.013,0.081c0,0.004,0,0.008,0,0.012c-0.388-0.004-0.773-0.008-1.16-0.012
		C26.432,9.724,26.482,9.719,26.527,9.654z M26.376,9.886c0.386,0.076,0.853,0.079,1.194,0.093c0.003,0.065,0.007,0.131,0.011,0.196
		c-0.14,0.063-0.35-0.023-0.464-0.046c-0.069,0.012-0.139,0.023-0.208,0.035c-0.158,0.018-0.348-0.019-0.522-0.012
		c-0.035-0.063-0.028-0.16-0.034-0.255C26.36,9.894,26.367,9.89,26.376,9.886z M26.364,12.68c0.221,0.005,0.346,0.023,0.43,0.163
		c0.16,0.035,0.332-0.027,0.382-0.14c0.12,0,0.24,0,0.36,0c0.034,0.069,0.027,0.159,0.022,0.243
		c-0.286-0.021-0.709-0.119-1.021-0.035c-0.053,0-0.107,0-0.161,0c0.009-0.084,0.004-0.13-0.023-0.196
		C26.356,12.704,26.36,12.693,26.364,12.68z M27.571,13.168c-0.093,0.057-1.012,0.036-1.184,0.034
		c-0.004-0.062-0.007-0.123-0.011-0.186c0.39,0.013,0.78,0.023,1.171,0.035C27.563,13.081,27.557,13.12,27.571,13.168z
		 M26.399,13.296c0.388,0.003,0.73,0,1.137,0c0.015,0.069,0.031,0.14,0.046,0.208c-0.396,0.118-0.776-0.072-1.194,0.036
		C26.366,13.471,26.371,13.348,26.399,13.296z M27.571,15.082c-0.384-0.004-0.767-0.008-1.148-0.012c0-0.028,0-0.055,0-0.083
		c0.386,0,0.773,0,1.159,0c0.004,0.021,0.008,0.041,0.012,0.059C27.585,15.057,27.577,15.07,27.571,15.082z M26.399,14.803
		c0-0.028,0-0.055,0-0.083c0.004-0.004,0.007-0.008,0.012-0.01c0.391,0,0.78,0,1.171,0c0,0.038,0,0.076,0,0.114
		c-0.18,0.026-0.395,0.078-0.591,0.07c-0.047-0.002-0.073-0.054-0.151-0.034c-0.039,0.01-0.147,0.068-0.231,0.034
		C26.534,14.865,26.523,14.809,26.399,14.803z M27.593,14.617c-0.087,0.04-1.027,0.004-1.194-0.011
		c-0.008-0.05-0.016-0.102-0.022-0.152c0.214-0.094,0.91-0.044,1.217-0.046C27.593,14.478,27.593,14.549,27.593,14.617z
		 M27.593,14.303c-0.397,0.017-0.796,0.032-1.194,0.046c-0.004-0.088-0.008-0.176-0.012-0.267c0-0.006,0-0.014,0-0.021
		c0.108,0,0.217,0,0.325,0c0.021,0.065,0.031,0.1,0.081,0.138c0.083,0.078,0.266,0.009,0.382,0c0.025-0.04,0.035-0.054,0.035-0.126
		c0.085-0.046,0.21-0.004,0.383,0C27.593,14.149,27.593,14.227,27.593,14.303z M27.257,13.932c-0.004-0.152-0.125-0.15-0.187-0.221
		c-0.176,0.006-0.19,0.093-0.336,0.104c0,0.028,0,0.055,0,0.082c-0.112,0.026-0.224,0.055-0.336,0.08
		c-0.004-0.112-0.008-0.223-0.012-0.335c0.254,0.003,0.577,0.061,0.788-0.023c0.152,0.012,0.223,0.012,0.396,0.012
		c0.007,0.116,0.015,0.23,0.022,0.347C27.472,13.951,27.379,13.923,27.257,13.932z M29.959,15.082c-0.415,0-0.828,0-1.242,0
		c0-0.004,0-0.008,0-0.012c0.06-0.013,0.139-0.034,0.175-0.07c0.29,0.025,0.562,0.021,0.858,0.046c0.192,0,0.386,0,0.58,0
		C30.253,15.118,30.077,15.064,29.959,15.082z M30.735,15.07c-0.058,0.036-0.271,0.018-0.371,0.012c0-0.004,0-0.008,0-0.012
		c0.094-0.013,0.186-0.024,0.279-0.036c0.031,0.008,0.063,0.016,0.092,0.023C30.735,15.061,30.735,15.066,30.735,15.07z
		 M30.735,14.861c0,0.012,0,0.022,0,0.034c-0.383,0.104-1.057,0.036-1.634,0.034c0-0.006,0-0.014,0-0.022
		c0.123-0.058,0.247-0.116,0.371-0.174c0.085-0.017,0.17-0.03,0.254-0.047c0.092,0.04,0.171-0.023,0.279,0.024
		c0.031,0.038,0.062,0.076,0.092,0.114c0.137,0.104,0.394,0.078,0.452-0.08c0.028-0.016,0.123-0.054,0.163-0.024
		c0.008,0,0.016,0,0.022,0C30.735,14.767,30.735,14.815,30.735,14.861z M30.758,14.594c0,0.008,0,0.014,0,0.022
		c-0.061-0.009-0.136,0.008-0.185-0.022c-0.034-0.028-0.036-0.09-0.07-0.116c-0.135-0.103-0.395-0.064-0.44,0.092
		c-0.068,0.032-0.183,0.009-0.255,0.024c-0.004-0.008-0.008-0.016-0.012-0.024c0.157-0.086,0.327-0.183,0.43-0.324
		c0.186,0.008,0.371,0.016,0.557,0.023C30.764,14.376,30.796,14.488,30.758,14.594z M30.77,14.153
		c-0.123-0.004-0.247-0.008-0.371-0.012c-0.022-0.021-0.008,0-0.022-0.034c0.107-0.16,0.187-0.114,0.394-0.162
		c0.004,0.004,0.009,0.008,0.013,0.012C30.77,14.033,30.769,14.059,30.77,14.153z M30.782,13.841c0,0.004,0,0.008,0,0.012
		c-0.035,0.004-0.07,0.008-0.104,0.01c-0.024,0-0.047,0-0.07,0c0.054-0.104,0.108-0.208,0.162-0.313
		C30.824,13.616,30.76,13.738,30.782,13.841z"/>
	<path fill-rule="evenodd" clip-rule="evenodd" fill="#000003" d="M35.768,10.234c0,0.016,0,0.031,0,0.047c0.02,0,0.038,0,0.059,0
		c0.101,0.194,0.256,0.386,0.417,0.521c0.035,0.015,0.069,0.031,0.104,0.046c0.235,0.354,0.569,0.651,0.8,1.009
		c0.104,0.161,0.018,0.57,0.046,0.847c0.013,0.336,0.023,0.673,0.035,1.008c-0.008,0.129-0.016,0.257-0.022,0.384
		c0.057,0.192,0.047,0.834-0.013,1.021c-0.322,0.066-0.669,0.004-0.904,0.07c0,0.046,0,0.092,0,0.138c1.229,0,2.459,0,3.688,0
		c0.008-0.05,0.016-0.1,0.023-0.15c-0.135-0.042-0.804-0.069-0.928-0.012c0.004-0.076,0.008-0.154,0.012-0.232
		c-0.054-0.321-0.057-0.788-0.023-1.113c0.009-0.086-0.03-0.148-0.046-0.196c-0.039-0.12,0.033-0.298,0.011-0.452
		c-0.015-0.448-0.03-0.897-0.046-1.346c0.033-0.181,0.229-0.359,0.313-0.486c0.297-0.452,0.682-1.352,1.194-1.542
		c0.368-0.138,0.95-0.078,1.321-0.104c0-0.008,0-0.016,0-0.023c0.034-0.034,0.027-0.096,0.023-0.186c-0.217,0-0.433,0-0.649,0
		c-0.921,0.146-1.646-0.027-2.621,0.057c-0.021,0.088-0.021,0.141,0.012,0.209c0.271,0.033,1.478-0.176,1.218,0.44
		c-0.063,0.147-0.22,0.297-0.313,0.44c-0.046,0.004-0.042,0.004-0.082-0.011c0.009,0.042,0.016,0.085,0.023,0.127
		c-0.191,0.233-0.343,0.67-0.638,0.835c-0.166-0.294-0.381-0.579-0.58-0.858c-0.026-0.008-0.054-0.015-0.081-0.023l-0.15-0.197
		c-0.143-0.218-0.3-0.542-0.521-0.672c-0.008-0.024-0.016-0.047-0.023-0.07c0.204-0.086,0.55-0.001,0.823-0.046c0-0.05,0-0.1,0-0.15
		c-0.012-0.012-0.023-0.024-0.034-0.035c-0.004-0.008-0.008-0.015-0.013-0.023c-0.008,0.015-0.015,0.031-0.022,0.046
		c-0.312-0.054-0.586,0.059-0.951,0c-0.521-0.085-1.105-0.034-1.554,0.012c-0.471,0.048-0.877-0.008-1.322,0.011
		c-0.012,0.035-0.022,0.07-0.035,0.104c0.023,0.027,0.048,0.054,0.07,0.082c0.298,0.008,0.595,0.016,0.893,0.023
		C35.321,9.796,35.718,10.178,35.768,10.234z M36.741,11.034c-0.011-0.015-0.022-0.031-0.034-0.046
		c0.042-0.019,0.085-0.039,0.128-0.058c0.192,0.019,0.386,0.039,0.579,0.058c-0.15,0.026-0.132,0.171-0.243,0.208
		c-0.093,0-0.186,0-0.279,0C36.829,11.151,36.815,11.063,36.741,11.034z M38.504,14.385c-0.289,0.051-0.85,0.002-1.102-0.036
		c-0.008-0.058-0.015-0.114-0.023-0.172c0.371,0.014,0.742,0.03,1.113,0.046c0.008,0.022,0.017,0.046,0.023,0.068
		C38.512,14.324,38.509,14.353,38.504,14.385z M38.504,14.733c-0.029,0.042-0.182,0.038-0.278,0.034
		c-0.014-0.091-0.033-0.159-0.115-0.209c-0.074-0.006-0.147-0.014-0.221-0.022c-0.058,0.043-0.102,0.089-0.127,0.163
		c-0.075,0.056-0.234,0.094-0.36,0.058c0-0.086,0-0.17,0-0.257c0.054,0.007,0.065,0,0.104-0.033c0.14,0.056,0.729,0.014,1.009,0.012
		C38.527,14.543,38.539,14.673,38.504,14.733z M37.438,15.162c0-0.012,0-0.023,0-0.034c0.139,0.006,0.328,0.046,0.463-0.012
		c0.189,0.016,0.379,0.03,0.569,0.046C38.398,15.219,37.552,15.182,37.438,15.162z M38.516,15.057
		c-0.372,0.07-0.675-0.116-1.032-0.023c-0.035-0.017-0.048-0.017-0.069-0.047c-0.024-0.033-0.016-0.033-0.012-0.092
		c0.05-0.012,0.101-0.022,0.15-0.034c0.17,0.008,0.256,0.171,0.418,0.126c0.204-0.052,0.202-0.124,0.533-0.104
		c0.012,0.02,0.023,0.04,0.034,0.058C38.531,14.979,38.524,15.019,38.516,15.057z M38.516,14.107c-0.344,0.092-0.758-0.114-1.124,0
		c-0.004,0-0.009,0-0.013,0c0.004-0.088,0.009-0.179,0.013-0.267c0.104,0,0.208,0,0.313,0c0.008,0.046,0.015,0.092,0.023,0.138
		c0.206,0.034,0.346,0.015,0.439-0.126c0.108,0.008,0.217,0.014,0.325,0.022c0.012,0.012,0.023,0.023,0.035,0.036
		C38.524,13.974,38.52,14.041,38.516,14.107z M38.504,13.77c-0.008,0.004-0.016,0.008-0.022,0.012
		c-0.106-0.03-0.196,0.01-0.279-0.046c-0.116-0.08-0.108-0.187-0.324-0.187c-0.047,0.05-0.093,0.101-0.139,0.152
		c-0.105,0.01-0.21,0.022-0.313,0.034c-0.063-0.044-0.064-0.133-0.058-0.245c0.042-0.006,0.084-0.014,0.127-0.021
		c0.324,0.02,0.649,0.038,0.975,0.058c0.008,0.017,0.015,0.03,0.022,0.047C38.496,13.639,38.5,13.706,38.504,13.77z M38.47,13.412
		c-0.084,0.052-0.795-0.088-1.021-0.024c-0.074-0.008-0.057-0.02-0.105-0.046c0.004-0.065,0.009-0.132,0.013-0.197
		c0.072-0.014,0.23,0.029,0.313-0.035c0.217,0.066,0.597,0.007,0.801,0.047C38.48,13.206,38.496,13.393,38.47,13.412z
		 M38.167,13.052c-0.256-0.011-0.527-0.033-0.811,0c-0.009-0.101-0.016-0.2-0.023-0.301c0.216-0.108,0.433,0.087,0.545,0.139
		c0.164,0.075,0.338-0.093,0.557-0.093c0.031,0.058,0.048,0.127,0.047,0.22C38.377,13.029,38.272,13.04,38.167,13.052z
		 M37.357,12.344c0.054-0.016,0.108-0.03,0.162-0.046c0.174,0.049,0.316-0.016,0.463,0.08c-0.104,0.065-0.18,0.073-0.208,0.221
		c-0.097,0.057-0.248,0.028-0.405,0.023C37.336,12.557,37.342,12.42,37.357,12.344z M38.457,12.658
		c-0.071,0.033-0.136,0.004-0.22-0.013c-0.011-0.069-0.038-0.095-0.035-0.173c-0.046-0.023-0.092-0.047-0.139-0.069
		c-0.004-0.009-0.008-0.017-0.012-0.024c0.031-0.003,0.062-0.007,0.093-0.011c0.004-0.013,0.008-0.023,0.012-0.035
		c0.076,0.021,0.168-0.005,0.267,0.012c0.007,0.015,0.016,0.031,0.023,0.046C38.45,12.48,38.454,12.568,38.457,12.658z
		 M38.388,12.24c-0.335,0.019-0.612-0.029-0.985-0.012c-0.033-0.058-0.027-0.105-0.023-0.208c0.352,0,0.684-0.006,1.021,0.012
		c0.023,0.043,0.035,0.075,0.034,0.15C38.419,12.201,38.404,12.22,38.388,12.24z M38.423,11.892c0,0.004,0,0.008,0,0.011
		c-0.348,0.004-0.695,0.008-1.044,0.012c-0.022-0.023-0.046-0.046-0.069-0.069c0.012-0.063,0.006-0.068,0.012-0.117
		c0.353,0.003,0.647,0.068,1.009,0.023C38.362,11.799,38.392,11.846,38.423,11.892z M38.052,11.301
		c0.069,0.117,0.14,0.232,0.209,0.348c0,0.004,0,0.008,0,0.012c-0.345-0.073-0.687,0.011-1.067-0.035
		c-0.059-0.116-0.18-0.179-0.208-0.325c0.047,0.015,0.092,0.013,0.127-0.011c0.131,0.037,0.168,0.147,0.29,0.173
		c0.196,0.041,0.196-0.105,0.29-0.15C37.813,11.309,37.932,11.305,38.052,11.301z M37.948,11.174c-0.009,0-0.017,0-0.023,0
		c-0.164,0.085-0.336-0.105-0.452-0.15c-0.004-0.012-0.008-0.024-0.012-0.035c0.085-0.012,0.17-0.023,0.255-0.035
		c0.038,0,0.076,0,0.115,0C37.873,11.035,37.934,11.059,37.948,11.174z M37.6,10.698c0.057,0.028,0.109,0.083,0.128,0.15
		c-0.478-0.077-1.022,0.184-1.322-0.196c0.081,0.015,0.198,0.011,0.244-0.024C36.966,10.652,37.283,10.675,37.6,10.698z
		 M37.31,10.315c0.092,0.054,0.108,0.145,0.186,0.208c0.005,0.012,0.008,0.023,0.012,0.035c-0.367-0.003-0.863-0.084-1.159,0.035
		c-0.098-0.055-0.186-0.125-0.209-0.256c0.085,0,0.171,0,0.255,0c0.148,0.281,0.322,0.096,0.487,0.023
		c0.143,0.004,0.286,0.008,0.429,0.012C37.31,10.354,37.31,10.335,37.31,10.315z M37.252,10.234
		c0.008,0.016,0.015,0.031,0.023,0.047c-0.128-0.016-0.255-0.031-0.384-0.047c0-0.027,0-0.054,0-0.081
		c-0.183-0.031-0.14-0.099-0.417-0.069c-0.011,0.046-0.005,0.065,0.012,0.104c-0.116,0.075-0.416,0.022-0.579,0.012
		c-0.03-0.085-0.06-0.114-0.104-0.174c0.059-0.041,1.057-0.068,1.205-0.011C37.117,10.055,37.165,10.171,37.252,10.234z
		 M35.606,9.817c0.008-0.035,0.015-0.069,0.022-0.104c0.073-0.004,0.147-0.008,0.221-0.012c0.325,0.016,0.649,0.031,0.974,0.047
		c0.031,0.03,0.063,0.062,0.094,0.092c0.003,0.008,0.007,0.016,0.011,0.023c0,0.004,0,0.008,0,0.012
		c-0.212,0.064-1.156,0.03-1.299-0.058C35.62,9.817,35.614,9.817,35.606,9.817z"/>
	<path fill-rule="evenodd" clip-rule="evenodd" fill="#000003" d="M20.972,14.699c0.653-0.638,0.364-2.171,0.498-3.282
		c0.042-0.342-0.008-0.644,0.024-0.986c0.006-0.063-0.069-0.122-0.035-0.186c0.033-0.063,0.055-0.188,0.092-0.244
		c0.097-0.141,0.482-0.155,0.615-0.163c0.201-0.01,0.545,0.05,0.592-0.196c0-0.004,0-0.008,0-0.012
		c-0.284-0.074-0.715,0.016-1.021-0.012c-0.387-0.035-0.829-0.063-1.146-0.023c-0.218,0.028-0.525-0.103-0.639,0.047
		c0,0.023,0,0.046,0,0.069c0.111,0.144,0.816-0.009,1.021,0.244c0.091,0.112,0.218,0.611,0.175,0.8
		c-0.013,0.042-0.023,0.084-0.035,0.127c0.012,0.179,0.094,0.637,0.035,0.938c-0.055,0.276-0.059,0.727-0.013,0.986
		c-0.024,0.035-0.019,0.033-0.069,0.046c0.133,0.735-0.072,1.725-0.789,2.029c-0.074,0.032-0.207,0.108-0.266,0.116
		c-0.259,0.032-1.133,0.05-1.137-0.279c-0.169-0.023-0.165-0.164-0.324-0.196c0.004-0.034,0.007-0.07,0.012-0.104
		c-0.09,0.002-0.054-0.012-0.128-0.034c-0.056-0.118-0.231-0.349-0.175-0.545c-0.037-0.017-0.045-0.017-0.068-0.046
		c0.016-0.021,0.03-0.039,0.045-0.059c-0.086-0.281-0.091-0.584-0.138-0.893c0.019-0.086,0.038-0.17,0.058-0.256
		c-0.134-0.282,0.035-0.692-0.023-1.089c-0.07-0.478-0.062-1.2-0.012-1.659c0.105-0.069,0.685-0.111,0.87-0.081
		c0.097,0.008,0.193,0.016,0.29,0.023c0.06-0.011,0.095-0.044,0.139-0.046c0.06-0.041,0.045-0.078,0.035-0.163
		c-0.379,0-0.758,0-1.137,0c-0.178-0.048-0.547-0.061-0.719-0.011c-0.166-0.065-0.855-0.033-1.078-0.047
		c-0.137,0.1-0.828,0.045-1.032,0.047c-0.013,0.062-0.022,0.124-0.035,0.186c0.206,0.056,0.59,0.032,0.8,0.011
		c-0.004,0.229-0.008,0.456-0.011,0.684c-0.056,0.358,0.011,0.723-0.024,1.067c-0.059,0.605,0.146,1.278,0.013,1.844
		c0.022,0.012,0.046,0.023,0.069,0.034c0.035,0.174,0.07,0.349,0.105,0.523c0.074,0.19,0.357,0.661,0.509,0.775
		c0.192,0.143,0.434,0.397,0.661,0.476c0.794,0.275,1.818,0.365,2.668,0.082C20.549,15.14,20.696,14.835,20.972,14.699z
		 M17.691,13.782c0,0.004,0,0.008,0,0.013c-0.073,0.012-0.146,0.021-0.221,0.033c-0.058-0.046-0.115-0.092-0.173-0.138
		c-0.004-0.013-0.009-0.024-0.013-0.036c0.054-0.004,0.108-0.006,0.163-0.011c0.072,0,0.146,0,0.221,0
		C17.676,13.69,17.683,13.736,17.691,13.782z M17.621,10.663c-0.159,0.008-0.316,0.015-0.475,0.023c0-0.004,0-0.008,0-0.011
		c0.193-0.127,0.111-0.234,0.463-0.221C17.614,10.524,17.617,10.594,17.621,10.663z M16.555,9.712
		c0.006,0.023,0.015,0.046,0.022,0.069c0.023,0,0.046,0,0.069,0c0-0.019,0-0.038,0-0.058c0.004-0.003,0.008-0.007,0.012-0.011
		c0.292,0.041,0.659,0.068,0.916,0c0.004,0,0.008,0,0.012,0c-0.004,0.035-0.008,0.069-0.012,0.104
		c-0.038,0.042-0.98,0.034-1.137,0.046c-0.004-0.023-0.008-0.046-0.011-0.069C16.457,9.735,16.469,9.719,16.555,9.712z
		 M16.438,9.956c0.47-0.032,0.756-0.005,1.148,0c0,0.027,0,0.054,0,0.082c-0.139,0.018-0.295-0.033-0.439-0.012
		c-0.258,0.038-0.427,0.037-0.674,0.035c-0.016-0.016-0.031-0.031-0.046-0.046C16.43,9.994,16.434,9.975,16.438,9.956z
		 M16.427,10.176c0.386-0.072,0.692-0.049,1.136-0.046c0.035,0.074,0.043,0.104,0.035,0.208c-0.08,0.004-0.162,0.008-0.243,0.012
		c-0.068-0.053-0.138-0.106-0.208-0.163c-0.105,0.058-0.21,0.116-0.314,0.173c-0.139,0.008-0.277,0.016-0.417,0.024
		C16.419,10.315,16.423,10.246,16.427,10.176z M16.682,10.467c0.038,0.003,0.077,0.007,0.116,0.011
		c0.034,0.069,0.069,0.14,0.104,0.209c-0.162,0.012-0.325,0.023-0.487,0.035c-0.005-0.069-0.009-0.139-0.011-0.208
		C16.493,10.485,16.612,10.51,16.682,10.467z M16.405,10.848c0.33-0.152,0.701,0.043,1.055-0.092
		c0.054,0.019,0.075,0.015,0.15,0.011c0.012,0.062,0.023,0.125,0.035,0.186c-0.063,0.061-1.092,0.108-1.229,0.058
		C16.401,10.945,16.401,10.921,16.405,10.848z M17.645,11.138c0,0.085,0,0.17,0,0.255c-0.195,0.085-0.403,0.005-0.533-0.093
		c-0.145,0.023-0.174,0.122-0.268,0.151c-0.143,0.004-0.285,0.008-0.429,0.012c-0.005,0-0.009,0-0.011,0c0-0.096,0-0.193,0-0.29
		c0.002-0.012,0.006-0.023,0.011-0.035c0.081,0.011,0.212,0.011,0.29-0.023C17.018,11.123,17.33,11.13,17.645,11.138z
		 M16.405,11.568c0.113,0.021,0.252-0.01,0.428-0.012c0.008,0.047,0.016,0.093,0.023,0.14c0.035,0.055,0.126,0.067,0.209,0.07
		c0.073-0.075,0.158-0.07,0.174-0.209c0.092-0.042,0.263-0.006,0.371-0.046c0.015,0,0.031,0,0.046,0
		c-0.004,0.085-0.007,0.17-0.011,0.255c-0.148,0.068-0.967,0.04-1.218,0.034C16.382,11.727,16.399,11.665,16.405,11.568z
		 M17.633,11.927c0.004,0.03,0.008,0.061,0.012,0.092c-0.127,0.123-0.945,0.079-1.207,0.069c-0.027-0.04-0.031-0.101-0.046-0.161
		C16.547,11.813,17.449,11.897,17.633,11.927z M16.392,12.518c0.005-0.101,0.009-0.2,0.013-0.301
		c0.134-0.062,0.334,0.019,0.475-0.035c0.247,0.008,0.494,0.015,0.742,0.022c0.035,0.105-0.016,0.214,0.012,0.313
		c-0.121,0.132-0.354-0.033-0.441-0.081c-0.131-0.047-0.559,0.231-0.765,0.093C16.415,12.526,16.405,12.522,16.392,12.518z
		 M16.405,12.67c0.08-0.008,0.161-0.016,0.242-0.024c0.066,0.005,0.131,0.009,0.197,0.013c0.082,0.115,0.13,0.17,0.278,0.221
		c0.158-0.006,0.202-0.127,0.255-0.233c0.085,0.005,0.17,0.009,0.256,0.013c-0.004,0.08-0.009,0.162-0.012,0.243
		c-0.296,0.062-0.908-0.095-1.184,0.058c-0.011-0.047-0.022-0.093-0.033-0.139C16.405,12.769,16.405,12.719,16.405,12.67z
		 M16.438,13.191c0.008-0.051,0.016-0.101,0.023-0.151c0.391-0.002,0.78-0.04,1.137-0.011c0.021,0.043,0.025,0.111,0.023,0.185
		c-0.163,0.042-0.324-0.048-0.465-0.022c-0.225,0.019-0.447,0.038-0.672,0.058C16.467,13.217,16.466,13.212,16.438,13.191z
		 M16.52,13.365c0.353-0.003,0.711-0.026,1.102-0.059c0.003,0.108,0.008,0.155-0.023,0.221c-0.189,0.024-0.932,0.083-1.066,0.013
		C16.528,13.481,16.524,13.423,16.52,13.365z M16.577,13.759c0-0.011,0-0.022,0-0.034c0.159-0.019,0.317-0.038,0.476-0.059
		c0.055,0,0.108,0,0.162,0c0,0.004,0,0.008,0,0.012c-0.124,0.047-0.391,0.359-0.603,0.139
		C16.601,13.799,16.588,13.778,16.577,13.759z M16.774,14.165c-0.022-0.036-0.046-0.069-0.068-0.104c0-0.017,0-0.032,0-0.047
		c0.085-0.016,0.17-0.031,0.254-0.046c0.099,0.089,0.144,0.135,0.279,0.196c0.077-0.042,0.164-0.071,0.174-0.187
		c0.109-0.044,0.243,0.013,0.313-0.058c0.03,0.066,0.062,0.132,0.093,0.198c0,0.01,0,0.022,0,0.034
		C17.471,14.155,17.073,14.239,16.774,14.165z M16.926,14.385c-0.004-0.012-0.008-0.023-0.013-0.036
		c0.005-0.004,0.009-0.006,0.013-0.01c0.197-0.048,0.496,0.004,0.66-0.07c0.097,0.008,0.193,0.017,0.29,0.022
		c0.026,0.032,0.054,0.062,0.081,0.094c0,0.019,0,0.038,0,0.059c-0.246,0.04-0.693-0.04-0.916,0.056
		C17.002,14.462,16.963,14.424,16.926,14.385z M17.203,14.617c0.125-0.009,0.248-0.015,0.371-0.022
		c0.182,0.006,0.543-0.054,0.627,0.116c0.011,0.01,0.023,0.022,0.033,0.034C17.967,14.759,17.291,14.878,17.203,14.617z
		 M17.563,14.929c0.029-0.022,0.1-0.021,0.141-0.034c0.334,0.059,0.69-0.07,0.926,0.139c-0.003,0.012-0.007,0.023-0.011,0.036
		c-0.263-0.009-0.82,0.023-1.032-0.141C17.578,14.929,17.571,14.929,17.563,14.929z M18.317,15.208
		c-0.004-0.008-0.008-0.016-0.012-0.021c0.045,0,0.101,0.004,0.161,0.008C18.414,15.194,18.364,15.198,18.317,15.208z
		 M18.539,15.198c0.087,0.002,0.174-0.004,0.229-0.036c0.136,0.012,0.271,0.024,0.405,0.034
		C18.995,15.28,18.756,15.215,18.539,15.198z"/>
	<path fill-rule="evenodd" clip-rule="evenodd" fill="#000003" d="M2.234,12.159c-0.003-0.009-0.006-0.015-0.008-0.021
		c0,0.018,0.002,0.035,0.002,0.052C2.23,12.183,2.231,12.175,2.234,12.159z"/>
	<path fill-rule="evenodd" clip-rule="evenodd" fill="#000003" d="M28.695,16.403c0.004-0.012,0.008-0.023,0.012-0.036
		c-0.139,0.026-0.284,0.053-0.438,0.076C28.449,16.424,28.618,16.41,28.695,16.403z"/>
	<path fill-rule="evenodd" clip-rule="evenodd" fill="#000003" d="M27.326,16.205c-0.34-0.24-0.729-0.329-1.24-0.347
		c-0.041,0.023-0.086,0.01-0.151,0.023c-0.138,0.028-0.17,0.117-0.244,0.209c0.076,0.188,0.277,0.19,0.406,0.301
		c0.009-0.03,0.002-0.006-0.011-0.034c0.46,0.141,0.996,0.299,1.484,0.173c0.107,0.072,0.205,0.246,0.219,0.407
		c0.013-0.009,0.023-0.017,0.035-0.024c-0.027,0.137,0.034,0.314,0.047,0.476c0.028,0.358-0.208,0.853-0.371,1.055
		c-0.343,0.43-1.232,0.497-1.785,0.255c-0.722-0.315-1.312-0.794-1.937-1.205c-0.591-0.388-1.238-0.746-1.845-1.09
		c-0.14-0.08-0.346-0.074-0.486-0.116c-1.168-0.362-2.395,0.377-2.365,1.543c0.004,0.004,0.008,0.008,0.012,0.012
		c0.004,0,0.008,0,0.012,0c0.016-0.133,0.029-0.265,0.046-0.396c0.06-0.208,0.186-0.407,0.302-0.567
		c0.416-0.575,1.65-0.427,2.33-0.175c1.475,0.55,2.441,1.747,3.955,2.307c0.268,0.101,0.754,0.082,0.985-0.034
		c0.08,0.059,0.597-0.295,0.661-0.347c0.381-0.313,0.655-1.178,0.463-1.717c-0.065-0.12-0.131-0.238-0.196-0.359
		c0.034-0.027,0.166-0.052,0.328-0.076c-0.113,0.011-0.23,0.019-0.352,0.019C27.527,16.399,27.427,16.303,27.326,16.205z
		 M27.164,16.462c-0.266,0.022-0.861-0.08-1.078-0.325c0.007-0.023,0.015-0.046,0.022-0.07c0.078-0.025,0.155-0.054,0.232-0.08
		c0.135,0.01,0.271,0.022,0.406,0.034c0.299,0.078,0.593,0.19,0.741,0.394c0.02,0.02,0.038,0.04,0.059,0.058
		C27.438,16.528,27.308,16.45,27.164,16.462z"/>
	<path fill-rule="evenodd" clip-rule="evenodd" fill="#000003" d="M28.269,16.443c-0.097,0.011-0.198,0.022-0.289,0.034
		C28.078,16.469,28.176,16.458,28.269,16.443z"/>
	<path fill-rule="evenodd" clip-rule="evenodd" fill="#000003" d="M28.996,16.287c-0.004,0.008-0.008,0.017-0.013,0.022
		c0.207-0.01,0.243-0.12,0.395-0.15c0-0.012,0-0.022,0-0.034c-0.011,0-0.023,0-0.034,0C29.27,16.199,29.106,16.255,28.996,16.287z"
		/>
	<path fill-rule="evenodd" clip-rule="evenodd" fill="#000003" d="M35.525,16.195c0.008-0.008,0.015-0.017,0.022-0.024
		c-0.008,0-0.015,0-0.022,0C35.525,16.178,35.525,16.187,35.525,16.195z"/>
	<path fill-rule="evenodd" clip-rule="evenodd" fill="#000003" d="M28.857,16.334c0.002,0,0.004-0.003,0.006-0.003
		c-0.01,0-0.019,0.003-0.029,0.003C28.842,16.334,28.849,16.334,28.857,16.334z"/>
	<path fill-rule="evenodd" clip-rule="evenodd" fill="#000003" d="M28.863,16.331c0.041-0.004,0.081-0.006,0.121-0.01
		c0-0.004,0-0.008,0-0.012c-0.011-0.004-0.022-0.006-0.033-0.01C28.921,16.309,28.892,16.319,28.863,16.331z"/>
	<path fill-rule="evenodd" clip-rule="evenodd" fill="#000003" d="M28.73,16.391c0.008-0.012,0.015-0.024,0.022-0.034
		c-0.008,0-0.015,0-0.022,0C28.73,16.367,28.73,16.38,28.73,16.391z"/>
	<path fill-rule="evenodd" clip-rule="evenodd" fill="#000003" d="M19.233,18.213c-0.063-0.086-0.055-0.267-0.127-0.349
		c0.01,0.457,0.423,0.733,0.753,0.88c0.004,0,0.009,0,0.013,0c0-0.002,0-0.006,0-0.01c-0.063-0.032-0.125-0.063-0.186-0.093
		C19.513,18.533,19.35,18.373,19.233,18.213z"/>
	<path fill-rule="evenodd" clip-rule="evenodd" fill="#000003" d="M19.963,18.756c-0.023-0.018-0.016-0.014-0.059-0.021
		C19.929,18.758,19.916,18.75,19.963,18.756z"/>
</g>
</svg>
