<?xml version="1.0" encoding="utf-8"?>
<!-- Generator: Adobe Illustrator 16.0.0, SVG Export Plug-In . SVG Version: 6.00 Build 0)  -->
<!DOCTYPE svg PUBLIC "-//W3C//DTD SVG 1.1//EN" "http://www.w3.org/Graphics/SVG/1.1/DTD/svg11.dtd">
<svg version="1.1" id="Layer_1" xmlns="http://www.w3.org/2000/svg" xmlns:xlink="http://www.w3.org/1999/xlink" x="0px" y="0px"
	 width="46.732px" height="23.107px" viewBox="0 0 46.732 23.107" enable-background="new 0 0 46.732 23.107" xml:space="preserve">
<g>
	<path fill="#C32032" d="M1.931,8.164V7.842c0-0.048,0.029-0.077,0.076-0.077h1.442c0.047,0,0.075,0.028,0.075,0.077v2.96
		c0.39-0.417,0.835-0.655,1.585-0.655c1.233,0,1.784,0.834,1.784,2.409c0,1.537-0.675,2.59-2.145,2.59
		c-0.683,0-0.987-0.217-1.385-0.483c-0.046-0.029-0.085-0.02-0.113,0.02l-0.257,0.351C2.974,15.06,2.946,15.07,2.927,15.07H2.49
		c-0.038,0-0.075-0.058-0.058-0.104c0.182-0.39,0.286-0.749,0.286-1.404v-5.15c0-0.124-0.048-0.171-0.17-0.171H2.007
		C1.969,8.24,1.931,8.211,1.931,8.164 M4.805,10.678c-0.959,0-1.309,0.673-1.309,0.958s0.028,0.37,0.028,0.654v0.921
		c0,0.284-0.028,0.37-0.028,0.655c0,0.273,0.199,0.834,1.139,0.834c1.006,0,1.375-0.807,1.375-2.059
		C6.01,11.825,5.991,10.678,4.805,10.678z"/>
	<path fill="#C32032" d="M12.272,12.508c0,1.651-0.58,2.638-2.258,2.638c-1.68,0-2.267-0.674-2.267-2.371
		c0-1.698,0.719-2.627,2.257-2.627C11.683,10.147,12.272,10.858,12.272,12.508 M8.629,12.546c0,1.139,0.208,2.229,1.385,2.229
		c1.176,0,1.375-0.843,1.375-2.028c0-1.188-0.227-2.23-1.385-2.23C8.827,10.517,8.629,11.407,8.629,12.546z"/>
	<path fill="#C32032" d="M13.874,8.827h0.455c0.048,0,0.077,0.038,0.077,0.076v1.148c0,0.123,0.047,0.171,0.17,0.171h1.291
		c0.047,0,0.077,0.028,0.077,0.076v0.322c0,0.046-0.04,0.075-0.077,0.075h-1.46v3.188c0,0.475,0.246,0.798,1.621,0.674
		c0.049,0,0.076,0.009,0.086,0.058l0.038,0.313c0.009,0.046-0.02,0.084-0.058,0.094c-0.541,0.076-0.892,0.123-1.27,0.123
		c-0.854,0-1.224-0.379-1.224-1.48v-2.969h-0.778c-0.039,0-0.077-0.029-0.077-0.075v-0.322c0-0.048,0.029-0.076,0.077-0.076
		c0.606,0,0.902-0.123,0.977-1.319C13.799,8.856,13.827,8.827,13.874,8.827"/>
	<path fill="#C32032" d="M21.349,14.673v0.322c0,0.046-0.027,0.075-0.075,0.075h-1.348c-0.047,0-0.066-0.021-0.075-0.066
		L19.765,14.5c-0.379,0.399-0.864,0.646-1.622,0.646c-0.711,0-1.461-0.237-1.461-1.365c0-0.977,0.798-1.509,2.249-1.509
		c0.313,0,0.503,0,0.834,0.038v-0.645c0-0.674-0.331-1.147-1.062-1.147c-0.588,0-0.997,0.179-0.997,1.015
		c0,0.038-0.028,0.075-0.075,0.075h-0.654c-0.049,0-0.078-0.037-0.078-0.075c0-1.195,0.807-1.385,1.927-1.385
		c1.091,0,1.745,0.246,1.745,1.508v2.77c0,0.124,0.048,0.171,0.17,0.171h0.532C21.312,14.595,21.349,14.624,21.349,14.673
		 M18.901,12.67c-0.872,0-1.336,0.408-1.336,1.071c0,0.57,0.322,0.874,0.863,0.874c1.006,0,1.366-0.675,1.366-0.959
		s-0.029-0.379-0.029-0.653v-0.248C19.414,12.67,19.216,12.67,18.901,12.67z"/>
	<path fill="#C32032" d="M22.392,10.696h-0.54c-0.037,0-0.076-0.029-0.076-0.075v-0.322c0-0.048,0.028-0.076,0.076-0.076h1.441
		c0.049,0,0.077,0.028,0.077,0.076v0.503c0.389-0.417,0.844-0.655,1.584-0.655c1.232,0,1.489,0.702,1.489,1.366v2.912
		c0,0.124,0.047,0.171,0.17,0.171h0.541c0.039,0,0.076,0.028,0.076,0.077v0.322c0,0.046-0.027,0.075-0.076,0.075h-2.229
		c-0.049,0-0.075-0.029-0.075-0.075v-0.322c0-0.049,0.037-0.077,0.075-0.077h0.54c0.124,0,0.171-0.047,0.171-0.171V12.49
		c0-0.95,0.161-1.812-0.91-1.812c-1.073,0-1.385,0.673-1.385,0.958s0.028,0.37,0.028,0.654v2.135c0,0.124,0.047,0.171,0.17,0.171
		h0.541c0.038,0,0.075,0.028,0.075,0.077v0.322c0,0.046-0.028,0.075-0.075,0.075h-2.229c-0.048,0-0.076-0.029-0.076-0.075v-0.322
		c0-0.049,0.039-0.077,0.076-0.077h0.54c0.124,0,0.171-0.047,0.171-0.171v-3.557C22.563,10.745,22.515,10.696,22.392,10.696"/>
	<path fill="#C32032" d="M29.251,14.425c0,0.124,0.048,0.171,0.171,0.171h0.54c0.038,0,0.077,0.028,0.077,0.077v0.322
		c0,0.046-0.029,0.075-0.077,0.075h-2.229c-0.048,0-0.076-0.029-0.076-0.075v-0.322c0-0.049,0.038-0.077,0.076-0.077h0.54
		c0.124,0,0.171-0.047,0.171-0.171v-3.557c0-0.123-0.047-0.172-0.171-0.172h-0.54c-0.038,0-0.076-0.029-0.076-0.075v-0.322
		c0-0.048,0.028-0.076,0.076-0.076h1.441c0.047,0,0.076,0.028,0.076,0.076V14.425"/>
	<path fill="#C32032" d="M34.649,11.721h-0.664c-0.047,0-0.075-0.038-0.075-0.075c0-0.807-0.438-1.101-1.053-1.101
		c-0.788,0-1.271,0.445-1.271,2.069c0,1.773,0.36,2.134,1.224,2.134c0.692,0,1.101-0.551,1.101-1.083
		c0-0.037,0.028-0.075,0.075-0.075h0.664c0.048,0,0.076,0.03,0.076,0.075c0,0.939-0.692,1.48-1.878,1.48
		c-1.414,0-2.145-0.513-2.145-2.38c0-1.784,0.722-2.619,2.257-2.619c1.064,0,1.766,0.37,1.766,1.499
		C34.725,11.692,34.697,11.721,34.649,11.721"/>
	<path fill="#C32032" d="M36.84,12.803c0,0.947-0.189,1.812,0.959,1.812c0.957,0,1.337-0.636,1.337-0.959
		c0-0.284-0.029-0.368-0.029-0.653v-2.135c0-0.123-0.046-0.172-0.17-0.172h-0.541c-0.038,0-0.075-0.029-0.075-0.075v-0.322
		c0-0.048,0.028-0.076,0.075-0.076h1.442c0.047,0,0.076,0.028,0.076,0.076v4.126c0,0.124,0.048,0.171,0.171,0.171h0.53
		c0.038,0,0.075,0.028,0.075,0.077v0.322c0,0.046-0.027,0.075-0.075,0.075h-1.347c-0.047,0-0.066-0.029-0.075-0.075l-0.087-0.504
		c-0.388,0.417-0.843,0.654-1.583,0.654c-1.233,0-1.489-0.701-1.489-1.365v-2.912c0-0.123-0.048-0.172-0.172-0.172h-0.54
		c-0.039,0-0.075-0.029-0.075-0.075v-0.322c0-0.048,0.027-0.076,0.075-0.076h1.441c0.048,0,0.076,0.028,0.076,0.076V12.803"/>
	<path fill="#C32032" d="M44.96,11.503h-0.663c-0.048,0-0.086-0.038-0.076-0.076c0.095-0.551-0.36-0.892-0.911-0.892
		c-0.673,0-1.072,0.218-1.072,0.778c0,0.399,0.066,0.598,1.148,0.91c0.815,0.238,1.717,0.514,1.717,1.51
		c0,0.92-0.616,1.412-2.011,1.412c-1.565,0-1.859-0.597-1.765-1.395c0-0.037,0.028-0.075,0.077-0.075h0.662
		c0.048,0,0.087,0.029,0.076,0.075c-0.095,0.579,0.276,0.988,0.892,0.988c0.901,0,1.263-0.334,1.263-0.846
		c0-0.417-0.114-0.635-1.187-0.939c-1.271-0.359-1.697-0.691-1.697-1.546c0-0.938,0.939-1.261,1.878-1.261
		c1.204,0,1.84,0.275,1.745,1.281C45.036,11.474,45.008,11.503,44.96,11.503"/>
</g>
</svg>
