<?xml version="1.0" encoding="utf-8"?>
<!-- Generator: Adobe Illustrator 16.0.0, SVG Export Plug-In . SVG Version: 6.00 Build 0)  -->
<!DOCTYPE svg PUBLIC "-//W3C//DTD SVG 1.1//EN" "http://www.w3.org/Graphics/SVG/1.1/DTD/svg11.dtd">
<svg version="1.1" id="Layer_1" xmlns="http://www.w3.org/2000/svg" xmlns:xlink="http://www.w3.org/1999/xlink" x="0px" y="0px"
	 width="46.732px" height="23.107px" viewBox="0 0 46.732 23.107" enable-background="new 0 0 46.732 23.107" xml:space="preserve">
<g>
	<path fill="#231F20" d="M7.798,12.676c-0.008,0-0.016-0.006-0.016-0.016V8.643c0-0.009,0.007-0.015,0.016-0.015H8.28
		c0.008,0,0.015,0.006,0.015,0.015v0.346c0.391-0.402,0.883-0.435,1.148-0.452c0,0,0.153-0.01,0.154-0.01
		c0.003,0,0.007,0.001,0.01,0.004c0.003,0.002,0.004,0.006,0.004,0.011v0.484c0,0.008-0.006,0.015-0.014,0.015H9.398
		c-0.711,0-1.104,0.51-1.104,1.435v2.184c0,0.01-0.007,0.016-0.015,0.016H7.798"/>
	<path fill="#231F20" d="M12.351,12.768c-1.558,0-2.123-1.261-2.123-2.109c0-1.21,0.915-2.123,2.128-2.123
		c0.544,0,1.057,0.191,1.446,0.541c0.447,0.402,0.701,1.018,0.664,1.606l-0.01,0.133c-0.001,0.008-0.007,0.014-0.015,0.014h-3.686
		c0.1,1.048,1.025,1.439,1.588,1.439h0.012c0.647,0,1.189-0.335,1.451-0.896l0.039-0.082c0.002-0.006,0.009-0.01,0.014-0.01h0.525
		c0.004,0,0.01,0.004,0.012,0.007c0.003,0.005,0.003,0.011,0.001,0.015l-0.083,0.198c-0.175,0.403-0.457,0.736-0.816,0.959
		C13.163,12.662,12.767,12.768,12.351,12.768 M13.936,10.332c-0.123-0.717-0.799-1.298-1.519-1.298
		c-0.011,0-0.054,0.001-0.054,0.001c-0.798,0-1.464,0.544-1.591,1.297H13.936z"/>
	<path fill="#231F20" d="M17.588,12.768c-1.558,0-2.124-1.261-2.124-2.109c0-1.21,0.916-2.123,2.131-2.123
		c0.543,0,1.056,0.191,1.442,0.541c0.448,0.401,0.704,1.017,0.666,1.606l-0.008,0.133c-0.001,0.008-0.008,0.014-0.016,0.014h-3.687
		c0.102,1.048,1.026,1.439,1.588,1.439h0.013c0.646,0,1.189-0.335,1.45-0.896l0.038-0.082c0.002-0.006,0.008-0.01,0.015-0.01h0.525
		c0.005,0,0.01,0.004,0.013,0.007c0.002,0.005,0.002,0.011,0.001,0.015l-0.085,0.198c-0.173,0.403-0.455,0.734-0.816,0.959
		C18.401,12.662,18.005,12.768,17.588,12.768 M19.173,10.332c-0.124-0.717-0.8-1.298-1.518-1.298c-0.012,0-0.054,0.001-0.054,0.001
		c-0.799,0-1.466,0.544-1.59,1.297H19.173z"/>
	<path fill="#231F20" d="M24.227,12.676c-0.009,0-0.016-0.006-0.016-0.016V10.51c0-0.673-0.23-1.476-1.324-1.476h-0.03
		c-0.863,0.015-1.359,0.501-1.359,1.335v2.29c0,0.01-0.007,0.016-0.015,0.016h-0.481c-0.01,0-0.016-0.006-0.016-0.016V8.643
		c0-0.009,0.006-0.015,0.016-0.015h0.481c0.008,0,0.015,0.006,0.015,0.015v0.408c0.321-0.332,0.798-0.514,1.351-0.514H22.9
		c1.177,0.03,1.826,0.731,1.826,1.974v2.149c0,0.01-0.008,0.016-0.017,0.016H24.227"/>
	<path fill="#231F20" d="M30.908,12.774c-1.383,0-2.129-1.093-2.129-2.122c0-1.029,0.746-2.124,2.129-2.124
		c0.914,0,1.615,0.541,1.864,1.097V8.645c0-0.009,0.008-0.015,0.015-0.015h0.214c0.01,0,0.016,0.006,0.016,0.015v4.015
		c0,0.01-0.006,0.016-0.016,0.016h-0.214c-0.007,0-0.015-0.006-0.015-0.016v-0.974C32.396,12.389,31.736,12.774,30.908,12.774
		 M30.908,8.758c-1.075,0-1.886,0.815-1.886,1.895c0.009,0.945,0.668,1.893,1.909,1.893c0.81,0,1.481-0.475,1.753-1.24
		c0.079-0.212,0.119-0.453,0.111-0.698c0-0.245-0.047-0.483-0.136-0.692C32.386,9.213,31.698,8.758,30.908,8.758z"/>
	<path fill="#231F20" d="M38.618,12.676c-0.009,0-0.017-0.006-0.017-0.016V10.5c0-1.123-0.561-1.742-1.578-1.742h-0.035
		c-1.01,0.015-1.614,0.611-1.614,1.591v2.311c0,0.01-0.005,0.016-0.015,0.016h-0.213c-0.008,0-0.015-0.006-0.015-0.016V8.645
		c0-0.009,0.007-0.015,0.015-0.015h0.213c0.01,0,0.015,0.006,0.015,0.015c0,0.254,0,0.495-0.005,0.79
		c0.259-0.568,0.855-0.905,1.612-0.905c0.018,0,0.034,0,0.052,0c1.17,0.031,1.813,0.73,1.813,1.971v2.16
		c0,0.01-0.008,0.016-0.018,0.016H38.618"/>
	<path fill="#231F20" d="M42.586,12.774c-1.385,0-2.13-1.093-2.13-2.122c0-1.029,0.745-2.124,2.13-2.124
		c0.914,0,1.613,0.541,1.862,1.097V6.9c0-0.009,0.007-0.016,0.017-0.016h0.213c0.007,0,0.015,0.006,0.015,0.016v5.76
		c0,0.01-0.008,0.016-0.015,0.016h-0.213c-0.01,0-0.017-0.006-0.017-0.016v-0.974C44.072,12.389,43.411,12.774,42.586,12.774
		 M42.586,8.758c-1.075,0-1.887,0.815-1.887,1.895c0.008,0.945,0.665,1.893,1.909,1.893c0.512,0,0.986-0.197,1.337-0.555
		c0.353-0.361,0.541-0.842,0.526-1.353c0-0.515-0.192-0.99-0.54-1.339C43.581,8.95,43.103,8.758,42.586,8.758z"/>
	<path fill="#231F20" d="M28.732,15.815c-0.306,0-0.819-0.118-1.261-0.452c-0.355-0.273-0.78-0.788-0.794-1.687V6.9
		c0-0.009,0.008-0.016,0.017-0.016h0.212c0.009,0,0.017,0.006,0.017,0.016v6.776c0,1.19,0.932,1.905,1.834,1.91
		c0.008,0,0.016,0.007,0.016,0.016v0.195c0,0.009-0.007,0.016-0.015,0.017C28.748,15.815,28.74,15.815,28.732,15.815"/>
	<path fill="#231F20" d="M4.061,15.822c-0.778,0-1.703-0.446-2.015-1.442c-0.001-0.006,0-0.011,0.003-0.015
		c0.002-0.004,0.008-0.007,0.014-0.007h0.501c0.007,0,0.012,0.005,0.015,0.01c0.251,0.589,0.805,0.942,1.482,0.942
		c0.803-0.008,1.616-0.576,1.616-1.653l-0.014-1.594c-0.388,0.461-0.936,0.705-1.59,0.705c-1.392,0-2.143-1.091-2.143-2.117
		s0.751-2.115,2.143-2.115c0.611,0,1.201,0.258,1.59,0.691V8.643c0-0.009,0.007-0.015,0.015-0.015H6.16
		c0.009,0,0.017,0.006,0.017,0.015v5.036C6.177,15.071,5.086,15.822,4.061,15.822 M4.074,9.034c-0.945,0-1.631,0.681-1.631,1.617
		c0.006,0.804,0.576,1.618,1.652,1.618c0.444,0,0.849-0.169,1.141-0.474c0.289-0.302,0.448-0.713,0.448-1.158
		c0-0.27-0.093-0.682-0.355-1.024C5.128,9.349,4.745,9.034,4.074,9.034z"/>
</g>
</svg>
