<?xml version="1.0" standalone="no"?>
<!DOCTYPE svg PUBLIC "-//W3C//DTD SVG 20010904//EN"
 "http://www.w3.org/TR/2001/REC-SVG-20010904/DTD/svg10.dtd">
<svg version="1.0" xmlns="http://www.w3.org/2000/svg"
 width="1786.000000pt" height="364.000000pt" viewBox="0 0 1786.000000 364.000000"
 preserveAspectRatio="xMidYMid meet">

<g transform="translate(0.000000,364.000000) scale(0.100000,-0.100000)"
fill="#000000" stroke="none">
<path d="M1420 2669 c-162 -29 -319 -109 -442 -227 -183 -175 -278 -401 -278
-662 0 -358 187 -667 493 -815 126 -60 190 -76 343 -82 206 -9 357 31 517 137
98 64 265 241 255 269 -4 11 -197 161 -208 161 -3 0 -21 -22 -38 -48 -152
-235 -486 -319 -751 -189 -83 40 -194 149 -238 232 -60 114 -78 195 -77 340 1
113 4 141 28 212 32 97 107 215 174 273 95 82 252 140 382 140 147 0 292 -62
400 -171 l66 -67 102 91 101 90 -31 40 c-80 100 -263 216 -410 258 -85 24
-299 34 -388 18z"/>
<path d="M3522 2669 c-84 -14 -200 -56 -282 -102 -104 -58 -259 -214 -319
-320 -146 -260 -161 -594 -37 -862 93 -200 258 -360 458 -443 201 -84 465 -84
666 0 332 138 542 463 542 838 0 261 -95 487 -278 662 -168 161 -370 240 -607
237 -49 -1 -114 -5 -143 -10z m273 -274 c86 -18 194 -71 257 -125 67 -58 142
-176 174 -273 24 -71 27 -99 28 -212 1 -145 -17 -226 -77 -340 -44 -83 -155
-192 -238 -232 -226 -111 -488 -72 -660 97 -305 302 -226 866 147 1042 117 55
242 70 369 43z"/>
<path d="M5187 2663 c-4 -3 -7 -404 -7 -890 l0 -883 533 2 532 3 3 133 3 132
-391 0 -390 0 0 755 0 755 -138 0 c-76 0 -142 -3 -145 -7z"/>
<path d="M6940 1780 l0 -890 565 0 565 0 0 135 0 135 -420 0 -420 0 0 245 0
245 200 0 200 0 0 135 0 135 -200 0 -200 0 0 235 0 235 410 0 410 0 0 140 0
140 -555 0 -555 0 0 -890z"/>
<path d="M9700 1780 l0 -890 145 0 145 0 0 380 0 380 360 0 360 0 2 -377 3
-378 143 -3 142 -3 0 891 0 891 -142 -3 -143 -3 -3 -372 -2 -373 -360 0 -360
0 -2 373 -3 372 -142 3 -143 3 0 -891z"/>
<path d="M12326 2662 c-2 -4 -149 -397 -325 -872 -176 -476 -323 -873 -326
-882 -7 -17 4 -18 143 -18 l151 0 19 53 c11 28 41 112 67 185 l47 132 367 0
367 0 63 -177 c35 -98 67 -181 71 -186 3 -4 72 -6 152 -5 l146 3 -328 885
-327 885 -141 3 c-77 1 -143 -1 -146 -6z m280 -765 l131 -362 -134 -3 c-73 -1
-193 -1 -267 0 l-134 3 131 367 c73 201 134 364 137 362 3 -3 64 -168 136
-367z"/>
<path d="M14326 2638 c-8 -18 -155 -413 -326 -878 -172 -465 -315 -851 -317
-857 -4 -10 29 -13 145 -13 l150 0 35 98 c20 53 50 136 67 184 l32 88 366 0
367 0 66 -183 65 -182 147 -3 c114 -2 147 0 147 10 0 7 -146 407 -324 888
l-324 875 -141 3 -142 3 -13 -33z m289 -741 l131 -362 -265 -3 c-145 -1 -265
-1 -267 1 -2 1 56 168 129 369 72 202 134 365 137 362 3 -3 64 -168 135 -367z"/>
<path d="M15907 2663 c-4 -3 -7 -404 -7 -890 l0 -883 145 0 145 0 2 602 3 603
345 -603 345 -602 158 0 157 0 0 890 0 891 -142 -3 -143 -3 -5 -611 -5 -611
-344 613 -345 614 -151 0 c-83 0 -155 -3 -158 -7z"/>
</g>
</svg>
