<?xml version="1.0" standalone="no"?>
<!DOCTYPE svg PUBLIC "-//W3C//DTD SVG 20010904//EN"
 "http://www.w3.org/TR/2001/REC-SVG-20010904/DTD/svg10.dtd">
<svg version="1.0" xmlns="http://www.w3.org/2000/svg"
 width="300.000000pt" height="215.000000pt" viewBox="0 0 300.000000 215.000000"
 preserveAspectRatio="xMidYMid meet">

<g transform="translate(0.000000,215.000000) scale(0.100000,-0.100000)"
fill="#000000" stroke="none">
<path d="M135 1598 c-3 -7 -4 -229 -3 -493 l3 -480 174 -3 c110 -1 178 1 185
8 7 7 -46 10 -167 10 l-177 0 0 475 0 475 1375 0 1375 0 0 -475 0 -475 -171 0
c-111 0 -168 -3 -164 -10 4 -6 75 -10 181 -10 l174 0 0 495 0 495 -1390 0
c-1103 0 -1392 -3 -1395 -12z"/>
<path d="M780 1400 c-166 -77 -213 -300 -93 -439 93 -110 252 -122 359 -28 70
62 89 105 89 212 0 102 -15 145 -72 201 -49 50 -90 67 -168 71 -56 3 -79 0
-115 -17z m180 -25 c66 -33 103 -118 103 -232 0 -70 -4 -90 -29 -140 -38 -76
-78 -103 -153 -103 -111 0 -173 78 -179 227 -5 101 16 170 64 218 53 53 125
64 194 30z"/>
<path d="M1175 1410 c-2 -4 46 -126 108 -271 102 -239 115 -264 137 -267 24
-3 32 11 143 260 64 145 117 268 117 275 0 6 -8 9 -18 6 -13 -3 -48 -72 -118
-229 -54 -123 -102 -224 -105 -224 -3 0 -48 101 -99 224 l-94 224 -34 4 c-18
2 -35 1 -37 -2z"/>
<path d="M1886 1405 c-86 -30 -157 -121 -171 -220 -16 -103 40 -225 127 -279
37 -22 64 -30 118 -34 61 -4 76 -1 124 22 99 48 149 134 149 251 0 116 -50
202 -145 249 -59 30 -138 34 -202 11z m164 -30 c60 -31 96 -97 106 -193 17
-159 -61 -282 -178 -282 -86 0 -145 49 -173 142 -64 218 82 416 245 333z"/>
<path d="M2250 1410 c0 -3 47 -63 105 -132 l105 -126 0 -136 0 -136 30 0 30 0
0 139 0 139 105 123 c58 67 105 126 105 130 0 9 -41 3 -51 -8 -3 -5 -41 -48
-84 -98 -43 -49 -81 -91 -85 -93 -4 -1 -45 44 -92 100 -83 100 -86 103 -127
103 -22 0 -41 -2 -41 -5z"/>
<path d="M400 1125 c0 -310 -3 -332 -52 -342 -31 -6 -43 -18 -34 -32 9 -14 77
7 105 32 48 44 51 67 51 357 l0 270 -35 0 -35 0 0 -285z"/>
<path d="M550 645 c0 -30 5 -55 10 -55 6 0 10 25 10 55 0 30 -4 55 -10 55 -5
0 -10 -25 -10 -55z"/>
<path d="M599 687 c11 -14 11 -20 0 -34 -12 -14 -12 -16 1 -11 8 2 15 15 15
28 0 13 -7 26 -15 28 -13 5 -13 3 -1 -11z"/>
<path d="M678 688 c-3 -7 1 -19 9 -26 7 -8 11 -17 9 -21 -2 -3 4 -18 15 -31
24 -33 24 -14 -1 44 -22 49 -26 53 -32 34z"/>
<path d="M777 693 c-8 -14 -6 -92 3 -98 4 -3 10 20 12 50 3 50 -3 68 -15 48z"/>
<path d="M821 684 c11 -14 11 -18 -5 -29 -17 -13 -17 -15 -1 -39 10 -14 22
-26 27 -26 6 0 4 10 -4 23 -11 16 -12 27 -5 38 12 19 3 49 -14 49 -8 0 -7 -5
2 -16z"/>
<path d="M890 643 c0 -31 2 -54 5 -52 9 10 13 109 4 109 -5 0 -9 -26 -9 -57z"/>
<path d="M994 651 c1 -39 5 -56 16 -59 12 -4 13 -2 3 9 -6 8 -14 35 -16 59 -4
39 -4 38 -3 -9z"/>
<path d="M1060 658 c0 -24 -5 -49 -12 -56 -9 -9 -9 -12 0 -12 26 0 45 91 22
105 -6 4 -10 -11 -10 -37z"/>
<path d="M1121 643 c2 -55 2 -56 8 -18 l7 40 18 -40 17 -40 14 25 c18 32 19
50 2 26 -12 -16 -15 -14 -32 23 -10 23 -22 41 -27 41 -4 0 -7 -26 -7 -57z"/>
<path d="M1207 680 c-3 -11 -1 -20 3 -20 5 0 11 -17 13 -37 3 -28 4 -23 5 20
2 55 -10 77 -21 37z"/>
<path d="M1280 645 c0 -30 3 -55 8 -55 4 0 7 25 8 55 0 30 -4 55 -8 55 -4 0
-8 -25 -8 -55z"/>
<path d="M1392 649 c2 -31 8 -54 16 -57 9 -3 10 3 4 20 -4 12 -7 36 -6 51 0
15 -3 30 -8 33 -5 3 -8 -17 -6 -47z"/>
<path d="M1460 657 c0 -24 -5 -48 -12 -55 -7 -7 -8 -12 -2 -12 21 0 34 26 34
67 0 24 -4 43 -10 43 -5 0 -10 -19 -10 -43z"/>
<path d="M1527 693 c-11 -10 -8 -103 3 -103 6 0 10 25 10 55 0 56 -1 60 -13
48z"/>
<path d="M1571 684 c11 -14 11 -18 -5 -29 -17 -13 -17 -15 -1 -39 10 -14 22
-26 27 -26 6 0 4 10 -4 23 -11 16 -12 27 -5 38 12 19 3 49 -14 49 -8 0 -7 -5
2 -16z"/>
<path d="M1700 645 c0 -30 5 -55 10 -55 6 0 10 25 10 55 0 30 -4 55 -10 55 -5
0 -10 -25 -10 -55z"/>
<path d="M1747 690 c8 -9 9 -19 2 -31 -8 -15 -6 -17 6 -13 20 8 16 46 -5 52
-12 4 -12 2 -3 -8z"/>
<path d="M1826 691 c-4 -6 0 -18 8 -27 9 -9 14 -19 12 -23 -2 -3 4 -18 15 -31
l20 -25 -7 25 c-12 46 -41 94 -48 81z"/>
<path d="M1920 645 c0 -30 5 -55 10 -55 6 0 10 25 10 55 0 30 -4 55 -10 55 -5
0 -10 -25 -10 -55z"/>
<path d="M1971 684 c11 -14 11 -18 -5 -29 -17 -13 -17 -15 -1 -39 10 -14 22
-26 27 -26 6 0 4 10 -4 23 -11 16 -12 27 -5 38 12 19 3 49 -14 49 -8 0 -7 -5
2 -16z"/>
<path d="M2049 698 c-5 -14 -2 -101 4 -105 4 -2 7 21 7 51 0 31 -2 56 -5 56
-3 0 -5 -1 -6 -2z"/>
<path d="M2123 683 c-4 -11 3 -24 22 -39 20 -16 26 -27 21 -41 -7 -17 -6 -17
11 0 17 18 17 19 -12 44 -16 15 -29 32 -27 40 4 19 -7 16 -15 -4z"/>
<path d="M2165 690 c3 -5 8 -10 11 -10 2 0 4 5 4 10 0 6 -5 10 -11 10 -5 0 -7
-4 -4 -10z"/>
<path d="M2243 645 c0 -33 2 -45 4 -27 2 18 2 45 0 60 -2 15 -4 0 -4 -33z"/>
<path d="M2310 645 c0 -30 5 -55 10 -55 6 0 10 25 10 55 0 30 -4 55 -10 55 -5
0 -10 -25 -10 -55z"/>
<path d="M2422 650 c1 -43 2 -47 5 -17 l4 38 39 -43 39 -43 -1 60 c-1 52 -2
54 -5 16 l-4 -45 -39 45 -39 44 1 -55z"/>
<path d="M658 645 c-3 -11 -9 -29 -13 -40 -6 -17 -5 -17 9 3 10 12 16 30 14
40 -3 15 -5 14 -10 -3z"/>
<path d="M1801 629 c-14 -42 -7 -49 9 -9 7 17 10 33 8 36 -3 3 -11 -9 -17 -27z"/>
</g>
</svg>
