<?xml version="1.0" encoding="utf-8"?>
<!-- Generator: Adobe Illustrator 24.0.1, SVG Export Plug-In . SVG Version: 6.00 Build 0)  -->
<svg version="1.1" id="깒귽깂_1" xmlns="http://www.w3.org/2000/svg" xmlns:xlink="http://www.w3.org/1999/xlink" x="0px"
	 y="0px" viewBox="0 0 595.28 391.96" style="enable-background:new 0 0 595.28 391.96;" xml:space="preserve">
<style type="text/css">
	.st0{fill-rule:evenodd;clip-rule:evenodd;fill:#E03A3E;}
	.st1{fill:#1D458A;}
	.st2{fill-rule:evenodd;clip-rule:evenodd;fill:#1D458A;}
</style>
<g>
	<path class="st0" d="M179.03,315.77c0.59,0,0.82-0.01,0.8-0.54l-0.01-24.91c0.03-1.13,0.07-1.21-0.8-1.12
		C157.91,291.39,153.97,312.83,179.03,315.77z"/>
	<g>
		<g>
			<g>
				<g>
					<g>
						<g>
							<path class="st1" d="M361.95,297.45c0-1.96,2.12-3.55,4.73-3.55c2.61,0,4.73,1.59,4.73,3.55c0,1.96-2.12,3.54-4.73,3.54
								C364.06,300.99,361.95,299.4,361.95,297.45z"/>
						</g>
						<path class="st2" d="M223.56,289.58c0.05-0.46,0.56-0.7,1-0.72c1.47-0.1,3.25-0.24,4.42-0.15c1.04-0.02,0.99,0.26,0.98,0.97
							c0,0,0,13.39,0.17,19.26c0.11,1.59,0.82,0.71,1.14,0.36c0.95-1.17,3.43-3.27,5.56-5.11c2.12-1.84,3.88-0.71,4.56,0.52
							c0.45,0.78,1.98,3.46,3.07,5.41c1.28,2.12,2.18,1.65,3.29,0.81c7.19-5.2,11.74-7.69,16.17-7.8c2.62,0.11,2.07,1.76,0.67,2.13
							c-2.79,0.92-4.42,2.72-4.93,4.91c-0.38,1.76,0.43,3.6,2.93,2.82c1.52-0.47,2.83-1.93,3-5.45c0.46-2.33,2.96-1.76,3.55-1.12
							c0.98,1.06,2.65,3.17,3.49,4.37c0.87,1.45,1.51,0.97,2.37,0.14c1.73-1.73,4.53-4.34,6.61-6.36c1.81-1.76,3.86-1.54,5.3,0.39
							c1.17,1.56,2.01,2.66,3.24,4.27c1.09,1.42,1.4,1.09,2.26,0c0.89-1.23,2.79-3.71,3.63-4.72c1.97-2.1,3.93-1.3,4.91,0.08
							c1.34,1.7,2.48,3.24,3.79,4.94c0.62,0.87,0.87,1,1.65-0.08c0.35-0.49,2.99-3.85,3.93-4.86c1.51-1.84,3.44-1.62,4.63-0.05
							c0.99,1.29,4.07,4.38,5.72,6.25c0.87,0.97,1.17,1.14,2.73,0.11c3.29-2.23,5.53-6.98,5.53-6.98c0.17-0.36,0.56-0.75,1.01-0.72
							c1.45-0.14,2.54-0.2,3.7-0.01c0.74,0.07,0.99,0.57,0.98,0.98l0.04,5.3c0,0-0.08,0.46,0.23,0.02c1.78-2.58,4.23-4.5,7.12-5.51
							c6.3-2.2,13.87,1.58,9.84,8.43c-0.84,1.39,0.06,1.12,0.5,1.12c3.85-0.17,8.32-3.69,9.89-6.14v-2.82
							c-0.01-0.63,0.69-1.19,1.64-1.31c1.28-0.17,3.43-0.24,5.05-0.08c2.13,0.14,2.12,0.31,2.08,1.56c0.01,1.31-0.03,5.44,0.04,7.24
							c-0.01,1.94,1.48,1.82,3.04,1.06c2.71-1.13,6.47-3.89,8.54-6.29c2.74-3.35,5.8-4.69,9.04-4.47c3.37-0.14,2.54,1.7,0.73,2.22
							c-1.46,0.52-1.99,1.25-2.4,1.81c-1.23,1.69-1.59,3.8-0.83,5.71c0.97,2.43,3.02,2.14,3.91,0.78c0.9-1.38,1.46-3.53,0.74-5.16
							c-1.51-2.75,0.26-2.52,2.15-2.57c4.16-0.22,8.57-1.26,12.2-2.04c3.01-0.42,3.15,0.42,3.57,1.14c0.69,1.19,1.2,2.57,1.76,3.71
							c0.62,1.4,1.18,1.06,2.04,0c0.89-1,2.54-2.62,3.43-3.54c2.12-1.87,4.15-1.23,5.19-0.03c1.26,1.45,3.33,4.15,4.58,5.72
							c1.09,1.37,2.29,1.65,3.68,1.01c0.81-0.31,2.18-1.18,3.29-2.01c2.09-1.54,4.21-0.92,3.13,1.14c-1.73,2.46-3.74,4.44-6.2,6.05
							c-3.85,2.34-6.75,3.29-8.84,0.47c-0.98-1.03-2.18-2.6-3.8-4.77c-0.59-1.06-1.4-0.95-2.21,0.06c-0.88,1.09-2.79,3.35-4.1,4.74
							c-1.76,2.26-4.22,2.63-5.8-0.36c-1.28-2.43-2.79-5.83-4.13-9.32l-3.88,0.62c5.83,13.26-17.22,14.9-18.47,5.19
							c0-0.31-0.03-0.45-0.38-0.11c-4.37,4.57-7.68,5.25-11.27,5.74c-6.74,0.49-7.55-2.23-7.61-5.59c0.02-0.27-0.01-0.41-0.34-0.05
							c-9.06,8.16-18,5.5-21.02,3.8c-1.31-0.73-1.84-2.12-0.06-1.98c6.14,1.51,7.34-11.02-1.06-4.33c-5.89,5.67-5.08,14.6-4.61,23.8
							c0.02,0.98-0.16,1.2-0.84,1.42c-1.42,0.48-2.54,0.59-4.16,0.39c-0.65-0.08-0.91-0.17-1.12-0.87
							c-0.98-4.77-0.87-16.95-0.83-23.05c-1.81,1.87-3.37,3.16-5.45,4.52c-3.47,1.97-6.31,2.93-8.66-0.1c0,0-2.08-2.44-2.97-3.59
							c-0.92-1.16-1.32-1.34-2.18-0.03c-0.84,1.2-1.92,2.4-3.12,3.94c-1.87,2.54-4.19,2.01-5.44,0.08
							c-0.87-1.03-2.21-2.82-3.27-4.32c-0.64-1.03-1.24-0.73-1.84,0.08c-0.95,1.28-2.21,2.65-3.36,3.96
							c-2.48,2.81-4.51,2.4-6.38-0.08c-1.17-1.59-1.79-2.37-3.32-4.6c-0.67-0.89-1.17-0.45-1.76,0.06
							c-0.29,0.24-3.68,3.13-5.41,4.49c-3.57,3.21-5.42,3.01-8.12-0.98c-0.45-0.84-0.8-0.29-1.06,0.03
							c-0.64,0.78-1.78,1.42-3.35,2.21c-7.4,2.9-11.25-1.52-10.86-4.27c0.1-0.81-0.57-0.15-0.82,0.1c-0.22,0.22-2.97,2.61-4.42,3.33
							c-4.53,2.51-6.73,1.44-7.86,0.01c-0.78-0.78-2.02-3.18-2.69-4.09c-0.71-0.95-1.1-0.95-1.91,0.12
							c-0.5,0.67-1.14,1.29-2.52,2.99c-3.25,4.14-7.05,2.82-7.75-2.3C222.62,308.46,222.74,295.37,223.56,289.58z M179.03,315.77
							c0.59,0,0.82-0.01,0.8-0.54l-0.01-24.91c0.03-1.13,0.07-1.21-0.8-1.12C157.91,291.39,153.97,312.83,179.03,315.77z
							 M211.76,292.04c-2.36-0.77-6.56-2.01-10.23-2.52c-0.79-0.11-1.37-0.19-2.18-0.22c-0.87-0.03-0.83,0-0.8,1.12l-0.01,24.7
							c-0.01,0.53,0.12,0.55,1.06,0.46c4.61-0.34,14.97-2.87,18.96-4.86c0.75-0.4,1.59-0.67,0.67,0.44
							c-0.72,0.85-1.67,1.65-2.17,2.06c-16.16,13.01-37.76,9.8-48.7,5.23c-13.03-5.31-19.13-21.5-0.47-31.43
							c10.99-5.99,34.85-6.47,45.88,1.79c1.97,1.47,2.91,2.52,3.22,3.93c0.22,1.43-0.06,1.05-0.76,0.84
							c-0.45-0.15-1.5-0.51-1.88-0.66C213.25,292.52,212.79,292.38,211.76,292.04z"/>
					</g>
				</g>
			</g>
		</g>
	</g>
	<path class="st1" d="M429.13,298.85c0-1.96,1.48-3.45,3.38-3.45c1.88,0,3.36,1.48,3.36,3.45c0,2-1.48,3.47-3.36,3.47
		C430.61,302.32,429.13,300.85,429.13,298.85z M432.51,303.01c2.26,0,4.19-1.76,4.19-4.16c0-2.38-1.93-4.14-4.19-4.14
		c-2.29,0-4.21,1.76-4.21,4.14C428.29,301.25,430.22,303.01,432.51,303.01z M431.63,299.18h0.84l1.26,2.07h0.81l-1.36-2.11
		c0.7-0.09,1.24-0.46,1.24-1.32c0-0.95-0.56-1.36-1.69-1.36h-1.82v4.79h0.72V299.18z M431.63,298.56v-1.48h0.99
		c0.5,0,1.04,0.11,1.04,0.7c0,0.74-0.55,0.78-1.16,0.78H431.63z"/>
</g>
<g>
	<path class="st0" d="M264.93,197.99c2.17,0.01,3.01-0.04,2.96-1.98l-0.05-92.06c0.1-4.17,0.25-4.48-2.97-4.14
		C186.88,107.88,172.32,187.13,264.93,197.99z"/>
	<g>
		<g>
			<g>
				<g>
					<path class="st2" d="M264.93,197.99c2.17,0.01,3.01-0.04,2.96-1.98l-0.05-92.06c0.1-4.17,0.25-4.48-2.97-4.14
						C186.88,107.88,172.32,187.13,264.93,197.99z M385.91,110.29c-8.72-2.84-24.24-7.43-37.79-9.3c-2.93-0.4-5.07-0.69-8.07-0.81
						c-3.23-0.12-3.06-0.01-2.97,4.15l-0.05,91.29c-0.05,1.95,0.44,2.04,3.93,1.7c17.04-1.26,55.31-10.59,70.07-17.97
						c2.76-1.49,5.88-2.48,2.48,1.61c-2.67,3.15-6.18,6.09-8.02,7.62c-59.72,48.08-139.55,36.23-179.95,19.33
						c-48.16-19.61-70.7-79.44-1.74-116.14c40.6-22.15,128.77-23.9,169.56,6.6c7.29,5.43,10.74,9.32,11.91,14.53
						c0.82,5.28-0.21,3.88-2.82,3.1c-1.66-0.54-5.53-1.88-6.95-2.43C391.41,112.05,389.69,111.54,385.91,110.29z"/>
				</g>
			</g>
		</g>
	</g>
	<path class="st1" d="M398.5,208.87c0-1.96,1.48-3.45,3.38-3.45c1.88,0,3.36,1.48,3.36,3.45c0,2-1.48,3.47-3.36,3.47
		C399.99,212.34,398.5,210.87,398.5,208.87z M401.89,213.04c2.26,0,4.19-1.76,4.19-4.16c0-2.38-1.93-4.14-4.19-4.14
		c-2.29,0-4.21,1.76-4.21,4.14C397.67,211.28,399.6,213.04,401.89,213.04z M401.01,209.2h0.84l1.26,2.07h0.81l-1.36-2.11
		c0.7-0.09,1.24-0.46,1.24-1.32c0-0.95-0.56-1.36-1.69-1.36h-1.82v4.79h0.72V209.2z M401.01,208.59v-1.48H402
		c0.5,0,1.04,0.11,1.04,0.7c0,0.74-0.55,0.78-1.16,0.78H401.01z"/>
</g>
</svg>
