<svg xmlns="http://www.w3.org/2000/svg" width="46.733" height="23.107" viewBox="0 0 46.733 23.107"><g fill="#231F20"><path d="M5.255 8.8c-.034-.197-.057-.443-.057-.663v-1.671c0-.558-.123-.989-.403-1.279-.28-.292-.708-.431-1.291-.431-.578 0-1.178.195-1.592.617l-.043.043.044.044.449.469.045-.042c.294-.269.712-.408 1.114-.407.589.008.895.259.902.794v.053h-.187c-.948.002-2.505.067-2.517 1.427.002.801.703 1.218 1.51 1.22h.002c.543 0 .961-.233 1.234-.576.003.141.012.298.042.427l.012.049h.748l-.012-.074zm-.833-1.798v.187c-.021.608-.371 1.108-1.085 1.11-.48-.008-.79-.163-.793-.611.002-.465.471-.683 1.292-.686h.586zM8.94 4.801c-.101-.037-.201-.046-.287-.046-.569.001-1.021.271-1.257.605l-.012-.442v-.063h-.741v.063l.033.924v3.033h.775v-1.96c.008-.879.325-1.381 1.076-1.385.111 0 .23.016.332.047l.075.025.049-.785-.043-.016zM11.789 4.755c-1.228.002-2.14.863-2.142 2.11.002 1.246.914 2.106 2.142 2.109 1.228-.003 2.14-.862 2.142-2.109-.002-1.247-.914-2.108-2.142-2.11zm0 3.494c-.806-.002-1.314-.597-1.318-1.384.004-.79.513-1.385 1.318-1.386.805.001 1.315.596 1.317 1.386-.002.787-.511 1.382-1.317 1.384zM18.747 7.886v-3.033h-.776v1.961c-.008.877-.342 1.43-1.142 1.435-.571-.006-.819-.36-.826-.993v-2.403h-.776v2.469c.001.959.488 1.65 1.543 1.653.569-.001 1.019-.271 1.256-.606l.014.443v.063h.741v-.064l-.034-.925zM22.244 4.755c-.57.001-1.021.272-1.256.606l-.012-.444v-.062h-.742v.063l.033.923v3.033h.774v-1.96c.008-.877.342-1.43 1.143-1.434.572.006.819.36.827.994v2.401h.776v-2.468c-.002-.96-.49-1.65-1.543-1.652zM28.541 2.781v2.558c-.353-.366-.814-.584-1.35-.584-1.254.002-2.107.897-2.109 2.11.002 1.196.884 2.107 2.009 2.109.636-.001 1.162-.281 1.45-.666v.567h.776v-6.094h-.776zm-1.317 5.467c-.805-.001-1.315-.596-1.317-1.383.003-.788.514-1.383 1.317-1.385.806.002 1.315.597 1.317 1.385-.002.787-.511 1.382-1.317 1.383zM35.588 8.076l-.088.046c-.163.086-.364.127-.545.127-.524-.006-.508-.323-.518-.836v-1.883h1.148v-.677h-1.149l.001-1.105h-.775v1.105h-.849v.677h.849v2.074c.001.408.035.745.201.991.166.247.462.378.931.378h.003c.25 0 .546-.042.783-.147l.038-.018-.03-.732zM38.87 4.755c-.539.002-.97.251-1.202.528v-2.501h-.775v6.0920000000000005h.775v-1.96c.009-.877.341-1.431 1.143-1.434.571.006.818.36.827.994v2.401h.774v-2.469c-.001-.958-.487-1.649-1.542-1.651zM45.456 6.857c-.002-1.315-.78-2.099-1.91-2.102-1.18.003-2.057.872-2.059 2.111.002 1.158.777 2.106 2.034 2.108h.009c.731 0 1.305-.228 1.77-.831l.038-.05-.048-.039-.542-.42-.038.049c-.301.378-.647.564-1.189.566-.646 0-1.127-.508-1.203-1.122h3.137v-.27zm-3.133-.406c.106-.589.537-.969 1.199-.972.664.005 1.053.381 1.104.972h-2.303zM6.254 14.591c-.381-.395-.802-.654-1.239-.654-1.198 0-1.92.94-1.92 1.962 0 1.021.722 1.961 1.92 1.961.504 0 .968-.218 1.268-.613l1.088 1.171c-.667.667-1.783.913-2.356.913-1.974 0-3.555-1.376-3.555-3.432 0-2.057 1.581-3.432 3.555-3.432.831 0 1.745.3 2.37.994l-1.131 1.13zM12.26 12.466c1.974 0 3.555 1.376 3.555 3.432 0 2.057-1.581 3.432-3.555 3.432-1.975 0-3.555-1.376-3.555-3.432.001-2.056 1.58-3.432 3.555-3.432zm0 5.394c1.198 0 1.92-.94 1.92-1.961 0-1.022-.722-1.962-1.92-1.962-1.199 0-1.921.94-1.921 1.962.001 1.021.722 1.961 1.921 1.961zM18.02 12.63h1.634v1.034h.027c.354-.748 1.076-1.198 1.934-1.198.204 0 .394.041.586.095v1.58c-.273-.068-.531-.122-.79-.122-1.539 0-1.758 1.293-1.758 1.647v3.501h-1.633v-6.537zM24.241 12.63h1.553v1.048h.027c.3-.653.913-1.212 2.002-1.212 1.758 0 2.384 1.24 2.384 2.574v4.127h-1.634v-3.31c0-.722-.054-1.921-1.199-1.921-1.077 0-1.498.79-1.498 1.663v3.568h-1.634v-6.537zM34.047 16.471c.108.966.844 1.552 1.756 1.552.817 0 1.348-.381 1.757-.885l1.171.885c-.762.941-1.729 1.308-2.764 1.308-1.975 0-3.556-1.376-3.556-3.432 0-2.057 1.58-3.432 3.556-3.432 1.824 0 3.063 1.28 3.063 3.555v.45h-4.983zm3.351-1.226c-.014-.954-.64-1.554-1.663-1.554-.967 0-1.566.613-1.688 1.554h3.351zM41.237 12.63h1.634v1.034h.028c.354-.748 1.076-1.198 1.933-1.198.205 0 .395.041.587.095v1.58c-.273-.068-.532-.122-.79-.122-1.54 0-1.758 1.293-1.758 1.647v3.501h-1.634v-6.537z"/></g></svg>