<?xml version="1.0" standalone="no"?>
<!DOCTYPE svg PUBLIC "-//W3C//DTD SVG 20010904//EN"
 "http://www.w3.org/TR/2001/REC-SVG-20010904/DTD/svg10.dtd">
<svg version="1.0" xmlns="http://www.w3.org/2000/svg"
 width="102.000000pt" height="16.000000pt" viewBox="0 0 102.000000 16.000000"
 preserveAspectRatio="xMidYMid meet">

<g transform="translate(0.000000,16.000000) scale(0.100000,-0.100000)"
fill="#000000" stroke="none">
<path d="M63 137 c-4 -7 -17 -19 -28 -25 -15 -8 -16 -11 -4 -12 8 0 20 5 26
11 8 8 17 8 32 -1 12 -6 27 -9 34 -6 7 2 5 5 -5 5 -9 1 -23 10 -31 22 -12 17
-17 18 -24 6z"/>
<path d="M260 136 c0 -8 -10 -17 -22 -19 l-23 -4 23 -2 c27 -1 30 -21 2 -21
-11 0 -20 -4 -20 -10 0 -5 9 -10 19 -10 15 0 21 -8 24 -32 2 -18 5 0 5 40 1
39 0 72 -3 72 -3 0 -5 -6 -5 -14z"/>
<path d="M360 137 c0 -9 -12 -23 -27 -31 -16 -8 -22 -15 -15 -16 7 0 22 5 33
11 15 7 24 7 34 -1 28 -23 30 -4 3 24 -20 20 -28 24 -28 13z"/>
<path d="M466 134 c-20 -19 -20 -28 -1 -44 18 -15 45 -10 59 13 9 15 7 21 -8
33 -25 18 -31 18 -50 -2z m44 -24 c0 -13 -7 -20 -20 -20 -13 0 -20 7 -20 20 0
13 7 20 20 20 13 0 20 -7 20 -20z"/>
<path d="M550 115 c0 -19 5 -35 10 -35 6 0 10 16 10 35 0 19 -4 35 -10 35 -5
0 -10 -16 -10 -35z"/>
<path d="M610 140 c0 -5 10 -11 23 -11 18 -1 16 -3 -8 -9 -28 -7 -28 -8 -5 -9
24 -2 24 -2 6 -16 -17 -13 -18 -15 -3 -15 9 0 22 8 28 19 14 21 49 17 49 -5 0
-8 5 -14 10 -14 6 0 10 16 10 35 0 19 -4 35 -10 35 -5 0 -10 -7 -10 -15 0 -8
-7 -15 -15 -15 -8 0 -15 7 -15 15 0 10 -10 15 -30 15 -16 0 -30 -4 -30 -10z"/>
<path d="M817 129 c-3 -12 -2 -32 3 -45 9 -22 7 -24 -20 -24 -17 0 -30 -4 -30
-10 0 -5 18 -10 40 -10 29 0 40 -4 40 -15 0 -8 4 -15 8 -15 5 0 10 32 10 70 2
78 -15 96 -21 23 l-3 -48 -2 48 c-2 49 -16 63 -25 26z"/>
<path d="M1000 141 c0 -5 -8 -12 -17 -14 -17 -4 -17 -5 0 -6 9 0 17 -5 17 -10
0 -5 -8 -12 -17 -14 -16 -4 -16 -5 -1 -6 10 -1 18 -12 21 -28 2 -16 5 -2 6 30
0 31 -1 57 -4 57 -3 0 -5 -4 -5 -9z"/>
<path d="M768 133 c27 -5 29 -23 2 -23 -13 0 -20 -7 -20 -20 0 -16 6 -20 33
-19 30 2 30 2 5 6 -32 5 -38 23 -8 23 13 0 20 7 20 20 0 15 -6 20 -27 19 -24
-2 -25 -2 -5 -6z"/>
<path d="M919 103 c-9 -18 -12 -33 -7 -33 5 0 11 7 14 15 6 14 8 13 19 -2 20
-27 23 -12 5 22 l-15 30 -16 -32z"/>
<path d="M160 85 c0 -45 0 -45 34 -45 19 0 38 4 41 10 4 6 -6 7 -25 4 -30 -6
-30 -6 -30 35 0 22 -4 41 -10 41 -5 0 -10 -20 -10 -45z"/>
<path d="M40 70 c23 -5 28 -8 13 -9 -40 -2 -25 -21 16 -21 29 0 41 -5 44 -17
3 -11 5 -7 6 10 1 21 -4 27 -21 28 -15 1 -11 4 12 9 27 6 20 7 -35 7 -55 0
-62 -1 -35 -7z"/>
<path d="M327 63 c26 -3 33 -9 36 -31 l4 -27 2 27 c1 22 6 27 34 31 17 2 1 4
-38 4 -38 0 -56 -2 -38 -4z"/>
<path d="M477 64 c-4 -4 -7 -18 -7 -31 0 -21 4 -23 50 -23 50 0 50 0 50 32 0
25 -3 29 -12 20 -15 -15 -65 -16 -70 -1 -2 5 -7 7 -11 3z m73 -34 c0 -5 -13
-10 -30 -10 -16 0 -30 5 -30 10 0 6 14 10 30 10 17 0 30 -4 30 -10z"/>
<path d="M660 60 l45 -6 -40 -5 c-28 -3 -41 -9 -43 -21 -3 -16 4 -18 50 -16
50 1 51 2 11 5 -54 5 -56 23 -3 23 29 0 40 4 40 15 0 12 -12 15 -52 13 l-53
-1 45 -7z"/>
<path d="M921 38 c-1 -27 1 -28 47 -26 l47 1 -42 4 c-33 3 -43 8 -46 26 -4 18
-5 17 -6 -5z"/>
</g>
</svg>
