<?xml version="1.0" encoding="utf-8"?>
<!-- Generator: Adobe Illustrator 16.0.0, SVG Export Plug-In . SVG Version: 6.00 Build 0)  -->
<!DOCTYPE svg PUBLIC "-//W3C//DTD SVG 1.1//EN" "http://www.w3.org/Graphics/SVG/1.1/DTD/svg11.dtd">
<svg version="1.1" id="Layer_1" xmlns="http://www.w3.org/2000/svg" xmlns:xlink="http://www.w3.org/1999/xlink" x="0px" y="0px"
	 width="46.732px" height="23.107px" viewBox="0 0 46.732 23.107" enable-background="new 0 0 46.732 23.107" xml:space="preserve">
<g>
	<path d="M7.716,15.173H6.97v-3.465H6.549l-2.685,3.465H2.941l2.685-3.465C5,11.704,4.509,11.623,4.154,11.466
		c-0.355-0.157-0.628-0.39-0.819-0.698c-0.191-0.308-0.287-0.666-0.287-1.072c0-0.487,0.139-0.898,0.416-1.232
		S4.102,7.912,4.545,7.81c0.294-0.067,0.856-0.102,1.685-0.102h1.487V15.173z M5.654,8.44c-0.511,0-0.877,0.044-1.098,0.132
		S4.158,8.806,4.022,9.01C3.887,9.215,3.819,9.443,3.819,9.693c0,0.257,0.067,0.49,0.201,0.698s0.32,0.359,0.559,0.454
		s0.607,0.142,1.105,0.142l1.286-0.01V8.44H5.654z"/>
	<path d="M9.233,7.709h0.746v4.506c0,0.534,0.01,0.868,0.03,0.999c0.037,0.295,0.124,0.541,0.259,0.738
		c0.135,0.198,0.343,0.364,0.624,0.498c0.281,0.133,0.563,0.2,0.847,0.2c0.247,0,0.484-0.053,0.71-0.157
		c0.227-0.105,0.416-0.251,0.568-0.437c0.152-0.187,0.264-0.411,0.335-0.675c0.051-0.189,0.076-0.578,0.076-1.167V7.709h0.746v4.506
		c0,0.667-0.065,1.205-0.195,1.616s-0.391,0.769-0.781,1.073c-0.391,0.304-0.863,0.456-1.418,0.456
		c-0.603,0-1.118-0.144-1.548-0.431c-0.43-0.288-0.717-0.668-0.862-1.142c-0.091-0.291-0.137-0.815-0.137-1.573V7.709z"/>
	<path d="M16.011,7.709h0.746v6.743h2.872v0.721h-3.618V7.709z"/>
	<path d="M20.816,7.709h4.277V8.44h-3.531v2.339h3.501v0.73h-3.501v2.933h3.501v0.73h-4.248V7.709z"/>
	<path d="M32.777,7.521h0.151v5.206h0.902v0.71h-0.902v1.735h-0.741v-1.735h-3.572L32.777,7.521z M32.187,12.727V9.592l-2.211,3.135
		H32.187z"/>
	<path d="M35.312,10.043h-0.715c0.021-0.736,0.267-1.34,0.738-1.813s1.055-0.709,1.748-0.709c0.687,0,1.242,0.222,1.666,0.665
		c0.425,0.443,0.638,0.966,0.638,1.568c0,0.423-0.102,0.82-0.304,1.19c-0.203,0.371-0.596,0.872-1.18,1.505l-1.859,2.002h3.443
		v0.721h-5.068l2.852-3.082c0.578-0.619,0.955-1.079,1.129-1.378s0.262-0.615,0.262-0.947c0-0.419-0.157-0.781-0.47-1.084
		s-0.696-0.455-1.149-0.455c-0.477,0-0.873,0.159-1.189,0.477S35.356,9.468,35.312,10.043z"/>
	<path d="M41.864,15.36l-0.614-0.396l2.02-3.056c-0.271,0.089-0.524,0.133-0.762,0.133c-0.594,0-1.097-0.214-1.51-0.642
		c-0.414-0.428-0.62-0.955-0.62-1.581c0-0.43,0.1-0.817,0.299-1.162c0.199-0.345,0.483-0.621,0.85-0.827
		c0.367-0.207,0.761-0.31,1.18-0.31c0.413,0,0.795,0.1,1.145,0.299c0.351,0.2,0.625,0.479,0.824,0.837
		c0.2,0.359,0.3,0.741,0.3,1.147c0,0.308-0.062,0.63-0.186,0.966c-0.123,0.337-0.344,0.742-0.662,1.215L41.864,15.36z
		 M42.679,11.387c0.438,0,0.808-0.153,1.112-0.459s0.457-0.676,0.457-1.109s-0.153-0.802-0.459-1.109
		c-0.307-0.306-0.678-0.459-1.114-0.459c-0.433,0-0.803,0.153-1.108,0.459c-0.307,0.307-0.459,0.676-0.459,1.109
		s0.153,0.803,0.46,1.109S42.244,11.387,42.679,11.387z"/>
</g>
</svg>
