<?xml version="1.0" encoding="UTF-8" standalone="no"?>
<svg
   xmlns:dc="http://purl.org/dc/elements/1.1/"
   xmlns:cc="http://creativecommons.org/ns#"
   xmlns:rdf="http://www.w3.org/1999/02/22-rdf-syntax-ns#"
   xmlns:svg="http://www.w3.org/2000/svg"
   xmlns="http://www.w3.org/2000/svg"
   viewBox="0 0 649.33331 472"
   height="472"
   width="649.33331"
   xml:space="preserve"
   id="svg2"
   version="1.1"><metadata
     id="metadata8"><rdf:RDF><cc:Work
         rdf:about=""><dc:format>image/svg+xml</dc:format><dc:type
           rdf:resource="http://purl.org/dc/dcmitype/StillImage" /></cc:Work></rdf:RDF></metadata><defs
     id="defs6"><clipPath
       id="clipPath18"
       clipPathUnits="userSpaceOnUse"><path
         id="path16"
         d="M 34.038,14 H 454 V 330 H 34.038 Z" /></clipPath></defs><g
     transform="matrix(1.3333333,0,0,-1.3333333,0,472)"
     id="g10"><g
       id="g12"><g
         clip-path="url(#clipPath18)"
         id="g14"><g
           transform="translate(136.8691,201.0903)"
           id="g20"><path
             id="path22"
             style="fill:#231f20;fill-opacity:1;fill-rule:nonzero;stroke:none"
             d="M 0,0 V 61.056 C 0,87.917 -25.561,94.632 -27.954,94.632 H -75.212 V -94.549 h 47.258 c 2.373,0 27.947,6.725 27.947,33.566 V 0.088 m -25.657,0 v -54.58 c 0,-3.337 -1.121,-15.521 -10.227,-15.521 h -14.143 l 0.02,140.104 h 14.123 c 9.106,0 10.237,-12.194 10.237,-15.515 V 0" /></g><g
           transform="translate(203.7734,183.543)"
           id="g24"><path
             id="path26"
             style="fill:#231f20;fill-opacity:1;fill-rule:nonzero;stroke:none"
             d="m 0,0 -8.8,43.588 v 0.263 -0.254 L -17.606,-0.014 Z M -8.8,112.404 H 1.849 L 40.827,-77.002 H 15.53 l -9.589,47.226 -29.524,0.058 -9.539,-47.269 h -26.43 l 38.965,189.401 H -8.8" /></g><g
           transform="translate(285.6641,189.877)"
           id="g28"><path
             id="path30"
             style="fill:#231f20;fill-opacity:1;fill-rule:nonzero;stroke:none"
             d="m 0,0 15.335,0.01 c 0,0 9.172,-1.377 9.172,-13.636 V -83.32 h 26.776 c 0,0 -0.18,84.028 0,83.511 C 51.45,-0.312 47.538,25.508 18.836,26.9 L 18.607,26.617 53.975,106.08 H 24.478 L -0.059,53.643 v 52.437 h -27.793 v -189.4 h 27.793 z" /></g><g
           transform="translate(407.9473,206.9917)"
           id="g32"><path
             id="path34"
             style="fill:#231f20;fill-opacity:1;fill-rule:nonzero;stroke:none"
             d="m 0,0 c 23.173,-20.916 22.281,-31.573 22.281,-31.573 0,0 -0.006,-38.349 -0.006,-40.369 0,-2.01 -2.383,-28.32 -36.204,-28.32 -35.003,0 -36.327,26.764 -36.327,29.966 v 32.333 h 24.474 v -28.206 c 0,-4.203 5.623,-9.081 11.853,-9.081 6.201,0 11.334,4.878 11.334,9.081 v 23.749 c 0,8.417 -8.179,15.755 -8.903,16.573 -0.655,0.734 -6.436,6.721 -12.387,12.876 l -5.169,4.941 c -22.818,20.117 -22.024,32.793 -22.024,32.793 0,0 -0.402,31.839 -0.084,34.727 0.238,1.926 7.245,28.89 37.027,28.89 28.222,0 36.434,-27.59 36.28,-31.811 L 22.201,28.74 H -2.271 v 24.8 c 0,3.571 -5.712,10.167 -12.454,10.167 -6.879,0 -12.137,-6.423 -12.137,-10.017 0,-2.692 0.05,-14.648 0.05,-21.056 0,-6.409 5.19,-10.905 9.173,-15.378 C -15.377,14.718 0,0 0,0" /></g><g
           transform="translate(194.3418,45.7266)"
           id="g36"><path
             id="path38"
             style="fill:#231f20;fill-opacity:1;fill-rule:nonzero;stroke:none"
             d="M 0,0 H 4.536 V -3.97 C 3.599,-4.319 2.773,-4.562 2.078,-4.694 1.341,-4.833 0.553,-4.903 -0.263,-4.903 c -2.947,0 -5.349,0.831 -7.139,2.471 -1.782,1.631 -2.685,3.823 -2.685,6.509 0,1.777 0.417,3.405 1.24,4.845 0.819,1.432 1.989,2.545 3.48,3.308 1.5,0.77 3.243,1.161 5.183,1.161 3.151,0 6.401,-0.84 9.661,-2.495 l 0.502,-0.257 v 5.638 l -0.203,0.092 c -3.357,1.52 -6.787,2.29 -10.196,2.29 -2.96,0 -5.685,-0.621 -8.1,-1.845 -2.422,-1.228 -4.338,-2.976 -5.694,-5.194 -1.357,-2.218 -2.044,-4.727 -2.044,-7.465 0,-2.696 0.68,-5.175 2.024,-7.367 1.343,-2.193 3.24,-3.921 5.637,-5.135 2.387,-1.211 5.085,-1.825 8.02,-1.825 2.061,0 4.077,0.274 5.994,0.809 1.924,0.54 3.595,1.3 4.965,2.259 l 0.148,0.102 V 4.835 L 0,4.835 Z" /></g><g
           transform="translate(243.605,49.96)"
           id="g40"><path
             id="path42"
             style="fill:#231f20;fill-opacity:1;fill-rule:nonzero;stroke:none"
             d="m 0,0 c 0,-2.678 -0.879,-4.894 -2.614,-6.585 -1.738,-1.693 -3.992,-2.552 -6.7,-2.552 -1.791,0 -3.417,0.388 -4.832,1.156 -1.407,0.761 -2.52,1.853 -3.309,3.243 -0.792,1.395 -1.193,2.989 -1.193,4.738 0,1.764 0.388,3.362 1.155,4.752 0.763,1.382 1.87,2.473 3.289,3.239 1.427,0.774 3.059,1.165 4.852,1.165 1.792,0 3.425,-0.387 4.852,-1.155 C -3.08,7.237 -1.964,6.145 -1.182,4.75 -0.398,3.35 0,1.751 0,0 m -1.488,12.629 c -2.309,1.192 -4.942,1.797 -7.826,1.797 -3.002,0 -5.7,-0.632 -8.018,-1.879 C -19.654,11.3 -21.503,9.522 -22.827,7.265 -24.149,5.007 -24.819,2.563 -24.819,0 c 0,-2.656 0.671,-5.117 1.994,-7.314 1.325,-2.202 3.196,-3.953 5.564,-5.205 2.363,-1.252 5.024,-1.886 7.909,-1.886 2.923,0 5.589,0.625 7.927,1.855 2.346,1.238 4.215,2.999 5.552,5.236 1.344,2.235 2.024,4.696 2.024,7.314 0,2.685 -0.697,5.187 -2.072,7.437 -1.377,2.251 -3.25,3.998 -5.567,5.192" /></g><g
           transform="translate(270.0791,64.0322)"
           id="g44"><path
             id="path46"
             style="fill:#231f20;fill-opacity:1;fill-rule:nonzero;stroke:none"
             d="m 0,0 h -5.992 v -28.124 h 19.305 v 4.836 l -13.313,0 z" /></g><g
           transform="translate(313.8066,59.1953)"
           id="g48"><path
             id="path50"
             style="fill:#231f20;fill-opacity:1;fill-rule:nonzero;stroke:none"
             d="m 0,0 v 4.837 h -17.421 v -28.124 h 5.993 v 12.016 H 0 v 4.876 H -11.428 V 0 Z" /></g></g></g></g></svg>