<svg xmlns="http://www.w3.org/2000/svg" width="46.733" height="23.107" viewBox="0 0 46.733 23.107"><path d="M7.928 1.114c.904 0 1.694.714 1.694 1.738 0 .882-.006 11.612 0 12.642 0 .923-.67 1.723-1.713 1.723l-2.585.003v-16.106h2.604zm-1.315 1.29v13.528h1.275c.246 0 .445-.19.445-.446v-12.631c0-.247-.203-.452-.442-.452l-1.278.001zM21.635 17.22h-1.308l-.724-4.522h-2.568l-.721 4.523-1.314-.003 2.575-16.104 1.499-.002 2.561 16.108zm-3.306-12.63l-1.074 6.817 2.145.002-1.071-6.819"/><path d="M27.824 1.116h-1.289l-.001 16.105h1.29v-7.211l1.134-.005c.655 0 1.133.536 1.133 1.114v6.104l1.29-.002v-6.122c0-1.346-1.156-2.388-2.455-2.388.333-1.034 2.455-7.596 2.455-7.596l-1.352-.001-2.205 6.806v-6.804zM42.493 5.837h-1.29v-2.621s-.043-.977-.948-.977c-.934 0-.967.968-.967.968v3.038s.197.835.309 1.003c.123.183 2.289 2.933 2.289 2.933s.607.677.607 1.378v3.618c0 .863-.693 2.239-2.238 2.239-1.583 0-2.26-1.422-2.26-2.259v-2.938h1.294v2.959s.042.952.954.952c.913 0 .961-.951.961-.951l-.002-3.337s-.036-.41-.289-.775c-.134-.194-2.136-2.742-2.25-2.876-.114-.133-.668-.767-.668-2.152l.001-2.831c0-.883.677-2.243 2.26-2.243 1.555 0 2.238 1.356 2.238 2.243l-.001 2.629"/><path d="M16.852 20.742c-.043-.184-.147-.313-.313-.386-.093-.041-.195-.06-.309-.06-.217 0-.395.081-.535.245-.139.163-.21.41-.21.736 0 .331.077.565.227.701.151.138.323.207.516.207.188 0 .343-.055.464-.163.119-.108.194-.25.222-.425h-.624v-.448h1.121v1.442h-.371l-.057-.336c-.108.128-.206.218-.293.269-.148.091-.331.136-.548.136-.357 0-.65-.123-.878-.37-.237-.248-.356-.587-.356-1.017 0-.435.119-.784.359-1.047.241-.263.558-.395.953-.395.341 0 .616.088.824.261.208.174.327.39.357.65h-.549zM22.187 22.355c-.203.21-.498.314-.882.314s-.678-.104-.881-.314c-.272-.258-.409-.627-.409-1.111 0-.493.137-.862.409-1.11.203-.21.497-.314.881-.314s.679.104.882.314c.271.248.407.617.407 1.11 0 .484-.136.853-.407 1.111zm-.349-.409c.132-.164.196-.399.196-.702 0-.301-.064-.537-.196-.7-.131-.166-.307-.248-.53-.248-.223 0-.401.082-.534.247-.133.164-.2.398-.2.701 0 .303.067.539.2.702.133.165.31.247.534.247.223 0 .399-.082.53-.247zM25.195 19.901h.56v2.209h1.341v.482h-1.901v-2.691zM29.647 19.901h1.915v.471h-1.355v.62h1.185v.463h-1.185v1.135h-.56v-2.689z"/></svg>