<?xml version="1.0" standalone="no"?>
<!DOCTYPE svg PUBLIC "-//W3C//DTD SVG 20010904//EN"
 "http://www.w3.org/TR/2001/REC-SVG-20010904/DTD/svg10.dtd">
<svg version="1.0" xmlns="http://www.w3.org/2000/svg"
 width="1188.000000pt" height="468.000000pt" viewBox="0 0 1188.000000 468.000000"
 preserveAspectRatio="xMidYMid meet">

<g transform="translate(0.000000,468.000000) scale(0.100000,-0.100000)"
fill="#000000" stroke="none">
<path d="M3082 2930 l3 -1481 385 0 c421 0 417 -1 525 61 110 63 188 153 236
275 l24 60 3 1045 c2 751 0 1062 -8 1105 -30 156 -136 287 -294 366 l-89 44
-394 3 -393 3 2 -1481z m685 1070 c40 -24 68 -77 82 -155 15 -78 15 -1759 1
-1836 -15 -78 -49 -138 -90 -160 -28 -16 -57 -19 -157 -19 l-123 0 0 1095 0
1095 128 0 c108 0 132 -3 159 -20z"/>
<path d="M4925 4398 c-2 -7 -16 -69 -29 -138 -14 -69 -70 -343 -125 -610 -286
-1386 -451 -2192 -451 -2196 0 -2 93 -4 208 -4 l207 0 73 362 c39 199 73 363
75 364 7 8 450 5 456 -2 5 -5 40 -168 80 -363 39 -195 72 -356 74 -357 6 -7
360 -15 378 -9 13 5 18 13 14 28 -5 23 -107 518 -180 877 -24 118 -72 348
-105 510 -34 162 -117 570 -186 905 -69 336 -127 618 -130 628 -5 15 -22 17
-180 17 -131 0 -176 -3 -179 -12z m255 -1403 c33 -165 62 -310 65 -322 5 -23
5 -23 -130 -23 -74 0 -135 4 -135 8 0 10 117 597 126 632 4 14 8 21 10 15 2
-5 31 -145 64 -310z"/>
<path d="M6090 2931 c0 -1231 2 -1480 13 -1484 21 -8 352 -9 392 -1 l35 6 0
649 0 649 125 0 c134 0 160 -7 202 -52 12 -13 30 -41 40 -63 16 -37 18 -88 21
-611 l3 -572 57 -5 c53 -6 341 -1 348 6 2 1 4 302 5 667 1 659 1 665 -20 719
-69 173 -219 294 -401 323 -41 6 -76 13 -78 13 -1 1 91 211 204 466 114 255
237 533 274 617 l68 152 -233 0 -232 0 -113 -242 c-62 -134 -142 -304 -178
-378 -35 -74 -69 -146 -75 -160 -9 -19 -13 64 -15 378 l-2 402 -220 0 -220 0
0 -1479z"/>
<path d="M8069 4385 c-187 -47 -348 -198 -410 -382 -20 -62 -21 -78 -17 -356
4 -284 5 -294 29 -353 48 -117 115 -202 299 -384 274 -270 368 -374 401 -444
l29 -61 0 -225 c0 -251 -3 -266 -72 -308 -70 -44 -155 -38 -227 16 -56 42 -61
66 -61 312 0 140 -4 220 -10 220 -5 0 -86 1 -180 1 -93 0 -174 -1 -180 -1 -6
0 -10 -101 -10 -284 0 -322 6 -361 78 -472 90 -139 260 -214 487 -214 126 0
220 20 312 65 117 58 192 143 233 266 21 60 22 82 21 429 l-1 365 -35 73 c-54
108 -126 191 -412 472 -329 324 -312 293 -314 561 -1 210 2 230 53 275 82 75
204 69 280 -12 43 -47 48 -73 48 -279 l0 -194 53 -6 c28 -3 113 -5 187 -3
l135 3 0 255 0 255 -33 69 c-80 170 -188 274 -338 327 -77 27 -264 35 -345 14z"/>
<path d="M4885 761 c-158 -71 -167 -296 -16 -380 107 -59 249 -11 296 101 73
176 -109 357 -280 279z m175 -71 c54 -38 76 -130 46 -188 -28 -53 -62 -75
-124 -80 -47 -3 -63 0 -92 20 -48 32 -72 82 -67 139 5 56 29 92 82 119 48 25
111 21 155 -10z"/>
<path d="M6775 767 c-75 -30 -126 -91 -139 -170 -17 -97 55 -207 152 -232 204
-53 354 177 221 339 -55 66 -156 93 -234 63z m128 -61 c45 -18 84 -67 92 -116
5 -32 2 -51 -17 -88 -28 -56 -71 -84 -132 -84 -133 0 -198 155 -108 256 38 43
108 56 165 32z"/>
<path d="M4330 565 l0 -205 96 0 95 0 -3 28 c-3 26 -5 27 -70 30 l-68 3 0 174
0 175 -25 0 -25 0 0 -205z"/>
<path d="M5450 565 l0 -205 30 0 29 0 3 153 3 152 100 -150 c84 -126 104 -151
128 -153 l27 -3 0 205 0 206 -30 0 -29 0 -3 -146 -3 -147 -95 146 c-90 138
-97 146 -127 147 l-33 0 0 -205z"/>
<path d="M6050 570 l0 -199 36 -7 c51 -9 167 2 201 19 64 34 103 104 103 185
0 62 -19 108 -62 149 -46 44 -76 53 -184 53 l-94 0 0 -200z m195 130 c103 -50
112 -193 16 -257 -25 -17 -48 -23 -90 -23 l-56 0 0 138 c0 75 4 143 8 150 12
18 76 14 122 -8z"/>
<path d="M7320 565 l0 -205 30 0 30 0 0 157 0 158 105 -158 c89 -133 109 -157
130 -157 l25 0 0 205 0 205 -30 0 -30 0 0 -147 0 -148 -98 147 c-92 139 -99
148 -129 148 l-33 0 0 -205z"/>
</g>
</svg>
