<svg xmlns="http://www.w3.org/2000/svg" width="46.733" height="23.107" viewBox="0 0 46.733 23.107"><path d="M4.543 2.591h-3.543v17.859h3.399s1.317-.167 1.46-1.915v-14.076c.001 0-.048-1.508-1.316-1.868zm.096 13.143v2.538s0 .767-.767.958h-1.723v-15.489h1.7s.718.12.791.91v11.083zM18.556 20.451h1.533l-3.256-17.875h-1.245l-3.32 17.875 1.501.033.907-5.204h2.977l.903 5.171zm-3.625-6.64l1.231-7.055 1.233 7.055h-2.464zM31.963 13.269c-.382-1.789-1.946-2.011-1.946-2.011l-1.021-.032 3-8.65h-1.309l-2.968 8.075-.063.108v-8.248h-1.277v17.972h1.277v-7.916h1.595c.223 0 .575.063.575.063.957.321.829 1.405.829 1.405v6.48h1.374v-5.681c-.002-.703-.066-1.565-.066-1.565zM45.131 7.953v-1.915c.016-1.419-.208-1.867-.208-1.867-.91-2.283-3.112-1.565-3.112-1.565-1.867.575-1.867 2.634-1.867 2.634v1.867c0 .67.08 1.867.08 1.867.047.767.574 1.484.574 1.484.462.686 1.324 1.468 1.324 1.468.91.783 1.501 1.692 1.501 1.692.462.639.383 1.325.383 1.325v2.378c.047 2.202-1.277 2.139-1.277 2.139-1.373-.192-1.229-1.788-1.229-1.788v-2.602h-1.356v2.969c-.016.303.096.814.096.814.542 2.042 2.17 2.107 2.17 2.107 1.405.191 2.171-.799 2.171-.799.669-.51.797-2.074.797-2.074v-3.926c-.031-.798-1.308-2.202-1.308-2.202-1.276-1.181-2.011-2.268-2.011-2.268s-.638-.638-.575-2.378v-1.945s.176-1.692 1.677-1.293c0 0 .829.223.846 1.804v2.058l1.324.016z"/></svg>