<?xml version="1.0" encoding="utf-8"?>
<!-- Generator: Adobe Illustrator 15.1.0, SVG Export Plug-In . SVG Version: 6.00 Build 0)  -->
<!DOCTYPE svg PUBLIC "-//W3C//DTD SVG 1.1//EN" "http://www.w3.org/Graphics/SVG/1.1/DTD/svg11.dtd">
<svg version="1.1" id="Layer_1" xmlns="http://www.w3.org/2000/svg" xmlns:xlink="http://www.w3.org/1999/xlink" x="0px" y="0px"
	 width="1190.551px" height="841.89px" viewBox="0 0 1190.551 841.89" enable-background="new 0 0 1190.551 841.89"
	 xml:space="preserve">
<path d="M152.192,333.578c-5,0-5,5-5,5V540.87c0,0,0,5,5,5l47.392,0.02c5.917,0,5.687,0,11.227,0
	c66.819,0,109.478-47.589,109.478-106.518c0-58.926-37.618-105.794-109.367-105.794H152.192z M210.254,493.058h-3.813c0,0-7,0-7-7
	v-93.563c0,0,0-7,7-7h6.979c37.971,0,55.503,24.179,55.503,53.877C268.925,469.073,249.704,493.058,210.254,493.058z"/>
<path d="M631.778,470.186c0-53.724-24.082-69.708-24.082-69.708s-34.778-30.568-93.375-3.979c-5.263,2.387-5.124,6.201-5.124,6.201
	l-0.01,29.348c0,0-0.129,7.794,5.134,5.075c11.479-5.928,23.271-10.338,40.426-10.899c22.162-0.726,28.478,7.358,30.057,11.089
	c1.053,2.611-0.132,3.98-3.553,3.234c-5.658-1.244-10.773-2.252-19.238-2.252c-38.514,0-69.737,24.717-69.737,55.211
	c0,30.495,31.223,54.223,69.737,54.223c40.729,0,69.765-21.623,69.765-65.771V470.186z M562.009,508.052
	c-12.277,0-22.235-7.878-22.235-17.596c0-9.728,9.958-16.621,22.235-16.621c12.278,0,22.237,6.894,22.237,16.621
	C584.246,500.174,574.288,508.052,562.009,508.052z"/>
<path d="M695.046,545.87c5,0,5-5,5-5V345.808c0-5-5-5-5-5h-41.938c-5,0-5,5-5,5V540.87c0,0,0,5,5,5H695.046z"/>
<path d="M768.796,545.87c5,0,5-5,5-5V395.433c0,0,0-5-5-5h-42c-5,0-5,5-5,5V540.87c0,0,0,5,5,5H768.796z"/>
<path d="M884.858,434.995c5,0,5-5,5-5v-34.563c0-5-5-5-5-5s-22.363,0-25.313,0c-5,0-5-5-5-5v-35.375c0-4.438-3.125-9.25-7.75-9.25
	c-1.313,0-2.188,0.25-4.059,2.872c0,0-56.764,78.559-57.316,79.315c-1.188,1.625-1.375,2.625-1.375,2.625
	c-1,5.188,4.199,9.375,9.757,9.375h3.868c5,0,5,5,5,5l0.052,33.625c0,33,30.573,73.938,78.017,73.938h4.119c0,0,5,0,5-5V500.12
	c0,0,0-5-5-5c-1.651,0-4.469,0-4.469,0c-14.068-0.336-25.512-11.642-25.844-25.834v-29.291c0-5,5-5,5-5H884.858z"/>
<ellipse cx="746.836" cy="359.457" rx="25.439" ry="21.424"/>
<path d="M427.833,396.192c0,0,0-4.891,4.891-4.891h41.02c4.891,0,4.891,4.891,4.891,4.891l0.026,80.345
	c0,39.7-32.247,71.885-71.947,71.885c-39.701,0-72.104-32.185-72.104-71.885l0.021-80.245c0,0,0-4.891,4.891-4.891h41.02
	c4.891,0,4.891,4.891,4.891,4.891l0.031,80.245c0,11.806,9.445,21.375,21.251,21.375c11.805,0,21.126-9.569,21.126-21.375
	L427.833,396.192z"/>
<path d="M949.424,515.447c-3.576-3.569-8.32-5.535-13.373-5.535c-10.424,0-18.905,8.472-18.905,18.895
	c0,5.045,1.976,9.792,5.538,13.361c3.582,3.569,8.326,5.538,13.367,5.538c5.053,0,9.797-1.969,13.373-5.541
	c3.563-3.569,5.531-8.313,5.531-13.358C954.955,523.76,952.986,519.02,949.424,515.447 M936.051,543.262
	c-3.854,0-7.494-1.5-10.218-4.23c-2.73-2.737-4.234-6.367-4.234-10.225c0-3.859,1.504-7.489,4.234-10.22
	c2.724-2.733,6.364-4.234,10.218-4.234c3.865,0,7.5,1.504,10.236,4.234c2.73,2.73,4.228,6.36,4.228,10.22
	C950.515,536.779,944.021,543.262,936.051,543.262z"/>
<g>
	<path d="M928.797,518.077h7.176c5.211,0,7.746,1.737,7.746,5.639c0,2.136-1.054,3.645-3.389,4.699
		c0.968,0.37,1.736,1.195,2.306,2.449l3.104,6.663h-5.496l-2.478-5.609c-0.769-1.737-1.623-2.336-3.531-2.336
		c-0.199,0-0.37,0.028-0.569,0.028v7.917h-4.869V518.077z M938.678,523.772c0-1.423-0.911-2.25-2.677-2.25h-2.335v4.528h2.335
		C937.823,526.051,938.678,525.311,938.678,523.772z"/>
</g>
</svg>
