<?xml version="1.0" encoding="utf-8"?>
<!-- Generator: Adobe Illustrator 24.0.3, SVG Export Plug-In . SVG Version: 6.00 Build 0)  -->
<svg version="1.1" id="Layer_1" xmlns="http://www.w3.org/2000/svg" xmlns:xlink="http://www.w3.org/1999/xlink" x="0px" y="0px"
	 viewBox="0 0 595.28 249.59" style="enable-background:new 0 0 595.28 249.59;" xml:space="preserve">
<style type="text/css">
	.st0{fill:#FFFFFF;}
</style>
<g>
	<path d="M96.37,134.43c3.3,1.47,6.42,3.42,9.37,5.83s4.42,5.79,4.42,10.13c0,5.81-2.22,10.55-6.66,14.24s-10.19,5.52-17.26,5.52
		c-5.03,0-8.64-0.57-10.84-1.72c-2.2-1.15-5.34-1.72-9.43-1.72c-0.24-2.04-0.55-4.97-0.94-8.78c-0.39-3.8-0.75-6.53-1.06-8.16
		c-0.08-0.25,0.22-0.47,0.88-0.68c0.67-0.2,1.2-0.31,1.59-0.31c0.55,0,1.12,0.1,1.71,0.31c0.59,0.21,0.92,0.43,1,0.68
		c1.65,4.34,3.97,7.83,6.95,10.49c2.99,2.66,6.01,3.99,9.08,3.99c2.36,0,4.12-0.65,5.3-1.96s1.77-3.11,1.77-5.4
		c0-2.7-1.49-4.81-4.48-6.32c-2.98-1.51-6.01-3.01-9.07-4.48c-3.38-1.56-6.5-3.6-9.37-6.14c-2.87-2.54-4.3-6.01-4.3-10.43
		c0-5.07,2.45-9.33,7.37-12.77c4.91-3.44,10.27-5.16,16.09-5.16c3.77,0,7.01,0.49,9.72,1.47c2.71,0.98,5.4,1.47,8.07,1.47
		c0,1.8,0.08,4.26,0.24,7.36c0.16,3.11,0.31,5.69,0.47,7.73c0,0.24-0.33,0.47-1,0.67c-0.67,0.21-1.2,0.31-1.59,0.31
		c-0.55,0-1.1-0.08-1.65-0.24c-0.55-0.16-0.87-0.41-0.94-0.74c-0.86-3.76-2.45-6.73-4.77-8.9c-2.32-2.17-4.73-3.25-7.25-3.25
		c-2.36,0-4.16,0.49-5.42,1.47c-1.26,0.98-1.89,2.54-1.89,4.67c0,2.78,1.57,4.95,4.71,6.51C90.31,131.69,93.38,133.12,96.37,134.43z
		"/>
	<path d="M166.13,118.47c0,0.9-0.14,1.86-0.41,2.88c-0.27,1.02-0.65,1.53-1.12,1.53l-17.56-0.49v31.79c0,2.29,0.45,3.99,1.35,5.09
		c0.9,1.1,2.45,1.66,4.66,1.66c1.73,0,3.36-0.47,4.89-1.41c1.53-0.94,2.85-2.11,3.95-3.5c0.31-0.49,0.71-0.65,1.18-0.49
		c0.47,0.16,0.9,0.45,1.3,0.86c0.31,0.41,0.61,0.92,0.88,1.53c0.27,0.61,0.41,1.13,0.41,1.53c0,0.17,0,0.33,0,0.49
		c0,0.17-0.08,0.29-0.24,0.37c-1.65,2.21-4.16,4.32-7.54,6.32c-3.38,2-7.35,3.01-11.9,3.01c-6.44,0-11.31-1.78-14.61-5.34
		c-3.3-3.56-4.91-9.35-4.83-17.37l0.23-23.08c0-0.49-0.12-0.9-0.35-1.23c-0.24-0.33-0.59-0.49-1.06-0.49h-7.31
		c-0.31,0-0.59-0.37-0.82-1.11c-0.23-0.74-0.35-1.27-0.35-1.6c0-0.33,0.12-0.84,0.35-1.53c0.23-0.7,0.47-1.12,0.71-1.29
		c4.4-2.45,8.82-5.34,13.26-8.65c4.44-3.31,8.19-6.61,11.25-9.88c0.16-0.24,0.53-0.47,1.12-0.67c0.59-0.2,1.08-0.31,1.47-0.31
		c0.55,0,1.12,0.1,1.71,0.31c0.59,0.2,0.88,0.43,0.88,0.67l-0.47,16.08h17.44c0.47,0,0.85,0.53,1.12,1.59
		C165.99,116.84,166.13,117.74,166.13,118.47z"/>
	<path d="M234.24,162.54c-0.08,0.25-0.12,0.45-0.12,0.61c0,0.17-0.12,0.33-0.35,0.49c-1.49,1.8-3.81,3.27-6.95,4.42
		c-3.14,1.15-6.36,1.72-9.66,1.72c-3.22,0-5.83-0.76-7.84-2.27c-2-1.51-3.32-3.54-3.95-6.07c-1.81,2.86-4.1,4.97-6.89,6.32
		c-2.79,1.35-6.23,2.03-10.31,2.03c-4.48,0-8.27-1.06-11.37-3.19c-3.1-2.13-4.66-5.36-4.66-9.7c0-4.83,2.55-8.75,7.66-11.78
		c5.11-3.03,13.67-5.93,25.69-8.71l0.35-12.03c0-2.54-0.35-4.21-1.06-5.03c-0.71-0.82-1.88-1.23-3.53-1.23
		c-1.65,0-3.16,0.33-4.54,0.98c-1.38,0.65-2.14,2-2.3,4.05c-0.39,5.07-1.41,8.59-3.06,10.56c-1.65,1.97-4.08,2.95-7.31,2.95
		c-2.91,0-5.13-0.88-6.66-2.64c-1.53-1.76-2.3-3.86-2.3-6.32c0-4.09,3.2-7.86,9.61-11.29c6.4-3.44,13.57-5.15,21.51-5.15
		c7.23,0,12.16,1.88,14.79,5.65c2.63,3.76,3.83,8.88,3.59,15.34l-0.59,21.36c-0.16,2.86,0.24,4.72,1.18,5.58
		c0.94,0.86,1.85,1.29,2.71,1.29c0.71,0,1.37-0.12,2-0.37c0.63-0.24,1.18-0.57,1.65-0.98c0.31-0.25,0.84,0.06,1.59,0.92
		C233.87,160.88,234.24,161.72,234.24,162.54z M205.25,140.93c-4.64,1.15-7.98,2.7-10.02,4.67c-2.04,1.96-3.06,4.79-3.06,8.47
		c0,2.04,0.53,3.68,1.59,4.91c1.06,1.23,2.53,1.84,4.42,1.84c1.57,0,3.01-0.51,4.3-1.53c1.3-1.02,2.1-2.97,2.42-5.83L205.25,140.93z
		"/>
	<path d="M310.85,165.91c0,0.49-0.1,1.06-0.29,1.72c-0.2,0.65-0.41,0.98-0.65,0.98c-2.44,0-5.24-0.13-8.43-0.4
		c-3.18-0.27-6.15-0.4-8.9-0.4c-2.67,0-5.3,0.13-7.9,0.4c-2.59,0.27-5.07,0.4-7.42,0.4c-0.23,0-0.45-0.33-0.65-0.98
		c-0.2-0.65-0.29-1.23-0.29-1.72c0-0.49,0.1-1.04,0.29-1.66s0.41-0.96,0.65-1.04c1.57-0.25,2.75-1.05,3.54-2.41s1.18-4.01,1.18-7.96
		v-19.52c0-4.09-0.45-7-1.36-8.71c-0.9-1.72-2.73-2.58-5.48-2.58c-2.28,0-4.12,0.8-5.54,2.39c-1.41,1.59-2.83,4.15-4.24,7.67v20.74
		c0,3.62,0.37,6.21,1.12,7.78c0.75,1.57,1.91,2.43,3.48,2.59c0.24,0,0.45,0.31,0.65,0.92c0.19,0.61,0.29,1.21,0.29,1.78
		c0,0.58-0.1,1.17-0.29,1.78c-0.2,0.61-0.41,0.92-0.65,0.92c-2.44,0-4.91-0.13-7.42-0.4c-2.51-0.27-5.15-0.4-7.89-0.4
		c-2.75,0-5.72,0.13-8.9,0.4c-3.18,0.27-5.95,0.4-8.31,0.4c-0.23,0-0.45-0.31-0.65-0.92s-0.29-1.21-0.29-1.78
		c0-0.57,0.1-1.14,0.29-1.72s0.41-0.9,0.65-0.98c3.46-0.49,5.64-1.34,6.54-2.53c0.9-1.19,1.35-3.81,1.35-7.84v-19.31
		c0-3.44-0.35-5.64-1.06-6.58c-0.71-0.94-2.51-1.58-5.42-1.91c-0.23,0-0.45-0.33-0.65-0.98c-0.2-0.65-0.29-1.19-0.29-1.59
		c0-0.41,0.1-0.92,0.29-1.53c0.2-0.61,0.41-0.92,0.65-0.92c2.67-0.73,6.34-2.01,11.02-3.84c4.67-1.83,8.11-3.31,10.31-4.45
		c0.23-0.16,0.63-0.37,1.18-0.61c0.55-0.24,1.02-0.37,1.41-0.37c0.94,0,1.63,0.18,2.06,0.55c0.43,0.37,0.61,0.72,0.53,1.05
		l-0.47,11.78c1.57-4.01,4.07-7.08,7.48-9.21c3.42-2.13,7.01-3.19,10.78-3.19c5.89,0,10.49,1.92,13.79,5.77
		c3.3,3.85,4.95,8.14,4.95,12.89v22.46c0,3.95,0.47,6.56,1.41,7.84c0.94,1.28,3.14,2.12,6.6,2.53c0.24,0,0.45,0.35,0.65,1.04
		C310.75,164.95,310.85,165.5,310.85,165.91z"/>
	<path d="M383.32,161.56c0,0.49-0.1,1.02-0.29,1.59c-0.2,0.58-0.41,0.86-0.65,0.86c-2.28,0.24-5.73,1.06-10.37,2.45
		c-4.63,1.39-8.13,2.62-10.49,3.68c-0.23,0.08-0.63,0.22-1.18,0.43c-0.55,0.2-1.1,0.31-1.65,0.31c-0.63,0-1.12-0.18-1.47-0.55
		c-0.35-0.37-0.53-0.72-0.53-1.05l-0.35-7.49c-1.49,2.62-3.54,4.71-6.13,6.26c-2.59,1.56-5.7,2.33-9.31,2.33
		c-8.01,0-14.34-2.74-18.97-8.22c-4.64-5.48-6.95-12.27-6.95-20.37c0-8.84,2.55-16.06,7.66-21.66c5.11-5.6,12.14-8.41,21.1-8.41
		c2.91,0,5.34,0.47,7.31,1.41c1.96,0.94,3.57,1.94,4.83,3.01v-13.99c0-3.19-0.59-5.32-1.77-6.38c-1.18-1.06-3.26-1.76-6.24-2.09
		c-0.24,0-0.45-0.31-0.65-0.92c-0.2-0.61-0.29-1.12-0.29-1.53c0-0.41,0.1-0.94,0.29-1.59c0.2-0.65,0.41-0.98,0.65-0.98
		c3.61-0.82,7.89-2.19,12.84-4.11s8.56-3.46,10.84-4.6c0.23-0.16,0.63-0.37,1.18-0.61c0.55-0.25,1.02-0.37,1.41-0.37
		c0.94,0,1.63,0.17,2.06,0.49c0.43,0.33,0.65,0.7,0.65,1.11c-0.23,3.11-0.45,6.71-0.65,10.8c-0.2,4.09-0.29,7.41-0.29,9.94v49.95
		c0,2.95,0.43,4.89,1.29,5.83c0.87,0.94,2.59,1.57,5.19,1.9c0.24,0,0.45,0.33,0.65,0.98C383.22,160.61,383.32,161.15,383.32,161.56z
		 M355.86,153.94v-27.49c0-2.21-0.81-4.07-2.42-5.59c-1.61-1.51-3.95-2.27-7.01-2.27c-2.75,0-5.13,1.35-7.13,4.05
		c-2,2.7-3.01,9.08-3.01,19.15c0,7.45,0.92,12.66,2.77,15.65c1.85,2.99,4.1,4.48,6.78,4.48c2.04,0,3.93-0.65,5.66-1.96
		C353.23,158.65,354.68,156.65,355.86,153.94z"/>
	<path d="M425.51,165.73c0,0.49-0.1,1.06-0.29,1.72c-0.2,0.65-0.41,0.98-0.65,0.98c-2.44,0-5.48-0.1-9.13-0.31
		c-3.65-0.21-6.86-0.31-9.61-0.31c-2.67,0-5.62,0.1-8.84,0.31c-3.22,0.2-6.01,0.31-8.37,0.31c-0.23,0-0.45-0.33-0.65-0.98
		c-0.2-0.65-0.29-1.23-0.29-1.72c0-0.41,0.1-0.94,0.29-1.6c0.2-0.65,0.41-1.02,0.65-1.11c2.91-0.33,4.97-1.14,6.19-2.45
		c1.22-1.31,1.83-3.93,1.83-7.86v-18.45c0-3.28-0.61-5.41-1.83-6.4c-1.22-0.98-3.28-1.64-6.19-1.97c-0.23-0.08-0.45-0.43-0.65-1.04
		c-0.2-0.61-0.29-1.12-0.29-1.53c0-0.41,0.1-0.94,0.29-1.6c0.2-0.65,0.41-0.98,0.65-0.98c3.77-0.81,8.01-2.13,12.73-3.96
		c4.71-1.83,8.37-3.39,10.96-4.7c0.23-0.16,0.63-0.37,1.18-0.61c0.55-0.24,1.02-0.36,1.41-0.36c0.94,0,1.63,0.16,2.06,0.49
		c0.43,0.33,0.61,0.7,0.53,1.11c-0.16,2.86-0.35,6.34-0.59,10.43c-0.23,4.09-0.35,7.53-0.35,10.31v19.27c0,3.85,0.63,6.47,1.88,7.86
		c1.26,1.39,3.3,2.21,6.13,2.45c0.23,0,0.45,0.35,0.65,1.04C425.41,164.77,425.51,165.32,425.51,165.73z M416.67,91.23
		c0,3.11-1.06,5.77-3.18,7.98c-2.12,2.21-4.64,3.32-7.54,3.32s-5.42-1.11-7.54-3.32c-2.12-2.21-3.18-4.87-3.18-7.98
		c0-3.03,1.06-5.65,3.18-7.86c2.12-2.21,4.63-3.31,7.54-3.31s5.42,1.11,7.54,3.31C415.61,85.58,416.67,88.2,416.67,91.23z"/>
	<path d="M492.56,162.54c-0.08,0.25-0.12,0.45-0.12,0.61c0,0.17-0.12,0.33-0.35,0.49c-1.49,1.8-3.81,3.27-6.95,4.42
		c-3.14,1.15-6.36,1.72-9.66,1.72c-3.22,0-5.83-0.76-7.84-2.27s-3.32-3.54-3.95-6.07c-1.81,2.86-4.1,4.97-6.89,6.32
		c-2.79,1.35-6.23,2.03-10.31,2.03c-4.48,0-8.27-1.06-11.37-3.19c-3.1-2.13-4.66-5.36-4.66-9.7c0-4.83,2.55-8.75,7.66-11.78
		c5.11-3.03,13.67-5.93,25.69-8.71l0.35-12.03c0-2.54-0.35-4.21-1.06-5.03c-0.71-0.82-1.88-1.23-3.53-1.23
		c-1.65,0-3.16,0.33-4.54,0.98c-1.38,0.65-2.14,2-2.3,4.05c-0.39,5.07-1.41,8.59-3.06,10.56c-1.65,1.97-4.08,2.95-7.31,2.95
		c-2.91,0-5.13-0.88-6.66-2.64c-1.53-1.76-2.3-3.86-2.3-6.32c0-4.09,3.2-7.86,9.61-11.29c6.4-3.44,13.57-5.15,21.51-5.15
		c7.23,0,12.16,1.88,14.79,5.65c2.63,3.76,3.83,8.88,3.59,15.34l-0.59,21.36c-0.16,2.86,0.24,4.72,1.18,5.58
		c0.94,0.86,1.85,1.29,2.71,1.29c0.71,0,1.37-0.12,2-0.37c0.63-0.24,1.18-0.57,1.65-0.98c0.31-0.25,0.84,0.06,1.59,0.92
		C492.19,160.88,492.56,161.72,492.56,162.54z M463.57,140.93c-4.64,1.15-7.98,2.7-10.02,4.67c-2.04,1.96-3.06,4.79-3.06,8.47
		c0,2.04,0.53,3.68,1.59,4.91c1.06,1.23,2.53,1.84,4.42,1.84c1.57,0,3.01-0.51,4.3-1.53c1.3-1.02,2.1-2.97,2.42-5.83L463.57,140.93z
		"/>
	<path d="M531.33,165.79c0,0.49-0.1,1.06-0.29,1.72c-0.2,0.65-0.41,0.98-0.65,0.98c-2.44,0-5.48-0.13-9.13-0.4
		c-3.65-0.27-6.85-0.4-9.6-0.4c-2.67,0-5.62,0.13-8.84,0.4c-3.22,0.27-6.01,0.4-8.37,0.4c-0.23,0-0.45-0.33-0.65-0.98
		c-0.2-0.65-0.29-1.23-0.29-1.72c0-0.41,0.1-0.94,0.29-1.59c0.2-0.65,0.41-1.02,0.65-1.11c2.91-0.33,4.97-1.15,6.19-2.47
		c1.22-1.32,1.83-3.95,1.83-7.9v-50.69c0-3.27-0.59-5.42-1.77-6.44c-1.18-1.02-3.26-1.7-6.25-2.03c-0.23-0.08-0.45-0.43-0.65-1.04
		c-0.2-0.61-0.29-1.12-0.29-1.53s0.1-0.92,0.29-1.53s0.41-0.92,0.65-0.92c3.77-0.9,7.92-2.23,12.43-3.99
		c4.52-1.76,8.27-3.38,11.26-4.85c0.23-0.16,0.63-0.37,1.18-0.61c0.55-0.24,1.02-0.37,1.41-0.37c0.94,0,1.63,0.18,2.06,0.55
		c0.43,0.37,0.61,0.72,0.53,1.04c-0.16,2.86-0.35,6.38-0.59,10.56c-0.24,4.17-0.35,7.57-0.35,10.19v51.67c0,3.87,0.63,6.5,1.89,7.9
		c1.26,1.4,3.3,2.22,6.13,2.47c0.23,0,0.45,0.35,0.65,1.04C531.23,164.83,531.33,165.38,531.33,165.79z"/>
</g>
</svg>
