<?xml version="1.0" standalone="no"?>
<!DOCTYPE svg PUBLIC "-//W3C//DTD SVG 20010904//EN"
 "http://www.w3.org/TR/2001/REC-SVG-20010904/DTD/svg10.dtd">
<svg version="1.0" xmlns="http://www.w3.org/2000/svg"
 width="5000.000000pt" height="2825.000000pt" viewBox="0 0 5000.000000 2825.000000"
 preserveAspectRatio="xMidYMid meet">

<g transform="translate(0.000000,2825.000000) scale(0.100000,-0.100000)"
fill="#000000" stroke="none">
<path d="M8518 22768 l-3 -4352 -180 -153 c-284 -241 -385 -307 -516 -338
-111 -26 -235 -14 -424 40 -339 98 -486 293 -549 731 -28 192 -35 306 -61 984
-14 366 -28 689 -31 718 l-5 52 -1885 0 -1884 0 0 -777 c0 -771 6 -995 35
-1313 84 -909 319 -1552 784 -2150 216 -278 526 -592 783 -792 417 -326 933
-577 1481 -723 511 -135 1033 -195 1691 -195 1497 0 2472 295 3281 993 144
124 468 454 577 587 318 390 526 786 658 1250 22 80 45 177 50 215 30 225 60
1098 80 2375 9 548 33 7140 27 7147 -7 6 -3324 53 -3774 53 l-133 0 -2 -4352z"/>
<path d="M17355 27113 c-555 -9 -1040 -35 -1062 -56 -18 -17 -30 -288 -43
-907 -23 -1148 -30 -2754 -30 -7007 l0 -4443 2000 0 2000 0 0 6210 0 6210
-1362 -2 c-750 -1 -1426 -3 -1503 -5z"/>
<path d="M24995 27109 c-555 -14 -876 -36 -902 -62 -53 -53 -74 -2222 -76
-7998 l-2 -4344 4978 -3 4977 -2 0 1850 0 1850 -2975 0 -2975 0 0 4360 0 4360
-1362 -2 c-750 0 -1498 -5 -1663 -9z"/>
<path d="M37770 20909 l0 -6212 4258 6 c2520 4 4422 10 4662 16 747 19 996 44
1061 104 20 19 21 26 15 121 -18 281 -27 783 -36 2031 -5 754 -10 1382 -10
1398 l0 27 -2975 0 -2975 0 0 4360 0 4360 -2000 0 -2000 0 0 -6211z"/>
<path d="M26440 10353 c-178 -17 -328 -92 -461 -230 -140 -145 -212 -304 -225
-499 -18 -250 108 -473 331 -586 180 -91 441 -183 750 -263 589 -153 855 -303
855 -482 0 -103 -131 -260 -285 -340 -323 -168 -827 -146 -1141 49 -115 72
-177 159 -193 272 -5 35 -17 76 -27 91 -29 44 -107 75 -189 75 -165 0 -216
-54 -181 -191 23 -88 100 -267 148 -341 135 -212 360 -341 703 -404 125 -23
602 -27 725 -6 287 48 484 131 626 265 141 132 212 290 230 511 16 213 -85
410 -281 545 -152 106 -323 172 -695 271 -620 165 -801 230 -891 320 -59 60
-74 115 -66 249 7 118 19 159 60 213 42 54 116 92 227 115 126 26 620 26 733
0 134 -32 206 -76 332 -202 117 -118 194 -170 294 -199 72 -21 119 -20 158 3
77 47 38 158 -132 376 -227 290 -367 355 -825 384 -152 10 -497 12 -580 4z"/>
<path d="M3093 10276 c-60 -27 -87 -113 -103 -331 -5 -72 -10 -592 -10 -1156
l0 -1026 484 -13 c642 -17 752 -9 900 68 81 43 226 175 292 268 201 282 239
709 93 1059 -82 198 -263 396 -435 477 -102 48 -232 50 -594 9 -151 -17 -287
-33 -302 -36 l-28 -4 0 197 c0 332 -22 442 -94 479 -43 22 -162 28 -203 9z
m852 -927 c147 -27 330 -170 403 -314 50 -100 67 -183 66 -325 -1 -116 -5
-147 -28 -223 -96 -317 -321 -496 -561 -447 -364 74 -558 607 -363 994 81 160
236 294 367 316 25 4 49 8 52 9 3 0 32 -4 64 -10z"/>
<path d="M14063 9964 c-39 -19 -68 -75 -83 -159 -6 -34 -14 -315 -19 -655 -5
-327 -12 -629 -16 -670 -47 -550 -140 -661 -543 -648 -111 3 -134 7 -184 30
-89 41 -138 94 -203 219 -86 164 -143 227 -228 250 -156 42 -219 -246 -105
-475 80 -160 254 -275 502 -334 103 -24 129 -26 346 -26 189 -1 251 2 320 17
301 64 432 246 484 672 33 276 45 897 26 1360 -15 379 -42 435 -202 435 -37 0
-76 -7 -95 -16z"/>
<path d="M16528 9965 c-61 -33 -84 -130 -98 -415 -12 -245 -13 -1355 0 -1595
19 -370 47 -435 193 -435 194 0 207 77 207 1230 0 989 -16 1167 -110 1215 -37
19 -156 19 -192 0z"/>
<path d="M19033 9966 c-97 -44 -110 -186 -118 -1321 -3 -429 -8 -858 -10 -952
l-6 -173 723 0 c690 0 966 8 1067 31 107 24 142 62 122 136 -31 115 -123 145
-500 163 -108 5 -356 10 -552 10 l-356 0 -6 908 c-6 915 -10 1027 -45 1118
-27 75 -54 89 -180 92 -76 1 -116 -2 -139 -12z"/>
<path d="M22490 9967 c-56 -28 -82 -99 -101 -276 -6 -47 -12 -555 -16 -1128
l-6 -1043 724 0 c1012 0 1174 13 1208 98 12 31 2 89 -24 128 -24 36 -105 71
-210 88 -115 20 -421 36 -691 36 -116 0 -285 3 -376 6 l-164 7 -18 641 c-27
1013 -38 1206 -72 1325 -20 71 -41 101 -81 117 -40 17 -140 18 -173 1z"/>
<path d="M30078 9969 c-238 -13 -381 -48 -408 -98 -34 -64 15 -136 111 -166
70 -21 287 -34 572 -35 l227 0 0 -697 c0 -384 5 -817 10 -963 16 -432 40 -490
202 -490 109 0 147 38 176 179 13 64 16 222 19 1024 l4 947 227 0 c125 0 295
5 377 10 217 13 290 40 315 116 36 110 -75 154 -439 174 -204 11 -1192 11
-1393 -1z"/>
<path d="M33759 9957 c-42 -28 -64 -86 -81 -209 -17 -129 -17 -1131 0 -1328
29 -327 73 -488 165 -598 175 -208 531 -342 912 -342 233 0 518 73 696 177 83
48 171 141 218 232 69 134 108 305 131 577 17 207 23 744 11 1034 -14 358 -32
435 -108 466 -43 18 -145 18 -189 -1 -40 -16 -69 -70 -85 -158 -5 -29 -14
-297 -19 -597 -9 -546 -18 -731 -45 -891 -49 -287 -150 -417 -365 -470 -88
-22 -456 -19 -539 4 -192 54 -285 167 -337 412 -34 159 -45 349 -54 915 -5
314 -14 592 -20 625 -25 136 -66 175 -188 175 -55 0 -76 -5 -103 -23z"/>
<path d="M41770 9038 c0 -1472 7 -1518 206 -1518 65 0 127 23 148 56 44 65 49
121 53 558 l5 419 387 -6 c212 -4 424 -11 471 -17 175 -22 283 -64 350 -136
87 -95 108 -172 121 -459 6 -127 16 -245 25 -280 24 -98 75 -135 184 -135 100
0 154 34 181 115 22 64 19 512 -4 630 -29 146 -55 234 -99 329 -65 142 -63
199 13 291 23 28 50 70 61 95 46 105 60 297 33 456 -52 300 -172 437 -431 493
-179 39 -254 43 -986 48 l-718 5 0 -944z m1380 608 c124 -19 203 -41 246 -67
66 -40 112 -178 99 -301 -19 -202 -76 -249 -335 -277 -153 -16 -777 -51 -922
-51 l-58 0 0 361 0 361 433 -5 c333 -3 456 -8 537 -21z"/>
<path d="M45886 9970 c-313 -19 -420 -56 -420 -144 0 -71 58 -114 184 -136 36
-6 217 -14 403 -17 l337 -6 0 -851 c1 -1119 9 -1219 103 -1276 39 -24 141 -27
192 -6 101 43 114 200 115 1392 l0 741 343 6 c351 7 433 15 512 53 55 26 81
95 55 145 -22 41 -114 71 -275 90 -113 13 -1358 20 -1549 9z"/>
<path d="M38645 9947 c-52 -24 -93 -66 -156 -160 -67 -100 -215 -394 -359
-717 -176 -391 -623 -1405 -639 -1448 -16 -43 -16 -44 7 -63 53 -42 169 -51
252 -20 115 44 186 129 315 380 133 259 177 292 415 311 148 12 422 12 576 0
246 -19 286 -54 424 -373 76 -175 150 -269 249 -315 48 -22 62 -24 140 -19
105 6 151 21 151 49 0 60 -632 1523 -816 1888 -141 281 -232 408 -332 468 -54
31 -177 41 -227 19z m134 -506 c58 -81 241 -501 286 -653 19 -66 22 -147 6
-176 -6 -10 -27 -28 -48 -38 -33 -16 -67 -19 -250 -22 -245 -4 -311 5 -344 46
-28 36 -22 69 37 208 25 60 70 179 100 264 30 85 67 184 81 220 32 78 90 180
103 180 5 0 18 -13 29 -29z"/>
<path d="M8110 9661 c-19 -11 -59 -44 -87 -74 -110 -116 -205 -290 -333 -612
-129 -323 -257 -561 -298 -553 -26 5 -112 188 -293 625 -162 390 -244 530
-359 606 -41 28 -110 22 -159 -14 -41 -29 -42 -31 -36 -72 22 -129 159 -512
349 -970 284 -684 323 -852 226 -985 -15 -21 -66 -64 -113 -96 -109 -73 -180
-144 -213 -213 -24 -49 -26 -58 -15 -93 15 -51 56 -79 134 -92 122 -21 305 40
397 132 165 164 906 1953 974 2352 6 35 4 39 -26 58 -41 25 -102 25 -148 1z"/>
<path d="M21640 3300 l0 -1520 185 0 185 0 2 817 3 816 78 53 c107 72 235 136
337 170 75 24 100 28 215 28 111 1 140 -3 197 -22 89 -31 156 -90 192 -172 57
-126 58 -149 63 -953 l4 -737 185 0 184 0 0 708 c0 402 -5 758 -11 825 -21
240 -82 392 -208 517 -121 121 -250 174 -447 187 -239 14 -480 -65 -708 -233
l-86 -64 0 550 0 550 -185 0 -185 0 0 -1520z"/>
<path d="M20105 4005 c-131 -21 -205 -43 -310 -95 -234 -116 -365 -310 -367
-545 -1 -248 98 -414 312 -518 117 -57 217 -86 475 -138 349 -69 446 -110 497
-208 24 -46 28 -65 28 -135 0 -68 -4 -91 -26 -134 -59 -118 -194 -177 -429
-188 -256 -13 -517 66 -773 232 -45 30 -87 54 -92 54 -6 0 -10 -80 -10 -206
l0 -205 73 -34 c105 -48 276 -102 402 -127 89 -18 146 -22 300 -23 262 0 407
29 580 118 108 56 247 192 294 289 46 97 64 192 58 309 -10 160 -62 278 -164
369 -122 109 -233 151 -581 221 -348 70 -443 105 -515 190 -56 65 -72 170 -41
262 70 207 455 278 830 152 107 -35 248 -103 324 -154 25 -17 48 -31 53 -31 4
0 7 89 7 199 l0 198 -57 26 c-250 111 -616 163 -868 122z"/>
<path d="M24856 4010 c-424 -67 -710 -351 -808 -805 -25 -119 -35 -401 -19
-544 37 -316 165 -571 371 -738 87 -71 223 -138 345 -170 90 -24 117 -26 280
-26 163 0 189 2 279 26 265 71 473 243 596 492 96 195 136 407 127 680 -12
368 -110 626 -313 828 -122 121 -255 195 -426 238 -96 23 -336 34 -432 19z
m312 -326 c320 -65 482 -339 482 -814 0 -467 -168 -748 -485 -815 -287 -60
-550 60 -669 307 -80 165 -101 297 -93 566 9 297 60 460 186 596 138 148 351
207 579 160z"/>
<path d="M27335 4010 c-246 -39 -437 -137 -594 -305 -197 -211 -291 -483 -291
-845 0 -286 58 -510 177 -686 208 -306 564 -459 1028 -440 208 8 411 53 645
144 l75 29 3 202 c1 110 0 201 -3 201 -3 0 -32 -18 -64 -40 -114 -78 -343
-169 -506 -201 -113 -22 -341 -18 -449 9 -313 78 -506 319 -532 665 l-7 87
807 0 806 0 0 124 c0 393 -82 649 -264 829 -157 155 -346 225 -621 232 -82 2
-177 0 -210 -5z m308 -305 c250 -44 397 -223 422 -513 l8 -82 -627 0 c-381 0
-626 4 -626 9 0 27 32 155 50 200 61 156 194 293 341 352 121 47 285 61 432
34z"/>
<path d="M29525 4005 c-131 -21 -205 -43 -310 -95 -234 -116 -365 -310 -367
-545 -1 -248 98 -414 312 -518 116 -57 214 -86 474 -137 351 -70 447 -111 498
-209 24 -46 28 -65 28 -135 0 -68 -4 -91 -26 -134 -59 -118 -194 -177 -429
-188 -256 -13 -517 66 -773 232 -45 30 -87 54 -92 54 -6 0 -10 -80 -10 -206
l0 -205 73 -34 c105 -48 276 -102 402 -127 89 -18 146 -22 300 -23 262 0 407
29 580 118 108 56 247 192 294 289 46 97 64 192 58 309 -10 160 -62 278 -164
369 -122 109 -230 150 -579 221 -351 71 -445 105 -517 190 -56 65 -72 170 -41
262 70 207 455 278 830 152 107 -35 248 -103 324 -154 25 -17 48 -31 53 -31 4
0 7 89 7 199 l0 198 -57 26 c-250 111 -616 163 -868 122z"/>
</g>
</svg>
