<?xml version="1.0" standalone="no"?>
<!DOCTYPE svg PUBLIC "-//W3C//DTD SVG 20010904//EN"
 "http://www.w3.org/TR/2001/REC-SVG-20010904/DTD/svg10.dtd">
<svg version="1.0" xmlns="http://www.w3.org/2000/svg"
 width="305.000000pt" height="165.000000pt" viewBox="0 0 305.000000 165.000000"
 preserveAspectRatio="xMidYMid meet">

<g transform="translate(0.000000,165.000000) scale(0.100000,-0.100000)"
fill="#000000" stroke="none">
<path d="M219 1641 c-100 -20 -149 -90 -149 -214 l0 -77 -35 0 -35 0 0 -90 0
-90 35 0 35 0 -2 -495 -3 -495 108 0 107 0 0 495 0 495 50 0 50 0 0 90 0 90
-50 0 -50 0 0 44 c0 68 6 76 56 76 l44 0 0 90 0 90 -62 -1 c-35 -1 -79 -4 -99
-8z"/>
<path d="M470 1560 l0 -90 105 0 105 0 0 90 0 90 -105 0 -105 0 0 -90z"/>
<path d="M830 1500 l0 -150 -30 0 -30 0 0 -90 0 -90 30 0 29 0 3 -427 3 -428
25 -43 c38 -68 77 -86 192 -90 l98 -4 0 86 0 86 -38 0 c-21 0 -43 5 -50 12 -9
9 -12 114 -12 410 l0 398 90 0 90 0 0 -495 0 -495 110 0 110 0 0 495 0 495 50
0 50 0 0 90 0 90 -50 0 -51 0 3 58 3 57 48 3 47 3 0 91 0 91 -89 -5 c-159 -9
-219 -68 -229 -224 l-5 -74 -88 0 -89 0 0 150 0 150 -110 0 -110 0 0 -150z"/>
<path d="M1640 915 l0 -735 105 0 105 0 0 735 0 735 -105 0 -105 0 0 -735z"/>
<path d="M470 765 l0 -585 105 0 105 0 0 585 0 585 -105 0 -105 0 0 -585z"/>
<path d="M2055 1338 c-43 -15 -75 -47 -97 -96 -18 -39 -19 -71 -19 -481 -1
-415 0 -442 19 -484 34 -77 99 -107 231 -107 105 0 151 12 196 51 64 57 66 74
63 560 l-3 434 -25 44 c-40 72 -88 91 -224 90 -61 0 -124 -5 -141 -11z m177
-196 c5 -18 7 -199 6 -402 -3 -333 -5 -371 -20 -386 -14 -15 -22 -16 -43 -6
l-25 12 0 398 c0 425 0 426 49 420 19 -2 27 -11 33 -36z"/>
<path d="M2535 1338 c-3 -7 -4 -310 -3 -673 l3 -660 108 -3 107 -3 0 127 0
127 25 -27 c75 -81 200 -71 248 18 22 41 22 46 22 516 0 473 0 475 -22 517
-31 57 -57 73 -121 73 -60 0 -101 -17 -131 -56 l-21 -27 0 42 0 41 -105 0
c-75 0 -107 -4 -110 -12z m290 -572 c0 -378 -1 -410 -17 -420 -13 -8 -23 -8
-35 0 -17 10 -18 43 -21 409 -2 293 1 401 10 412 6 8 23 13 37 11 l26 -3 0
-409z"/>
</g>
</svg>
