<?xml version="1.0" standalone="no"?>
<!DOCTYPE svg PUBLIC "-//W3C//DTD SVG 20010904//EN"
 "http://www.w3.org/TR/2001/REC-SVG-20010904/DTD/svg10.dtd">
<svg version="1.0" xmlns="http://www.w3.org/2000/svg"
 width="800.000000pt" height="495.000000pt" viewBox="0 0 800.000000 495.000000"
 preserveAspectRatio="xMidYMid meet">
<metadata>
Created by potrace 1.16, written by Peter Selinger 2001-2019
</metadata>
<g transform="translate(0.000000,495.000000) scale(0.100000,-0.100000)"
fill="#000000" stroke="none">
<path d="M211 3202 c-67 -34 -76 -57 -79 -213 l-4 -139 -64 0 -64 0 0 -30 0
-30 65 0 65 0 0 -465 0 -465 25 0 25 0 0 465 0 465 105 0 105 0 0 30 0 30
-105 0 -105 0 0 108 c0 190 20 216 161 210 l79 -3 0 28 0 27 -87 0 c-64 0 -97
-5 -122 -18z"/>
<path d="M4742 3200 c-62 -38 -72 -69 -72 -217 l0 -133 -70 0 -70 0 0 -30 0
-30 70 0 70 0 0 -465 0 -465 25 0 25 0 0 465 0 465 105 0 105 0 0 30 0 30
-105 0 -105 0 0 119 c0 66 4 131 10 145 15 41 61 58 148 55 75 -2 77 -2 77 22
0 23 -2 24 -90 27 -76 2 -95 -1 -123 -18z"/>
<path d="M2210 3000 l0 -150 -75 0 -75 0 0 -30 0 -30 75 0 74 0 3 -407 c3
-387 4 -410 23 -442 11 -19 31 -42 45 -53 29 -21 112 -34 164 -24 30 6 36 11
36 32 0 25 -1 26 -49 19 -27 -4 -66 -2 -90 5 -72 19 -71 15 -71 470 l0 400
105 0 105 0 0 30 0 30 -110 0 -110 0 0 150 0 150 -25 0 -25 0 0 -150z"/>
<path d="M6750 3000 l0 -150 -75 0 -75 0 0 -30 0 -30 75 0 74 0 3 -414 c3
-401 4 -415 24 -442 46 -62 119 -87 208 -70 29 6 36 12 36 30 0 22 -3 22 -79
22 -93 -1 -113 11 -130 79 -7 28 -11 179 -11 419 l0 376 110 0 110 0 0 30 0
30 -110 0 -110 0 0 150 0 150 -25 0 -25 0 0 -150z"/>
<path d="M770 2856 c-268 -58 -419 -393 -315 -702 46 -137 122 -225 242 -282
53 -25 69 -27 173 -27 109 0 119 2 180 32 117 57 208 174 245 313 20 74 19
246 -1 323 -47 184 -178 316 -343 347 -67 13 -111 12 -181 -4z m266 -78 c139
-72 224 -234 224 -428 0 -198 -88 -360 -233 -426 -54 -25 -74 -29 -157 -29
-83 0 -103 4 -157 29 -111 51 -198 172 -224 311 -16 85 -6 236 21 313 29 83
97 173 155 208 81 47 112 54 220 51 85 -3 108 -7 151 -29z"/>
<path d="M1830 2856 c-30 -7 -73 -22 -95 -33 -53 -28 -119 -98 -142 -149 l-19
-42 1 107 0 106 -25 0 -25 0 -3 -493 -2 -493 27 3 28 3 2 290 c1 160 4 314 7
342 15 130 85 234 191 284 33 16 71 29 85 29 14 0 42 3 63 6 31 6 37 11 37 30
0 21 -4 24 -37 23 -21 0 -63 -6 -93 -13z"/>
<path d="M2909 2848 c-194 -69 -308 -254 -309 -501 0 -170 58 -327 152 -412
125 -112 359 -127 517 -32 92 55 168 166 179 262 4 43 3 45 -20 45 -22 0 -26
-6 -32 -37 -15 -96 -88 -193 -177 -238 -61 -31 -160 -48 -233 -40 -184 20
-285 125 -321 330 -8 48 -15 94 -15 101 0 12 70 14 410 14 l410 0 0 45 c0 69
-29 193 -58 254 -41 83 -103 145 -186 186 -62 31 -85 37 -161 41 -77 4 -100 1
-156 -18z m260 -53 c133 -47 219 -167 239 -335 l8 -70 -383 0 -384 0 6 38 c11
62 36 144 57 186 47 92 154 176 252 196 52 11 152 4 205 -15z"/>
<path d="M5310 2856 c-245 -53 -395 -332 -336 -625 34 -169 123 -292 253 -354
64 -30 74 -32 178 -32 135 1 198 22 279 96 135 123 192 304 161 510 -43 291
-270 463 -535 405z m234 -67 c143 -53 239 -206 252 -399 19 -273 -130 -480
-358 -497 -224 -17 -385 133 -418 390 -28 227 82 450 255 511 63 23 203 20
269 -5z"/>
<path d="M6374 2860 c-100 -20 -199 -93 -242 -180 l-22 -45 0 108 0 107 -25 0
-25 0 0 -495 0 -495 25 0 25 0 0 288 c0 158 5 316 11 352 15 98 53 173 115
230 58 52 112 75 207 86 52 6 57 9 57 30 0 22 -4 24 -42 23 -24 -1 -61 -5 -84
-9z"/>
<path d="M7468 2857 c-152 -44 -273 -179 -314 -354 -22 -94 -14 -294 15 -377
54 -153 152 -246 289 -275 159 -33 315 6 416 106 53 52 101 143 112 211 6 40
5 42 -19 42 -21 0 -26 -7 -36 -46 -30 -117 -104 -204 -207 -244 -47 -19 -79
-23 -159 -24 -89 0 -107 3 -163 28 -121 55 -188 170 -208 354 l-7 62 408 0
407 0 -4 93 c-10 199 -107 347 -265 407 -72 27 -199 35 -265 17z m246 -65
c125 -44 236 -213 236 -359 l0 -43 -380 0 -381 0 7 53 c20 156 120 301 241
348 84 32 189 33 277 1z"/>
<path d="M3500 1680 l0 -50 480 0 480 0 0 50 0 50 -480 0 -480 0 0 -50z"/>
</g>
</svg>
