<?xml version="1.0" standalone="no"?>
<!DOCTYPE svg PUBLIC "-//W3C//DTD SVG 20010904//EN"
 "http://www.w3.org/TR/2001/REC-SVG-20010904/DTD/svg10.dtd">
<svg version="1.0" xmlns="http://www.w3.org/2000/svg"
 width="113.000000pt" height="13.000000pt" viewBox="0 0 113.000000 13.000000"
 preserveAspectRatio="xMidYMid meet">

<g transform="translate(0.000000,13.000000) scale(0.100000,-0.100000)"
fill="#000000" stroke="none">
<path d="M7 123 c-11 -10 -8 -113 3 -113 6 0 10 11 10 25 0 18 5 25 20 25 11
0 20 5 20 10 0 6 -9 10 -20 10 -11 0 -20 7 -20 15 0 9 9 15 25 15 14 0 25 5
25 10 0 11 -53 14 -63 3z"/>
<path d="M110 110 c-11 -11 -20 -31 -20 -43 0 -44 59 -74 88 -45 17 17 15 74
-4 92 -21 21 -40 20 -64 -4z m64 -16 c17 -44 -7 -81 -44 -69 -15 5 -20 15 -20
39 0 18 3 36 7 39 12 13 51 7 57 -9z"/>
<path d="M230 110 c-24 -24 -25 -48 -4 -78 20 -29 59 -29 79 2 19 29 11 72
-15 86 -27 14 -38 12 -60 -10z m65 -39 c0 -41 -25 -62 -49 -42 -16 14 -22 62
-9 75 4 4 19 6 33 4 21 -3 25 -8 25 -37z"/>
<path d="M330 120 c0 -5 7 -10 15 -10 11 0 15 -12 15 -50 0 -27 5 -50 10 -50
6 0 10 23 10 50 0 38 4 50 15 50 8 0 15 5 15 10 0 6 -18 10 -40 10 -22 0 -40
-4 -40 -10z"/>
<path d="M430 124 c1 -27 27 -105 35 -105 6 0 15 17 21 38 l12 38 11 -28 c6
-16 11 -35 11 -43 0 -8 4 -14 10 -14 11 0 45 109 36 117 -6 6 -11 -4 -24 -57
l-9 -35 -12 42 c-16 59 -27 60 -41 5 l-13 -47 -13 44 c-13 43 -24 64 -24 45z"/>
<path d="M590 70 l0 -60 38 1 c36 1 36 2 7 8 -39 8 -48 41 -11 41 14 0 26 5
26 10 0 6 -11 10 -25 10 -16 0 -25 6 -25 15 0 10 10 15 30 15 17 0 30 5 30 10
0 6 -16 10 -35 10 l-35 0 0 -60z"/>
<path d="M713 113 c-3 -10 -12 -33 -19 -52 -18 -42 -17 -61 0 -38 17 22 45 22
63 0 13 -17 14 -16 9 8 -7 32 -35 99 -41 99 -3 0 -8 -8 -12 -17z m27 -45 c0
-5 -7 -8 -15 -8 -17 0 -18 2 -9 25 5 13 8 14 15 3 5 -7 9 -16 9 -20z"/>
<path d="M797 124 c-11 -11 -8 -114 3 -114 6 0 10 9 10 20 0 26 26 26 40 -1 7
-11 14 -18 17 -16 3 3 0 13 -5 23 -7 12 -6 24 1 36 9 13 9 23 1 36 -11 18 -54
28 -67 16z m58 -34 c0 -8 -10 -16 -22 -18 -18 -3 -23 2 -23 18 0 16 5 21 23
18 12 -2 22 -10 22 -18z"/>
<path d="M940 70 c0 -33 4 -60 10 -60 6 0 10 9 10 20 0 13 7 20 18 20 23 0 42
19 42 42 0 20 -28 38 -59 38 -19 0 -21 -6 -21 -60z m60 20 c0 -13 -7 -20 -20
-20 -13 0 -20 7 -20 20 0 13 7 20 20 20 13 0 20 -7 20 -20z"/>
<path d="M1047 123 c-4 -3 -7 -31 -7 -60 l0 -54 38 3 c37 3 37 3 38 48 1 25
-3 51 -9 58 -10 13 -49 17 -60 5z m53 -28 c0 -8 -9 -15 -20 -15 -11 0 -20 7
-20 15 0 8 9 15 20 15 11 0 20 -7 20 -15z m5 -55 c0 -8 -10 -16 -22 -18 -18
-3 -23 2 -23 18 0 16 5 21 23 18 12 -2 22 -10 22 -18z"/>
</g>
</svg>
