<?xml version="1.0" encoding="UTF-8"?>
<svg xmlns="http://www.w3.org/2000/svg" xmlns:xlink="http://www.w3.org/1999/xlink" width="16pt" height="11pt" viewBox="0 0 16 11" version="1.1">
<g id="surface1">
<path style=" stroke:none;fill-rule:nonzero;fill:rgb(92.941176%,10.980392%,14.117647%);fill-opacity:1;" d="M 1.789062 5.730469 L 14.210938 5.730469 L 14.210938 6.097656 L 1.789062 6.097656 Z M 1.789062 5.730469 "/>
<path style=" stroke:none;fill-rule:nonzero;fill:rgb(0%,0%,0%);fill-opacity:1;" d="M 3.546875 5.234375 C 3.546875 5.273438 3.546875 5.3125 3.542969 5.347656 C 3.539062 5.386719 3.535156 5.421875 3.523438 5.457031 C 3.515625 5.492188 3.507812 5.527344 3.492188 5.5625 C 3.476562 5.597656 3.453125 5.632812 3.429688 5.667969 C 3.375 5.742188 3.304688 5.796875 3.226562 5.828125 C 3.140625 5.863281 3.054688 5.882812 2.957031 5.882812 C 2.867188 5.882812 2.785156 5.867188 2.710938 5.839844 C 2.632812 5.808594 2.570312 5.773438 2.515625 5.71875 C 2.460938 5.671875 2.421875 5.609375 2.390625 5.539062 C 2.359375 5.46875 2.34375 5.386719 2.34375 5.300781 C 2.34375 5.214844 2.359375 5.132812 2.390625 5.058594 C 2.421875 4.988281 2.460938 4.925781 2.515625 4.875 C 2.570312 4.824219 2.640625 4.785156 2.714844 4.753906 C 2.789062 4.726562 2.875 4.714844 2.96875 4.714844 C 3.085938 4.714844 3.1875 4.738281 3.28125 4.789062 C 3.367188 4.839844 3.4375 4.917969 3.484375 5.019531 L 3.203125 5.132812 C 3.179688 5.082031 3.148438 5.039062 3.109375 5.007812 C 3.066406 4.972656 3.015625 4.957031 2.953125 4.957031 C 2.90625 4.957031 2.863281 4.96875 2.828125 4.988281 C 2.789062 5.007812 2.757812 5.035156 2.734375 5.066406 C 2.707031 5.101562 2.6875 5.140625 2.675781 5.179688 C 2.664062 5.222656 2.65625 5.261719 2.65625 5.304688 C 2.65625 5.347656 2.664062 5.386719 2.675781 5.429688 C 2.6875 5.472656 2.710938 5.507812 2.734375 5.539062 C 2.757812 5.574219 2.789062 5.597656 2.828125 5.617188 C 2.867188 5.636719 2.910156 5.648438 2.960938 5.648438 C 3.023438 5.648438 3.078125 5.632812 3.125 5.597656 C 3.167969 5.570312 3.195312 5.519531 3.199219 5.457031 L 2.957031 5.457031 L 2.957031 5.234375 Z M 3.546875 5.234375 "/>
<path style=" stroke:none;fill-rule:nonzero;fill:rgb(0%,0%,0%);fill-opacity:1;" d="M 3.984375 5.65625 L 3.90625 5.84375 L 3.589844 5.84375 L 4.03125 4.75 L 4.355469 4.75 L 4.789062 5.84375 L 4.46875 5.84375 L 4.394531 5.65625 Z M 4.195312 5.085938 L 4.1875 5.085938 L 4.066406 5.4375 L 4.3125 5.4375 Z M 4.195312 5.085938 "/>
<path style=" stroke:none;fill-rule:nonzero;fill:rgb(0%,0%,0%);fill-opacity:1;" d="M 5.515625 5.03125 C 5.488281 5.007812 5.457031 4.992188 5.421875 4.976562 C 5.390625 4.964844 5.351562 4.957031 5.320312 4.957031 C 5.304688 4.957031 5.289062 4.960938 5.273438 4.964844 C 5.257812 4.96875 5.246094 4.972656 5.234375 4.980469 C 5.21875 4.988281 5.210938 5 5.203125 5.011719 C 5.195312 5.023438 5.1875 5.035156 5.1875 5.050781 C 5.1875 5.066406 5.195312 5.078125 5.203125 5.089844 C 5.210938 5.101562 5.226562 5.113281 5.238281 5.121094 C 5.25 5.128906 5.265625 5.136719 5.28125 5.140625 C 5.296875 5.148438 5.308594 5.152344 5.320312 5.15625 L 5.398438 5.175781 C 5.4375 5.1875 5.476562 5.203125 5.507812 5.21875 C 5.542969 5.234375 5.574219 5.253906 5.601562 5.277344 C 5.625 5.300781 5.644531 5.328125 5.65625 5.359375 C 5.671875 5.390625 5.679688 5.429688 5.679688 5.476562 C 5.679688 5.53125 5.671875 5.585938 5.65625 5.636719 C 5.640625 5.691406 5.609375 5.734375 5.5625 5.769531 C 5.515625 5.804688 5.46875 5.832031 5.40625 5.847656 C 5.351562 5.867188 5.296875 5.875 5.238281 5.875 C 5.164062 5.875 5.09375 5.863281 5.023438 5.839844 C 4.957031 5.820312 4.890625 5.789062 4.835938 5.75 L 4.960938 5.519531 C 5 5.550781 5.039062 5.578125 5.085938 5.597656 C 5.125 5.621094 5.175781 5.632812 5.226562 5.632812 C 5.242188 5.632812 5.261719 5.628906 5.28125 5.625 C 5.296875 5.621094 5.3125 5.613281 5.324219 5.605469 C 5.335938 5.597656 5.351562 5.585938 5.359375 5.574219 C 5.367188 5.558594 5.371094 5.542969 5.371094 5.523438 C 5.371094 5.5 5.367188 5.484375 5.351562 5.472656 C 5.339844 5.457031 5.324219 5.445312 5.304688 5.4375 C 5.289062 5.425781 5.265625 5.417969 5.246094 5.414062 C 5.226562 5.40625 5.207031 5.402344 5.1875 5.398438 C 5.144531 5.382812 5.101562 5.371094 5.0625 5.359375 C 5.023438 5.34375 4.992188 5.324219 4.964844 5.300781 C 4.9375 5.28125 4.914062 5.253906 4.902344 5.21875 C 4.886719 5.183594 4.882812 5.140625 4.882812 5.085938 C 4.882812 5.035156 4.890625 4.980469 4.910156 4.9375 C 4.929688 4.890625 4.957031 4.851562 4.992188 4.820312 C 5.027344 4.789062 5.070312 4.761719 5.117188 4.746094 C 5.164062 4.726562 5.21875 4.722656 5.273438 4.722656 C 5.304688 4.722656 5.335938 4.722656 5.367188 4.726562 C 5.398438 4.730469 5.429688 4.738281 5.460938 4.746094 C 5.492188 4.753906 5.523438 4.761719 5.550781 4.773438 C 5.582031 4.785156 5.609375 4.796875 5.632812 4.8125 Z M 5.515625 5.03125 "/>
<path style=" stroke:none;fill-rule:nonzero;fill:rgb(0%,0%,0%);fill-opacity:1;" d="M 6.289062 5.84375 L 5.992188 5.84375 L 5.992188 4.992188 L 5.742188 4.992188 L 5.742188 4.75 L 6.535156 4.75 L 6.535156 4.992188 L 6.289062 4.992188 Z M 6.289062 5.84375 "/>
<path style=" stroke:none;fill-rule:nonzero;fill:rgb(0%,0%,0%);fill-opacity:1;" d="M 7.617188 5.84375 L 7.246094 5.84375 L 6.964844 5.421875 L 6.960938 5.421875 L 6.960938 5.84375 L 6.664062 5.84375 L 6.664062 4.75 L 7.109375 4.75 C 7.164062 4.75 7.21875 4.753906 7.265625 4.769531 C 7.316406 4.78125 7.359375 4.804688 7.394531 4.832031 C 7.429688 4.855469 7.457031 4.894531 7.476562 4.9375 C 7.5 4.976562 7.507812 5.027344 7.507812 5.085938 C 7.507812 5.125 7.503906 5.160156 7.492188 5.195312 C 7.484375 5.230469 7.46875 5.261719 7.445312 5.285156 C 7.421875 5.316406 7.398438 5.339844 7.367188 5.359375 C 7.335938 5.375 7.296875 5.386719 7.257812 5.394531 Z M 6.960938 5.242188 L 6.992188 5.242188 C 7.015625 5.242188 7.039062 5.238281 7.0625 5.238281 C 7.089844 5.234375 7.109375 5.226562 7.132812 5.21875 C 7.148438 5.207031 7.164062 5.195312 7.179688 5.175781 C 7.191406 5.15625 7.199219 5.132812 7.199219 5.105469 C 7.199219 5.074219 7.191406 5.050781 7.179688 5.03125 C 7.164062 5.015625 7.148438 5 7.132812 4.992188 C 7.109375 4.980469 7.089844 4.972656 7.0625 4.972656 C 7.039062 4.96875 7.015625 4.964844 6.992188 4.964844 L 6.960938 4.964844 Z M 6.960938 5.242188 "/>
<path style=" stroke:none;fill-rule:nonzero;fill:rgb(0%,0%,0%);fill-opacity:1;" d="M 8.28125 4.714844 C 8.367188 4.714844 8.445312 4.726562 8.519531 4.753906 C 8.59375 4.78125 8.664062 4.820312 8.722656 4.871094 C 8.78125 4.921875 8.828125 4.980469 8.863281 5.046875 C 8.898438 5.117188 8.914062 5.195312 8.914062 5.277344 C 8.914062 5.367188 8.898438 5.449219 8.867188 5.519531 C 8.835938 5.59375 8.792969 5.660156 8.738281 5.710938 C 8.679688 5.765625 8.617188 5.804688 8.539062 5.835938 C 8.460938 5.867188 8.375 5.882812 8.28125 5.882812 C 8.1875 5.882812 8.105469 5.867188 8.027344 5.835938 C 7.949219 5.804688 7.882812 5.765625 7.828125 5.710938 C 7.773438 5.660156 7.726562 5.59375 7.695312 5.519531 C 7.664062 5.449219 7.648438 5.367188 7.648438 5.277344 C 7.648438 5.195312 7.664062 5.117188 7.703125 5.046875 C 7.734375 4.980469 7.78125 4.921875 7.84375 4.871094 C 7.898438 4.820312 7.96875 4.78125 8.046875 4.753906 C 8.121094 4.726562 8.199219 4.714844 8.28125 4.714844 M 8.28125 4.988281 C 8.238281 4.988281 8.195312 4.996094 8.15625 5.011719 C 8.117188 5.03125 8.085938 5.050781 8.054688 5.078125 C 8.023438 5.105469 8 5.136719 7.984375 5.167969 C 7.96875 5.203125 7.960938 5.242188 7.960938 5.277344 C 7.960938 5.324219 7.96875 5.371094 7.984375 5.410156 C 8 5.449219 8.023438 5.480469 8.054688 5.511719 C 8.085938 5.542969 8.117188 5.5625 8.15625 5.582031 C 8.195312 5.597656 8.238281 5.605469 8.28125 5.605469 C 8.328125 5.605469 8.367188 5.597656 8.40625 5.582031 C 8.445312 5.5625 8.480469 5.542969 8.507812 5.511719 C 8.539062 5.480469 8.5625 5.449219 8.578125 5.410156 C 8.597656 5.371094 8.605469 5.324219 8.605469 5.277344 C 8.605469 5.242188 8.597656 5.203125 8.578125 5.167969 C 8.5625 5.136719 8.539062 5.105469 8.507812 5.078125 C 8.480469 5.050781 8.445312 5.03125 8.40625 5.011719 C 8.367188 4.996094 8.328125 4.988281 8.28125 4.988281 "/>
<path style=" stroke:none;fill-rule:nonzero;fill:rgb(0%,0%,0%);fill-opacity:1;" d="M 9.070312 5.84375 L 9.070312 4.75 L 9.496094 4.75 C 9.546875 4.75 9.59375 4.753906 9.632812 4.765625 C 9.679688 4.773438 9.710938 4.792969 9.742188 4.8125 C 9.773438 4.835938 9.796875 4.863281 9.8125 4.902344 C 9.828125 4.9375 9.835938 4.980469 9.835938 5.035156 C 9.835938 5.082031 9.828125 5.128906 9.808594 5.164062 C 9.789062 5.203125 9.757812 5.234375 9.710938 5.257812 L 9.710938 5.261719 C 9.792969 5.269531 9.851562 5.300781 9.890625 5.351562 C 9.925781 5.398438 9.945312 5.464844 9.945312 5.539062 C 9.945312 5.597656 9.933594 5.644531 9.90625 5.683594 C 9.882812 5.722656 9.851562 5.753906 9.8125 5.777344 C 9.777344 5.800781 9.734375 5.820312 9.683594 5.828125 C 9.632812 5.839844 9.582031 5.84375 9.53125 5.84375 Z M 9.367188 5.179688 L 9.402344 5.179688 C 9.421875 5.179688 9.4375 5.175781 9.460938 5.175781 C 9.476562 5.171875 9.496094 5.167969 9.511719 5.160156 C 9.527344 5.15625 9.539062 5.144531 9.546875 5.128906 C 9.558594 5.117188 9.5625 5.097656 9.5625 5.074219 C 9.5625 5.046875 9.558594 5.027344 9.546875 5.015625 C 9.539062 5 9.523438 4.988281 9.507812 4.980469 C 9.492188 4.976562 9.46875 4.96875 9.453125 4.96875 C 9.429688 4.96875 9.410156 4.964844 9.390625 4.964844 L 9.367188 4.964844 Z M 9.367188 5.625 L 9.40625 5.625 C 9.429688 5.625 9.453125 5.625 9.480469 5.625 C 9.507812 5.625 9.53125 5.621094 9.558594 5.613281 C 9.582031 5.605469 9.601562 5.59375 9.617188 5.582031 C 9.632812 5.5625 9.640625 5.539062 9.640625 5.511719 C 9.640625 5.480469 9.632812 5.453125 9.617188 5.4375 C 9.601562 5.417969 9.582031 5.40625 9.558594 5.402344 C 9.53125 5.394531 9.507812 5.390625 9.476562 5.390625 L 9.367188 5.390625 Z M 9.367188 5.625 "/>
<path style=" stroke:none;fill-rule:nonzero;fill:rgb(0%,0%,0%);fill-opacity:1;" d="M 10.40625 5.65625 L 10.324219 5.84375 L 10.007812 5.84375 L 10.449219 4.75 L 10.773438 4.75 L 11.207031 5.84375 L 10.890625 5.84375 L 10.8125 5.65625 Z M 10.609375 5.085938 L 10.484375 5.4375 L 10.734375 5.4375 Z M 10.609375 5.085938 "/>
<path style=" stroke:none;fill-rule:nonzero;fill:rgb(0%,0%,0%);fill-opacity:1;" d="M 12.125 5.117188 C 12.09375 5.078125 12.054688 5.046875 12.007812 5.027344 C 11.960938 5.007812 11.914062 4.996094 11.863281 4.996094 C 11.820312 4.996094 11.773438 5.003906 11.738281 5.019531 C 11.703125 5.035156 11.667969 5.054688 11.640625 5.082031 C 11.617188 5.113281 11.59375 5.144531 11.578125 5.179688 C 11.5625 5.21875 11.554688 5.257812 11.554688 5.300781 C 11.554688 5.34375 11.5625 5.382812 11.578125 5.417969 C 11.59375 5.457031 11.617188 5.488281 11.640625 5.511719 C 11.671875 5.539062 11.703125 5.5625 11.742188 5.574219 C 11.78125 5.589844 11.820312 5.597656 11.867188 5.597656 C 11.914062 5.597656 11.960938 5.585938 12.007812 5.566406 C 12.054688 5.546875 12.09375 5.515625 12.125 5.480469 L 12.125 5.820312 C 12.074219 5.835938 12.03125 5.847656 11.992188 5.859375 C 11.953125 5.867188 11.90625 5.875 11.859375 5.875 C 11.78125 5.875 11.703125 5.859375 11.632812 5.832031 C 11.558594 5.804688 11.492188 5.765625 11.429688 5.710938 C 11.367188 5.65625 11.320312 5.59375 11.289062 5.527344 C 11.261719 5.457031 11.25 5.378906 11.25 5.296875 C 11.25 5.222656 11.261719 5.152344 11.289062 5.082031 C 11.320312 5.011719 11.359375 4.949219 11.414062 4.898438 C 11.472656 4.839844 11.539062 4.800781 11.617188 4.765625 C 11.695312 4.734375 11.773438 4.722656 11.851562 4.722656 C 11.898438 4.722656 11.945312 4.726562 11.992188 4.734375 C 12.035156 4.742188 12.078125 4.757812 12.125 4.777344 Z M 12.125 5.117188 "/>
<path style=" stroke:none;fill-rule:nonzero;fill:rgb(0%,0%,0%);fill-opacity:1;" d="M 12.988281 4.75 L 13.359375 4.75 L 12.902344 5.265625 L 13.398438 5.84375 L 13.015625 5.84375 L 12.628906 5.371094 L 12.625 5.371094 L 12.625 5.84375 L 12.328125 5.84375 L 12.328125 4.75 L 12.625 4.75 L 12.625 5.199219 L 12.628906 5.199219 Z M 12.988281 4.75 "/>
<path style=" stroke:none;fill-rule:nonzero;fill:rgb(0%,0%,0%);fill-opacity:1;" d="M 13.632812 5.164062 C 13.601562 5.164062 13.570312 5.160156 13.546875 5.148438 C 13.515625 5.136719 13.492188 5.121094 13.472656 5.101562 C 13.453125 5.082031 13.4375 5.058594 13.421875 5.035156 C 13.414062 5.007812 13.40625 4.980469 13.40625 4.949219 C 13.40625 4.921875 13.414062 4.890625 13.421875 4.863281 C 13.4375 4.839844 13.453125 4.816406 13.472656 4.796875 C 13.492188 4.777344 13.515625 4.761719 13.546875 4.75 C 13.570312 4.738281 13.601562 4.730469 13.632812 4.730469 C 13.664062 4.730469 13.695312 4.738281 13.71875 4.75 C 13.75 4.761719 13.773438 4.777344 13.792969 4.796875 C 13.8125 4.816406 13.828125 4.839844 13.839844 4.863281 C 13.851562 4.890625 13.859375 4.921875 13.859375 4.949219 C 13.859375 4.980469 13.851562 5.007812 13.839844 5.035156 C 13.828125 5.058594 13.8125 5.082031 13.792969 5.101562 C 13.773438 5.121094 13.75 5.136719 13.71875 5.148438 C 13.695312 5.160156 13.664062 5.164062 13.632812 5.164062 M 13.632812 5.113281 C 13.65625 5.113281 13.679688 5.109375 13.703125 5.101562 C 13.71875 5.09375 13.742188 5.082031 13.753906 5.066406 C 13.769531 5.050781 13.78125 5.035156 13.789062 5.015625 C 13.800781 4.996094 13.804688 4.972656 13.804688 4.949219 C 13.804688 4.925781 13.800781 4.902344 13.789062 4.882812 C 13.78125 4.863281 13.769531 4.84375 13.753906 4.832031 C 13.742188 4.816406 13.71875 4.804688 13.703125 4.796875 C 13.679688 4.789062 13.65625 4.785156 13.632812 4.785156 C 13.609375 4.785156 13.585938 4.789062 13.5625 4.796875 C 13.542969 4.804688 13.523438 4.816406 13.507812 4.832031 C 13.492188 4.84375 13.484375 4.863281 13.472656 4.882812 C 13.464844 4.902344 13.460938 4.925781 13.460938 4.949219 C 13.460938 4.972656 13.464844 4.996094 13.472656 5.015625 C 13.484375 5.035156 13.492188 5.050781 13.507812 5.066406 C 13.523438 5.082031 13.542969 5.09375 13.5625 5.101562 C 13.585938 5.109375 13.609375 5.113281 13.632812 5.113281 M 13.742188 5.058594 L 13.683594 5.058594 L 13.632812 4.964844 L 13.59375 4.964844 L 13.59375 5.058594 L 13.542969 5.058594 L 13.542969 4.835938 L 13.65625 4.835938 C 13.671875 4.835938 13.679688 4.835938 13.695312 4.835938 C 13.703125 4.839844 13.714844 4.839844 13.722656 4.847656 C 13.730469 4.851562 13.734375 4.859375 13.742188 4.867188 C 13.746094 4.875 13.75 4.890625 13.75 4.902344 C 13.75 4.925781 13.742188 4.941406 13.734375 4.949219 C 13.71875 4.957031 13.703125 4.960938 13.683594 4.964844 Z M 13.65625 4.929688 C 13.671875 4.929688 13.679688 4.929688 13.6875 4.925781 C 13.695312 4.921875 13.699219 4.910156 13.699219 4.898438 C 13.699219 4.890625 13.695312 4.886719 13.695312 4.882812 C 13.6875 4.878906 13.6875 4.878906 13.679688 4.875 C 13.675781 4.875 13.671875 4.875 13.664062 4.875 C 13.65625 4.875 13.648438 4.875 13.648438 4.875 L 13.59375 4.875 L 13.59375 4.929688 Z M 13.65625 4.929688 "/>
</g>
</svg>
