<?xml version="1.0" standalone="no"?>
<!DOCTYPE svg PUBLIC "-//W3C//DTD SVG 20010904//EN"
 "http://www.w3.org/TR/2001/REC-SVG-20010904/DTD/svg10.dtd">
<svg version="1.0" xmlns="http://www.w3.org/2000/svg"
 width="400.000000pt" height="91.000000pt" viewBox="0 0 400.000000 91.000000"
 preserveAspectRatio="xMidYMid meet">

<g transform="translate(0.000000,91.000000) scale(0.100000,-0.100000)"
fill="#000000" stroke="none">
<path d="M518 894 c-32 -17 -58 -61 -58 -98 0 -14 -9 -31 -22 -40 -18 -13 -19
-16 -5 -16 15 0 17 -12 17 -100 0 -95 -1 -101 -22 -110 -17 -6 -3 -9 52 -9 62
1 70 2 48 11 -28 10 -28 10 -28 108 l0 99 28 4 27 4 -27 2 c-25 1 -28 5 -28
36 0 82 48 133 99 105 12 -6 21 -7 21 -1 0 24 -62 27 -102 5z"/>
<path d="M683 900 c-31 -13 -63 -68 -63 -108 0 -24 -6 -35 -22 -42 -18 -7 -19
-9 -5 -9 15 -1 17 -13 17 -101 0 -95 -1 -101 -22 -110 -17 -6 -5 -9 47 -9 58
0 66 2 48 11 -22 10 -23 17 -23 110 l0 98 55 0 55 0 0 -100 c0 -93 -1 -100
-20 -100 -11 0 -20 -4 -20 -10 0 -6 30 -10 71 -10 44 0 68 4 64 10 -3 6 -15
10 -26 10 -18 0 -19 8 -19 105 l0 105 -81 0 -82 0 6 52 c7 59 37 98 76 98 42
0 55 -13 40 -38 -16 -25 0 -48 25 -39 20 8 21 51 1 67 -20 16 -94 22 -122 10z"/>
<path d="M3673 897 c-24 -6 -43 -14 -43 -20 0 -5 9 -7 20 -4 28 7 31 -13 28
-183 -3 -143 -3 -145 -28 -157 -22 -11 -18 -13 45 -12 59 0 66 2 47 11 -23 11
-23 13 -21 190 1 98 0 180 -2 182 -2 1 -23 -2 -46 -7z"/>
<path d="M127 886 c-59 -22 -91 -53 -114 -111 -44 -114 39 -255 150 -255 18 0
16 3 -12 18 -57 28 -74 61 -79 150 -6 101 17 160 72 186 58 27 48 35 -17 12z"/>
<path d="M210 892 c0 -4 15 -14 33 -22 46 -22 69 -74 69 -160 0 -84 -22 -135
-71 -167 -30 -20 -31 -23 -12 -23 48 0 120 58 140 113 28 73 0 185 -55 224
-30 22 -104 46 -104 35z"/>
<path d="M2105 893 c-87 -21 -138 -89 -138 -182 0 -69 24 -123 71 -159 46 -35
148 -43 202 -15 31 16 36 23 40 68 4 42 9 50 30 56 14 4 -11 7 -60 7 -49 0
-74 -3 -60 -7 22 -6 25 -13 28 -60 4 -62 -4 -71 -64 -71 -56 0 -90 28 -109 92
-27 91 -14 181 33 230 52 55 132 42 174 -28 11 -19 23 -33 25 -30 2 2 1 25 -2
51 -5 31 -11 43 -17 37 -7 -7 -24 -5 -50 4 -41 14 -66 16 -103 7z"/>
<path d="M1177 866 c-3 -8 1 -20 9 -27 12 -10 18 -9 31 3 8 9 12 21 9 27 -10
16 -43 14 -49 -3z"/>
<path d="M2475 850 c-8 -16 -15 -35 -15 -41 0 -14 47 27 61 54 8 13 6 17 -10
17 -13 0 -27 -12 -36 -30z"/>
<path d="M3035 850 c-32 -61 -8 -61 36 2 l20 28 -20 0 c-13 0 -26 -11 -36 -30z"/>
<path d="M954 745 c-80 -41 -87 -178 -9 -213 41 -19 100 -15 126 8 l24 21 -32
-16 c-43 -20 -57 -19 -88 8 -19 16 -28 35 -32 68 -10 87 40 149 96 120 18 -10
19 -15 9 -31 -15 -24 2 -46 26 -37 20 8 21 51 1 67 -23 19 -87 22 -121 5z"/>
<path d="M1180 747 c-19 -5 -39 -13 -45 -19 -7 -7 -3 -8 13 -3 22 6 22 5 22
-90 0 -90 -1 -96 -22 -105 -17 -6 -5 -9 47 -9 44 0 63 3 50 8 -18 7 -21 20
-25 118 l-5 109 -35 -9z"/>
<path d="M1333 746 c-24 -5 -43 -13 -43 -18 0 -5 9 -6 20 -3 19 6 20 2 20 -90
0 -90 -1 -96 -22 -105 -17 -6 -5 -9 47 -9 44 0 63 3 50 8 -18 7 -21 20 -25
117 l-5 109 -42 -9z"/>
<path d="M1423 748 c-13 -6 -23 -16 -23 -22 0 -6 5 -5 12 2 7 7 21 12 33 12
37 0 45 -19 45 -112 0 -72 -3 -89 -17 -97 -14 -8 -2 -10 47 -10 49 0 59 3 43
9 -21 9 -23 15 -23 99 0 85 -1 91 -26 110 -29 23 -57 26 -91 9z"/>
<path d="M1662 740 c-67 -41 -77 -136 -21 -192 23 -23 36 -28 77 -28 36 0 56
6 73 21 25 22 20 22 -23 0 -61 -31 -108 17 -108 108 0 38 6 56 24 78 21 24 26
26 50 15 18 -8 26 -19 26 -37 0 -22 -4 -25 -35 -25 -19 0 -35 -5 -35 -11 0 -8
17 -10 57 -5 31 4 59 9 61 11 12 12 -12 57 -38 70 -39 20 -69 19 -108 -5z"/>
<path d="M2412 740 c-67 -41 -76 -147 -17 -197 35 -31 113 -32 146 -2 25 22
20 22 -23 0 -60 -31 -108 16 -108 107 0 75 51 127 88 90 7 -7 12 -22 12 -35 0
-20 -5 -23 -35 -23 -19 0 -35 -5 -35 -11 0 -8 17 -10 57 -5 31 4 59 9 61 11
12 12 -12 57 -38 70 -39 20 -69 19 -108 -5z"/>
<path d="M2638 747 c-38 -10 -54 -31 -20 -25 15 3 17 -8 20 -88 3 -86 2 -91
-20 -102 -19 -9 -13 -11 42 -11 49 0 61 2 48 10 -15 9 -18 26 -18 119 0 61 -3
109 -7 109 -5 -1 -25 -6 -45 -12z"/>
<path d="M2726 747 c-16 -12 -14 -13 18 -9 31 4 37 1 46 -23 5 -14 10 -59 10
-99 0 -66 -2 -74 -22 -84 -19 -9 -11 -11 47 -11 49 0 64 3 49 9 -20 8 -22 18
-25 100 -4 82 -6 94 -28 111 -27 22 -69 25 -95 6z"/>
<path d="M2990 753 c-81 -30 -101 -159 -33 -212 36 -29 112 -29 144 0 26 22
21 22 -24 -1 -35 -17 -77 -4 -94 30 -7 14 -13 48 -13 77 0 40 5 58 24 80 21
24 26 26 50 15 18 -8 26 -19 26 -37 0 -22 -4 -25 -35 -25 -19 0 -35 -5 -35
-11 0 -8 17 -10 57 -5 31 4 59 9 61 11 3 2 2 15 -2 29 -10 41 -77 67 -126 49z"/>
<path d="M3198 746 c-38 -9 -54 -30 -20 -24 15 3 17 -7 20 -72 4 -94 -2 -117
-31 -123 -12 -2 12 -4 53 -5 45 0 65 3 50 7 -25 7 -25 9 -26 114 -1 59 -3 109
-5 110 -2 2 -21 -1 -41 -7z"/>
<path d="M3279 740 c-13 -10 -19 -19 -12 -20 6 0 15 5 18 10 12 19 33 11 28
-10 -6 -24 21 -37 42 -20 19 16 19 25 -1 44 -21 21 -47 20 -75 -4z"/>
<path d="M3433 750 c-25 -10 -47 -46 -38 -60 8 -13 42 -13 50 0 4 6 1 18 -6
26 -25 30 36 47 65 18 12 -11 16 -36 16 -99 0 -46 3 -90 6 -99 8 -22 67 -21
85 1 13 15 12 15 -7 5 -12 -6 -24 -8 -28 -5 -3 3 -6 43 -6 89 0 63 -4 87 -18
104 -19 24 -84 35 -119 20z"/>
<path d="M3853 746 c-79 -36 -85 -179 -8 -214 41 -19 99 -15 126 8 l24 20 -38
-17 c-35 -16 -41 -16 -65 -2 -34 19 -52 54 -52 102 0 98 79 144 105 60 6 -21
3 -23 -29 -23 -20 0 -36 -5 -36 -11 0 -8 15 -10 46 -5 26 3 53 6 61 6 10 0 12
7 8 23 -17 55 -82 80 -142 53z"/>
<path d="M3433 625 c-50 -21 -65 -73 -29 -97 18 -12 73 -9 84 5 8 9 3 12 -21
12 -26 0 -33 5 -35 23 -4 26 13 50 43 62 12 6 14 9 5 9 -8 0 -29 -6 -47 -14z"/>
<path d="M2371 237 c-48 -17 -73 -56 -79 -120 -4 -46 -1 -57 23 -85 34 -41 48
-41 28 -1 -10 21 -14 49 -11 90 5 73 34 109 85 109 20 0 32 4 28 10 -8 13 -31
12 -74 -3z"/>
<path d="M1433 233 c15 -4 17 -18 17 -109 0 -86 -3 -104 -15 -104 -8 0 -15 -4
-15 -10 0 -5 25 -10 55 -10 30 0 55 5 55 10 0 6 -9 10 -20 10 -19 0 -20 7 -20
110 l0 110 -37 -1 c-21 -1 -30 -3 -20 -6z"/>
<path d="M1525 233 c32 -8 45 -23 45 -52 0 -31 -16 -51 -42 -51 -10 0 -18 -5
-18 -11 0 -8 11 -9 32 -5 95 19 89 129 -7 125 -21 -1 -24 -3 -10 -6z"/>
<path d="M1974 229 c-10 -17 13 -36 27 -22 12 12 4 33 -11 33 -5 0 -12 -5 -16
-11z"/>
<path d="M2496 204 c-19 -19 -21 -68 -3 -82 23 -18 53 -22 70 -9 16 11 14 12
-15 12 -30 0 -33 3 -36 33 -2 18 2 40 9 48 16 20 -5 18 -25 -2z"/>
<path d="M2547 201 c3 -13 -1 -21 -14 -24 -10 -3 -4 -5 15 -6 32 -1 37 5 26
33 -9 23 -33 20 -27 -3z"/>
<path d="M1645 146 c-12 -8 -16 -19 -12 -30 10 -24 33 -14 29 13 -2 18 2 22
20 19 21 -3 24 -10 28 -67 6 -73 27 -99 56 -69 15 15 15 16 -2 15 -16 -2 -19
6 -22 53 -3 59 -18 80 -57 80 -12 0 -30 -6 -40 -14z"/>
<path d="M1825 152 c-27 -5 -44 -22 -22 -22 25 0 25 -105 0 -119 -14 -8 -8
-10 30 -11 26 0 47 5 47 10 0 6 -7 10 -15 10 -11 0 -15 16 -17 68 -3 61 -5 67
-23 64z"/>
<path d="M1871 146 c-10 -12 -8 -13 9 -9 14 4 20 1 18 -7 -5 -19 21 -24 28 -5
12 30 -34 47 -55 21z"/>
<path d="M1985 152 c-11 -2 -24 -9 -30 -14 -7 -8 -6 -9 3 -4 9 5 12 -8 12 -53
0 -34 -4 -61 -10 -61 -5 0 -10 -4 -10 -10 0 -5 18 -10 40 -10 22 0 40 5 40 10
0 6 -4 10 -10 10 -5 0 -10 30 -12 68 -3 61 -5 67 -23 64z"/>
<path d="M2076 141 c-22 -24 -9 -54 31 -73 33 -15 42 -45 17 -55 -12 -4 -25 2
-41 21 -19 22 -23 24 -23 9 0 -27 12 -38 42 -41 41 -5 68 14 68 47 0 23 -7 31
-40 46 -42 19 -52 41 -23 52 10 4 23 -2 34 -15 22 -28 27 -28 22 1 -6 31 -62
36 -87 8z"/>
<path d="M2360 150 c0 -5 9 -10 19 -10 33 0 44 -77 15 -118 -21 -30 0 -28 31
3 35 34 34 86 -1 114 -28 22 -64 28 -64 11z"/>
<path d="M1642 68 c-17 -17 -15 -58 4 -65 8 -3 25 -1 37 5 l22 11 -22 0 c-28
1 -31 35 -5 50 15 10 15 10 -3 11 -12 0 -26 -5 -33 -12z"/>
</g>
</svg>
