<?xml version="1.0" standalone="no"?>
<!DOCTYPE svg PUBLIC "-//W3C//DTD SVG 20010904//EN"
 "http://www.w3.org/TR/2001/REC-SVG-20010904/DTD/svg10.dtd">
<svg version="1.0" xmlns="http://www.w3.org/2000/svg"
 width="600.000000pt" height="270.000000pt" viewBox="0 0 600.000000 270.000000"
 preserveAspectRatio="xMidYMid meet">

<g transform="translate(0.000000,270.000000) scale(0.100000,-0.100000)"
fill="#000000" stroke="none">
<path d="M5000 2203 c-186 -31 -288 -183 -217 -323 30 -60 83 -98 218 -154
148 -62 175 -79 189 -121 9 -26 8 -41 -4 -68 -42 -101 -237 -96 -354 7 l-24
21 -44 -49 c-43 -47 -44 -50 -28 -68 30 -32 117 -77 185 -94 81 -21 207 -15
270 13 119 53 174 154 148 273 -9 42 -21 63 -58 100 -38 38 -69 55 -181 100
-146 58 -190 90 -190 137 0 109 179 139 302 51 l31 -22 38 44 38 44 -20 22
c-29 31 -116 71 -183 83 -61 11 -71 12 -116 4z"/>
<path d="M560 1770 l0 -420 70 0 70 0 0 175 0 175 180 0 180 0 0 -175 0 -175
70 0 70 0 0 420 0 420 -70 0 -70 0 0 -175 0 -175 -177 2 -178 3 -3 173 -2 172
-70 0 -70 0 0 -420z"/>
<path d="M1689 2163 c-95 -247 -299 -795 -299 -803 0 -6 27 -10 64 -10 l64 0
28 73 c14 39 33 87 40 105 l13 32 173 0 174 0 38 -105 39 -105 68 0 68 0 -27
73 c-15 40 -85 229 -157 420 l-130 347 -73 0 c-70 0 -73 -1 -83 -27z m197
-460 c-2 -2 -55 -2 -118 -1 l-116 3 52 135 c28 74 55 144 60 155 6 15 21 -15
66 -134 33 -85 58 -156 56 -158z"/>
<path d="M2310 2120 l0 -70 185 -2 185 -3 -190 -340 c-104 -187 -190 -343
-190 -347 0 -5 137 -8 305 -8 l305 0 0 70 0 70 -186 0 c-163 0 -185 2 -180 15
4 11 282 515 373 678 2 4 -133 7 -301 7 l-306 0 0 -70z"/>
<path d="M3112 2123 l3 -68 187 -5 187 -5 -189 -340 c-105 -187 -190 -343
-190 -347 0 -5 137 -8 305 -8 l305 0 0 70 0 70 -186 0 c-173 0 -186 1 -179 18
5 15 283 520 352 640 l24 42 -311 0 -311 0 3 -67z"/>
<path d="M3903 2183 c37 -63 253 -445 267 -474 17 -33 20 -59 20 -199 l0 -160
75 0 75 0 0 169 0 169 140 246 c77 136 140 249 140 251 0 3 -33 5 -74 5 l-74
0 -102 -180 c-56 -99 -105 -180 -109 -180 -3 0 -51 80 -107 178 l-100 177 -78
3 c-43 2 -76 -1 -73 -5z"/>
<path d="M3610 1021 c-60 -15 -80 -46 -80 -125 0 -49 -2 -56 -20 -56 -16 0
-20 -7 -20 -35 0 -28 4 -35 20 -35 19 0 20 -7 20 -120 l0 -120 45 0 45 0 0
120 0 120 30 0 c28 0 30 3 30 35 0 32 -2 35 -30 35 -29 0 -30 1 -30 50 0 40 4
51 21 60 11 7 27 9 35 6 10 -4 14 3 14 28 0 44 -19 53 -80 37z"/>
<path d="M3270 775 l0 -245 45 0 45 0 0 245 0 245 -45 0 -45 0 0 -245z"/>
<path d="M2355 981 c-89 -41 -135 -116 -135 -221 0 -85 20 -132 80 -183 76
-65 201 -76 278 -24 49 32 92 113 92 174 l0 43 -106 0 -105 0 3 -37 3 -38 53
-3 c48 -3 53 -5 50 -24 -8 -54 -110 -78 -177 -43 -53 27 -73 69 -69 147 3 58
8 71 33 98 55 57 145 64 203 15 l28 -24 30 24 29 23 -25 27 c-58 63 -181 85
-265 46z"/>
<path d="M2880 828 c-119 -60 -118 -228 0 -288 73 -37 158 -21 215 39 28 30
30 38 30 106 0 68 -2 76 -30 106 -59 62 -138 76 -215 37z m134 -79 c21 -16 26
-29 26 -64 0 -109 -142 -116 -157 -8 -5 35 -2 45 20 67 32 32 74 34 111 5z"/>
</g>
</svg>
