<svg xmlns="http://www.w3.org/2000/svg" width="46.733" height="23.107" viewBox="0 0 46.733 23.107"><path d="M37.673 11.079l-1.339-2.352h-.963l1.819 3.201v2.107h.967v-2.105l1.821-3.203h-.967zM17.534 14.035h.895v-5.308h-.895v2.207h-2.245v-2.207h-.895v5.308h.895v-2.207h2.245zM25.365 8.727v.895h2.376l-2.458 4.413h3.889v-.895h-2.366l2.451-4.413zM22.454 8.727h-.898l-1.999 5.308h.861l.44-1.164.056-.147h2.183l.056.147.439 1.164h.861l-1.999-5.308zm-1.199 3.101l.751-1.973.751 1.973h-1.502zM30.454 8.727v.895h2.377l-2.459 4.413h3.89v-.895h-2.367l2.451-4.413zM43.361 11.121l-.751-.304c-.441-.168-.858-.326-.858-.745 0-.388.338-.63.881-.63.436 0 .81.145 1.178.456l.029.025.504-.581-.028-.027c-.439-.424-1.052-.668-1.684-.668-1.047 0-1.837.633-1.837 1.473 0 .625.383 1.096 1.139 1.399l.757.311.024.009c.481.202.828.347.828.786 0 .427-.38.693-.992.693-.497 0-1.032-.225-1.429-.603l-.029-.028-.558.624.028.027c.51.491 1.229.773 1.974.773 1.156 0 1.963-.638 1.963-1.55 0-.868-.609-1.226-1.139-1.44"/><path d="M5.952 2.592c.154 0 .279-.125.279-.279 0-.154-.125-.28-.279-.28-.154 0-.279.125-.279.28 0 .088.042.165.105.216l-.382.474-.302-.457c.076-.05.126-.136.126-.233 0-.154-.125-.28-.279-.28-.154 0-.279.125-.279.28 0 .098.05.183.126.233l-.302.457-.382-.474c.063-.051.104-.128.104-.216 0-.154-.125-.28-.279-.28-.154 0-.279.125-.279.28 0 .154.125.279.279.279v1.022c0 .128.453.233 1.011.233s1.012-.105 1.012-.233v-1.022zM10.453 11.535s.089.263.12.831c0 0 .011.218.219.755v.001l.251.751s.306.899.456 1.468c.152.576.213 1.23.135 1.529 0 0-.101.306-.55.455-.488.161-.43.591-.43.591l.047.06s1.427.25 1.593-.464c0 0 .054-1.407-.011-2.629 0 0-.008-1.82.004-2.98l-.004-.168.002-.002c-.004-.157-.021-.42-.043-.531.039.178.128.236.237.292.111.055.297.055.326-.024.038-.104-.101-.142-.209-.281-.056-.072-.097-.189-.162-.373-.606-1.7-1.986-2.05-1.986-2.05-1.178-.348-2.422-.04-3.367.617 0 0-.434.246-.498-.477 0 0-.153-2.385-.336-2.915-.01.218-.093.516-.442.697-.168.086-.305.128-.413.128l-.171-.051c-.137-.101-.102-.306-.101-.315.107-.837.048-1.134.006-1.235.034.027.157.161.185.392.003.225-.017.514-.061.863-.001.004-.021.138.049.19.042.031.155.06.446-.088.502-.261.356-.8.35-.822 0 0-.13-.552-.614-.959-.835-.576-1.974.303-1.974.303-.112.104-.037.12-.107.233l-.2.115c-.299.111-.625.24-.777.304-.112.039-.216.084-.3.187-.028.112.048.177.076.27.019.104.029.259.125.362.083.076.119.117.213.144l.192.067.123.14c.053.035.188.038.358-.006.34-.101.623-.075.827-.046.138.021.28-.012.428-.04 0 0 .278-.049.278.179 0 0 .049.795-.14 2.029 0 0-.184 1.405.347 3.089 0 0 .258.879.562 1.752 0 0 .306.899.456 1.468.152.576.212 1.23.135 1.529 0 0-.101.306-.55.455-.487.161-.43.591-.43.591l.047.06s1.427.25 1.593-.464c0 0 .054-1.407-.01-2.629 0 0-.213-2.244.373-3.037 0 0 .793-1.229 2.468-1.121-.001-.001.624.038.859.81m-6.57-5.981l-.078-.009-.063-.025-.043-.036-.015-.045.015-.044.043-.037.063-.024.078-.009.297.114-.297.115zM5.144 17.453l.019-.025.041-.045.013-.013c.063-.063.134-.111.203-.138 0 0 .36-.118.371-.215.009-.077.048-1.131.062-1.545l-.022-.114-.037-.187-.001-.003-.06-.215-.082-.3-.172-.489-.038-.106-.051-.142-.11-.313c-.095-.277-.163-.493-.219-.699l-.004-.017-.002-.007-.121-.408.092 2.036c.037.839.224 1.925.087 2.207-.158.324-.456.415-.636.484s-.36.318-.346.539l.048.083s.44.058.813.026l.005-.055.007-.035.004-.018.01-.04.008-.026.021-.056.013-.029.016-.032.023-.039.024-.037.021-.027M10.772 17.349l.18-.118s.36-.118.371-.215c.009-.077.048-1.131.063-1.545l-.022-.114-.019-.093c-.155-.558-.421-1.342-.423-1.35l-.251-.749-.028-.073c-.003.074-.047 1.267-.04 1.409.037.839.179 1.931.042 2.212-.158.324-.456.415-.636.484s-.359.318-.346.539l.049.083s.439.058.811.026c.006-.144.065-.345.249-.496"/><path d="M19.885 16.146h.302l.816 1.868h-.344l-.188-.448h-.877l-.191.448h-.334l.816-1.868zm.467 1.132l-.321-.742-.318.742h.639zM22.318 18.046c-.136 0-.261-.025-.376-.074-.115-.049-.215-.117-.299-.203-.084-.085-.151-.187-.199-.303-.048-.117-.072-.241-.072-.374v-.005c0-.132.024-.257.07-.372.047-.116.114-.218.199-.305s.186-.157.303-.207c.117-.05.246-.076.387-.076l.232.021.192.06.161.092.141.117-.209.241c-.074-.069-.153-.125-.236-.167-.084-.042-.178-.063-.284-.063-.088 0-.17.017-.245.052-.076.034-.14.081-.195.14-.055.059-.097.129-.128.208-.03.08-.045.164-.045.254v.005c0 .09.015.175.045.256.03.081.073.151.128.211.054.06.119.107.195.142.075.035.156.052.245.052.113 0 .211-.022.292-.065.081-.043.162-.102.241-.176l.209.212-.15.136-.168.103-.197.066-.237.022zM24.407 18.046c-.136 0-.261-.025-.376-.074-.115-.049-.215-.117-.299-.203-.084-.085-.151-.187-.199-.303-.048-.117-.073-.241-.073-.374v-.005c0-.132.024-.257.071-.372s.113-.218.199-.305c.086-.087.186-.157.303-.207.117-.05.246-.076.387-.076l.232.021.192.06.162.092.14.117-.209.241c-.074-.069-.153-.125-.236-.167-.083-.042-.178-.063-.284-.063-.088 0-.17.017-.246.052-.075.034-.14.081-.194.14-.055.059-.097.129-.127.208-.03.08-.045.164-.045.254v.005c0 .09.015.175.045.256.03.081.073.151.127.211.055.06.12.107.194.142.076.035.157.052.246.052.113 0 .21-.022.292-.065.081-.043.161-.102.241-.176l.209.212-.15.136-.168.103-.198.066-.236.022zM25.631 16.159h1.373v.294h-1.05v.477h.93v.294h-.93v.495h1.063v.294h-1.387v-1.854zM28.192 18.041c-.143 0-.28-.025-.411-.073-.13-.048-.252-.123-.363-.224l.196-.233c.09.078.181.138.273.179.092.042.196.063.313.063.101 0 .18-.021.24-.064.059-.043.089-.099.089-.169v-.006l-.017-.089-.064-.073-.128-.064-.211-.059-.265-.078-.194-.106-.12-.152-.041-.217v-.005l.047-.219.13-.17.199-.11.254-.04c.136 0 .259.02.367.059.109.04.211.097.306.174l-.175.246-.252-.142c-.083-.032-.167-.049-.251-.049-.095 0-.17.021-.223.063-.053.043-.08.095-.08.157v.005l.019.094.068.074.135.062.219.061.259.082.187.11.113.151.038.2v.005c0 .086-.016.164-.048.233l-.136.175-.208.109c-.079.028-.168.04-.265.04zM30.02 18.041c-.143 0-.28-.025-.411-.073-.13-.048-.252-.123-.363-.224l.196-.233c.09.078.181.138.273.179.092.042.196.063.312.063.101 0 .18-.021.24-.064.059-.043.089-.099.089-.169v-.006l-.017-.089-.064-.073-.127-.064-.211-.059-.264-.078-.194-.106-.12-.152-.041-.217v-.005l.047-.219.13-.17.199-.11.254-.04c.136 0 .259.02.367.059.109.04.211.097.306.174l-.175.246-.251-.142c-.083-.032-.167-.049-.252-.049-.095 0-.169.021-.223.063-.053.043-.079.095-.079.157v.005l.019.094.068.074.136.062.219.061.259.082.187.11.113.151.039.2v.005c0 .086-.016.164-.049.233l-.135.175-.209.109c-.081.028-.17.04-.268.04zM32.083 18.046c-.143 0-.274-.025-.393-.076-.118-.05-.22-.119-.305-.205-.085-.087-.151-.188-.199-.303-.047-.116-.071-.239-.071-.37v-.005c0-.131.024-.254.071-.37.048-.116.115-.217.202-.305.087-.087.189-.156.307-.208.118-.051.249-.077.393-.077.143 0 .274.025.392.076.119.05.22.119.305.205.084.087.151.188.199.304.048.116.071.239.071.37v.005c0 .131-.024.254-.071.37-.048.116-.115.217-.202.305-.087.087-.189.157-.307.208-.118.051-.249.076-.392.076zm.005-.299c.092 0 .175-.017.252-.052.076-.034.142-.081.196-.14l.128-.208c.031-.08.046-.164.046-.255v-.005c0-.09-.015-.175-.046-.256-.031-.08-.074-.15-.129-.209-.056-.059-.122-.106-.199-.142-.078-.035-.162-.053-.253-.053-.092 0-.175.017-.252.052-.076.034-.142.081-.197.14l-.128.208c-.031.08-.046.164-.046.254v.005c0 .09.015.175.046.256.031.081.074.15.129.209.056.059.122.106.199.142.078.036.163.054.254.054zM33.583 16.159h.827c.117 0 .22.017.31.049.09.033.165.078.225.136l.114.178.04.222v.005l-.033.206-.091.162-.139.119-.179.076.501.702h-.384l-.457-.647h-.41100000000000003v.647h-.323v-1.855zm.802.92c.117 0 .21-.028.279-.084.069-.056.104-.132.104-.228v-.005c0-.101-.034-.178-.101-.23-.067-.052-.162-.078-.285-.078h-.476v.625h.479zM35.65 16.159h.323v1.855h-.323v-1.855zM36.604 16.159h1.373v.294h-1.05v.477h.93v.294h-.93v.495h1.063v.294h-1.386v-1.854zM39.164 18.041c-.143 0-.28-.025-.411-.073-.131-.048-.252-.123-.363-.224l.196-.233c.09.078.181.138.273.179.092.042.196.063.313.063.101 0 .18-.021.24-.064.059-.043.089-.099.089-.169v-.006l-.018-.089-.063-.073-.128-.064-.211-.059-.264-.078-.194-.106-.12-.152-.041-.217v-.005l.047-.219.13-.17.199-.11.254-.04c.136 0 .258.02.367.059.109.04.211.097.306.174l-.175.246-.252-.142c-.083-.032-.167-.049-.252-.049-.095 0-.169.021-.223.063-.053.043-.08.095-.08.157v.005l.019.094.068.074.135.062.219.061.259.082.187.11.113.151.038.2v.005c0 .086-.016.164-.048.233l-.136.175-.208.109c-.078.028-.167.04-.265.04z"/></svg>