<?xml version="1.0" standalone="no"?>
<!DOCTYPE svg PUBLIC "-//W3C//DTD SVG 20010904//EN"
 "http://www.w3.org/TR/2001/REC-SVG-20010904/DTD/svg10.dtd">
<svg version="1.0" xmlns="http://www.w3.org/2000/svg"
 width="613.000000pt" height="268.000000pt" viewBox="0 0 613.000000 268.000000"
 preserveAspectRatio="xMidYMid meet">

<g transform="translate(0.000000,268.000000) scale(0.100000,-0.100000)"
fill="#000000" stroke="none">
<path d="M4533 1834 c-105 -39 -148 -162 -87 -248 17 -24 104 -72 226 -124 53
-23 74 -55 64 -96 -19 -76 -166 -79 -268 -4 -15 11 -22 8 -48 -17 -16 -16 -30
-34 -30 -40 0 -6 19 -23 43 -38 125 -82 301 -71 380 23 47 56 48 145 3 205
-19 24 -56 46 -147 86 -88 38 -124 59 -132 76 -30 66 49 119 139 95 26 -7 59
-21 74 -32 l26 -19 28 35 c15 19 24 39 21 44 -4 6 -30 22 -58 37 -65 33 -170
41 -234 17z"/>
<path d="M1310 1530 l0 -310 49 0 c35 0 51 4 55 16 3 9 6 67 6 130 l0 114 130
0 130 0 0 -130 0 -130 50 0 50 0 0 310 0 310 -50 0 -50 0 0 -130 0 -130 -130
0 c-117 0 -130 2 -131 18 0 9 0 68 1 130 l2 112 -56 0 -56 0 0 -310z"/>
<path d="M2145 1828 c-2 -7 -54 -145 -115 -307 -60 -161 -110 -295 -110 -297
0 -2 22 -4 49 -4 l50 0 28 75 28 75 130 0 130 0 28 -75 28 -75 50 0 c27 0 49
2 49 4 0 4 -205 548 -225 599 -6 13 -19 17 -61 17 -35 0 -56 -5 -59 -12z m104
-234 c16 -44 32 -87 36 -96 6 -16 -1 -18 -80 -18 -79 0 -87 2 -81 18 58 156
80 203 87 189 5 -8 22 -50 38 -93z"/>
<path d="M2600 1790 l0 -49 139 -3 140 -3 -68 -120 c-37 -66 -102 -182 -144
-257 l-76 -138 230 0 230 0 -3 53 -3 52 -132 0 c-73 0 -133 3 -133 8 0 5 61
118 135 251 74 134 135 246 135 250 0 3 -101 6 -225 6 l-225 0 0 -50z"/>
<path d="M3200 1790 l0 -50 135 0 c74 0 135 -4 135 -9 0 -7 -232 -429 -277
-503 -2 -5 100 -8 227 -8 l231 0 -3 53 -3 52 -128 1 c-70 1 -131 4 -134 7 -3
4 56 117 131 252 75 134 136 247 136 250 0 3 -101 5 -225 5 l-225 0 0 -50z"/>
<path d="M3783 1833 c3 -5 50 -88 106 -186 l101 -177 0 -125 0 -125 60 0 60 0
0 128 0 127 104 183 105 182 -59 0 -58 0 -65 -117 c-98 -176 -80 -174 -167
-18 l-75 134 -58 1 c-32 0 -56 -3 -54 -7z"/>
<path d="M1920 893 c-18 -43 -39 -93 -46 -110 -13 -31 -13 -33 6 -33 13 0 24
10 30 25 9 22 15 25 63 25 48 0 55 -3 65 -25 12 -26 42 -35 41 -12 0 6 -19 55
-43 107 -56 127 -71 129 -116 23z m58 -51 c-17 -2 -32 -2 -34 1 -2 2 3 21 12
43 l17 39 17 -40 17 -40 -29 -3z"/>
<path d="M2168 941 c-29 -26 -33 -35 -33 -81 0 -46 4 -55 34 -82 30 -27 39
-30 82 -26 57 6 85 24 68 44 -9 11 -16 10 -43 -3 -29 -13 -37 -14 -62 -2 -54
26 -54 116 1 141 21 9 32 8 59 -5 29 -13 36 -14 46 -2 17 20 -25 45 -77 45
-33 0 -50 -7 -75 -29z"/>
<path d="M2424 952 c-45 -36 -57 -98 -30 -151 27 -51 113 -68 157 -32 18 15
21 22 12 31 -9 10 -17 9 -34 -4 -33 -22 -56 -20 -84 9 -35 34 -34 86 1 114 32
25 52 26 81 6 19 -13 22 -13 34 1 11 14 10 18 -6 30 -27 20 -105 17 -131 -4z"/>
<path d="M2630 860 l0 -110 79 0 c58 0 80 4 84 14 9 22 -2 26 -65 26 -55 0
-58 1 -58 25 0 24 3 25 55 25 48 0 55 2 55 20 0 18 -7 20 -55 20 -52 0 -55 1
-55 25 0 24 3 25 60 25 53 0 60 2 60 20 0 18 -7 20 -80 20 l-80 0 0 -110z"/>
<path d="M2870 950 c-43 -43 -17 -89 63 -111 26 -7 37 -15 37 -29 0 -27 -41
-35 -78 -16 -26 13 -32 13 -42 1 -9 -11 -6 -17 19 -29 65 -34 141 -9 141 48 0
28 -19 46 -74 66 -44 17 -59 45 -28 54 11 4 32 2 47 -4 38 -14 59 4 31 26 -29
21 -92 18 -116 -6z"/>
<path d="M3081 945 c-30 -40 -12 -81 42 -97 57 -15 74 -32 57 -52 -16 -20 -37
-20 -74 -1 -24 13 -31 13 -37 3 -13 -20 15 -40 64 -45 39 -5 49 -2 71 20 14
14 26 33 26 42 0 24 -35 53 -78 65 -45 11 -59 32 -36 51 12 10 22 10 47 1 23
-9 34 -9 45 0 21 18 -12 38 -64 38 -34 0 -47 -5 -63 -25z"/>
<path d="M3311 939 c-35 -35 -42 -89 -17 -138 35 -67 160 -67 193 1 20 41 22
56 12 92 -14 50 -51 76 -110 76 -40 0 -52 -5 -78 -31z m123 -20 c20 -16 26
-29 26 -58 0 -46 -27 -74 -72 -74 -74 0 -94 115 -25 143 33 13 42 12 71 -11z"/>
<path d="M3570 859 c0 -100 2 -110 18 -107 12 2 18 14 20 41 5 53 38 52 72 -3
17 -28 32 -40 48 -40 25 0 24 3 -11 52 -20 27 -20 27 1 45 35 30 38 68 8 97
-22 23 -34 26 -91 26 l-65 0 0 -111z m127 60 c12 -12 6 -39 -11 -51 -6 -4 -26
-8 -43 -8 -31 0 -33 2 -33 35 0 34 1 35 38 35 21 0 43 -5 49 -11z"/>
<path d="M3810 860 c0 -103 1 -110 20 -110 19 0 20 7 20 110 0 103 -1 110 -20
110 -19 0 -20 -7 -20 -110z"/>
<path d="M3920 860 l0 -111 83 3 c65 2 82 6 82 18 0 11 -15 16 -62 18 -59 3
-63 4 -63 27 0 24 3 25 55 25 48 0 55 2 55 20 0 18 -7 20 -55 20 -52 0 -55 1
-55 25 0 24 3 25 59 25 41 0 60 4 64 14 9 23 -2 26 -85 26 l-78 0 0 -110z"/>
<path d="M4160 950 c-40 -40 -20 -82 50 -105 37 -12 50 -22 50 -36 0 -26 -41
-34 -78 -15 -16 8 -32 12 -36 9 -23 -23 21 -53 79 -53 41 0 75 29 75 64 0 28
-19 46 -74 66 -48 18 -59 46 -23 55 14 4 35 1 47 -5 32 -17 53 5 26 26 -29 21
-92 18 -116 -6z"/>
</g>
</svg>
