<svg xmlns="http://www.w3.org/2000/svg" width="46.733" height="23.107" viewBox="0 0 46.733 23.107"><path d="M17.701 7.634v1.244h3.304l-3.418 6.136h5.407v-1.244h-3.29l3.408-6.136zM34.812 10.904l-1.862-3.27h-1.338l2.529 4.45v2.93h1.345v-2.927l2.531-4.453h-1.345zM6.813 15.014h1.244v-7.38h-1.244v3.068h-3.121v-3.068h-1.244v7.38h1.244v-3.068h3.121zM13.654 7.634h-1.2489999999999999l-2.778 7.38h1.197l.611-1.619.078-.205h3.034l.078.205.611 1.619h1.197l-2.779-7.38zm-1.669 4.312l1.044-2.743 1.043 2.743h-2.087zM24.776 7.634v1.244h3.304l-3.418 6.136h5.408v-1.244h-3.29l3.407-6.136zM42.72 10.963l-1.044-.422c-.613-.233-1.193-.453-1.193-1.036 0-.54.469-.876 1.225-.876.606 0 1.126.202 1.638.635l.041.035.701-.808-.038-.037c-.609-.59-1.463-.928-2.341-.928-1.456 0-2.554.88-2.554 2.048 0 .869.534 1.524 1.584 1.945l1.053.431.032.013c.669.28 1.153.483 1.153 1.092 0 .595-.529.964-1.38.964-.692 0-1.434-.313-1.987-.838l-.041-.039-.776.868.039.038c.708.683 1.708 1.075 2.744 1.075 1.608 0 2.73-.886 2.73-2.155-.002-1.211-.848-1.707-1.586-2.005z"/></svg>