<?xml version="1.0" encoding="utf-8"?>
<!-- Generator: Adobe Illustrator 16.0.0, SVG Export Plug-In . SVG Version: 6.00 Build 0)  -->
<!DOCTYPE svg PUBLIC "-//W3C//DTD SVG 1.1//EN" "http://www.w3.org/Graphics/SVG/1.1/DTD/svg11.dtd">
<svg version="1.1" id="Layer_1" xmlns="http://www.w3.org/2000/svg" xmlns:xlink="http://www.w3.org/1999/xlink" x="0px" y="0px"
	 width="46.732px" height="23.107px" viewBox="0 0 46.732 23.107" enable-background="new 0 0 46.732 23.107" xml:space="preserve">
<g>
	<g>
		<path fill="#231F20" d="M17.536,9.996l-0.87,0.314c-0.576-0.617-1.396-0.928-2.439-0.928c-0.798,0-1.442,0.211-1.942,0.605
			c-0.491,0.408-0.749,0.933-0.749,1.568c0,0.647,0.24,1.167,0.74,1.567c0.497,0.399,1.169,0.597,2.005,0.597
			c1.009,0,1.812-0.311,2.392-0.937l0.828,0.454c-0.42,0.475-0.883,0.816-1.408,1.043c-0.521,0.211-1.14,0.314-1.867,0.314
			c-1.026,0-1.861-0.26-2.535-0.762c-0.76-0.588-1.15-1.348-1.15-2.277c0-0.942,0.391-1.698,1.164-2.279
			c0.676-0.522,1.525-0.77,2.522-0.77C15.665,8.507,16.766,9,17.536,9.996z"/>
		<g>
			<path fill="#231F20" d="M2.87,13.729H2.025V9.395H2.87V13.729z"/>
			<path fill="#231F20" d="M9.191,13.729H5.004V9.395h0.845v3.569h3.342V13.729z"/>
			<path fill="#231F20" d="M24.656,11.556c0,0.701-0.303,1.283-0.908,1.727c-0.521,0.374-1.161,0.571-1.938,0.571
				c-0.779,0-1.425-0.197-1.946-0.571c-0.606-0.444-0.905-1.018-0.905-1.727c0-0.71,0.299-1.282,0.913-1.724
				c0.542-0.395,1.176-0.576,1.938-0.576c0.753,0,1.399,0.181,1.929,0.576C24.354,10.282,24.656,10.845,24.656,11.556z
				 M23.774,11.556c0-0.454-0.177-0.821-0.546-1.118c-0.371-0.277-0.854-0.429-1.425-0.429c-0.58,0-1.054,0.151-1.425,0.436
				c-0.369,0.29-0.555,0.657-0.555,1.111c0,0.458,0.186,0.828,0.546,1.115c0.362,0.279,0.854,0.424,1.434,0.424
				c0.602,0,1.076-0.145,1.434-0.424C23.597,12.384,23.774,12.013,23.774,11.556z"/>
			<path fill="#231F20" d="M31.52,13.729h-0.971l-1.131-1.594h-2.143v1.594h-0.85V9.395h3.502c0.45,0,0.819,0.126,1.102,0.367
				c0.269,0.254,0.407,0.591,0.407,1.003c0,0.719-0.366,1.161-1.084,1.32L31.52,13.729z M29.802,11.375
				c0.508,0,0.765-0.202,0.765-0.589c0-0.424-0.273-0.625-0.808-0.625h-2.483v1.214H29.802z"/>
			<path fill="#231F20" d="M37.296,10.466c-0.563-0.298-1.169-0.44-1.841-0.44c-0.958,0-1.43,0.171-1.43,0.512
				c0,0.197,0.168,0.335,0.529,0.395c0.497,0.042,0.985,0.083,1.489,0.126c0.706,0.072,1.21,0.202,1.504,0.383
				c0.346,0.209,0.497,0.513,0.497,0.92c0,0.476-0.202,0.827-0.614,1.084c-0.412,0.252-1.018,0.378-1.808,0.378
				c-1.109,0-2.001-0.256-2.674-0.76l0.472-0.598c0.589,0.416,1.327,0.627,2.186,0.627c0.488,0,0.875-0.068,1.144-0.182
				c0.269-0.13,0.387-0.303,0.387-0.5c0-0.23-0.16-0.391-0.487-0.492c-0.186-0.051-0.472-0.085-0.85-0.109
				c-0.614-0.017-0.967-0.047-1.103-0.06c-0.537-0.054-0.941-0.168-1.185-0.348c-0.26-0.173-0.378-0.446-0.378-0.778
				c0-0.412,0.192-0.74,0.604-0.979c0.403-0.239,0.977-0.361,1.707-0.361c0.967,0,1.767,0.209,2.379,0.63L37.296,10.466z"/>
			<path fill="#231F20" d="M45.107,11.556c0,0.701-0.303,1.283-0.907,1.727c-0.522,0.374-1.178,0.571-1.95,0.571
				c-0.774,0-1.413-0.197-1.936-0.571c-0.604-0.444-0.907-1.018-0.907-1.727c0-0.71,0.304-1.282,0.907-1.724
				c0.54-0.395,1.195-0.576,1.936-0.576c0.747,0,1.396,0.181,1.934,0.576C44.786,10.282,45.107,10.845,45.107,11.556z
				 M44.225,11.556c0-0.454-0.194-0.821-0.557-1.118c-0.378-0.277-0.839-0.429-1.419-0.429c-0.589,0-1.061,0.151-1.43,0.436
				c-0.361,0.29-0.555,0.657-0.555,1.111c0,0.458,0.186,0.828,0.546,1.115c0.361,0.279,0.841,0.424,1.438,0.424
				c0.596,0,1.067-0.145,1.428-0.424C44.048,12.384,44.225,12.013,44.225,11.556z"/>
		</g>
	</g>
	<rect x="10.541" y="6.318" fill="#231F20" width="6.995" height="0.329"/>
	<rect x="10.541" y="16.458" fill="#231F20" width="6.995" height="0.33"/>
</g>
</svg>
