<svg xmlns="http://www.w3.org/2000/svg" width="46.733" height="23.107" viewBox="0 0 46.733 23.107"><g fill="#231F20"><path d="M1.888 10.304h.679v3.556h-.679zM1.888 10.304h.679v3.556h-.679zM4.159 12.767c.003.142.046.258.127.349.124.139.328.209.613.209.202 0 .364-.029.485-.086.157-.075.236-.196.236-.362 0-.127-.059-.225-.177-.295-.085-.048-.234-.095-.449-.141l-.372-.095-.413-.109c-.143-.048-.259-.104-.35-.167-.112-.079-.195-.175-.25-.29-.06-.13-.091-.287-.091-.471-.003-.272.077-.503.241-.694.23-.266.593-.399 1.089-.399.469 0 .825.138 1.067.413.182.205.275.45.282.734h-.685c-.018-.136-.061-.243-.127-.322-.121-.136-.318-.205-.59-.205-.16 0-.295.03-.404.091-.133.076-.2.186-.2.331 0 .115.041.202.122.263l.236.1.009.005.848.218c.281.065.49.156.625.27.187.157.281.384.281.68 0 .45-.19.773-.57.969-.233.121-.497.181-.794.181-.56 0-.965-.143-1.216-.431-.179-.202-.268-.452-.268-.748h.695zM8.059 12.512h.842l-.411-1.406h-.012l-.419 1.406zm-.415 1.345h-.711l1.173-3.555h.779l1.156 3.555h-.729l-.216-.735h-1.223l-.229.735zM11.519 13.254h.903c.175 0 .307-.042.395-.127.094-.088.14-.223.14-.405 0-.142-.052-.253-.158-.331-.088-.064-.2-.096-.337-.096h-.943v.959zm0-1.555h.872c.143 0 .257-.031.342-.095.096-.069.145-.169.145-.298 0-.145-.046-.247-.136-.308-.079-.054-.203-.082-.373-.082h-.85v.783zm-.673-1.392h1.683c.363 0 .633.106.811.317.138.16.206.356.206.589 0 .224-.051.402-.154.535-.055.073-.14.141-.254.204v.004c.187.07.324.186.412.349.073.133.11.301.11.503 0 .139-.028.275-.083.408-.049.127-.12.235-.21.326-.108.112-.222.189-.342.231-.161.057-.396.086-.706.086h-1.473v-3.552zM17.158 10.938h-1.811v.751h1.658v.621h-1.658v.924h1.887v.626h-2.59v-3.553h2.514zM18.865 13.213h1.701v.647h-2.422v-3.558h.721zM26.703 13.86h-.753v-2.762l-.721 2.762h-.777l-.706-2.762h-.015v2.762h-.753v-3.556h1.182l.701 2.69h.005l.677-2.69h1.16zM28.666 12.512h.888l-.432-1.406h-.014l-.442 1.406zm-.438 1.345h-.75l1.237-3.555h.821l1.219 3.555h-.768l-.228-.735h-1.29l-.241.735zM8.016 12.512h.889l-.433-1.406h-.014l-.442 1.406zm-.438 1.345h-.75l1.237-3.555h.822l1.219 3.555h-.769l-.227-.735h-1.29l-.242.735zM36.236 12.512h.888l-.433-1.406h-.014l-.441 1.406zm-.439 1.345h-.75l1.237-3.555h.822l1.219 3.555h-.768l-.228-.735h-1.29l-.242.735zM33.085 11.876c.192 0 .332-.038.421-.113.091-.079.137-.205.137-.38 0-.127-.03-.229-.091-.308-.085-.105-.221-.158-.407-.158h-.915v.959h.855zm-1.572-1.569h1.773c.399 0 .695.128.887.385.134.181.201.388.201.62 0 .199-.047.374-.142.525-.098.157-.23.264-.398.321.162.069.27.153.325.249.079.13.118.349.118.658 0 .278.006.452.019.522.018.094.065.154.142.181v.091h-.814l-.055-.286-.018-.431c0-.269-.027-.443-.082-.521-.07-.103-.23-.154-.48-.154h-.759v1.393h-.716v-3.553zM41.246 10.304h.678v3.556h-.723l-1.418-2.531h-.014v2.531h-.683v-3.556h.774l1.382 2.481h.004zM44.466 13.863h-.683v-2.925h-1.008v-.631h2.699v.631h-1.008z"/></g></svg>