<?xml version="1.0" standalone="no"?>
<!DOCTYPE svg PUBLIC "-//W3C//DTD SVG 20010904//EN"
 "http://www.w3.org/TR/2001/REC-SVG-20010904/DTD/svg10.dtd">
<svg version="1.0" xmlns="http://www.w3.org/2000/svg"
 width="5000.000000pt" height="2447.000000pt" viewBox="0 0 5000.000000 2447.000000"
 preserveAspectRatio="xMidYMid meet">

<g transform="translate(0.000000,2447.000000) scale(0.100000,-0.100000)"
fill="#000000" stroke="none">
<path d="M19590 18184 c-19 -2 -78 -9 -130 -15 -301 -33 -549 -105 -778 -224
-142 -74 -248 -152 -367 -270 -217 -216 -318 -432 -344 -732 -21 -237 18 -463
113 -658 117 -239 277 -391 563 -536 239 -120 534 -197 1265 -328 573 -103
907 -192 1124 -298 172 -84 289 -221 331 -390 24 -98 24 -364 0 -453 -53 -198
-177 -338 -392 -445 -228 -113 -515 -171 -905 -182 -513 -15 -909 67 -1169
242 -232 156 -402 464 -452 819 l-12 86 -306 0 -307 0 8 -87 c49 -526 240
-918 573 -1178 299 -233 689 -372 1200 -426 176 -19 643 -16 835 5 374 41 674
131 917 276 187 112 365 266 474 409 107 142 190 351 218 555 14 97 14 331 1
413 -48 296 -220 589 -443 754 -98 73 -326 186 -481 239 -218 74 -556 150
-1131 256 -165 30 -369 71 -453 90 -560 129 -843 316 -919 607 -21 81 -21 242
0 324 46 179 194 346 392 442 155 76 336 128 570 163 134 20 547 17 700 -6
326 -47 569 -142 726 -284 106 -96 214 -288 264 -469 l18 -63 304 0 305 0 -7
55 c-33 264 -140 520 -302 717 -205 251 -560 445 -972 532 -230 49 -327 58
-671 61 -179 2 -341 1 -360 -1z"/>
<path d="M4057 15908 c-3 -1118 -8 -1655 -16 -1703 -17 -106 -48 -189 -102
-270 -132 -197 -338 -296 -654 -314 -167 -10 -331 1 -438 28 -273 71 -487 302
-566 614 -11 40 -22 134 -26 210 l-7 137 -306 0 -305 0 6 -177 c4 -120 13
-210 27 -275 119 -565 535 -933 1160 -1025 141 -21 502 -23 665 -4 140 16 314
54 424 93 392 137 654 438 735 843 35 177 36 241 36 1862 l0 1613 -314 0 -315
0 -4 -1632z"/>
<path d="M6720 15380 l0 -2160 330 0 330 0 0 2160 0 2160 -330 0 -330 0 0
-2160z"/>
<path d="M9420 15380 l0 -2160 1620 0 1620 0 0 275 0 275 -1295 0 -1295 0 0
1593 c0 875 -3 1724 -7 1885 l-6 292 -319 0 -318 0 0 -2160z"/>
<path d="M13820 15380 l0 -2160 1620 0 1620 0 0 275 0 275 -1295 0 -1295 0 0
1885 0 1885 -325 0 -325 0 0 -2160z"/>
<path d="M23190 17265 l0 -275 805 0 805 0 0 -1885 0 -1885 325 0 325 0 0
1885 0 1885 800 0 800 0 0 275 0 275 -1930 0 -1930 0 0 -275z"/>
<path d="M28493 16118 c3 -1003 7 -1451 16 -1518 59 -485 177 -767 421 -1010
254 -254 613 -410 1070 -464 548 -65 1109 9 1485 196 435 218 675 569 749
1098 37 262 38 327 43 1728 l5 1392 -331 0 -331 0 0 -1418 c0 -1536 -1 -1554
-55 -1767 -15 -59 -46 -143 -77 -205 -45 -91 -64 -117 -143 -195 -133 -133
-265 -201 -485 -251 -307 -69 -784 -55 -1060 31 -107 34 -238 101 -313 161
-140 112 -255 328 -308 579 -36 175 -39 291 -39 1693 l0 1372 -325 0 -326 0 4
-1422z"/>
<path d="M35406 17488 c-121 -274 -1890 -4237 -1897 -4251 -9 -16 8 -17 332
-15 l342 3 281 608 280 607 1014 -2 1013 -3 269 -605 269 -605 342 -3 c272 -2
340 0 336 10 -3 7 -422 978 -931 2158 l-925 2145 -351 3 -351 2 -23 -52z m739
-1583 c202 -498 366 -908 363 -910 -3 -3 -342 -4 -755 -3 l-750 3 380 912
c209 502 383 910 387 908 4 -2 172 -412 375 -910z"/>
<path d="M39410 15380 l0 -2160 325 0 325 0 0 910 0 910 815 0 c837 0 941 -4
1090 -40 270 -66 430 -247 460 -520 3 -30 14 -224 25 -430 26 -481 42 -642 75
-747 l26 -83 357 0 c324 0 354 1 334 15 -95 67 -141 337 -162 955 -6 179 -15
373 -21 432 -12 137 -49 281 -91 360 -75 141 -240 270 -447 350 -23 8 -20 12
54 54 169 96 288 197 386 327 140 186 199 383 199 667 0 672 -413 1060 -1219
1145 -111 12 -358 15 -1333 15 l-1198 0 0 -2160z m2470 1595 c203 -30 353 -98
466 -210 77 -76 112 -138 141 -245 23 -89 23 -317 0 -415 -58 -238 -224 -382
-531 -460 -167 -42 -232 -45 -1083 -45 l-813 0 0 695 0 695 863 0 c699 0 880
-3 957 -15z"/>
<path d="M44250 17265 l0 -275 805 0 805 0 0 -1885 0 -1885 325 0 325 0 0
1885 0 1885 800 0 800 0 0 275 0 275 -1930 0 -1930 0 0 -275z"/>
<path d="M17290 10399 c-36 -6 -105 -24 -155 -40 -306 -102 -497 -346 -550
-703 -38 -258 -4 -507 97 -716 44 -91 62 -115 142 -195 131 -131 254 -190 454
-220 238 -36 445 -5 694 103 l108 47 0 143 c0 78 -3 142 -8 142 -4 0 -40 -25
-81 -56 -151 -113 -311 -172 -496 -181 -379 -18 -624 209 -667 620 -29 287 42
540 196 692 85 84 166 126 286 151 103 20 247 15 361 -15 95 -24 236 -94 323
-161 37 -27 71 -50 77 -50 5 0 9 60 9 145 l0 145 -57 26 c-100 45 -215 85
-303 105 -100 23 -333 33 -430 18z"/>
<path d="M19920 10399 c-36 -6 -105 -24 -155 -40 -306 -102 -497 -346 -550
-703 -38 -258 -4 -507 97 -716 44 -91 62 -115 142 -195 131 -130 253 -190 456
-220 235 -36 444 -5 692 103 l108 47 0 143 c0 78 -3 142 -8 142 -4 0 -40 -25
-81 -56 -151 -113 -311 -172 -496 -181 -379 -18 -624 209 -667 620 -29 287 42
540 196 692 85 84 166 126 286 151 103 20 247 15 361 -15 95 -24 236 -94 323
-161 37 -27 71 -50 77 -50 5 0 9 60 9 145 l0 145 -57 26 c-101 45 -215 85
-303 105 -101 23 -334 33 -430 18z"/>
<path d="M24855 10399 c-245 -36 -440 -176 -506 -364 -42 -121 -22 -307 45
-413 60 -95 193 -182 338 -222 40 -11 152 -33 248 -50 214 -38 279 -54 348
-88 97 -48 132 -108 132 -232 0 -80 -23 -134 -79 -188 -192 -186 -687 -150
-989 72 -34 25 -67 46 -72 46 -6 0 -10 -57 -10 -151 l0 -150 53 -23 c83 -37
240 -85 340 -103 142 -27 435 -24 541 5 226 62 384 197 446 382 19 56 21 81
18 175 -6 145 -30 208 -108 286 -97 97 -216 146 -475 194 -263 49 -340 67
-400 94 -106 48 -151 129 -143 255 10 161 155 262 393 273 206 10 450 -57 612
-168 23 -16 44 -29 47 -29 3 0 6 65 6 143 l0 144 -92 31 c-51 17 -122 39 -157
47 -157 40 -394 55 -536 34z"/>
<path d="M27445 10400 c-253 -40 -457 -191 -511 -378 -36 -122 -13 -301 50
-400 60 -95 193 -182 338 -222 40 -11 152 -33 248 -50 214 -38 279 -54 348
-88 97 -48 132 -108 132 -232 0 -80 -23 -134 -79 -188 -192 -186 -687 -150
-989 72 -34 25 -67 46 -72 46 -6 0 -10 -57 -10 -151 l0 -150 53 -23 c83 -37
240 -85 340 -103 142 -27 435 -24 541 5 226 62 384 197 446 382 19 56 21 81
18 175 -6 145 -30 208 -108 286 -104 105 -221 148 -578 214 -264 48 -335 74
-390 140 -37 46 -52 96 -52 177 0 164 150 272 395 285 205 10 449 -57 612
-168 23 -16 44 -29 47 -29 3 0 6 65 6 144 l0 144 -107 35 c-167 55 -296 78
-468 82 -82 2 -177 0 -210 -5z"/>
<path d="M30143 10396 c-269 -52 -449 -185 -563 -421 -83 -170 -117 -355 -106
-580 18 -395 164 -658 441 -795 131 -65 215 -83 395 -84 184 -1 259 14 395 79
235 114 381 326 436 635 17 98 17 364 0 460 -67 372 -266 607 -586 691 -103
27 -310 34 -412 15z m310 -211 c150 -32 295 -146 365 -288 128 -264 116 -705
-27 -924 -131 -200 -364 -291 -614 -238 -199 42 -364 210 -421 430 -68 259
-30 607 84 784 130 201 361 290 613 236z"/>
<path d="M14220 9508 c-172 -475 -321 -884 -331 -910 l-19 -48 124 0 123 0 89
255 89 255 394 -2 394 -3 87 -250 88 -250 130 -3 129 -3 -331 911 -331 910
-160 0 -161 0 -314 -862z m630 199 l155 -432 -314 -3 c-173 -1 -315 -1 -317 1
-2 2 67 199 154 439 86 240 159 434 162 432 3 -3 75 -200 160 -437z"/>
<path d="M21930 9460 l0 -910 600 0 600 0 0 105 0 105 -475 0 -475 0 0 345 0
345 475 0 475 0 0 105 0 105 -475 0 -475 0 0 250 0 250 475 0 475 0 0 105 0
105 -600 0 -600 0 0 -910z"/>
<path d="M32420 9461 l0 -911 125 0 125 0 0 360 0 360 168 0 169 0 303 -360
304 -360 154 0 c84 0 152 4 150 8 -1 4 -151 180 -333 390 -181 210 -331 386
-333 390 -1 4 20 17 47 30 126 57 240 178 282 298 39 112 43 283 8 384 -48
138 -176 242 -358 292 -69 19 -110 22 -443 26 l-368 4 0 -911z m691 685 c89
-19 138 -46 186 -100 52 -59 67 -113 61 -223 -5 -103 -34 -178 -92 -236 -81
-82 -184 -107 -432 -107 l-164 0 0 340 0 340 188 0 c122 0 210 -5 253 -14z"/>
<path d="M34813 10363 c2 -5 147 -241 321 -525 l316 -517 0 -385 0 -386 120 0
120 0 0 398 0 398 303 485 c167 266 311 496 321 512 l18 27 -129 0 -130 0
-249 -404 c-137 -222 -251 -403 -255 -401 -3 2 -116 184 -250 405 l-244 400
-133 0 c-73 0 -131 -3 -129 -7z"/>
</g>
</svg>
