<svg xmlns="http://www.w3.org/2000/svg" width="46.733" height="23.107" viewBox="0 0 46.733 23.107"><g stroke="#000"><path d="M23.722 2.704h1.757l.003 10.298h7.083l-.002 1.494h-8.841v-11.792zM16.37 2.704h1.775v11.792h-1.775v-11.792zM10.838 10.98c0 1.07-.214 1.804-.516 2.266-.706 1.082-1.835 1.54-3.689 1.54-1.192 0-1.998-.264-2.688-.74-.688-.482-1.356-1.357-1.427-2.684l-.008-.661h1.671l.013.568c.024.415.227.998.588 1.415.415.48.941.73 1.849.73.839 0 1.667-.13 2.166-.895.266-.41.302-.741.302-1.957v-7.858h1.741v8.276h-.002zM35.718 2.704h1.757l.002 10.298h7.084l-.002 1.494h-8.841v-11.792z"/></g><path d="M23.113 19.703c.02.204.084.382.187.525.176.243.514.334.967.334.203 0 .424-.025.591-.078.322-.102.461-.276.461-.545 0-.24-.059-.341-.205-.445-.112-.079-.451-.175-.743-.227-.204-.036-.459-.078-.701-.136-.257-.062-.365-.111-.512-.198-.253-.151-.399-.415-.399-.74 0-.302.109-.526.36-.727.256-.204.625-.299 1.079-.299.418 0 .802.074 1.082.276.253.183.383.419.42.75h-.455c-.037-.144-.094-.268-.165-.35-.165-.19-.488-.276-.883-.276-.319 0-.636.089-.776.211-.139.122-.185.222-.185.383 0 .178.088.314.256.409.192.107.415.16.698.211.253.045.427.077.669.133.266.062.429.128.578.221.237.149.384.454.384.724 0 .402-.149.649-.47.862-.303.202-.666.259-1.091.259-.497 0-.913-.115-1.194-.346-.281-.229-.391-.565-.413-.931h.46zM31.111 17.654v2.012c0 .234.048.43.145.585.144.235.449.305.79.305.36 0 .655-.08.802-.333.079-.138.115-.323.115-.556v-2.012h.489v1.829c0 .398-.038.703-.156.917-.216.39-.66.57-1.26.57s-1.038-.196-1.253-.586c-.118-.214-.161-.504-.161-.902v-1.829h.489zM29.551 17.654v.413h-1.198v2.819h-.489v-2.819h-1.197v-.413h2.884zM16.377 17.654h.481l.001 2.822h1.941v.41h-2.423v-3.232zM14.362 17.654h.486v3.232h-.486v-3.232zM12.846 19.922c0 .293-.059.494-.141.621-.193.296-.503.422-1.011.422-.327 0-.548-.072-.737-.203-.189-.132-.372-.372-.391-.735l-.002-.181h.458l.003.156c.006.114.062.274.161.388.114.132.258.2.507.2.23 0 .457-.036.593-.245.073-.112.083-.203.083-.536v-2.154h.477v2.267zM19.664 17.654h.482v2.822h1.942l-.001.41h-2.423v-3.232zM45.284 17.654v.413h-1.197v2.819h-.489v-2.819h-1.198v-.413h2.884z"/><path fill-rule="evenodd" clip-rule="evenodd" d="M35.809 17.654h.521l1.394 3.231h-.509l-.407-.916h-1.51l-.423.916h-.507l1.441-3.231m.812 1.908l-.56-1.376-.573 1.376h1.133zM38.784 17.654h1.631c.271 0 .494.036.67.108.334.138.501.392.501.763 0 .194-.045.352-.133.475-.087.123-.209.222-.368.297.138.051.243.119.312.203.071.084.11.219.118.407l.017.485.028.277c.02.091.035.171.103.216h-.533l-.042-.135-.021-.228-.029-.539c-.011-.211-.098-.331-.259-.403-.092-.04-.237-.059-.433-.059h-1.081v1.364h-.482v-3.231h.001m1.58 1.454c.226 0 .404-.041.535-.123.132-.082.198-.204.198-.418 0-.23-.092-.353-.276-.437-.099-.044-.23-.066-.394-.066h-1.161v1.044h1.098z"/><path d="M1.704 17.678h1.135c.251 0 .459.025.625.075.167.051.299.114.397.191.098.074.168.157.209.249.042.092.063.178.063.258 0 .177-.054.332-.161.464-.107.131-.267.226-.48.286.271.065.467.168.586.306.12.14.179.284.179.435 0 .114-.022.223-.068.332-.045.108-.118.204-.22.291-.105.086-.244.155-.416.206-.172.052-.385.078-.639.078h-1.21v-3.171zm.456 1.368h.663c.275 0 .482-.046.62-.138.138-.091.207-.22.207-.386 0-.178-.073-.307-.218-.389-.145-.081-.366-.121-.663-.121h-.609v1.034zm0 1.47h.712c.318 0 .55-.055.693-.164.143-.109.214-.246.214-.409 0-.198-.087-.341-.261-.43s-.4-.134-.679-.134h-.679v1.137zM4.475 17.678h.489l1.103 1.46 1.087-1.46h.5l-1.364 1.768v1.404h-.457v-1.404l-1.358-1.768z"/></svg>