<?xml version="1.0" standalone="no"?>
<!DOCTYPE svg PUBLIC "-//W3C//DTD SVG 20010904//EN"
 "http://www.w3.org/TR/2001/REC-SVG-20010904/DTD/svg10.dtd">
<svg version="1.0" xmlns="http://www.w3.org/2000/svg"
 width="938.000000pt" height="414.000000pt" viewBox="0 0 938.000000 414.000000"
 preserveAspectRatio="xMidYMid meet">

<g transform="translate(0.000000,414.000000) scale(0.100000,-0.100000)"
fill="#000000" stroke="none">
<path d="M2113 2615 c-94 -26 -174 -74 -248 -149 -117 -118 -165 -235 -165
-401 0 -140 31 -232 115 -344 133 -175 348 -253 570 -206 163 34 308 150 384
306 111 230 63 483 -125 659 -75 71 -111 92 -206 124 -62 21 -95 26 -175 25
-54 0 -122 -7 -150 -14z m270 -70 c141 -37 260 -136 324 -270 33 -70 37 -88
41 -180 4 -85 1 -115 -16 -172 -86 -282 -415 -428 -680 -302 -129 62 -243 204
-271 337 -24 117 -7 246 47 346 34 64 122 154 187 192 101 59 253 79 368 49z"/>
<path d="M3861 2619 c-152 -44 -234 -236 -162 -378 30 -59 98 -111 225 -175
125 -63 206 -130 231 -191 8 -19 15 -58 15 -87 0 -99 -59 -175 -154 -199 -91
-23 -211 22 -257 97 -24 39 -26 40 -59 15 l-24 -19 29 -43 c58 -83 156 -125
278 -117 125 8 205 65 248 178 63 165 -20 298 -266 424 -108 56 -181 115 -201
163 -37 88 1 202 83 250 40 23 59 28 118 28 59 0 78 -5 118 -28 27 -16 60 -46
75 -67 15 -22 29 -39 32 -39 3 0 16 8 29 18 l25 19 -28 42 c-29 45 -100 95
-156 110 -44 12 -154 11 -199 -1z"/>
<path d="M780 2150 c0 -507 0 -508 -52 -544 -13 -9 -43 -16 -69 -16 -54 0 -90
23 -109 70 -11 27 -17 30 -39 25 -36 -9 -36 -10 -22 -55 22 -73 123 -123 215
-106 53 10 99 47 126 101 l25 50 3 473 3 472 -40 0 -41 0 0 -470z"/>
<path d="M5190 2070 l0 -550 315 0 315 0 0 30 0 30 -275 0 -275 0 0 235 0 235
270 0 270 0 0 35 0 35 -270 0 -270 0 0 215 0 215 275 0 275 0 0 35 0 35 -315
0 -315 0 0 -550z"/>
<path d="M6730 2070 l0 -550 35 0 35 0 0 269 0 269 158 4 c160 5 211 16 268
58 119 89 121 328 3 434 -60 55 -115 66 -321 66 l-178 0 0 -550z m390 463 c85
-39 120 -99 120 -205 0 -72 -17 -115 -59 -151 -46 -38 -90 -47 -243 -47 l-138
0 0 216 0 216 138 -4 c111 -3 145 -8 182 -25z"/>
<path d="M8142 2073 l3 -548 35 0 35 0 3 263 2 262 305 0 305 0 2 -262 3 -263
35 0 35 0 3 548 2 547 -40 0 -40 0 0 -250 0 -250 -305 0 -305 0 0 250 0 250
-40 0 -40 0 2 -547z"/>
</g>
</svg>
