<svg xmlns="http://www.w3.org/2000/svg" width="46.733" height="23.107" viewBox="0 0 46.733 23.107"><path d="M13.453 8.428h-.612v4.103h3.076l.002-.52h-2.465zM9.279 8.428h-.612v4.103h3.076l.002-.52h-2.466zM3.58 11.163c0 .423-.014.538-.107.68-.172.269-.462.312-.752.312-.316 0-.501-.087-.645-.253-.124-.146-.197-.348-.203-.493l-.007-.197h-.58l.003.23c.024.46.257.765.498.933.238.165.52.258.934.258.645 0 1.038-.16 1.283-.536.105-.16.18-.416.18-.787v-2.882h-.604v2.735zM20.174 10.308c-.189-.118-.395-.203-.733-.28-.306-.071-.528-.112-.849-.169-.358-.064-.643-.132-.886-.268-.215-.12-.326-.293-.326-.52 0-.205.058-.331.234-.487.178-.155.58-.267.985-.267.5 0 .911.11 1.121.351.089.104.162.262.21.445h.577c-.048-.42-.212-.719-.534-.951-.353-.257-.841-.352-1.373-.352-.577 0-1.046.12-1.37.38-.319.254-.457.539-.457.923 0 .413.185.747.506.939.186.111.324.172.651.252.307.073.63.126.889.173.371.067.802.187.945.288.184.132.259.259.259.565 0 .342-.175.563-.585.691-.212.068-.493.101-.75.101-.576 0-1.004-.117-1.229-.425-.132-.181-.212-.407-.238-.667h-.58c.028.464.168.892.524 1.182.357.293.884.439 1.515.439.54 0 1.001-.073 1.387-.328.406-.273.596-.586.596-1.095 0-.343-.188-.731-.489-.92zM6.11 8.428h.616v4.103h-.616zM40.607 11.903l-.023-.614c-.009-.238-.06-.412-.149-.518-.088-.106-.22-.192-.398-.257.202-.095.357-.221.467-.376.113-.158.17-.359.17-.604 0-.472-.213-.795-.637-.97-.223-.091-.506-.136-.851-.136h-2.07v4.103h.612v-1.733h1.374c.249 0 .433.027.549.077.207.09.316.241.329.51l.036.682.027.289.052.173h.678c-.087-.059-.107-.16-.131-.275-.02-.083-.03-.193-.035-.351zm-.805-1.785c-.166.104-.392.157-.68.157h-1.394v-1.326h1.475c.209 0 .377.028.5.082.234.108.351.264.351.557 0 .271-.084.427-.252.53zM34.001 8.428h-.661l-1.831 4.103h.643l.537-1.163h1.918l.517 1.163h.645l-1.768-4.103zm-1.07 2.422l.729-1.748.71 1.748h-1.439zM41.707 8.428v.523h1.521v3.58h.621v-3.58h1.52v-.523zM29.726 10.983c0 .297-.045.532-.146.708-.187.321-.561.422-1.017.422-.432 0-.821-.089-1.003-.387-.122-.199-.183-.445-.183-.743v-2.555h-.62v2.322c0 .506.054.874.203 1.145.273.496.828.743 1.59.743.762 0 1.325-.228 1.6-.723.149-.272.197-.659.197-1.165v-2.322h-.62v2.555zM25.393 8.428h-3.66v.523h1.52v3.58h.619v-3.58h1.521zM13.998 16.543h.963v-.12h-.836v-.923h.814v-.12h-.814v-.735h.836v-.118h-.963zM19.249 16.26l-.756-1.837-.754 1.837-.569-1.733h-.128l.675 2.083.769-1.865.771 1.865.679-2.083h-.127zM36.73 14.527h-.173l-.956.942v-.942h-.13v2.016h.13v-.908l.052-.055.97.963h.167l-1.05-1.046zM11.561 16.287l-1.695-1.789v2.045h.129v-1.734l1.695 1.801v-2.083h-.129zM33.206 15.061c0-.171-.058-.332-.203-.434-.138-.1-.297-.101-.461-.101h-.251v2.016h.127v-.954h.065l.658.954h.148l-.661-.954c.333.006.578-.177.578-.527zm-.787.408v-.824h.083c.118 0 .254-.005.362.046.145.065.215.215.215.365 0 .12-.047.24-.143.316-.102.09-.227.097-.353.097h-.164zM25.292 15.548l-.594-1.021h-.142l.671 1.155v.861h.128v-.861l.674-1.155h-.143zM29.059 14.498c-.571 0-1.048.469-1.048 1.037 0 .567.48 1.036 1.048 1.036.567 0 1.046-.469 1.046-1.036 0-.568-.48-1.037-1.046-1.037zm0 1.952c-.504 0-.919-.416-.919-.915 0-.498.414-.915.919-.915.501 0 .917.417.917.915 0 .495-.416.915-.917.915z"/></svg>