<?xml version="1.0" encoding="UTF-8"?>
<svg xmlns="http://www.w3.org/2000/svg" xmlns:xlink="http://www.w3.org/1999/xlink" width="16pt" height="1pt" viewBox="0 0 16 1" version="1.1">
<g id="surface1">
<path style=" stroke:none;fill-rule:nonzero;fill:rgb(13.72549%,12.156863%,12.54902%);fill-opacity:1;" d="M 3.65625 0.0234375 L 4.167969 0.0234375 C 4.230469 0.0234375 4.289062 0.0273438 4.347656 0.0390625 C 4.398438 0.0507812 4.445312 0.0664062 4.488281 0.0898438 C 4.527344 0.109375 4.558594 0.136719 4.578125 0.167969 C 4.601562 0.203125 4.613281 0.242188 4.609375 0.28125 C 4.613281 0.308594 4.605469 0.332031 4.59375 0.359375 C 4.585938 0.378906 4.574219 0.394531 4.5625 0.414062 C 4.546875 0.429688 4.53125 0.441406 4.511719 0.457031 C 4.542969 0.46875 4.570312 0.488281 4.589844 0.507812 C 4.613281 0.527344 4.632812 0.550781 4.644531 0.574219 C 4.664062 0.605469 4.671875 0.640625 4.667969 0.675781 C 4.671875 0.71875 4.660156 0.761719 4.636719 0.800781 C 4.613281 0.835938 4.582031 0.871094 4.539062 0.894531 C 4.496094 0.921875 4.445312 0.941406 4.390625 0.957031 C 4.328125 0.96875 4.261719 0.976562 4.191406 0.976562 L 3.65625 0.976562 Z M 4.222656 0.300781 C 4.226562 0.28125 4.214844 0.257812 4.195312 0.242188 C 4.171875 0.226562 4.144531 0.21875 4.113281 0.222656 L 4.0625 0.222656 L 4.0625 0.378906 L 4.113281 0.378906 C 4.144531 0.382812 4.171875 0.375 4.195312 0.359375 C 4.214844 0.34375 4.226562 0.324219 4.222656 0.300781 Z M 4.113281 0.773438 C 4.214844 0.773438 4.269531 0.742188 4.269531 0.675781 C 4.269531 0.609375 4.214844 0.574219 4.113281 0.574219 L 4.0625 0.574219 L 4.0625 0.773438 Z M 4.113281 0.773438 "/>
<path style=" stroke:none;fill-rule:nonzero;fill:rgb(13.72549%,12.156863%,12.54902%);fill-opacity:1;" d="M 5 0.566406 L 4.597656 0.0234375 L 5.058594 0.0234375 L 5.210938 0.226562 L 5.359375 0.0234375 L 5.824219 0.0234375 L 5.417969 0.566406 L 5.417969 0.976562 L 5 0.976562 Z M 5 0.566406 "/>
<path style=" stroke:none;fill-rule:nonzero;fill:rgb(13.72549%,12.156863%,12.54902%);fill-opacity:1;" d="M 10.792969 0.277344 L 10.554688 0.277344 L 10.554688 0.03125 L 11.457031 0.03125 L 11.457031 0.277344 L 11.21875 0.277344 L 11.21875 0.96875 L 10.792969 0.96875 Z M 10.792969 0.277344 "/>
<path style=" stroke:none;fill-rule:nonzero;fill:rgb(13.72549%,12.156863%,12.54902%);fill-opacity:1;" d="M 12.085938 0.980469 C 12.011719 0.980469 11.9375 0.972656 11.867188 0.957031 C 11.804688 0.945312 11.746094 0.921875 11.699219 0.890625 C 11.652344 0.859375 11.613281 0.820312 11.59375 0.777344 C 11.566406 0.726562 11.554688 0.671875 11.554688 0.613281 L 11.554688 0.0195312 L 11.964844 0.0195312 L 11.964844 0.601562 C 11.960938 0.628906 11.972656 0.65625 11.992188 0.675781 C 12.046875 0.710938 12.128906 0.710938 12.179688 0.675781 C 12.203125 0.65625 12.210938 0.628906 12.207031 0.601562 L 12.207031 0.0195312 L 12.621094 0.0195312 L 12.621094 0.613281 C 12.625 0.671875 12.609375 0.726562 12.582031 0.777344 C 12.5625 0.820312 12.523438 0.859375 12.476562 0.890625 C 12.425781 0.921875 12.371094 0.945312 12.308594 0.957031 C 12.234375 0.972656 12.160156 0.980469 12.085938 0.980469 Z M 12.085938 0.980469 "/>
<path style=" stroke:none;fill-rule:nonzero;fill:rgb(13.72549%,12.156863%,12.54902%);fill-opacity:1;" d="M 13.097656 0.03125 L 13.40625 0.03125 L 13.894531 0.96875 L 13.492188 0.96875 L 13.449219 0.867188 L 13.058594 0.867188 L 13.015625 0.96875 L 12.609375 0.96875 Z M 13.363281 0.675781 L 13.253906 0.421875 L 13.144531 0.675781 Z M 13.363281 0.675781 "/>
<path style=" stroke:none;fill-rule:nonzero;fill:rgb(13.72549%,12.156863%,12.54902%);fill-opacity:1;" d="M 13.9375 0.03125 L 14.378906 0.03125 C 14.457031 0.03125 14.535156 0.0390625 14.609375 0.0546875 C 14.675781 0.0703125 14.738281 0.09375 14.789062 0.125 C 14.84375 0.15625 14.882812 0.195312 14.910156 0.238281 C 14.941406 0.289062 14.957031 0.34375 14.953125 0.398438 C 14.957031 0.4375 14.945312 0.476562 14.929688 0.515625 C 14.914062 0.546875 14.890625 0.574219 14.867188 0.597656 C 14.84375 0.621094 14.8125 0.640625 14.78125 0.660156 L 15.023438 0.96875 L 14.539062 0.96875 L 14.347656 0.714844 L 14.347656 0.96875 L 13.9375 0.96875 Z M 14.347656 0.519531 L 14.371094 0.519531 C 14.414062 0.519531 14.457031 0.507812 14.492188 0.492188 C 14.5625 0.441406 14.5625 0.359375 14.492188 0.3125 C 14.457031 0.292969 14.414062 0.285156 14.371094 0.285156 L 14.347656 0.285156 Z M 14.347656 0.519531 "/>
<path style=" stroke:none;fill-rule:nonzero;fill:rgb(13.72549%,12.156863%,12.54902%);fill-opacity:1;" d="M 15.230469 0.277344 L 14.992188 0.277344 L 14.992188 0.03125 L 15.894531 0.03125 L 15.894531 0.277344 L 15.65625 0.277344 L 15.65625 0.96875 L 15.230469 0.96875 Z M 15.230469 0.277344 "/>
<path style=" stroke:none;fill-rule:nonzero;fill:rgb(13.72549%,12.156863%,12.54902%);fill-opacity:1;" d="M 10.332031 0.28125 L 10.457031 0.0703125 C 10.289062 0.0117188 10.097656 -0.0117188 9.910156 0.00390625 C 9.910156 0.00390625 9.511719 0.046875 9.496094 0.351562 C 9.496094 0.46875 9.609375 0.574219 9.773438 0.605469 C 9.773438 0.605469 9.863281 0.625 9.960938 0.640625 C 9.960938 0.640625 10.070312 0.652344 10.050781 0.703125 C 10.03125 0.753906 9.929688 0.773438 9.777344 0.738281 C 9.707031 0.714844 9.636719 0.6875 9.574219 0.65625 L 9.472656 0.894531 C 9.617188 0.960938 9.785156 0.996094 9.957031 1 C 10.214844 1 10.519531 0.867188 10.507812 0.648438 C 10.496094 0.4375 10.253906 0.378906 10.15625 0.367188 C 10.058594 0.351562 9.96875 0.339844 9.964844 0.289062 C 9.964844 0.242188 10.0625 0.210938 10.203125 0.25 C 10.316406 0.277344 10.332031 0.28125 10.332031 0.28125 Z M 10.332031 0.28125 "/>
<path style=" stroke:none;fill-rule:nonzero;fill:rgb(13.72549%,12.156863%,12.54902%);fill-opacity:1;" d="M 0.917969 0.0117188 L 1.363281 0.0117188 L 1.363281 0.957031 L 0.917969 0.957031 Z M 0.917969 0.0117188 "/>
<path style=" stroke:none;fill-rule:nonzero;fill:rgb(13.72549%,12.156863%,12.54902%);fill-opacity:1;" d="M 1.539062 0.0117188 L 1.976562 0.0117188 L 1.976562 0.707031 L 2.339844 0.707031 L 2.339844 0.957031 L 1.539062 0.957031 Z M 1.539062 0.0117188 "/>
<path style=" stroke:none;fill-rule:nonzero;fill:rgb(13.72549%,12.156863%,12.54902%);fill-opacity:1;" d="M 2.457031 0.0117188 L 2.894531 0.0117188 L 2.894531 0.707031 L 3.253906 0.707031 L 3.253906 0.957031 L 2.457031 0.957031 Z M 2.457031 0.0117188 "/>
<path style=" stroke:none;fill-rule:nonzero;fill:rgb(13.72549%,12.156863%,12.54902%);fill-opacity:1;" d="M 0.300781 0.0117188 L 0.742188 0.0117188 L 0.742188 0.699219 C 0.742188 0.773438 0.707031 0.84375 0.644531 0.898438 C 0.582031 0.953125 0.488281 0.988281 0.390625 0.988281 L 0.105469 0.988281 L 0.105469 0.710938 L 0.164062 0.710938 C 0.164062 0.710938 0.25 0.714844 0.28125 0.683594 C 0.292969 0.671875 0.300781 0.65625 0.300781 0.636719 Z M 0.300781 0.0117188 "/>
<path style=" stroke:none;fill-rule:nonzero;fill:rgb(13.72549%,12.156863%,12.54902%);fill-opacity:1;" d="M 7.042969 0.0117188 L 7.488281 0.0117188 L 7.488281 0.957031 L 7.042969 0.957031 Z M 7.042969 0.0117188 "/>
<path style=" stroke:none;fill-rule:nonzero;fill:rgb(13.72549%,12.156863%,12.54902%);fill-opacity:1;" d="M 7.660156 0.0117188 L 8.097656 0.0117188 L 8.097656 0.707031 L 8.460938 0.707031 L 8.460938 0.957031 L 7.660156 0.957031 Z M 7.660156 0.0117188 "/>
<path style=" stroke:none;fill-rule:nonzero;fill:rgb(13.72549%,12.156863%,12.54902%);fill-opacity:1;" d="M 8.578125 0.0117188 L 9.015625 0.0117188 L 9.015625 0.707031 L 9.378906 0.707031 L 9.378906 0.957031 L 8.578125 0.957031 Z M 8.578125 0.0117188 "/>
<path style=" stroke:none;fill-rule:nonzero;fill:rgb(13.72549%,12.156863%,12.54902%);fill-opacity:1;" d="M 6.425781 0.0117188 L 6.867188 0.0117188 L 6.867188 0.699219 C 6.867188 0.773438 6.832031 0.84375 6.769531 0.898438 C 6.707031 0.953125 6.613281 0.988281 6.515625 0.988281 L 6.230469 0.988281 L 6.230469 0.710938 L 6.285156 0.710938 C 6.285156 0.710938 6.371094 0.714844 6.402344 0.683594 C 6.417969 0.671875 6.425781 0.65625 6.421875 0.636719 Z M 6.425781 0.0117188 "/>
</g>
</svg>
