<svg xmlns="http://www.w3.org/2000/svg" width="46.733" height="23.107" viewBox="0 0 46.733 23.107"><path d="M10.858 8.109c.662 0 1.27.161 1.823.483.553.322.992.755 1.317 1.302.324.546.486 1.147.486 1.805 0 .658-.163 1.262-.487 1.811-.324.549-.764.985-1.316 1.307-.553.323-1.161.484-1.823.484-.663 0-1.268-.161-1.819-.484-.549-.322-.986-.757-1.311-1.307-.324-.549-.487-1.153-.487-1.811 0-.482.092-.942.277-1.383.184-.44.446-.829.784-1.165.338-.335.727-.593 1.167-.773.441-.179.903-.269 1.389-.269zm0 .566c-.545 0-1.053.133-1.524.401-.47.267-.842.638-1.114 1.111-.273.474-.409.979-.409 1.513 0 .549.136 1.055.409 1.522.272.468.644.836 1.114 1.107.471.272.978.406 1.524.406.552 0 1.063-.135 1.533-.406.471-.27.842-.638 1.114-1.107.273-.467.409-.974.409-1.522 0-.534-.136-1.038-.409-1.513-.272-.474-.644-.844-1.114-1.111-.471-.268-.982-.401-1.533-.401zM29.061 14.648h-2.846v-2.998h2.771v-.55h-2.771v-2.351h2.835v-.554h-3.412v7.03h3.423zM36.328 9.976c-.027-.356-.176-1.202-.961-1.582-.301-.13-.674-.194-1.116-.194h-1.359v7.013h.579v-3.132h-.001v-.167h1.149c.892 0 1.361-.678 1.361-.678.292-.293.342-.934.349-1.065l-.001-.195zm-.574.092c0 .521-.241.794-.303.859l-.006.009-.005.004c-.226.287-.602.43-1.13.43h-.838v-2.52h.003v-.099l1.086.006c.472 0 .836.358.836.358.389.391.357.953.357.953zM44.424 8.194v2.92h-4.025v-2.92h-.582v7.028h.582v-3.559h4.025v3.559h.557v-7.028zM21.878 12.546c-.285-.563-.896-.866-.896-.866-.23-.128-1.224-.591-1.224-.591-.358-.167-.909-.487-1.033-.923l-.031-.152-.002.004-.008-.137c0-.322.121-.604.365-.847.243-.243.538-.365.884-.365l.193.012c.117.008.38.054.672.274.059.039.168.125.291.269h.001l.013.016.016.02.164.212.388-.329c-.163-.305-.426-.531-.606-.66l-.042-.029-.12-.078-.053-.035c-.287-.162-.593-.244-.918-.244-.51 0-.943.174-1.3.52s-.536.767-.536 1.26c0 .186.028.365.082.533.121.304.374.664.897.931l.41.211.584.293.481.233c.529.253.73.574.806.803l.043.165.014.095.001-.002.004.099c0 .41-.147.761-.44 1.052-.199.198-.433.327-.699.39-.447.129-.886.022-.886.022-.491-.113-.793-.435-.971-.724-.135-.212-.205-.391-.236-.485l-.018.007-.473.229s.302 1.215 1.652 1.505c.17.044.348.065.535.065.58 0 1.08-.199 1.497-.596.418-.398.627-.885.627-1.46-.001-.248-.046-.478-.128-.697zM3.084 8.134v5.382l-.001.022v.138c.008.208.002.83-.34 1.019l-.16.059-.003.001-.003.001-.053.004-.135-.001c-.512.013-.758-.493-.802-.595l-.416.316v-.001l-.02.016c.118.205.426.644.943.772l.125.019h.001l.004.001c.119.014.269.015.45-.008.201-.039.414-.134.618-.321.124-.143.202-.311.25-.447.05-.182.093-.44.104-.807l.008-.184v-5.386h-.57z"/></svg>