<?xml version="1.0" encoding="utf-8"?>
<!-- Generator: Adobe Illustrator 16.0.0, SVG Export Plug-In . SVG Version: 6.00 Build 0)  -->
<!DOCTYPE svg PUBLIC "-//W3C//DTD SVG 1.1//EN" "http://www.w3.org/Graphics/SVG/1.1/DTD/svg11.dtd">
<svg version="1.1" id="Layer_1" xmlns="http://www.w3.org/2000/svg" xmlns:xlink="http://www.w3.org/1999/xlink" x="0px" y="0px"
	 width="46.732px" height="23.107px" viewBox="0 0 46.732 23.107" enable-background="new 0 0 46.732 23.107" xml:space="preserve">
<g>
	<g>
		<path fill="#003764" d="M4.967,6.935l0.004,3.334c0,0.095-0.027,0.167-0.083,0.225c-0.053,0.057-0.116,0.081-0.203,0.081H4.181
			H3.346c-0.086,0-0.149-0.024-0.203-0.081c-0.055-0.058-0.082-0.13-0.082-0.225l0-0.602H2.127v0.678
			c0,0.31,0.106,0.577,0.316,0.797c0.183,0.189,0.402,0.301,0.651,0.327v0.008h0.124h0.963h0.633c0.302,0,0.563-0.113,0.775-0.335
			c0.209-0.22,0.315-0.487,0.315-0.797V6.935H4.967z"/>
		<polygon fill="#003764" points="41.142,6.935 41.142,7.832 42.669,7.832 42.669,11.476 43.607,11.476 43.607,7.832 45.136,7.832 
			45.136,6.935 		"/>
		<polygon fill="#003764" points="20.985,6.935 20.985,7.832 22.513,7.832 22.513,11.476 23.45,11.476 23.45,7.832 24.98,7.832 
			24.98,6.935 		"/>
		<rect x="7.104" y="6.935" fill="#003764" width="0.933" height="4.541"/>
		<path fill="#003764" d="M10.255,10.493c-0.054-0.058-0.081-0.129-0.081-0.224V6.935H9.237v3.41c0,0.311,0.106,0.577,0.317,0.798
			c0.213,0.222,0.473,0.333,0.775,0.333h1.795v-0.901h-1.667C10.372,10.574,10.309,10.55,10.255,10.493z"/>
		<path fill="#003764" d="M13.846,10.493c-0.055-0.058-0.082-0.129-0.082-0.224V6.935h-0.937v3.41c0,0.311,0.107,0.578,0.318,0.798
			c0.213,0.222,0.474,0.333,0.775,0.333h1.795v-0.901H14.05C13.964,10.574,13.899,10.548,13.846,10.493z"/>
		<path fill="#003764" d="M19.287,8.661h-1.596c-0.086,0-0.152-0.025-0.206-0.081c-0.056-0.059-0.082-0.129-0.082-0.223V8.145
			c0-0.094,0.026-0.166,0.082-0.223c0.055-0.057,0.118-0.083,0.206-0.083h2.416V6.935h-2.544c-0.301,0-0.562,0.111-0.775,0.331
			c-0.211,0.219-0.318,0.487-0.318,0.796v0.401c0,0.31,0.107,0.578,0.318,0.797c0.213,0.219,0.474,0.331,0.775,0.331h1.596
			c0.087,0,0.15,0.025,0.207,0.082c0.056,0.06,0.081,0.129,0.081,0.223v0.371c0,0.091-0.026,0.162-0.082,0.221
			c-0.055,0.058-0.121,0.084-0.206,0.084h-2.551v0.904h2.68c0.301,0,0.563-0.111,0.775-0.332c0.21-0.217,0.318-0.484,0.318-0.795
			v-0.56c0-0.31-0.108-0.577-0.318-0.795C19.849,8.775,19.588,8.661,19.287,8.661z"/>
		<path fill="#003764" d="M34.495,11.476h0.95l-2.043-4.541h-0.815l-2.049,4.541h0.954l0.398-0.894h2.206L34.495,11.476z
			 M32.991,8.139l0.517,1.155l0.175,0.381h-1.381l0.172-0.381L32.991,8.139z"/>
		<path fill="#003764" d="M28.964,6.935V9.66v0.541c0,0.005-0.001,0.01-0.002,0.015v0.074c0,0.086-0.025,0.149-0.081,0.203
			c-0.057,0.054-0.13,0.081-0.223,0.081h-0.067c0,0,0,0-0.001,0h-1.487l0,0h-0.09c-0.085,0-0.148-0.025-0.202-0.081
			c-0.055-0.057-0.08-0.129-0.08-0.223v-0.067c0-0.002,0-0.002,0-0.002V9.66V6.935h-0.938v3.41c0,0.311,0.107,0.578,0.316,0.798
			c0.216,0.222,0.475,0.333,0.777,0.333h1.923c0.301,0,0.563-0.111,0.776-0.333c0.21-0.221,0.316-0.487,0.316-0.798v-3.41H28.964z"
			/>
		<path fill="#003764" d="M40.309,8.766V7.869c0-0.308-0.109-0.546-0.329-0.71c-0.2-0.149-0.459-0.224-0.767-0.224h-3.037v4.542
			h0.938V9.955h1.951c0.289,0,0.289,0.1,0.289,0.17v1.353h0.955v-1.259c0-0.298-0.057-0.518-0.172-0.669
			c-0.021-0.026-0.045-0.054-0.07-0.078c0.02-0.015,0.036-0.03,0.055-0.047C40.248,9.299,40.309,9.084,40.309,8.766z M39.271,8.962
			c-0.056,0.055-0.129,0.082-0.221,0.082h-0.037l0,0h-0.729H37.52l0,0h-0.406V7.808V7.805h1.111h0.844
			c0.087,0,0.149,0.025,0.204,0.082c0.054,0.056,0.081,0.129,0.081,0.222v0.65C39.354,8.845,39.327,8.907,39.271,8.962z"/>
	</g>
	<path fill="#003764" d="M13.271,15.221h-1.063c-0.057,0-0.101-0.016-0.137-0.055c-0.037-0.037-0.054-0.084-0.054-0.146v-0.143
		c0-0.063,0.017-0.109,0.054-0.146c0.037-0.039,0.079-0.057,0.137-0.057h1.608v-0.602h-1.694c-0.2,0-0.374,0.074-0.516,0.221
		c-0.141,0.146-0.211,0.324-0.211,0.529v0.268c0,0.205,0.07,0.385,0.211,0.529c0.142,0.146,0.315,0.221,0.516,0.221h1.063
		c0.057,0,0.101,0.018,0.137,0.055s0.054,0.086,0.054,0.148v0.246c0,0.063-0.018,0.109-0.055,0.148
		c-0.037,0.037-0.08,0.055-0.136,0.055h-1.698v0.602h1.784c0.2,0,0.375-0.072,0.516-0.221c0.14-0.145,0.211-0.322,0.211-0.527
		v-0.373c0-0.207-0.071-0.385-0.211-0.531C13.645,15.298,13.47,15.221,13.271,15.221z"/>
	<path fill="#003764" d="M19.099,14.296c-0.142-0.148-0.315-0.223-0.515-0.223h-1.902v3.021h0.622v-0.92h1.28
		c0.2,0,0.374-0.074,0.515-0.221c0.141-0.146,0.211-0.324,0.211-0.529v-0.6C19.311,14.62,19.24,14.44,19.099,14.296z M18.69,15.327
		L18.69,15.327v0.059c0,0.057-0.017,0.1-0.055,0.135c-0.038,0.037-0.086,0.055-0.148,0.055h-0.045c0,0,0,0-0.001,0h-1.137v-0.904
		h1.137h0h0.06c0.058,0,0.099,0.018,0.135,0.055c0.036,0.037,0.054,0.086,0.054,0.146v0.047c0,0,0,0,0,0.002V15.327z"/>
	<path fill="#003764" d="M24.635,14.3c-0.145-0.15-0.321-0.227-0.525-0.227h-1.443c-0.205,0-0.381,0.076-0.527,0.227
		c-0.143,0.148-0.215,0.332-0.215,0.541v0.523v0.965c0,0.209,0.072,0.391,0.215,0.541c0.146,0.15,0.322,0.225,0.527,0.225h1.442
		c0.204,0,0.382-0.074,0.526-0.225c0.143-0.15,0.216-0.332,0.216-0.541v-0.523v-0.965C24.851,14.63,24.778,14.448,24.635,14.3z
		 M24.214,16.294c0,0.059-0.016,0.1-0.054,0.135c-0.038,0.037-0.086,0.055-0.147,0.055h-0.052l0,0h-0.966h0h-0.181H22.75
		c-0.058,0-0.099-0.018-0.135-0.055c-0.036-0.037-0.054-0.086-0.054-0.148v-0.047c0-0.002,0-0.002,0-0.002v-0.369v-0.057v-0.5
		l0-0.16v-0.238l0,0v-0.033c0-0.057,0.017-0.098,0.054-0.135c0.037-0.037,0.086-0.055,0.148-0.055h0.05c0,0,0,0,0.001,0h1.146h0.032
		l0,0h0.032c0.058,0,0.1,0.018,0.136,0.055c0.035,0.037,0.053,0.086,0.053,0.148v0.033v0.002l0.001,1.338
		c0,0.002-0.001,0.002-0.001,0.004V16.294z"/>
	<polygon fill="#003764" points="32.974,14.073 32.974,14.671 33.989,14.671 33.989,17.094 34.614,17.094 34.614,14.671 
		35.631,14.671 35.631,14.073 	"/>
	<path fill="#003764" d="M30.346,15.292v-0.598c0-0.203-0.073-0.363-0.22-0.471c-0.133-0.1-0.306-0.15-0.511-0.15h-2.021v3.023
		h0.624v-1.014h1.299c0.191,0,0.191,0.066,0.191,0.115v0.898h0.637v-0.838c0-0.199-0.038-0.344-0.115-0.445
		c-0.014-0.018-0.029-0.035-0.046-0.051c0.013-0.012,0.024-0.021,0.036-0.031C30.305,15.647,30.346,15.503,30.346,15.292z
		 M29.656,15.421c-0.038,0.037-0.087,0.055-0.148,0.055h-0.024l0,0h-0.485H28.49c0,0,0,0-0.001,0h-0.27v-0.82v-0.002h0.74h0.561
		c0.058,0,0.1,0.016,0.136,0.055c0.035,0.037,0.054,0.086,0.054,0.148v0.432C29.709,15.344,29.693,15.385,29.656,15.421z"/>
</g>
</svg>
