<?xml version="1.0" standalone="no"?>
<!DOCTYPE svg PUBLIC "-//W3C//DTD SVG 20010904//EN"
 "http://www.w3.org/TR/2001/REC-SVG-20010904/DTD/svg10.dtd">
<svg version="1.0" xmlns="http://www.w3.org/2000/svg"
 width="2337.000000pt" height="2471.000000pt" viewBox="0 0 2337.000000 2471.000000"
 preserveAspectRatio="xMidYMid meet">

<g transform="translate(0.000000,2471.000000) scale(0.100000,-0.100000)"
fill="#000000" stroke="none">
<path d="M6288 15981 c-104 -23 -185 -52 -257 -93 -169 -97 -295 -267 -337
-456 -20 -92 -15 -262 11 -337 107 -312 385 -505 726 -505 133 0 231 23 359
86 79 39 109 62 186 138 75 74 99 107 133 176 55 113 75 208 68 330 -17 290
-165 501 -427 606 -166 68 -320 86 -462 55z"/>
<path d="M5200 14147 l0 -74 163 -6 c165 -7 272 -24 325 -51 44 -23 60 -76 78
-264 15 -149 16 -370 11 -2027 -6 -2026 -3 -1931 -62 -2154 -47 -175 -110
-271 -205 -314 -30 -14 -75 -22 -138 -25 -92 -5 -92 -5 -75 -25 45 -50 192
-87 346 -87 154 0 261 28 468 120 222 99 416 230 596 404 192 185 333 375 403
542 101 243 110 442 110 2474 0 1182 -3 1539 -12 1548 -9 9 -247 12 -1010 12
l-998 0 0 -73z"/>
<path d="M10611 14206 c-7 -8 -17 -46 -21 -83 -20 -156 -105 -292 -194 -308
-29 -6 -68 10 -287 118 -385 190 -466 211 -789 210 -241 0 -372 -19 -561 -83
-245 -82 -410 -181 -560 -338 -196 -205 -279 -441 -266 -757 12 -270 98 -457
303 -656 140 -135 166 -152 759 -492 220 -126 431 -250 470 -276 100 -66 206
-174 238 -242 78 -166 40 -403 -80 -494 -158 -121 -489 -126 -738 -11 -363
168 -640 559 -846 1194 -19 57 -42 112 -52 123 -20 22 -86 26 -105 7 -9 -9
-12 -203 -12 -813 0 -764 1 -803 18 -818 24 -22 75 -22 94 1 9 9 28 64 43 121
51 192 111 304 178 332 27 12 36 10 91 -20 34 -18 178 -92 321 -165 322 -164
436 -203 669 -225 341 -34 685 25 995 170 437 205 641 542 618 1023 -3 71 -14
153 -26 198 -42 161 -147 341 -278 478 -136 143 -203 189 -628 434 -901 520
-989 588 -1003 776 -12 170 90 298 283 356 92 28 314 26 418 -4 146 -42 252
-107 390 -241 203 -196 335 -414 481 -796 36 -93 73 -176 83 -182 24 -18 57
-16 84 6 l23 18 4 699 c2 567 1 704 -10 724 -10 19 -23 26 -54 28 -27 2 -45
-2 -53 -12z"/>
<path d="M13740 14210 c-161 -15 -241 -29 -326 -59 -182 -62 -325 -197 -482
-451 l-22 -35 0 223 c0 209 -1 223 -20 242 -20 20 -33 20 -929 20 -1019 0
-941 6 -941 -74 0 -63 16 -71 151 -84 137 -13 244 -45 270 -82 21 -28 34 -106
49 -285 13 -162 13 -2150 -1 -2420 -11 -237 -19 -278 -59 -315 -37 -35 -84
-48 -210 -61 -195 -20 -200 -22 -202 -83 -1 -30 4 -44 21 -58 22 -17 69 -18
1140 -18 855 0 1120 3 1129 12 7 7 12 33 12 60 0 61 -19 74 -125 82 -158 11
-200 37 -222 137 -21 90 -31 616 -32 1652 l-1 847 81 158 c49 94 97 174 121
199 81 84 185 119 330 111 73 -5 100 -11 153 -37 117 -58 163 -137 193 -335
15 -100 17 -228 16 -1271 -1 -1335 -2 -1346 -79 -1413 -33 -30 -79 -42 -220
-56 -58 -6 -75 -24 -75 -77 0 -75 -95 -69 1144 -69 1096 0 1113 0 1131 20 13
15 16 30 12 61 -3 23 -10 46 -16 52 -5 5 -55 14 -111 18 -239 18 -294 52 -321
199 -8 46 -14 396 -18 1205 -7 1101 -8 1142 -27 1210 -44 151 -126 278 -267
411 -190 180 -409 292 -674 344 -124 25 -412 35 -573 20z"/>
<path d="M15110 14200 c-24 -24 -27 -91 -5 -110 8 -7 74 -19 146 -27 161 -17
224 -39 287 -101 88 -87 97 -108 444 -967 666 -1651 825 -2024 1122 -2630 303
-617 527 -952 756 -1125 106 -80 103 -79 79 -13 -45 122 -87 200 -143 263 -65
75 -218 301 -295 438 -56 98 -223 440 -260 532 l-23 56 46 112 c56 136 586
1369 978 2277 296 687 362 828 461 997 75 128 104 146 249 158 57 5 129 12
161 16 l57 6 0 69 0 69 -1189 0 c-1324 0 -1221 6 -1221 -69 0 -64 11 -71 143
-81 70 -6 130 -16 148 -26 35 -17 59 -66 59 -118 0 -55 -65 -267 -136 -441
-116 -287 -499 -1195 -504 -1195 -10 0 -501 1278 -537 1400 -33 110 -38 261
-10 303 10 15 28 32 40 36 12 5 99 18 192 30 183 23 195 28 195 83 0 17 -10
39 -25 53 l-24 25 -586 0 c-572 0 -585 0 -605 -20z"/>
</g>
</svg>
