<svg xmlns="http://www.w3.org/2000/svg" width="46.733" height="23.107" viewBox="0 0 46.733 23.107"><path d="M17.331 12.773c.025.256.105.481.236.661.222.305.647.421 1.217.421.255 0 .534-.031.743-.098.406-.128.58-.347.58-.686 0-.302-.074-.429-.258-.56-.14-.099-.568-.22-.935-.286-.257-.046-.578-.098-.882-.171-.323-.078-.459-.139-.644-.249-.319-.19-.502-.523-.502-.931 0-.38.137-.662.453-.915.323-.257.786-.376 1.358-.376.526 0 1.01.093 1.362.347.318.23.482.527.529.943h-.573c-.047-.182-.119-.337-.207-.441-.207-.239-.614-.347-1.111-.347-.401 0-.801.112-.976.265-.175.154-.233.279-.233.482 0 .224.11.396.322.515.241.135.523.201.879.265.319.057.538.097.841.167.335.078.539.161.727.278.298.187.484.571.484.911 0 .506-.188.816-.591 1.085-.381.254-.837.326-1.373.326-.625 0-1.149-.145-1.502-.435-.353-.288-.492-.711-.52-1.172h.576v.001zM27.394 10.195v2.532c0 .295.061.541.183.736.181.295.565.384.993.384.453 0 .824-.1 1.009-.42.1-.174.145-.407.145-.7v-2.532h.615v2.302c0 .5-.048.885-.196 1.154-.272.491-.83.718-1.585.718s-1.306-.246-1.576-.737c-.148-.269-.202-.634-.202-1.134v-2.302h.614v-.001zM25.431 10.195v.519h-1.506v3.547h-.616v-3.547h-1.507v-.519h3.629zM8.855 10.195h.606l.001 3.551h2.443l-.001.515h-3.049v-4.066zM6.321 10.195h.612v4.066h-.612v-4.066zM4.413 13.048c0 .369-.074.622-.178.781-.243.373-.633.531-1.272.531-.411 0-.689-.091-.927-.255-.237-.166-.468-.468-.492-.925l-.003-.228h.576l.004.196c.008.143.078.344.203.488.143.165.324.252.638.252.289 0 .575-.045.747-.308.092-.141.104-.256.104-.675v-2.71h.6v2.853zM12.992 10.195h.606v3.551h2.443l-.001.515h-3.048v-4.066zM45.227 10.195v.519h-1.507v3.547h-.615v-3.547h-1.507v-.519h3.629z"/><path fill-rule="evenodd" clip-rule="evenodd" d="M33.305 10.195h.655l1.753 4.066h-.64l-.512-1.152h-1.9l-.532 1.152h-.638l1.814-4.066m1.021 2.4l-.704-1.731-.721 1.731h1.425zM37.048 10.195h2.052c.341 0 .622.046.843.136.42.173.63.494.63.96 0 .243-.056.443-.168.598-.109.155-.264.28-.463.374.174.065.305.149.393.255.089.105.139.276.149.512l.021.61.035.349c.026.114.044.215.13.272h-.671l-.053-.17-.026-.286-.036-.678c-.014-.266-.123-.416-.326-.507-.116-.05-.298-.075-.545-.075h-1.36v1.716h-.606v-4.066h.001m1.988 1.83c.284 0 .509-.051.673-.155.167-.103.249-.257.249-.526 0-.289-.115-.444-.347-.55-.124-.055-.289-.083-.496-.083h-1.461v1.314h1.382z"/></svg>