<svg xmlns="http://www.w3.org/2000/svg" width="46.733" height="23.107" viewBox="0 0 46.733 23.107"><g fill="#231F20"><path d="M12.787 10.485h2.325v2.325h-2.325zM26.037 10.485h2.325v2.325h-2.325zM32.082 10.485h2.324v2.325h-2.324zM19.412 1.187h2.325v11.623h-2.325v-11.623zM15.808 1.187h2.326v11.623h-2.326v-11.623zM23.015 1.187h2.325v11.623h-2.325v-11.623zM29.059 1.187h2.325v11.623h-2.325v-11.623zM17.475 21.291v.535l-.501-.534h-.117v.815h.155v-.537l.5.534.002.002h.116v-.815zM19.175 21.468l.041-.016h.493v-.16h-.517l-.143.059-.059.143v.411l.059.142.143.059h.517v-.16h-.493l-.041-.016-.016-.042v-.123h.509v-.16h-.509v-.098l.016-.039zM21.909 21.292l-.188.555-.188-.536-.141-.001-.185.536-.188-.554h-.166l.28.809.001.005h.139l.191-.55.188.545.002.005h.139l.281-.814zM23.867 21.292l-.256.311-.256-.311h-.224l.396.472v.342h.168v-.342l.395-.472zM30.032 21.292h-.235l-.381.344v-.344h-.155v.814h.155v-.258l.063-.057.315.315h.232l-.424-.425zM25.946 21.353l-.142-.061h-.389l-.142.061-.058.146v.401l.058.146.142.061h.389l.142-.061.058-.146v-.401l-.058-.146zm-.113.538l-.015.036-.04.015h-.341l-.036-.015-.015-.04v-.381l.015-.036.04-.015h.341l.037.015.014.04v.381zM28.003 21.62v-.161l-.059-.128-.137-.04h-.545v.815h.168v-.273h.35l.052.03v.242h.171v-.226l-.031-.12-.012-.014.01-.009.033-.116zm-.186.035l-.04.015h-.34700000000000003v-.222h.35100000000000003l.036.015.015.04v.117l-.015.035zM7.113 17.175l.002 1.721-.043.115-.105.042h-.69l-.105-.042-.042-.115v-.311h-.482v.35c0 .16.055.298.163.411.094.099.207.155.336.169v.004h.887c.156 0 .29-.058.4-.173.108-.113.163-.252.163-.411v-1.76h-.484zM25.782 17.175v.463h.788v1.881h.484v-1.881h.789v-.463zM15.379 17.175v.463h.789v1.881h.484v-1.881h.789v-.463zM8.216 17.175h.481v2.344h-.481zM9.842 19.011l-.042-.115v-1.721h-.483v1.76c0 .16.055.298.164.411.11.115.244.172.4.172h.926v-.465h-.86l-.105-.042zM11.695 19.011l-.042-.115v-1.721h-.483v1.76c0 .16.055.298.164.411.11.115.245.172.4.172h.926v-.465h-.86l-.105-.042zM14.503 18.066h-.824l-.106-.042-.043-.115v-.11l.043-.115.106-.043h1.247v-.467h-1.313c-.155 0-.29.058-.4.171-.109.113-.164.251-.164.41v.207c0 .16.055.298.164.411.11.113.244.171.4.171h.824l.107.042.042.115v.191l-.043.114-.106.043h-1.317v.467h1.383c.155 0 .29-.057.4-.171.109-.113.164-.251.164-.411v-.289c0-.159-.055-.297-.164-.41-.11-.111-.244-.169-.4-.169zM30.638 18.066h-.824l-.106-.042-.043-.115v-.11l.043-.115.106-.043h1.247v-.467h-1.314c-.155 0-.289.058-.4.171-.109.113-.164.251-.164.41v.207c0 .159.055.298.164.411.11.113.244.171.4.171h.824l.106.042.042.115v.191l-.043.114-.106.043h-1.317v.467h1.383c.155 0 .29-.057.4-.171.109-.113.164-.251.164-.411v-.289c0-.159-.055-.297-.164-.41-.108-.111-.243-.169-.398-.169zM22.352 19.519h.49l-1.055-2.344h-.421l-1.057 2.344h.492l.206-.461h1.139l.206.461zm-.776-1.723l.266.596.091.196h-.713l.089-.196.267-.596zM19.498 17.175v1.407l-.001.279-.001.008v.039l-.042.105-.115.042h-.8480000000000001l-.105-.042-.042-.115v-1.722h-.484v1.76c0 .16.055.298.163.411.11.115.245.172.401.172h.992c.156 0 .29-.057.401-.172.109-.113.164-.252.164-.411v-1.76h-.483zM33.55 17.347c-.11-.114-.244-.172-.4-.172h-1.475v2.344h.482v-.714h.992c.156 0 .29-.058.4-.171.109-.113.164-.251.164-.411v-.465c.001-.159-.054-.297-.163-.411zm-.318.8v.047l-.042.104-.115.042h-.917v-.701h.927l.105.042.042.115v.351zM36.235 17.351c-.112-.117-.249-.176-.408-.176h-1.119c-.159 0-.296.059-.408.176-.111.115-.167.257-.167.42v1.153c0 .162.056.304.167.419.112.117.249.176.408.176h1.118c.159 0 .296-.059.409-.176.111-.116.167-.257.167-.419v-1.153c0-.164-.056-.305-.167-.42zm-.326 1.546l-.042.105-.115.042h-.9790000000000001l-.105-.042-.042-.114v-1.0919999999999999l.042-.105.115-.042h.9800000000000001l.105.042.042.115v1.091zM25.353 18.12v-.463c0-.159-.057-.282-.17-.366-.104-.077-.237-.116-.396-.116h-1.567v2.344h.484v-.785h1.007c.149 0 .149.051.149.088v.697h.494v-.649c0-.154-.029-.267-.089-.346l-.036-.04.027-.024c.065-.065.097-.176.097-.34zm-.536.101l-.115.042h-1.0010000000000001v-.638h1.01l.104.042.042.115v.335l-.04.104zM39.485 17.175v.463h.787v1.881h.484v-1.881h.79v-.463zM39.055 18.12v-.463c0-.159-.057-.282-.17-.366-.104-.077-.237-.116-.396-.116h-1.567v2.344h.484v-.785h1.007c.149 0 .149.051.149.088v.697h.494v-.649c0-.154-.029-.267-.09-.346l-.036-.04.028-.024c.066-.065.097-.176.097-.34zm-.535.101l-.115.042h-.999v-.638h1.01l.104.042.042.115v.335l-.042.104z"/></g></svg>