<svg xmlns="http://www.w3.org/2000/svg" viewBox="0 0 298.13 87.69"><defs><style>.cls-1{fill:#231f20;}</style></defs><title>Asset 1</title><g id="Layer_2" data-name="Layer 2"><g id="Layer_1-2" data-name="Layer 1"><path class="cls-1" d="M29,2.72H43.17v60q0,11.26-5.61,18.12T20.92,87.69q-9.9,0-15.41-6.37T0,62.21V53.8H12.86v7.54q0,6.31,1.84,9.34c1.22,2,3.3,3,6.22,3q4.91,0,6.48-2.91C28.46,68.87,29,65.63,29,61.1Z"/><path class="cls-1" d="M111.25,27q-.51-6.3-3.78-9.4t-9.69-3.09c-4,0-7,.83-9.09,2.47a8.69,8.69,0,0,0-3.06,7.18,8.39,8.39,0,0,0,2.4,6.3q2.4,2.35,8.11,4.09t11.08,3.4a49.41,49.41,0,0,1,9,3.77,26.27,26.27,0,0,1,4.18,2.84,15.71,15.71,0,0,1,3.37,4,20.2,20.2,0,0,1,2.25,5.57,31.1,31.1,0,0,1,.81,7.54,30.87,30.87,0,0,1-2,11.69,21.27,21.27,0,0,1-5.61,8.1,23.1,23.1,0,0,1-8.57,4.76,36.37,36.37,0,0,1-10.87,1.55A37.75,37.75,0,0,1,88.28,86a23.41,23.41,0,0,1-14.9-13.73,32.22,32.22,0,0,1-2.24-12.06H84.81a13.4,13.4,0,0,0,4.24,10q4,3.65,10.87,3.64c4.22,0,7.47-1,9.75-3s3.42-4.88,3.42-8.59a11.48,11.48,0,0,0-.46-3.34A7.33,7.33,0,0,0,111,56.09a11,11,0,0,0-3.21-2.35,27.48,27.48,0,0,0-5.21-1.92q-6.33-1.73-10.66-3A40.09,40.09,0,0,1,84,45.51a21.5,21.5,0,0,1-8.42-7.73Q72.67,33,72.67,25.23A32.39,32.39,0,0,1,74.2,15a21.44,21.44,0,0,1,4.64-8A21,21,0,0,1,86.6,1.86,29.14,29.14,0,0,1,97.47,0,30.84,30.84,0,0,1,108.9,2a23.33,23.33,0,0,1,8.42,5.56,25.37,25.37,0,0,1,5.31,8.54A33.62,33.62,0,0,1,124.72,27Z"/><path class="cls-1" d="M197.08,84.84l-29-55.16V84.84H154.93V2.72h15l26.95,52.81V2.72h13.27V84.84Z"/><path class="cls-1" d="M261.28,84.84v-31L237.81,2.72h16.53l14.29,33.39L281.8,2.72h16.33L275.47,54.05V84.84Z"/></g></g></svg>