<?xml version="1.0" encoding="utf-8"?>
<!-- Generator: Adobe Illustrator 24.0.1, SVG Export Plug-In . SVG Version: 6.00 Build 0)  -->
<svg version="1.1" id="레이어_1" xmlns="http://www.w3.org/2000/svg" xmlns:xlink="http://www.w3.org/1999/xlink" x="0px"
	 y="0px" viewBox="0 0 46.7 23.1" style="enable-background:new 0 0 46.7 23.1;" xml:space="preserve">
<g>
	<circle cx="9.2" cy="4.4" r="1.9"/>
	<path d="M6,7.3h5.4v9.9c0,0-1,3.3-5,3.3c0,0,1.3-0.3,1.3-1.8S7.7,8.4,7.7,8.4S7.5,7.3,6,7.3z"/>
	<path d="M20.6,7.3c0,0-0.4,1-0.8,1c-0.4,0-0.9-1-2.7-1s-4,0.9-4,2.8s2.4,3.1,2.4,3.1s2.4,1,2.4,2.2s-1.1,0.9-1.1,0.9
		s-1.9,0.3-3.7-3.6v4.3c0,0,0.2-1.3,0.7-1.3c0.5,0,0.9,1.1,3.2,1.1s4-1.1,4-2.7s-1.3-2.4-1.9-2.8c-0.6-0.4-3.3-1.7-3.3-2.7
		c0-1,1.9-1.1,2.6-0.4s2,2.3,2,2.9L20.6,7.3z"/>
	<path d="M21.4,7.3h5v1.1C26.4,8.4,27,7,29,7s3.5,1.4,3.5,2s0,6.5,0,6.5s0.3,0.9,1.3,0.9h-5.9c0,0,0.8-0.2,0.8-0.8s0.2-6.7,0.2-6.7
		s-0.1-1.1-1.1-1.1s-1.3,1-1.3,1.4c0,0.4,0,6.6,0,6.6s0,0.6,0.7,0.6h-5.7c0,0,1.1-0.1,1.1-0.7s0-7.5,0-7.5S22.4,7.3,21.4,7.3z"/>
	<path d="M32.1,7.3h3.3v0.5h-0.9c0,0-0.7-0.2-0.3,0.9c0.4,1.1,1.3,3.6,1.3,3.6l1.8-4.1c0,0,0-0.4-0.3-0.5c-0.4-0.1-0.4-0.4-0.4-0.4
		h6.1v0.4c0,0-1.1-0.2-1.7,0.9s-3.3,7.9-3.3,7.9s-0.2,0.6,0.5,1.6c0.7,1,1.3,2.1,1.3,2.1h-0.4c0,0-1.6-2-2.7-4.7
		c-1.1-2.8-3-7.6-3-7.6s-0.1-0.2-1.2-0.2V7.3z"/>
</g>
</svg>
