<?xml version="1.0" encoding="utf-8"?>
<!-- Generator: Adobe Illustrator 15.1.0, SVG Export Plug-In . SVG Version: 6.00 Build 0)  -->
<!DOCTYPE svg PUBLIC "-//W3C//DTD SVG 1.1//EN" "http://www.w3.org/Graphics/SVG/1.1/DTD/svg11.dtd">
<svg version="1.1" id="Layer_1" xmlns="http://www.w3.org/2000/svg" xmlns:xlink="http://www.w3.org/1999/xlink" x="0px" y="0px"
	 width="386.258px" height="146.027px" viewBox="0 0 386.258 146.027" enable-background="new 0 0 386.258 146.027"
	 xml:space="preserve">
<g>
	<defs>
		<rect id="SVGID_1_" width="386.258" height="146.027"/>
	</defs>
	<clipPath id="SVGID_2_">
		<use xlink:href="#SVGID_1_"  overflow="visible"/>
	</clipPath>
	<path clip-path="url(#SVGID_2_)" d="M12.185,65.127l-0.165,0.091l-0.557,0.306c-5.424,2.824-9.16,8.195-10.313,15.069
		c-1.477,9.729-1.528,18.544-0.167,26.265c1.387,7.868,4.458,16.174,9.112,24.721c3.472,6.135,8.794,9.904,15.007,10.736
		c61.955,5.977,123.991,4.682,170.429-3.506l16.23-2.966c48.371-8.528,107.642-28.423,162.549-54.583
		c6.094-3.154,9.786-8.458,10.924-15.423c1.403-8.903,1.365-16.939-0.116-26.073l-0.141-0.951
		c-1.769-9.142-4.474-16.698-8.774-24.58c-3.476-6.106-8.767-9.908-14.98-10.743c-61.056-5.855-123.68-4.283-172.091,4.253
		c0.04-0.007-16.186,2.743-16.186,2.743C126.559,18.666,67.974,38.575,12.185,65.127"/>
	<path clip-path="url(#SVGID_2_)" fill="#FFDD00" d="M103.615,67.544c1.05-0.721,1.983-1.44,2.308-2.004
		c0.311-0.548,0.322-1.372,0.189-2.131l-0.472-2.85c-0.635-3.605-1.752-4.664-4.829-3.468c-1.05,0.441-3.761,1.833-6.894,3.828
		c-6.938,4.34-32.683,20.038-47.039,28.729c-1.218,0.683-2.101,1.244-2.628,2.48c-1.055,2.484-0.379,6.321-0.191,7.388
		c0.226,1.281,1.467,5.707,2.979,6.769c1.149,0.655,1.851,0.738,2.947,0.984c16.466,3.257,46.033,9.198,54.033,10.938
		c3.621,0.774,6.649,1.177,7.78,1.193c3.304,0.09,3.987-1.307,3.355-4.894l-0.531-2.832c-0.136-0.773-0.427-1.533-0.908-1.949
		c-0.496-0.411-1.62-0.768-2.852-1.079c-9.202-2.079-46.393-9.201-56.139-11.169l-0.025-0.144
		C63.179,92.125,95.676,72.625,103.615,67.544"/>
	<path clip-path="url(#SVGID_2_)" fill="#FFDD00" d="M178.876,41.637c-0.09-0.509-0.391-2.334-0.48-2.84
		c-0.526-2.986-2.436-4.275-5.031-3.559c-6.538,1.424-11.564,2.606-19.004,4.912c-7.351,2.273-11.202,3.869-18.25,6.432
		c-1.298,0.499-4.089,1.589-5.572,2.377c-4.057,2.058-6.094,3.115-8.486,4.854c-2.213,1.619-4.554,3.446-5.778,5.538
		c-2.805,4.691-2.985,7.302-2.042,12.656l5.102,28.93c0.948,5.378,2.007,7.747,6.248,11.201c1.865,1.542,4.689,2.456,7.321,3.211
		c2.846,0.834,5.118,1.116,9.639,1.686c1.659,0.208,4.66,0.311,6.045,0.31c7.5,0,11.667,0.194,19.354-0.172
		c7.776-0.403,12.904-1.005,19.536-1.897c2.679-0.236,4.039-2.063,3.507-5.082c-0.091-0.516-0.429-2.317-0.518-2.818
		c-0.512-2.906-1.993-3.938-4.656-3.661c-7.045,0.729-12.782,1.757-19.598,2.249c-6.71,0.49-11.849,0.89-19.914,1.315
		c-4.024,0.226-7.678-0.266-10.586-1.324c-2.928-1.038-4.659-3.396-5.021-5.449l-5.638-31.973c-0.363-2.062,0.461-4.85,2.853-6.849
		c2.372-1.98,5.64-3.68,9.497-4.85c7.725-2.351,12.689-3.747,19.162-5.585c6.577-1.845,12.319-2.841,19.186-4.583
		C178.347,46.007,179.388,44.542,178.876,41.637"/>
	<path clip-path="url(#SVGID_2_)" fill="#FFDD00" d="M167.268,83.829c2.659-0.469,3.435-2.187,3.155-5.308l-0.633-3.589
		c-0.801-3.011-2.121-4.375-4.78-3.906c-4.328,0.974-28.36,5.992-29.915,6.383c-2.823,0.684-2.901,1.22-3.034,2.104
		c-0.097,0.678,0.104,2.21,0.422,4.009c0.335,1.904,0.641,3.411,1.002,4.065c0.427,0.783,1.358,0.852,3.511,0.604
		C138.652,88.009,162.867,84.399,167.268,83.829"/>
	<path clip-path="url(#SVGID_2_)" fill="#FFDD00" d="M39.957,83.69c0.005-0.05,0.02-0.076,0.02-0.076
		c0.446-2.476-0.636-3.606-3.789-3.05l-3.412,0.602c-3.157,0.557-5.242,1.991-5.921,4.763c-1.328,5.776-1.318,11.32-0.423,16.396
		c0.906,5.142,2.792,10.345,6.014,15.313c1.583,2.356,4.031,2.979,7.188,2.423l3.412-0.603c3.153-0.556,3.784-1.981,2.522-4.135
		C38.601,104.741,37.478,94.345,39.957,83.69"/>
	<path clip-path="url(#SVGID_2_)" fill="#FFDD00" d="M339.846,61.404c1.045,0.477,3.157,1.337,3.54-0.265
		c0.291-1.658,0.221-2.884,0.165-4.849c-0.054-1.962-0.177-5.155-0.648-6.164c-0.279-0.754-1.302-1.163-2.064-1.396
		c-8.298-2.93-16.123-5.504-24.888-8.335c-10.985-3.557-34.448-11.453-35.019-11.609c-2.285-0.658-3.973-0.876-5.553-0.584
		c-0.526,0.093-0.797,0.141-1.323,0.264c-0.382,0.086-1.146,0.317-1.749,0.84c-0.731,0.627-1.162,1.114-1.454,1.836
		c-0.27,0.698-0.415,1.364-0.277,2.143l0.365,2.072c1.443,8.192,3.295,16.279,4.739,24.477c1.398,7.927,2.433,16.195,3.875,24.38
		c0.407,2.31,1.678,3.406,4.289,2.926c1.07-0.197,2.129-0.383,3.196-0.572c2.622-0.488,3.993-2.047,3.845-4.411
		c-0.689-7.008-1.643-13.941-2.547-20.661c-1.217-6.901-2.388-13.543-3.88-20.406c10.745,3.583,21.429,7.203,32.185,11.064
		C323.686,54.607,332.986,58.52,339.846,61.404"/>
	<path clip-path="url(#SVGID_2_)" fill="#FFDD00" d="M374.022,63.637c-0.871,4.523-1.865,5.3-6.895,8.02
		c-54.476,26.351-109.142,44.467-157.137,52.93c-0.015,0.004-16.418,3.012-16.418,3.012c-45.94,8.1-100.32,9.61-161.83,3.661
		c-5.617-0.618-8.603-0.781-11.347-4.926c-3.637-7.668-6.662-14.688-7.836-21.348c-1.147-6.506-1.432-14.146,0.119-22.553
		c0.776-4.222,3.167-6.316,5.481-7.352C74.383,48.57,129.097,30.113,174.958,22.026l16.484-2.792
		c47.969-8.458,105.879-10.203,166.418-4.051c4.174,0.184,6.645,1.131,8.353,3.912c4.064,6.581,5.962,13.373,7.479,21.248
		l0.146,0.759C375.092,49.006,375.572,55.702,374.022,63.637 M370.942,17.12c-2.467-4.352-6.149-7.038-10.389-7.613
		c-60.339-5.762-122.322-4.232-170.196,4.21l-16.223,2.76C128.299,24.56,70.298,44.3,14.998,70.621l-0.065,0.019l-0.355,0.209
		c-3.847,1.986-6.35,5.696-7.182,10.676c-1.362,9.007-1.429,17.102-0.181,24.182c1.27,7.198,4.121,14.89,8.46,22.846
		c2.461,4.331,6.128,7.006,10.381,7.557c61.264,5.911,122.655,4.648,168.566-3.447c0.022-0.004,16.173-2.953,16.173-2.953
		c47.918-8.448,106.613-28.166,161.01-54.091c4.148-2.152,6.691-5.88,7.515-10.871c1.281-8.213,1.246-15.647-0.113-24.097
		l-0.15-0.849C377.442,31.387,374.936,24.407,370.942,17.12"/>
	<path clip-path="url(#SVGID_2_)" fill="#FFDD00" d="M254.127,30.604c-6.963-0.889-14.26-1.225-21.115-1.311
		c-6.812-0.119-11.305-0.041-18.1,0.11c-1.355-0.036-5.294,0.056-6.882,0.337c-2.9,0.511-5.482,1.226-7.722,2.409
		c-2.245,1.175-4.146,2.851-5.714,4.726c-3.106,3.962-4.432,8.948-3.397,14.815l7.409,42.015c1.037,5.881,3.987,10.118,8.266,12.798
		c2.109,1.199,4.468,2.122,6.979,2.455c2.51,0.349,5.184,0.152,8.084-0.357c1.588-0.281,5.317-1.551,6.582-2.042
		c6.435-2.19,10.684-3.652,17.042-6.107c6.409-2.437,13.151-5.251,19.394-8.453c2.489-1.24,2.544-3.065,2.14-5.358l-0.226-1.281
		c-0.451-2.559-1.683-3.394-4.219-2.4c-6.119,2.392-22.224,8.047-37.759,12.599c-3.887,1.158-7.347,1.53-10.241,0.841
		c-2.876-0.738-4.39-2.14-4.976-4.921c-0.911-4.33-6.649-37.257-7.296-41.654c-0.41-2.794,0.545-4.646,2.998-6.313
		c2.487-1.647,5.877-2.477,9.879-2.739c16.165-1.018,33.232-1.037,39.799-0.886c2.723,0.067,3.596-1.14,3.146-3.689l-0.225-1.278
		C257.568,32.623,256.894,30.927,254.127,30.604"/>
	<path clip-path="url(#SVGID_2_)" fill="#FFDD00" d="M348.806,25.49l-3.419,0.603c-2.627,0.463-3.492,1.97-2.279,4.118
		c2.212,3.698,3.668,8.168,4.612,12.836c0.312,1.381,0.549,2.733,0.732,4.271c0.8,5.764,0.919,11.531,0.8,16.245
		c-0.114,0.596-0.079,1.177,0.293,1.62c0.934,0.629,1.488,0.547,2.711,0.349c2.677-0.438,4.782-0.928,6.233-1.975
		c1.683-1.357,2.435-3.51,2.743-6.205c0.467-5.085,0.642-8.589-0.448-14.775c-1.049-5.946-3.057-9.923-5.499-14.513
		C354.01,25.624,351.723,24.976,348.806,25.49"/>
	<path clip-path="url(#SVGID_2_)" fill="#FFDD00" d="M245.582,69.219c2.651-0.468,3.424-2.18,3.242-5.012l-0.342-1.936
		c-0.798-2.735-2.112-4.083-4.763-3.616c-4.144,0.731-20.34,3.023-30.662,4.459c0,0-1.979,0.175-2.161,1.755
		c-0.185,1.243,0.247,3.686,0.521,5.247c0.236,1.339,0.634,3.224,1.446,4.626c0.703,1.188,2.342,0.851,2.342,0.851
		C225.388,73.368,241.438,69.949,245.582,69.219"/>
</g>
</svg>
