<?xml version="1.0" encoding="utf-8"?>
<!-- Generator: Adobe Illustrator 16.0.0, SVG Export Plug-In . SVG Version: 6.00 Build 0)  -->
<!DOCTYPE svg PUBLIC "-//W3C//DTD SVG 1.1//EN" "http://www.w3.org/Graphics/SVG/1.1/DTD/svg11.dtd">
<svg version="1.1" id="Layer_1" xmlns="http://www.w3.org/2000/svg" xmlns:xlink="http://www.w3.org/1999/xlink" x="0px" y="0px"
	 width="46.732px" height="23.107px" viewBox="0 0 46.732 23.107" enable-background="new 0 0 46.732 23.107" xml:space="preserve">
<g>
	<g>
		<rect x="2.038" y="6.939" fill="#DB2732" width="2.726" height="9.087"/>
		<circle fill="#DB2732" cx="16.576" cy="8.454" r="1.515"/>
		<circle fill="#DB2732" cx="16.576" cy="12.694" r="1.515"/>
		<rect x="10.822" y="6.939" fill="#DB2732" width="2.726" height="9.087"/>
		<circle fill="#DB2732" cx="7.793" cy="14.511" r="1.515"/>
	</g>
	<g>
		<path fill="#DB2732" d="M21.119,9.455h1.519v0.996c0.424-0.585,0.997-1.134,2.006-1.134c0.945,0,1.619,0.461,1.968,1.159
			c0.523-0.697,1.22-1.159,2.217-1.159c1.433,0,2.304,0.91,2.304,2.517v4.196h-1.507v-3.735c0-1.046-0.485-1.607-1.333-1.607
			c-0.821,0-1.406,0.573-1.406,1.631v3.711h-1.508v-3.748c0-1.021-0.498-1.594-1.333-1.594c-0.834,0-1.407,0.623-1.407,1.631v3.711
			h-1.519V9.455z"/>
		<path fill="#DB2732" d="M32.502,14.137v-0.024c0-1.421,1.121-2.117,2.728-2.117c0.734,0,1.257,0.112,1.769,0.274v-0.162
			c0-0.935-0.573-1.433-1.632-1.433c-0.735,0-1.283,0.162-1.88,0.411l-0.412-1.183c0.735-0.324,1.445-0.536,2.491-0.536
			c0.983,0,1.719,0.261,2.18,0.735c0.485,0.473,0.709,1.17,0.709,2.03v3.897h-1.469v-0.82c-0.448,0.535-1.134,0.958-2.142,0.958
			C33.611,16.168,32.502,15.459,32.502,14.137z M37.023,13.665v-0.449c-0.386-0.149-0.896-0.261-1.494-0.261
			c-0.972,0-1.544,0.411-1.544,1.096v0.025c0,0.636,0.56,0.996,1.282,0.996C36.263,15.072,37.023,14.499,37.023,13.665z"/>
		<path fill="#DB2732" d="M39.969,6.939h1.52v9.091h-1.52V6.939z"/>
		<path fill="#DB2732" d="M43.003,6.939h1.52v9.091h-1.52V6.939z"/>
	</g>
</g>
</svg>
