<?xml version="1.0" encoding="utf-8"?>
<!-- Generator: Adobe Illustrator 16.0.0, SVG Export Plug-In . SVG Version: 6.00 Build 0)  -->
<!DOCTYPE svg PUBLIC "-//W3C//DTD SVG 1.1//EN" "http://www.w3.org/Graphics/SVG/1.1/DTD/svg11.dtd">
<svg version="1.1" id="Layer_1" xmlns="http://www.w3.org/2000/svg" xmlns:xlink="http://www.w3.org/1999/xlink" x="0px" y="0px"
	 width="46.732px" height="23.107px" viewBox="0 0 46.732 23.107" enable-background="new 0 0 46.732 23.107" xml:space="preserve">
<g>
	<path fill="#231F20" d="M6.927,10.533l0.1-0.374c1.015,0.046,1.704,0.065,2.068,0.065c0.226,0,0.954-0.023,2.187-0.075
		l-0.102,0.373c-0.789,0.132-1.253,0.219-1.395,0.262c-0.099,0.029-0.179,0.077-0.238,0.139c-0.087,0.089-0.172,0.272-0.254,0.549
		c-0.083,0.279-0.507,1.836-1.269,4.675c-0.151,0.562-0.346,1.312-0.585,2.246l2.771-0.007c0.415,0,0.692-0.028,0.832-0.078
		c0.138-0.052,0.298-0.163,0.479-0.336c0.181-0.173,0.548-0.608,1.104-1.304l0.535-0.001l-0.882,1.41
		c-0.158,0.261-0.357,0.604-0.598,1.03c-1.719-0.041-3.223-0.062-4.507-0.059c-0.908,0.001-1.758,0.026-2.549,0.075l0.1-0.371
		c0.67-0.12,1.067-0.203,1.191-0.247c0.126-0.046,0.218-0.104,0.278-0.182c0.061-0.075,0.139-0.297,0.237-0.664l1.073-3.872
		l0.652-2.497c0.058-0.215,0.063-0.35,0.015-0.404c-0.073-0.083-0.36-0.171-0.858-0.263C7.223,10.61,7.095,10.579,6.927,10.533z"/>
	<path fill="#231F20" d="M15.203,14.814l-0.396-0.043c0.202-0.438,0.376-0.874,0.527-1.309c0.916-0.372,1.702-0.561,2.358-0.563
		c0.284,0,0.53,0.041,0.737,0.124c0.209,0.081,0.361,0.192,0.456,0.34c0.094,0.143,0.149,0.317,0.163,0.52
		c0.015,0.203-0.037,0.523-0.157,0.967l-0.757,2.61c-0.095,0.354-0.117,0.586-0.067,0.695c0.05,0.108,0.138,0.162,0.263,0.162
		c0.151,0,0.419-0.115,0.803-0.343l0.125,0.259c-0.733,0.531-1.131,0.814-1.195,0.85c-0.136,0.067-0.291,0.103-0.467,0.103
		c-0.273,0-0.464-0.069-0.576-0.206c-0.112-0.137-0.15-0.366-0.112-0.691c-0.608,0.395-1.048,0.643-1.319,0.746
		c-0.27,0.104-0.548,0.156-0.833,0.157c-0.465,0-0.802-0.141-1.01-0.426c-0.208-0.282-0.254-0.646-0.134-1.087
		c0.072-0.27,0.188-0.514,0.347-0.73c0.159-0.218,0.355-0.409,0.588-0.573c0.179-0.122,0.466-0.271,0.86-0.444
		c0.924-0.4,1.723-0.726,2.396-0.971c0.139-0.595,0.146-0.988,0.024-1.182c-0.125-0.194-0.368-0.29-0.731-0.288
		c-0.343,0-0.665,0.106-0.967,0.32C15.826,14.024,15.518,14.359,15.203,14.814z M17.654,15.51c-1.227,0.494-1.984,0.855-2.273,1.081
		c-0.289,0.227-0.475,0.496-0.56,0.813c-0.085,0.317-0.067,0.569,0.054,0.758c0.12,0.189,0.296,0.283,0.526,0.283
		c0.239,0,0.519-0.08,0.84-0.238c0.32-0.158,0.552-0.337,0.696-0.535c0.144-0.197,0.285-0.559,0.426-1.08L17.654,15.51z"/>
	<path fill="#231F20" d="M24.982,10.977l0.095-0.354c0.487-0.132,0.846-0.238,1.072-0.322c0.228-0.082,0.62-0.252,1.18-0.51
		l0.124,0.125c-0.354,0.978-0.89,2.798-1.606,5.461c-0.396,1.473-0.597,2.296-0.604,2.464c-0.009,0.168,0.095,0.253,0.309,0.251
		c0.126,0,0.355-0.026,0.688-0.082l-0.092,0.342c-0.944,0.262-1.696,0.535-2.255,0.817l-0.124-0.12
		c0.135-0.313,0.25-0.631,0.349-0.947c-0.652,0.478-1.116,0.775-1.393,0.894s-0.585,0.179-0.924,0.18
		c-0.642,0.002-1.107-0.237-1.399-0.719c-0.292-0.482-0.317-1.165-0.08-2.051c0.163-0.605,0.406-1.129,0.729-1.568
		c0.245-0.337,0.556-0.656,0.93-0.957c0.375-0.303,0.767-0.541,1.177-0.722c0.411-0.181,0.798-0.271,1.163-0.273
		c0.167,0,0.349,0.021,0.541,0.063c0.195,0.042,0.401,0.104,0.621,0.186c0.065-0.209,0.104-0.331,0.112-0.365
		c0.267-0.99,0.396-1.537,0.386-1.643c-0.008-0.156-0.128-0.232-0.353-0.232c-0.076,0-0.215,0.017-0.414,0.047
		C25.157,10.953,25.082,10.964,24.982,10.977z M24.748,15.866c0.223-0.83,0.334-1.309,0.331-1.439
		c-0.004-0.255-0.111-0.468-0.32-0.642c-0.212-0.175-0.508-0.261-0.889-0.26c-0.477,0.002-0.938,0.2-1.38,0.6
		c-0.441,0.4-0.767,0.983-0.974,1.756c-0.213,0.791-0.205,1.394,0.022,1.808c0.228,0.414,0.579,0.622,1.051,0.62
		c0.314-0.001,0.626-0.092,0.935-0.272c0.309-0.182,0.539-0.403,0.691-0.66C24.368,17.12,24.547,16.615,24.748,15.866z"/>
	<path fill="#231F20" d="M27.774,13.976l0.097-0.354c0.752-0.183,1.485-0.454,2.201-0.813l0.129,0.133
		c-0.323,0.894-0.707,2.159-1.146,3.798c-0.206,0.766-0.314,1.238-0.326,1.416c-0.005,0.118,0.016,0.202,0.064,0.254
		c0.049,0.053,0.246,0.134,0.588,0.243c0.043,0.013,0.106,0.033,0.191,0.063l-0.097,0.354c-0.534-0.047-0.979-0.069-1.331-0.066
		c-0.214,0-0.794,0.023-1.74,0.073l0.095-0.354c0.604-0.141,0.956-0.269,1.059-0.384c0.101-0.115,0.3-0.722,0.595-1.818l0.354-1.345
		l0.07-0.26c0.127-0.473,0.172-0.756,0.135-0.851c-0.037-0.099-0.125-0.146-0.262-0.146C28.361,13.92,28.136,13.938,27.774,13.976z
		 M30.468,9.771c0.184,0,0.323,0.064,0.415,0.192c0.095,0.128,0.116,0.284,0.066,0.47c-0.049,0.181-0.155,0.337-0.317,0.468
		c-0.163,0.131-0.336,0.197-0.52,0.198c-0.181,0-0.316-0.065-0.411-0.195c-0.092-0.131-0.114-0.286-0.064-0.468
		c0.047-0.185,0.155-0.341,0.318-0.471C30.116,9.836,30.288,9.772,30.468,9.771z"/>
	<path fill="#231F20" d="M35.39,17.528l0.14,0.371l-1.503,0.932c-0.202,0.118-0.404,0.207-0.603,0.261
		c-0.289,0.082-0.576,0.122-0.855,0.122c-0.686,0.001-1.194-0.273-1.529-0.824c-0.338-0.55-0.379-1.296-0.127-2.235
		c0.271-1.01,0.779-1.821,1.525-2.433c0.745-0.614,1.536-0.92,2.375-0.923c0.65-0.002,1.104,0.178,1.362,0.537
		c0.258,0.36,0.292,0.91,0.099,1.652c-0.2,0.1-0.394,0.226-0.579,0.374c-0.297-0.005-0.482-0.007-0.558-0.007
		c-1.112,0.003-2.082,0.022-2.912,0.057c-0.26,0.945-0.291,1.658-0.099,2.142c0.19,0.489,0.555,0.731,1.096,0.73
		c0.273,0,0.571-0.057,0.898-0.163C34.447,18.013,34.87,17.814,35.39,17.528z M35.225,14.761c0.088-0.416,0.079-0.732-0.024-0.946
		c-0.147-0.315-0.423-0.474-0.822-0.472c-0.343,0-0.683,0.119-1.014,0.358c-0.335,0.239-0.639,0.632-0.916,1.181
		c0.152,0.004,0.271,0.004,0.351,0.004C33.487,14.886,34.295,14.844,35.225,14.761z"/>
	<path fill="#231F20" d="M40.909,14.565l-0.43-0.035c0.07-0.372,0.019-0.665-0.155-0.88c-0.176-0.214-0.437-0.319-0.783-0.318
		c-0.301,0-0.564,0.081-0.786,0.244c-0.221,0.162-0.36,0.351-0.418,0.561c-0.048,0.185-0.025,0.357,0.069,0.518
		c0.134,0.218,0.477,0.483,1.029,0.799c0.552,0.313,0.899,0.609,1.048,0.888c0.142,0.281,0.164,0.601,0.069,0.959
		c-0.14,0.515-0.466,0.961-0.977,1.336s-1.122,0.564-1.834,0.566c-0.515,0-1.053-0.114-1.616-0.345
		c0.228-0.593,0.407-1.136,0.538-1.63h0.435c-0.013,0.496,0.078,0.852,0.269,1.065c0.191,0.216,0.471,0.321,0.835,0.32
		c0.326,0,0.604-0.084,0.827-0.251c0.225-0.166,0.372-0.378,0.438-0.635c0.068-0.249,0.042-0.479-0.076-0.69
		c-0.124-0.209-0.453-0.47-0.99-0.779c-0.535-0.31-0.873-0.591-1.01-0.844c-0.142-0.252-0.171-0.539-0.084-0.858
		c0.123-0.456,0.437-0.863,0.942-1.225c0.505-0.361,1.097-0.542,1.776-0.545c0.472-0.001,0.954,0.111,1.441,0.333
		C41.319,13.46,41.132,13.943,40.909,14.565z"/>
	<path fill="#CF2B29" d="M19.634,6.699c0,0-0.14-0.036-0.14-0.226V4.087l-1.1,0.545v2.029l1.92,1.035l0.58-0.319L19.634,6.699z"/>
	<path fill="#2F3E48" d="M23.954,6.963V4.087h-0.721v3.139h1.861V6.963H23.954z"/>
	<path fill="#2F3E48" d="M27.296,4.406V4.087h-1.863v3.139h0.723V5.835h1.04V5.572h-1.04V4.406H27.296z"/>
	<path fill="#CF2B29" d="M20.353,3.635l-0.58,0.319l1.301,0.677c0,0,0.14,0.094,0.14,0.264v0.676l-0.96-0.489v0.622l0.821,0.45
		c0,0,0.14,0.057,0.14,0.188v0.903l1-0.546V4.632L20.353,3.635z"/>
</g>
</svg>
