<svg xmlns="http://www.w3.org/2000/svg" width="46.733" height="23.107" viewBox="0 0 46.733 23.107"><path d="M1.7 7.169h1.65v6.428h2.159v1.467h-3.809v-7.895M45.485 12.642c-.03-.105-.116-.121-.212-.134-.128-.017-.265.005-.265.005l-.275-.008-.081-.019-.085-.045-.064-.137c-.006-.203.236-.482.236-.482.226-.261.285-.382.348-.559.096-.271.279-.622.279-.622.081-.154.028-.261.028-.261l-.092-.074-.081-.016-.184.011h-.004c-.244.034-.398-.025-.398-.025l-.1-.059c-.078-.064-.108-.146-.118-.24l-.002-.01c.006-.58.129-.774.082-1.187l-.014-.111c-.07-.524-.165-.639-.212-.775l-.073-.34-.063-.299c-.032-.151-.078-.206-.126-.221l-.104.011c-.081.03-.226.172-.226.172l-.06.055-.11.093-.197.155c-.249.172-.406.218-.406.218-.621.181-1.011.667-1.058.728l-.005.006c-.132.147-.287.184-.411.186l-.213-.036c-.171-.016-.415-.555-.415-.555l-.093-.097c-.076-.019-.161.045-.161.045l-.282.3c-.367.36-.408.649-.52.954l-.023.061-.131.3c-.05.084-.126.105-.183.107l-.074-.007-.077-.037c-.179-.101-.357-.294-.513-.544-.074-.119-.141-.161-.198-.157-.172.012-.269.436-.269.436-.477 1.267-.288 1.645-.264 1.73l.064.26c.025.382-.21.444-.21.444l-.191.062c-.08.03-.115.072-.142.114-.041.068-.039.13-.014.198.036.096.107.182.163.246l.247.272c.133.165.271.363.382.54l.092.166.017.03c.168.31.263.45.444.598l.104.08.249.165c.049.039.305.222-.125.39-.615.214-1.054.015-1.323-.205-.215-.176-.321-.365-.321-.365l-.072-.063c-.04-.014-.079.007-.102.066l-.014.17v.779c.644.175 1.181.155 1.525.103l.218-.045c1.651-.375 3.044-2.487 3.662-3.896l.053-.122.113-.281.08-.201.033-.028.031.122-.003.03c-.013.12-.079.386-.182.666l-.032.086c-.162.437-.372.97-.939 1.79-.48.693-1.125 1.335-1.678 1.632l.029.011.02.008c.179.061.351.109.517.149 1.157.273 1.97.059 1.97.059.113-.026.24-.034.354-.034l.344.024h.005c.127.005.21-.005.286-.039.091-.04.115-.095.115-.142l-.082-.151-.1-.182c-.012-.128.144-.162.144-.162.548-.209.788-.5.788-.5.253-.269.312-.42.412-.566.094-.137.419-.513.459-.56l.004-.005c.072-.097.091-.173.075-.229M36.549 9.798c-.281 0-.508.227-.508.506 0 .135.053.262.15.358.093.095.22.147.357.147.133 0 .261-.053.357-.147.095-.096.148-.223.148-.358s-.053-.263-.148-.357c-.095-.096-.223-.149-.356-.149m0 .963c-.121 0-.236-.047-.324-.136-.087-.085-.133-.199-.133-.321 0-.121.046-.236.133-.32.087-.088.202-.136.324-.136.121 0 .235.047.321.136.086.084.133.199.133.32.001.252-.204.457-.454.457m.2-.576c0-.047-.036-.095-.095-.119l-.19-.023h-.107v.501h.089v-.213h.036l.213.213h.109l-.225-.218c.102-.008.17-.068.17-.141m-.273.097h-.03v-.18h.024c.089 0 .195.01.195.089 0 .078-.098.091-.189.091M9.183 13.908c-.261.213-.538.284-.954.281-.563-.003-.853-.261-.853-.732 0-.676.811-.721 1.334-.825.517-.103.773-.142.773-.142v.376c0 .64-.002.798-.3 1.042m-.615-4.52c-.397-.007-1.08.079-1.642.391-.494.286-.746.714-.808 1.304l1.403.004c.121-.514.516-.63.988-.63.492 0 .973.053.973.619 0 .332-.108.504-.31.587-.169.069-.625.135-1.047.182-1.043.118-2.297.287-2.297 1.731 0 .893.851 1.64 1.855 1.64 1.477 0 1.797-.837 1.797-.837v.685l1.627-.001-.002-3.867c.008-1.252-.764-1.774-2.537-1.808M33.719 13.908c-.26.213-.537.284-.954.281-.563-.003-.853-.261-.853-.732 0-.676.811-.721 1.334-.825.518-.103.773-.142.773-.142v.376c0 .64-.001.798-.3 1.042m-.614-4.52c-.398-.007-1.081.079-1.642.391-.493.286-.746.714-.808 1.304l1.402.004c.121-.514.517-.63.988-.63.492 0 .973.053.973.619 0 .332-.108.504-.31.587-.17.069-.626.135-1.047.182-1.043.118-2.298.287-2.298 1.731 0 .893.852 1.64 1.855 1.64 1.477 0 1.797-.837 1.797-.837v.685l1.628-.001-.002-3.867c.008-1.252-.763-1.774-2.536-1.808M19.159 12.474c-.002 1.173-.335 1.627-1.181 1.627-.703-.001-1.012-.433-1.011-1.404l.001-3.098h-1.621l-.002 3.376c-.001 1.503.702 2.235 2.158 2.235.64.001 1.328-.299 1.67-.743l.067-.087v.685l1.556-.001v-5.465l-1.636.001-.001 2.874M21.372 9.6h1.555v.74h.021c.392-.56 1.024-.889 1.733-.889.687 0 1.301.254 1.597.91.318-.475.889-.91 1.651-.91 1.289 0 2.061.54 2.061 1.958v3.661h-1.564v-3.1c0-.73-.064-1.334-.92-1.334-.847 0-1.005.698-1.005 1.386v3.047h-1.563v-3.068c0-.635.043-1.365-.91-1.365-.296 0-1.016.19-1.016 1.259v3.174h-1.639v-5.469M13.765 7.247l-.057.012h.001l-.117.027c-1.007.253-1.524.937-1.53 2.035l.001.272h-.643v1.355h.638l-.003 4.119h1.652v-4.119h1.214v-1.355h-1.214v-.241c0-.511.01-1.001.957-1.001.248 0 .486.045.486.045l.001-1.149s-.322-.07-.726-.065c-.219.003-.463.029-.66.065"/></svg>