<svg xmlns="http://www.w3.org/2000/svg" width="46.733" height="23.107" viewBox="0 0 46.733 23.107"><path d="M30.528 15.637c.124.08.286.218.663.218.36 0 .44-.131.44-.258 0-.189-.178-.204-.475-.193-.297.012-.708-.043-.708-.384 0-.366.417-.48.726-.48.246 0 .497.08.657.205l-.088.164c-.108-.086-.286-.175-.558-.175-.354-.001-.491.154-.486.263.005.087-.035.185.423.185.457 0 .743.005.743.404 0 .378-.373.487-.68.487-.229 0-.475-.023-.766-.234l.109-.202m-3.225.361h.246v-1.458h-.246v1.458zm-3.962-1.229h.646c.068 0 .229.005.229.211s-.143.217-.217.217h-.657v-.428zm-.252 1.229h.246v-.595l.463.003.378.597.298.002-.377-.611c.156-.035.354-.144.354-.42 0-.355-.315-.435-.475-.435h-.886v1.459zm-3.619-1.206l.273.617h-.544l.271-.617zm-.532 1.206l.174-.389h.718l.172.389h.252l-.642-1.458h-.288l-.652 1.458h.266zm-4.082-1.228h.623c.069 0 .229.006.229.211 0 .206-.195.217-.254.217h-.598v-.428zm-.252 1.229h.246v-.595l.624.005c.143.002.469-.08.469-.435 0-.354-.314-.434-.475-.434h-.864v1.459zM7.627 11.86s.096-.028.069.117c0 0 0 .487-.144 1.097 0 .069-.139.045-.139.045l-5.345.014c-.176-.153.109-.224.109-.224.527.007.463-.258.463-.258v-3.179c-.06-.43-.483-.397-.483-.397-.286-.115-.003-.225-.003-.225h2.449c.139-.01.139.04.139.105 0 .114-.129.104-.129.104-.092.011-.402-.01-.432.144-.094.484-.041.968-.055 1.552l.01.758.004 1.297s2.01.053 2.578-.007c.568-.059.821-.918.821-.918l.063-.03.025.005zM12.427 9.074h-2.26s-.085-.045-.085.134v1.394l1.401-.006s.383-.047.529-.456c0 0 .126-.205.225.026l-.006 1.388s.039.133-.112.145c0 0-.106.04-.126-.152 0 0-.066-.403-.555-.562h-1.355v1.824l2.393.007s.648.079.872-.86c0 0 .166-.218.218.02l-.066.575c-.02.182-.023.366-.073.509l-.119.067-5.443-.024s-.069.02-.069-.099c0 0 .005-.104.094-.109 0 0 .526.089.615-.56l.012-3.009s-.036-.298-.532-.253c0 0-.263-.129.005-.224h5.319s.109 0 .109.149v.882s-.005.144-.114.149c-.097.004-.104-.07-.114-.149 0 0-.059-.748-.739-.807M20.208 10.974c0 1.237-1.514 2.24-3.38 2.24-1.867 0-3.381-1.003-3.381-2.24 0-1.237 1.514-2.24 3.381-2.24 1.867-.001 3.38 1.003 3.38 2.24m-3.37-2.168c-.914 0-1.655.955-1.655 2.133s.741 2.133 1.655 2.133 1.654-.955 1.654-2.133-.74-2.133-1.654-2.133M20.407 12.645v-3.054s.005-.552-.61-.587c0 0-.263-.109.039-.154h2.306l2.945 2.393v-1.91s.049-.259-.246-.259h-.23s-.16 0-.164-.109c0 0-.041-.087.164-.114l1.256.005c.205.026.164.114.164.114-.004.109-.164.109-.164.109h-.23c-.296 0-.246.259-.246.259v3.6879999999999997s.02.095-.076.079h-.387l-4.15-3.367s-.086-.093-.066.126v2.783s-.005.16.152.237c.079.039.199.029.384.021 0 0 .097.023.099.099 0 0 .018.087-.121.102h-1.358s-.129.035-.129-.064c0 0-.027-.084.084-.119l.233-.015c-.001-.002.351.058.351-.263M26.936 13.105h-1.269s-.088.017-.098-.109c-.006-.09.139-.099.171-.09h.277s.2-.102.365-.42l2.366-3.794s.122-.079.199.04c0 0 2.553 4.055 2.58 4.095.06.09.18.079.18.079s.162 0 .167.109c0 0 .015.09-.173.09h-2.33s-.153.03-.144-.095c0 0-.02-.119.164-.104h.149s.149.02.075-.138l-.567-.915s.026-.067-.232-.067l-1.438-.005s-.15.009-.214.078l-.635.945s.006.087.106.087l.337.014s.089-.004.084.104c0 .001.015.096-.12.096m.577-1.643h1.196l.013-.079-.542-.899-.079-.013-.582.912-.006.079M34.497 13.105h-2.454s-.154-.102.025-.169c0 0 .377.005.486-.253l-.01-3.316s.053-.265-.246-.292h-.231s-.091.001-.085-.118c0 0-.02-.106.204-.106h3.913s1.155.04 1.258.767c0 0 .291 1.243-1.005 1.375l.026.066s.727.331.747 1.421c0 0 .076.552.526.486 0 0 .307-.004.42-.083 0 0 .116.152-.436.337 0 0-2.009.396-2.208-1.309 0 0-.059-.655-.879-.687h-.423l-.007 1.394s-.027.284.417.337c-.002.001.279.1-.038.15m.34-2.231c.958-.179.971-.853.971-.853.099-.839-.887-.946-.887-.946-.639-.005-.801.297-.801.297v1.375c.05.236.717.127.717.127"/><path d="M38.691 12.631v-3.225s-.036-.331-.555-.332c0 0-.198-.144.036-.224 0 0 3.477-.039 3.622 0 .146.04 2.089.038 2.74.939.611.846.562 1.947-.634 2.895 0 0-.182.142-.509.261-.505.159-1.163.224-1.824.248 0 0-3.312.089-3.411-.089 0 0-.109-.04.124-.129-.001 0 .421-.029.411-.344m3.001.344c.103-.039.612-.097 1.064-.605.244-.274.55-.62.526-1.259-.05-1.299-.76-1.682-.932-1.785-.248-.149-1.051-.416-1.567-.367-.516.049-.595.377-.595.377v3.262l.02.158c.301.423 1.438.228 1.438.228l.046-.009z"/></svg>