<?xml version="1.0" standalone="no"?>
<!DOCTYPE svg PUBLIC "-//W3C//DTD SVG 20010904//EN"
 "http://www.w3.org/TR/2001/REC-SVG-20010904/DTD/svg10.dtd">
<svg version="1.0" xmlns="http://www.w3.org/2000/svg"
 width="800.000000pt" height="800.000000pt" viewBox="0 0 800.000000 800.000000"
 preserveAspectRatio="xMidYMid meet">

<g transform="translate(0.000000,800.000000) scale(0.100000,-0.100000)"
fill="#000000" stroke="none">
<path d="M720 4000 l0 -980 565 0 565 0 0 95 0 95 -335 0 -335 0 0 885 0 885
-230 0 -230 0 0 -980z"/>
<path d="M2040 4000 l0 -980 230 0 230 0 0 440 0 440 338 2 337 3 3 98 3 98
-343 -3 -343 -3 0 350 0 350 343 -3 342 -3 0 96 0 95 -570 0 -570 0 0 -980z"/>
<path d="M4180 4965 c-371 -83 -650 -350 -748 -714 -35 -132 -37 -344 -5 -471
70 -276 242 -501 485 -634 172 -95 413 -137 608 -107 108 17 258 71 352 127
95 57 232 182 293 268 394 556 121 1326 -536 1516 -98 29 -351 37 -449 15z
m312 -764 c191 -107 350 -202 353 -209 3 -8 -1 -24 -9 -36 -14 -21 -671 -408
-712 -420 -14 -4 -28 -1 -38 9 -14 15 -16 63 -16 425 0 405 0 409 21 424 12 8
29 12 38 9 9 -4 172 -94 363 -202z"/>
<path d="M5470 4000 l0 -980 355 0 355 0 0 330 c0 288 2 329 15 324 8 -4 12
-10 9 -15 -3 -5 2 -12 10 -15 9 -3 13 -10 10 -15 -3 -5 2 -12 10 -15 9 -3 13
-10 10 -15 -3 -5 2 -12 10 -15 9 -3 13 -10 10 -15 -3 -5 2 -12 10 -15 9 -3 13
-10 10 -15 -3 -5 2 -12 10 -15 9 -3 13 -10 10 -15 -3 -5 2 -12 10 -15 9 -3 13
-10 10 -15 -3 -5 2 -12 10 -15 9 -3 13 -10 10 -15 -3 -5 2 -12 10 -15 9 -3 13
-10 10 -15 -3 -5 2 -12 10 -15 9 -3 13 -10 10 -15 -3 -5 2 -12 10 -15 9 -3 13
-10 10 -15 -3 -5 2 -12 10 -15 9 -3 13 -10 10 -15 -3 -5 2 -12 10 -15 9 -3 13
-10 10 -15 -3 -5 2 -12 10 -15 9 -3 13 -10 10 -15 -3 -5 2 -12 10 -15 9 -3 13
-10 10 -15 -3 -5 2 -12 10 -15 9 -3 13 -10 10 -15 -3 -5 2 -12 10 -15 9 -3 13
-10 10 -15 -3 -5 2 -12 10 -15 9 -3 13 -10 10 -15 -3 -5 2 -12 10 -15 9 -3 13
-10 10 -15 -3 -5 2 -12 10 -15 9 -3 13 -10 10 -15 -3 -5 2 -12 10 -15 9 -3 13
-10 10 -15 -3 -5 2 -12 10 -15 9 -3 13 -10 10 -15 -3 -5 144 -9 350 -9 l356 0
0 980 0 980 -355 0 -355 0 0 -350 c0 -240 -3 -350 -11 -350 -5 0 -7 5 -4 10 3
6 -1 13 -9 16 -9 3 -13 10 -11 15 3 4 -3 17 -14 28 -11 11 -17 22 -14 25 3 3
-2 8 -11 12 -9 3 -13 10 -11 15 3 4 -3 17 -14 28 -11 11 -17 22 -14 25 3 3 -2
8 -11 12 -9 3 -13 10 -10 15 3 5 0 9 -6 9 -6 0 -8 5 -5 10 3 6 -1 13 -9 16 -9
3 -13 10 -11 15 3 4 -3 17 -14 28 -11 11 -17 22 -14 25 3 3 -2 8 -11 12 -9 3
-13 10 -11 15 3 4 -3 17 -14 28 -11 11 -17 22 -14 25 3 3 -2 8 -11 12 -9 3
-13 10 -11 15 3 4 -3 17 -14 28 -11 11 -17 22 -14 25 3 3 -2 8 -11 12 -9 3
-13 10 -10 15 3 5 0 9 -6 9 -6 0 -8 5 -5 10 3 6 -1 13 -9 16 -9 3 -13 10 -11
15 3 4 -3 17 -14 28 -11 11 -17 22 -14 25 3 3 -2 8 -11 12 -9 3 -13 10 -11 15
3 4 -3 17 -15 29 -11 11 -17 20 -12 20 4 0 -2 7 -12 15 -17 13 -77 15 -368 15
l-348 0 0 -980z"/>
</g>
</svg>
