<?xml version="1.0" encoding="utf-8"?>
<!-- Generator: Adobe Illustrator 16.0.0, SVG Export Plug-In . SVG Version: 6.00 Build 0)  -->
<!DOCTYPE svg PUBLIC "-//W3C//DTD SVG 1.1//EN" "http://www.w3.org/Graphics/SVG/1.1/DTD/svg11.dtd">
<svg version="1.1" id="Layer_1" xmlns="http://www.w3.org/2000/svg" xmlns:xlink="http://www.w3.org/1999/xlink" x="0px" y="0px"
	 width="46.732px" height="23.107px" viewBox="0 0 46.732 23.107" enable-background="new 0 0 46.732 23.107" xml:space="preserve">
<g>
	<g>
		<g>
			<g>
				<path fill="#231F20" d="M5.622,7.656H4.035v3.829H1.885V1.786H6.24c2.262,0,3.552,1.277,3.552,2.89
					c0,1.02-0.615,2.348-2.006,2.722l2.507,4.087H7.729L5.622,7.656z M5.796,6.08c1.475,0,1.845-0.709,1.845-1.329
					c0-0.696-0.37-1.316-1.918-1.316H4.035V6.08H5.796z"/>
				<path fill="#231F20" d="M18.266,9.461h-3.939l-0.701,2.023h-2.322l3.927-9.699h2.262l3.867,9.699h-2.364L18.266,9.461z
					 M16.318,4.121h-0.029l-1.359,3.767h2.766L16.318,4.121z"/>
				<path fill="#231F20" d="M29.501,1.786h2.15v5.676c0,3.031-2.138,4.204-4.483,4.204c-2.35,0-4.482-1.173-4.482-4.204V1.786h2.146
					v5.689c0,1.611,0.803,2.462,2.336,2.462c1.532,0,2.333-0.851,2.333-2.462V1.786z"/>
				<polygon fill="#231F20" points="43.137,5.012 43.108,5.012 40.426,11.485 39.223,11.485 36.538,5.138 36.511,5.138 
					36.511,11.485 34.383,11.485 34.383,1.786 36.831,1.786 39.825,8.389 42.815,1.786 45.265,1.786 45.265,11.485 43.137,11.485 
									"/>
			</g>
		</g>
	</g>
	<g>
		<path fill="#6D6E70" d="M6.206,14.817h1.431l-2.248,6.596H4.086l-2.23-6.596h1.472l1.432,5.008L6.206,14.817z"/>
		<path fill="#6D6E70" d="M14.664,20.827c-0.498,0.514-1.218,0.769-2.161,0.769s-1.663-0.255-2.162-0.769
			c-0.669-0.63-1.002-1.536-1.002-2.722c0-1.208,0.333-2.115,1.002-2.721c0.499-0.513,1.219-0.77,2.162-0.77s1.663,0.257,2.161,0.77
			c0.666,0.605,0.999,1.513,0.999,2.721C15.663,19.291,15.33,20.197,14.664,20.827z M13.804,19.825
			c0.321-0.402,0.481-0.977,0.481-1.72c0-0.739-0.16-1.312-0.481-1.716c-0.321-0.404-0.754-0.606-1.3-0.606
			c-0.547,0-0.981,0.201-1.308,0.604c-0.324,0.403-0.487,0.978-0.487,1.719c0,0.743,0.163,1.317,0.487,1.72
			c0.326,0.402,0.761,0.604,1.308,0.604C13.05,20.428,13.483,20.227,13.804,19.825z"/>
		<path fill="#6D6E70" d="M21.605,14.817h1.562l-2.206,4.122v2.474h-1.379v-2.474L17.3,14.817h1.625l1.37,2.873L21.605,14.817z"/>
		<path fill="#6D6E70" d="M26.127,14.817h1.56l2.335,6.596h-1.495l-0.436-1.356h-2.43l-0.448,1.356h-1.44L26.127,14.817z
			 M26.037,18.922h1.689l-0.834-2.597L26.037,18.922z"/>
		<path fill="#6D6E70" d="M36.422,16.876c-0.104-0.451-0.358-0.766-0.765-0.944c-0.227-0.099-0.479-0.148-0.757-0.148
			c-0.53,0-0.967,0.2-1.31,0.601c-0.341,0.401-0.511,1.004-0.511,1.808c0,0.81,0.185,1.383,0.555,1.72
			c0.37,0.335,0.791,0.504,1.261,0.504c0.464,0,0.842-0.134,1.138-0.397c0.295-0.266,0.477-0.612,0.547-1.043h-1.527v-1.102h2.749
			v3.54h-0.913l-0.14-0.823c-0.265,0.313-0.504,0.531-0.716,0.66c-0.365,0.222-0.812,0.332-1.343,0.332
			c-0.873,0-1.59-0.302-2.148-0.906c-0.582-0.609-0.873-1.441-0.873-2.496c0-1.067,0.295-1.924,0.882-2.567
			c0.588-0.645,1.365-0.966,2.332-0.966c0.839,0,1.511,0.212,2.021,0.638c0.509,0.424,0.801,0.955,0.875,1.592H36.422z"/>
		<path fill="#6D6E70" d="M45.123,15.984h-3.491v1.401h3.203v1.145h-3.203v1.697h3.651v1.186h-5v-6.596h4.84V15.984z"/>
	</g>
</g>
</svg>
