<?xml version="1.0" standalone="no"?>
<!DOCTYPE svg PUBLIC "-//W3C//DTD SVG 20010904//EN"
 "http://www.w3.org/TR/2001/REC-SVG-20010904/DTD/svg10.dtd">
<svg version="1.0" xmlns="http://www.w3.org/2000/svg"
 width="288.000000pt" height="288.000000pt" viewBox="0 0 288.000000 288.000000"
 preserveAspectRatio="xMidYMid meet">

<g transform="translate(0.000000,288.000000) scale(0.100000,-0.100000)"
fill="#000000" stroke="none">
<path d="M0 1440 l0 -1440 1440 0 1440 0 0 1440 0 1440 -1440 0 -1440 0 0
-1440z m2100 291 l0 -299 -303 -285 -302 -286 -437 -1 -438 0 0 473 0 472 117
112 118 112 623 1 622 0 0 -299z m-50 -666 c0 -32 -2 -35 -30 -35 l-30 0 0
-90 0 -90 -40 0 -40 0 0 90 0 90 -30 0 c-28 0 -30 3 -30 35 l0 35 100 0 100 0
0 -35z m126 -33 l31 -67 32 68 c30 64 33 67 66 67 l35 0 -24 -52 c-13 -29 -39
-86 -57 -126 -47 -103 -57 -98 -130 56 l-58 122 37 0 c36 0 38 -2 68 -68z"/>
<path d="M890 1575 l0 -425 295 0 295 0 0 95 0 95 -185 0 -185 0 0 330 0 330
-110 0 -110 0 0 -425z"/>
<path d="M1520 1575 l0 -425 110 0 109 0 3 153 3 152 163 0 162 0 0 78 0 77
-165 0 -165 0 0 105 0 105 165 0 165 0 0 90 0 90 -275 0 -275 0 0 -425z"/>
<path d="M890 1004 c0 -93 1 -95 22 -92 20 3 23 9 22 46 -1 46 2 48 30 27 16
-12 21 -12 42 1 23 15 23 15 26 -28 2 -36 7 -44 26 -46 21 -3 22 -1 22 92 0
110 -6 116 -60 61 l-34 -35 -36 35 c-55 54 -60 48 -60 -61z"/>
<path d="M1153 1008 c-34 -75 -39 -94 -27 -96 9 -2 23 3 33 12 22 20 75 21 91
1 13 -16 54 -21 48 -7 -32 80 -84 182 -93 182 -6 0 -30 -42 -52 -92z m67 -20
c0 -5 -7 -8 -15 -8 -17 0 -18 2 -9 25 5 13 8 14 15 3 5 -7 9 -16 9 -20z"/>
<path d="M1330 1004 c0 -93 1 -95 23 -92 18 2 23 11 27 48 l5 45 29 -38 c16
-21 37 -42 48 -48 17 -9 18 -4 18 86 0 88 -1 95 -20 95 -17 0 -20 -7 -20 -40
0 -22 -4 -40 -8 -40 -4 0 -26 18 -47 40 -21 22 -43 40 -47 40 -4 0 -8 -43 -8
-96z"/>
</g>
</svg>
