<svg xmlns="http://www.w3.org/2000/svg" width="46.733" height="23.107" viewBox="0 0 46.733 23.107"><path d="M8.129 12.716l-.065-.018-.079-.023c-.134-.037-.147-.087-.197-.273l-.011-.042-.544-2.957c.048-.089.095-.134.155-.151l.017-.004c.057-.014.152-.038.139-.101l-.091-.048-.029.001h-.014l-.092.004-.065.004-.182.004-.155-.005-.07-.003h-.019l-.055-.002c-.053 0-.115.005-.124.05l.066.071.006.002.087.06c.045.062-.018.225-.048.304l-.336.914h-.975l-.336-.915c-.03-.078-.092-.241-.047-.303l.088-.06.006-.002.066-.071c-.01-.044-.071-.05-.124-.05l-.055.002-.02.001-.07.003-.155.004-.181-.004-.066-.003-.092-.005-.014-.001-.029-.001-.092.049c-.012.063.083.087.14.101l.017.004c.06.017.107.062.155.151l-.543 2.955-.012.045c-.05.186-.063.235-.197.273l-.079.022-.065.018-.06.061c0 .045.034.068.1.068l.296-.01.108-.004.085.003.361.011c.035 0 .109 0 .109-.065l-.057-.06-.059-.015-.099-.035-.057-.09.026-.223c.011-.06.277-1.814.364-2.391l.002-.015.949 2.431c.058.148.08.188.125.188s.067-.04.125-.188l.949-2.431v.003l.366 2.403.026.223-.056.089-.099.035-.059.015-.056.06c0 .065.073.065.109.065l.361-.011.085-.003.108.004.296.01c.066 0 .1-.023.1-.068l-.062-.06zm-1.824-1.891l-.001.002-.304.827-.008.022-.057.112-.057-.111-.312-.851v-.001h.739zM5.95 15.848h-.024999999999999998l-.139-.045c-3.331-1.301-3.272-3.646-3.267-3.746v-3.064c0-.825-.368-1.259-.384-1.277-.05-.058-.07-.137-.052-.212.018-.074.07-.137.142-.165.061-.026 1.533-.609 3.707-.609 2.181 0 3.653.583 3.714.608.072.029.125.091.143.166.018.076-.002.155-.054.213-.014.017-.382.451-.382 1.276v3.075c.004.09.064 2.431-3.261 3.733l-.142.047zm-3.27-8.165c.143.263.314.704.314 1.31v3.075c-.003.095-.034 2.11 2.941 3.283 2.994-1.181 2.942-3.252 2.941-3.273v-3.085c0-.606.171-1.047.314-1.31-.514-.163-1.706-.477-3.251-.477-1.55 0-2.744.314-3.259.477zM20.345 8.831c.073-.198.096-.235.132-.235.036 0 .06.03.133.217.09.229 1.036 2.716 1.404 3.632.216.536.391.632.517.669l.241.036.06.036c0 .036-.054.047-.121.047-.09 0-.529 0-.945-.011-.115-.007-.181-.007-.181-.042l.042-.042c.037-.013.073-.067.037-.163l-.561-1.483-.054-.035h-1.295l-.06.048-.361 1.067c-.054.15-.085.294-.085.403 0 .12.127.174.229.174h.061l.06.036-.09.047-.47-.018-.68.018c-.079 0-.115-.011-.115-.047l.054-.036.174-.012c.277-.036.397-.266.506-.566l1.368-3.74zm.626 2.409l.024-.042-.572-1.626c-.03-.091-.06-.091-.091 0l-.529 1.626.018.042h1.15zM24.039 10.426c0-.939 0-1.107-.012-1.301-.012-.204-.061-.301-.259-.343l-.204-.019-.048-.036.096-.048.434.006.247.012c.042 0 1.241 0 1.379-.005l.259-.031.084-.03.024.054-.048.283-.03.397-.042.067-.048-.078-.036-.217c-.042-.097-.102-.169-.427-.205-.102-.011-.759-.018-.825-.018l-.036.06v1.663l.036.06c.078 0 .819 0 .957-.012.146-.012.23-.024.284-.085l.09-.078.03.048-.048.338-.024.385-.042.115-.042-.055-.024-.198c-.024-.084-.077-.186-.313-.211-.162-.018-.759-.03-.861-.03l-.042.042v1.56c.018.415.108.493.699.493.157 0 .421 0 .578-.066.156-.066.229-.187.271-.434l.054-.09.037.09c0 .048-.049.458-.079.584-.042.156-.09.156-.325.156-.452 0-.783-.012-1.018-.018l-.47-.018-.241.007-.349.011-.096-.047.048-.036.18-.024c.121-.024.151-.156.175-.331.03-.254.03-.729.03-1.307v-1.06zM27.42 13.155c-.084-.042-.09-.067-.09-.229 0-.3.024-.542.03-.639l.047-.096.043.066.018.223c.091.445.488.614.891.614.578 0 .861-.415.861-.801 0-.415-.174-.656-.692-1.084l-.271-.222c-.638-.525-.784-.898-.784-1.307 0-.645.483-1.084 1.248-1.084.235 0 .409.025.56.061l.211.03.06.042c0 .031-.024.228-.024.638 0 .097-.012.138-.042.138l-.048-.078c-.006-.072-.042-.236-.079-.301-.035-.066-.198-.318-.752-.318-.415 0-.74.259-.74.698 0 .343.157.56.735 1.012l.169.132c.71.56.878.934.878 1.416 0 .247-.096.704-.512.999-.258.182-.584.253-.91.253-.283 0-.559-.042-.807-.163zM32.866 11.487c0 .578 0 1.053.03 1.307.019.174.054.307.235.331l.271.024.048.036-.096.047c-.332 0-.71-.018-.741-.018l-.59.018-.096-.047.048-.036.181-.024c.121-.024.15-.156.174-.331.031-.254.031-.729.031-1.307v-2.547l-.891.012c-.373.005-.518.047-.615.192l-.102.187-.061.06-.03-.054c0-.06.12-.578.133-.626l.06-.115c.042 0 .103.061.265.073l.476.03h2.258c.192 0 .331-.012.428-.03l.168-.031.031.073-.019.662-.042.078-.048-.102-.006-.066c-.018-.181-.163-.319-.741-.33l-.759-.013v2.547zM36.091 10.426c0-.939 0-1.107-.012-1.301-.012-.204-.061-.301-.258-.343l-.206-.019-.048-.036.096-.048.68.018.71-.018c.38 0 .783.036 1.103.264.15.109.415.404.415.82 0 .445-.187.891-.729 1.391.494.633.904 1.168 1.253 1.542.326.343.584.409.735.433l.235.019.053.036c0 .036-.036.047-.145.047h-.428c-.336 0-.487-.03-.644-.115-.259-.138-.47-.433-.813-.884l-.656-.891-.078-.036-.741-.013-.043.049v.144c0 .578 0 1.053.03 1.307.018.174.055.307.235.331l.271.024.048.036-.096.047c-.331 0-.711-.018-.742-.018l-.567.018-.096-.047.048-.036.181-.024c.121-.024.151-.156.175-.331.03-.254.03-.729.03-1.307v-1.059zm.482.525l.043.072c.09.055.367.098.631.098.145 0 .314-.019.451-.115.212-.145.368-.47.368-.927 0-.753-.398-1.205-1.041-1.205-.182 0-.344.018-.404.036l-.048.073v1.968zM42.556 8.596c1.354 0 2.366.855 2.366 2.26 0 1.348-.952 2.462-2.403 2.462-1.65 0-2.336-1.283-2.336-2.367-.001-.976.709-2.355 2.373-2.355zm.125 4.493c.543 0 1.662-.313 1.662-2.066 0-1.444-.879-2.222-1.831-2.222-1.005 0-1.759.663-1.759 1.982 0 1.402.844 2.306 1.928 2.306zM17.572 13.149l-.179-.042c-.083-.024-.161-.09-.195-.158-.085-.155-.117-.359-.132-.493l-.404-3.697c-.012-.115-.03-.163-.073-.163l-.09.097-1.77 3.782-1.843-3.789-.09-.09c-.036 0-.061.042-.066.11l-.435 3.925c-.023.229-.042.463-.24.499l-.181.019-.06.031.102.053.506-.018.56.018c.072 0 .108-.011.108-.053l-.048-.031-.228-.031c-.091-.017-.158-.095-.158-.186l.006-.308.241-2.794h.024c.067.162.741 1.609.795 1.716.031.06.548 1.103.705 1.398.115.217.145.277.187.277.054 0 .072-.055.199-.32l1.475-3.131h.019l.288 3.108.003.03v.023c0 .091-.016.169-.106.186l-.219.031-.048.031c0 .042.084.053.156.053l.323-.011.633.006.192.005.102-.053-.059-.03z"/></svg>