<?xml version="1.0" encoding="utf-8"?>
<!-- Generator: Adobe Illustrator 16.0.0, SVG Export Plug-In . SVG Version: 6.00 Build 0)  -->
<!DOCTYPE svg PUBLIC "-//W3C//DTD SVG 1.1//EN" "http://www.w3.org/Graphics/SVG/1.1/DTD/svg11.dtd">
<svg version="1.1" id="Layer_1" xmlns="http://www.w3.org/2000/svg" xmlns:xlink="http://www.w3.org/1999/xlink" x="0px" y="0px"
	 width="46.732px" height="23.107px" viewBox="0 0 46.732 23.107" enable-background="new 0 0 46.732 23.107" xml:space="preserve">
<g>
	<g>
		<g>
			<path fill="#020202" d="M1.953,11.895v-4.71h0.708c0.281,0,0.508,0.019,0.682,0.056s0.323,0.1,0.45,0.186
				c0.17,0.116,0.305,0.28,0.404,0.497C4.284,8.11,4.328,8.302,4.328,8.5c0,0.34-0.129,0.627-0.387,0.859
				c0.171,0.06,0.314,0.145,0.432,0.255c0.253,0.245,0.38,0.556,0.38,0.933c0,0.412-0.158,0.749-0.473,1.011
				c-0.155,0.126-0.322,0.214-0.502,0.265c-0.18,0.049-0.429,0.072-0.747,0.072H1.953z M2.664,9.208h0.221
				c0.267,0,0.457-0.056,0.57-0.166c0.132-0.133,0.2-0.31,0.2-0.528c0-0.214-0.066-0.384-0.197-0.512
				c-0.113-0.11-0.294-0.166-0.545-0.166H2.664V9.208z M2.664,11.227h0.442c0.29,0,0.507-0.05,0.652-0.149
				c0.087-0.057,0.159-0.137,0.212-0.239c0.054-0.103,0.082-0.208,0.082-0.315c0-0.109-0.026-0.214-0.079-0.318
				s-0.124-0.185-0.21-0.245C3.61,9.856,3.363,9.805,3.023,9.805H2.664V11.227z"/>
			<path fill="#020202" d="M6.45,7.185v4.042h1.387v0.668H5.739v-4.71H6.45z"/>
			<path fill="#020202" d="M9.244,7.185v2.837c0,0.209,0.011,0.372,0.033,0.491c0.022,0.116,0.06,0.223,0.116,0.319
				c0.076,0.132,0.182,0.24,0.318,0.326c0.17,0.105,0.358,0.158,0.566,0.158c0.186,0,0.359-0.045,0.517-0.131
				c0.159-0.088,0.281-0.206,0.366-0.354c0.055-0.097,0.094-0.204,0.116-0.319c0.022-0.119,0.033-0.282,0.033-0.491V7.185h0.71v3.03
				c0,0.44-0.12,0.81-0.358,1.108c-0.164,0.21-0.368,0.371-0.614,0.487c-0.244,0.117-0.5,0.176-0.77,0.176
				c-0.382,0-0.729-0.111-1.042-0.336c-0.467-0.333-0.7-0.811-0.7-1.436v-3.03H9.244z"/>
			<path fill="#020202" d="M15.793,7.855h-1.892v1.129h1.833v0.668h-1.833v1.575h1.892v0.668h-2.603v-4.71h2.603V7.855z"/>
			<path fill="#020202" d="M19.415,7.185v4.042h1.387v0.668h-2.098v-4.71H19.415z"/>
			<path fill="#020202" d="M23.649,7.095c0.713,0,1.314,0.267,1.802,0.801C25.884,8.365,26.1,8.915,26.1,9.546
				c0,0.434-0.109,0.838-0.327,1.215c-0.217,0.373-0.513,0.668-0.889,0.887c-0.385,0.226-0.809,0.339-1.269,0.339
				c-0.407,0-0.797-0.102-1.17-0.304c-0.449-0.245-0.784-0.577-1.004-1.001c-0.178-0.343-0.266-0.73-0.266-1.16
				c0-0.671,0.251-1.248,0.752-1.729C22.396,7.341,22.97,7.107,23.649,7.095z M23.643,7.766c-0.552,0-0.999,0.207-1.339,0.622
				C22.03,8.72,21.893,9.101,21.893,9.53c0,0.522,0.174,0.952,0.524,1.287c0.348,0.333,0.75,0.5,1.206,0.5
				c0.326,0,0.629-0.084,0.907-0.25c0.285-0.17,0.501-0.396,0.648-0.679c0.136-0.258,0.204-0.54,0.204-0.846
				c0-0.494-0.167-0.917-0.501-1.267C24.561,7.945,24.149,7.775,23.643,7.766z"/>
			<path fill="#020202" d="M27.758,7.185v2.837c0,0.209,0.011,0.372,0.032,0.491c0.022,0.116,0.061,0.223,0.116,0.319
				c0.075,0.132,0.182,0.24,0.317,0.326c0.17,0.105,0.359,0.158,0.565,0.158c0.187,0,0.359-0.045,0.518-0.131
				c0.159-0.088,0.281-0.206,0.366-0.354c0.056-0.097,0.094-0.204,0.115-0.319c0.022-0.119,0.033-0.282,0.033-0.491V7.185h0.711
				v3.03c0,0.44-0.12,0.81-0.359,1.108c-0.163,0.21-0.367,0.371-0.614,0.487c-0.244,0.117-0.5,0.176-0.77,0.176
				c-0.382,0-0.729-0.111-1.042-0.336c-0.467-0.333-0.7-0.811-0.7-1.436v-3.03H27.758z"/>
			<path fill="#020202" d="M31.771,11.895v-5.03l3.434,3.592V7.185h0.711v5.001l-3.434-3.589v3.298H31.771z"/>
			<path fill="#020202" d="M39.575,9.443h1.947c0,0.352-0.018,0.623-0.05,0.812c-0.033,0.19-0.097,0.375-0.191,0.557
				c-0.171,0.33-0.409,0.597-0.718,0.801c-0.372,0.249-0.788,0.374-1.246,0.374c-0.398,0-0.773-0.096-1.126-0.287
				c-0.448-0.246-0.788-0.599-1.018-1.056c-0.17-0.34-0.255-0.705-0.255-1.094c0-0.485,0.128-0.928,0.383-1.329
				c0.236-0.368,0.553-0.654,0.948-0.856c0.355-0.18,0.731-0.27,1.132-0.27c0.528,0,0.999,0.153,1.414,0.456
				c0.152,0.113,0.325,0.279,0.519,0.5l-0.507,0.487c-0.391-0.515-0.862-0.772-1.414-0.772c-0.507,0-0.936,0.182-1.284,0.545
				c-0.318,0.328-0.477,0.742-0.477,1.239c0,0.526,0.187,0.958,0.562,1.293c0.353,0.316,0.734,0.474,1.146,0.474
				c0.355,0,0.67-0.117,0.946-0.354c0.276-0.236,0.431-0.521,0.465-0.852h-1.177V9.443z"/>
			<path fill="#020202" d="M45.128,7.855h-1.892v1.129h1.833v0.668h-1.833v1.575h1.892v0.668h-2.603v-4.71h2.603V7.855z"/>
		</g>
		<g>
			<path fill="#020202" d="M14.278,17.51l0.5-2.555l0.816,1.848l0.844-1.848l0.449,2.555h-0.367l-0.228-1.434l-0.704,1.545
				l-0.686-1.546l-0.253,1.435H14.278z"/>
			<path fill="#020202" d="M19.32,16.933h-1.017l-0.264,0.577h-0.387l1.177-2.527l1.133,2.527h-0.392L19.32,16.933z M19.176,16.596
				l-0.354-0.809l-0.369,0.809H19.176z"/>
			<path fill="#020202" d="M22.106,15.473h-0.954v0.568h0.924v0.339h-0.924v0.794h0.954v0.336h-1.312v-2.375h1.312V15.473z"/>
			<path fill="#020202" d="M24.454,15.489l-0.29,0.172c-0.044-0.07-0.081-0.12-0.114-0.149c-0.06-0.056-0.14-0.084-0.24-0.084
				c-0.104,0-0.189,0.03-0.254,0.09c-0.063,0.058-0.094,0.126-0.094,0.206s0.038,0.146,0.113,0.197
				c0.034,0.025,0.068,0.045,0.1,0.06c0.032,0.015,0.126,0.055,0.283,0.118c0.198,0.082,0.34,0.177,0.425,0.288
				c0.088,0.116,0.132,0.254,0.132,0.412c0,0.228-0.08,0.417-0.242,0.563c-0.139,0.131-0.313,0.195-0.521,0.195
				c-0.269,0-0.475-0.105-0.622-0.318c-0.068-0.1-0.114-0.229-0.137-0.383l0.362-0.081c0.015,0.122,0.037,0.208,0.067,0.261
				c0.031,0.056,0.078,0.1,0.141,0.133c0.062,0.033,0.129,0.051,0.202,0.051c0.121,0,0.218-0.045,0.293-0.129
				c0.064-0.075,0.098-0.164,0.098-0.269c0-0.134-0.056-0.237-0.166-0.313c-0.039-0.026-0.075-0.047-0.109-0.063
				c-0.034-0.016-0.132-0.057-0.294-0.125c-0.325-0.137-0.487-0.338-0.487-0.604c0-0.211,0.09-0.378,0.271-0.496
				c0.133-0.087,0.279-0.131,0.442-0.131c0.143,0,0.266,0.032,0.368,0.096C24.282,15.251,24.374,15.351,24.454,15.489z"/>
			<path fill="#020202" d="M26.169,15.473v2.037h-0.358v-2.037h-0.547v-0.338h1.449v0.338H26.169z"/>
			<path fill="#020202" d="M28.388,16.498l0.735,1.013h-0.438l-0.679-0.972h-0.064v0.972h-0.358v-2.375h0.419
				c0.153,0,0.278,0.011,0.373,0.031s0.18,0.057,0.254,0.107c0.089,0.059,0.159,0.141,0.211,0.244
				c0.049,0.099,0.072,0.204,0.072,0.315c0,0.166-0.047,0.31-0.145,0.431C28.672,16.386,28.545,16.466,28.388,16.498z
				 M27.942,16.225h0.115c0.157,0,0.276-0.027,0.356-0.085c0.1-0.07,0.149-0.171,0.149-0.304c0-0.123-0.046-0.217-0.139-0.281
				c-0.079-0.055-0.197-0.082-0.355-0.082h-0.127V16.225z"/>
			<path fill="#020202" d="M31.075,15.091c0.359,0,0.662,0.135,0.908,0.404c0.219,0.236,0.327,0.514,0.327,0.832
				c0,0.217-0.055,0.422-0.165,0.612c-0.109,0.188-0.258,0.337-0.447,0.446c-0.195,0.113-0.408,0.172-0.641,0.172
				c-0.205,0-0.402-0.053-0.59-0.152c-0.227-0.125-0.395-0.293-0.506-0.507c-0.09-0.173-0.135-0.368-0.135-0.585
				c0-0.338,0.127-0.629,0.38-0.871C30.444,15.214,30.733,15.096,31.075,15.091z M31.073,15.427c-0.279,0-0.505,0.104-0.676,0.313
				c-0.138,0.169-0.207,0.361-0.207,0.576c0,0.264,0.088,0.48,0.265,0.65c0.175,0.166,0.378,0.252,0.607,0.252
				c0.164,0,0.317-0.043,0.458-0.127c0.144-0.084,0.253-0.199,0.327-0.342c0.067-0.129,0.103-0.271,0.103-0.426
				c0-0.25-0.085-0.463-0.253-0.639C31.535,15.518,31.327,15.433,31.073,15.427z"/>
		</g>
	</g>
</g>
</svg>
