<svg xmlns="http://www.w3.org/2000/svg" width="46.733" height="23.107" viewBox="0 0 46.733 23.107"><g fill-rule="evenodd" clip-rule="evenodd" fill="#231F20"><path d="M3.28 15.84c-.39 0-.954.065-1.341.059-.316-.006-.281-.298 0-.331.623-.068 1.116-.171 1.119-.747-.041-2.297.059-4.432.384-6.479-.003-.575-.531-.675-1.154-.746-.28-.03-.316-.325 0-.331.387-.006.951.05 1.341.059h.647c.28.003.375.189.464.375l2.418 5.103c.115.245.266.216.343.003l1.869-5.07c.121-.334.325-.511.647-.496.248.015.493.03.741.027.39-.003.78-.065 1.166-.059.316.006.281.325 0 .354-.623.071-.918.127-.927.537l.062 6.724c.012.413.242.656.865.723.281.032.316.348 0 .354l-1.048-.059h-1.125l-1.048.059c-.316-.006-.281-.322 0-.354.623-.068.853-.31.865-.723l-.078-5.038c-.006-.41-.154-.467-.295-.092l-2.209 5.797c-.162.428-.278.281-.408-.021l-2.507-5.731c-.139-.322-.275-.284-.283.014-.065 2.324-.047 3.957.053 5.07.003.576.535.679 1.158.747.278.033.313.325 0 .331-.39.006-.954-.059-1.341-.059h-.378zM23.406 15.84c-.387 0-.951.065-1.341.059-.316-.006-.278-.298 0-.331.623-.068 1.119-.171 1.122-.747-.041-2.297.059-4.432.384-6.479-.003-.576-.534-.676-1.158-.747-.278-.03-.316-.325 0-.331.39-.006.954.05 1.341.059h.65c.28.003.375.189.461.375l2.418 5.103c.115.245.266.216.345.003l1.866-5.07c.124-.334.328-.511.647-.496.248.015.496.03.744.027.387-.003.777-.065 1.166-.059.316.006.278.325 0 .354-.623.071-.918.127-.93.537l.065 6.724c.009.413.242.656.865.723.278.032.316.348 0 .354l-1.051-.059h-1.122l-1.051.059c-.313-.006-.278-.322 0-.354.623-.068.856-.31.865-.723l-.077-5.038c-.006-.41-.154-.467-.295-.092l-2.206 5.797c-.162.428-.278.281-.41-.021l-2.504-5.732c-.142-.322-.275-.283-.283.015-.068 2.324-.05 3.957.053 5.07.003.576.531.679 1.155.747.281.033.316.325 0 .331-.387.006-.951-.059-1.341-.059l-.378.001zM11.997 11.869c.34-.833 1.19-1.29 1.704-1.406.791-.18 1.311-.012 1.727.233.313.186.393.596.393 1.172v2.982c0 .248.092.481.405.505.097.009.162.092.086.171-.366.387-1.016.543-1.465-.189-.05-.083-.198-.077-.283-.018-.34.236-.638.464-1.004.591-.387.133-.753.183-1.134-.201-.157-.156-.257-.289-.26-.794 0-.496.13-.738.378-.986.331-.331.898-.715 1.344-.883.295-.112.526-.213.721-.34.118-.08.192-.213.195-.422.006-.673-.065-1.237-.39-1.373-.278-.115-.573-.221-.942-.012-.233.133-.351.472-.537.924-.133.319-.452.576-.797.464-.156-.049-.233-.191-.141-.418zm1.467 1.895c.086-.151.233-.304.461-.437.145-.089.301-.168.475-.227.278-.097.393.038.402.245.018.331.009.664-.024.992-.035.351-.165.623-.289.72-.322.26-.735.328-.924.162-.496-.439-.37-.985-.101-1.455zM32.106 11.869c.337-.833 1.187-1.29 1.701-1.406.794-.18 1.311-.012 1.73.233.31.186.393.596.393 1.172l-.003 2.982c0 .248.095.481.405.505.1.009.162.092.086.171-.366.387-1.016.543-1.462-.189-.05-.083-.201-.077-.286-.018-.34.236-.638.464-1.004.591-.384.133-.753.183-1.131-.201-.159-.156-.26-.289-.26-.794-.003-.496.127-.738.378-.986.328-.331.895-.715 1.341-.883.298-.112.526-.213.72-.34.118-.08.192-.213.195-.422.009-.673-.062-1.237-.39-1.373-.278-.115-.57-.221-.939-.012-.233.133-.351.472-.54.924-.133.319-.452.576-.794.464-.158-.049-.235-.191-.14-.418zm1.464 1.895c.086-.151.233-.304.461-.437.148-.089.304-.168.475-.227.278-.097.393.038.405.245.015.331.006.664-.027.992-.033.351-.165.623-.289.72-.322.26-.732.328-.921.162-.499-.439-.373-.985-.104-1.455zM40.743 11.869c.337-.833 1.187-1.29 1.701-1.406.794-.18 1.314-.012 1.73.233.313.186.393.596.393 1.172v2.982c0 .248.092.481.405.505.097.009.162.092.086.171-.369.387-1.016.543-1.465-.189-.05-.083-.198-.077-.283-.018-.34.236-.638.464-1.004.591-.387.133-.753.183-1.134-.201-.157-.156-.26-.289-.26-.794-.003-.496.13-.738.378-.986.331-.331.895-.715 1.341-.883.298-.112.529-.213.72-.34.121-.08.195-.213.195-.422.009-.673-.062-1.237-.387-1.373-.28-.115-.573-.221-.942-.012-.233.133-.351.472-.54.924-.133.319-.452.576-.794.464-.158-.049-.235-.191-.14-.418zm1.467 1.895c.086-.151.233-.304.458-.437.148-.089.304-.168.475-.227.28-.097.393.038.405.245.018.331.006.664-.024.992-.035.351-.168.623-.289.72-.322.26-.735.328-.924.162-.496-.439-.372-.985-.101-1.455zM20.034 10.747c.626.018 1.199.021 1.825 0 .213-.009.233.254 0 .286-.499.068-.833.319-1.134.659-.322.363-.632.679-.924 1.042l-.047.056c-.068.074-.068.219-.012.298l1.308 1.866c.337.375.446.579.998.655.263.035.154.284-.08.272-.676-.035-1.648-.059-2.359-.027-.174.006-.207-.233-.033-.281.292-.08.443-.242.033-.815l-.535-.694c-.065-.083-.192-.221-.322-.065l-.186.227c-.434.552-.844 1.143-.136 1.341.177.047.145.292-.029.286-.715-.033-1.335-.009-2.011.027-.236.012-.343-.236-.083-.272.555-.077.98-.402 1.317-.78l.909-1.075c.124-.145.103-.248-.003-.408l-1.104-1.645c-.266-.369-.428-.602-.927-.67-.236-.032-.213-.295 0-.286.626.021 1.722.018 2.348 0 .157-.006.171.186.015.23-.467.13-.375.328-.009.844l.478.685c.038.05.148.059.189.009l.251-.304c.396-.496.874-1.054.236-1.234-.159-.041-.129-.233.027-.227zM38.112 15.761c-.387 0-.951.145-1.341.139-.316-.006-.278-.298 0-.331.623-.068.703-.372.706-.803v-2.548c0-.328-.044-.579-.399-.729-.257-.109-.245-.275-.012-.387.378-.183.771-.458 1.166-.806.157-.139.245-.097.269.151l.03.511c.021.263.157.245.26.139.372-.387.685-.576 1.013-.641.455-.092.75.109.847.275.263.449.1.859-.171 1.016-.313.18-.602.05-.839-.136-.157-.124-.307-.242-.464-.227-.537.056-.611.508-.611.853v2.548c.003.576.467.653 1.09.72.281.032.316.31 0 .313-.514-.04-1.028-.057-1.544-.057z"/></g></svg>