<?xml version="1.0" standalone="no"?>
<!DOCTYPE svg PUBLIC "-//W3C//DTD SVG 20010904//EN"
 "http://www.w3.org/TR/2001/REC-SVG-20010904/DTD/svg10.dtd">
<svg version="1.0" xmlns="http://www.w3.org/2000/svg"
 width="4205.000000pt" height="993.000000pt" viewBox="0 0 4205.000000 993.000000"
 preserveAspectRatio="xMidYMid meet">

<g transform="translate(0.000000,993.000000) scale(0.100000,-0.100000)"
fill="#000000" stroke="none">
<path d="M27445 9919 c-1384 -59 -2658 -656 -3534 -1655 -685 -781 -1082
-1725 -1182 -2814 -19 -197 -16 -714 5 -940 91 -1000 403 -1850 937 -2551 256
-335 595 -668 929 -910 775 -563 1752 -912 2839 -1014 1130 -105 2114 56 3006
495 1208 594 2070 1637 2445 2960 193 685 250 1455 159 2180 -115 922 -467
1744 -1038 2425 -109 130 -388 411 -521 525 -841 719 -1926 1158 -3154 1275
-147 14 -611 37 -681 33 -16 0 -111 -5 -210 -9z m655 -334 c891 -108 1655
-474 2304 -1105 821 -798 1360 -1957 1506 -3239 120 -1058 -37 -1958 -488
-2795 -594 -1104 -1626 -1872 -2782 -2071 -286 -49 -660 -68 -935 -46 -1123
89 -2082 661 -2806 1674 -581 813 -945 1857 -1029 2952 -14 180 -14 625 0 785
119 1374 833 2624 1892 3314 322 209 688 370 1041 456 186 46 323 68 582 94
95 10 587 -4 715 -19z"/>
<path d="M0 9630 c0 -33 1 -60 3 -60 1 0 186 -40 412 -89 l410 -88 3 -4426 c2
-4209 1 -4426 -15 -4431 -10 -3 -189 -42 -398 -86 -209 -45 -388 -83 -397 -86
-15 -4 -18 -17 -18 -65 l0 -59 1360 0 1360 0 0 60 c0 54 -2 60 -22 65 -13 3
-197 43 -410 89 -214 45 -390 85 -393 88 -3 2 -4 718 -3 1590 l3 1586 100 -60
c582 -349 1490 -534 2535 -515 353 6 556 31 845 103 768 193 1424 651 1851
1290 280 421 457 919 526 1479 21 172 18 685 -5 855 -92 680 -340 1226 -775
1705 -481 530 -1198 906 -2002 1049 -364 64 -188 60 -2692 63 l-2278 3 0 -60z
m4470 -251 c923 -85 1697 -630 2144 -1508 269 -530 399 -1086 399 -1716 0
-258 -13 -399 -59 -617 -195 -934 -863 -1695 -1739 -1983 -286 -94 -510 -128
-840 -128 -821 1 -1504 250 -1989 722 -189 185 -317 356 -435 582 l-61 116 0
2271 0 2272 1233 0 c793 0 1273 -4 1347 -11z"/>
<path d="M11141 9618 c-137 -471 -784 -2321 -1744 -4988 -460 -1277 -1477
-4080 -1483 -4088 -1 -2 -186 -43 -411 -91 l-408 -88 -3 -61 -3 -62 1066 0
1065 0 0 60 c0 33 -1 60 -2 60 -2 0 -187 40 -413 89 -310 67 -409 92 -407 102
1 8 201 578 445 1267 l442 1252 1799 -2 1800 -3 437 -1260 c371 -1072 434
-1261 420 -1267 -9 -4 -187 -44 -396 -88 -209 -45 -388 -84 -397 -86 -15 -4
-18 -17 -18 -65 l0 -59 1390 0 1390 0 0 59 c0 48 -3 61 -17 65 -10 3 -191 44
-402 90 -211 47 -385 87 -386 88 -2 3 -286 804 -972 2738 -1343 3788 -2233
6336 -2233 6396 0 12 -43 14 -269 14 l-269 0 -21 -72z m797 -3820 l799 -2308
-1648 0 c-975 0 -1649 4 -1649 9 0 7 1625 4608 1656 4691 4 10 13 -3 25 -35
10 -27 378 -1088 817 -2357z"/>
<path d="M15410 9680 c0 -6 -52 -424 -115 -930 -63 -506 -115 -926 -115 -935
0 -12 16 -15 88 -15 l89 0 21 86 c70 273 214 540 404 748 354 387 925 634
1668 720 186 22 401 36 553 36 l127 0 0 -4424 c0 -4205 -1 -4425 -17 -4430
-10 -3 -189 -41 -398 -86 -209 -45 -388 -84 -397 -86 -15 -4 -18 -17 -18 -65
l0 -59 1360 0 1360 0 0 60 c0 55 -2 60 -25 66 -14 3 -197 43 -408 88 l-382 82
-3 4429 -2 4428 217 -6 c760 -23 1355 -180 1800 -477 374 -249 628 -611 736
-1050 l13 -55 93 -3 93 -3 -6 28 c-3 15 -55 431 -116 923 -61 492 -113 905
-115 918 l-5 22 -3250 0 c-2238 0 -3250 -3 -3250 -10z"/>
<path d="M34010 9631 l0 -60 53 -11 c28 -6 214 -46 412 -88 l360 -77 5 -3375
c6 -3708 2 -3458 66 -3840 215 -1291 960 -1996 2269 -2149 160 -19 486 -32
620 -26 723 35 1348 267 1890 701 120 97 341 313 420 411 l50 63 3 -470 2
-470 945 0 945 0 0 59 c0 48 -3 61 -17 65 -10 3 -189 41 -398 86 -209 44 -388
83 -397 86 -17 5 -18 232 -18 4580 l0 4574 -945 0 -945 0 0 -60 c0 -33 1 -60
3 -60 1 0 187 -40 412 -89 l410 -88 0 -3409 c0 -3219 -1 -3416 -18 -3534 -123
-861 -609 -1559 -1331 -1910 -306 -149 -611 -219 -959 -220 -509 -1 -919 153
-1227 462 -389 388 -600 974 -692 1918 -9 94 -13 969 -15 3558 l-3 3432 -950
0 -950 0 0 -59z"/>
</g>
</svg>
