<?xml version="1.0" encoding="utf-8"?>
<!-- Generator: Adobe Illustrator 24.0.1, SVG Export Plug-In . SVG Version: 6.00 Build 0)  -->
<svg version="1.1" id="Layer_1" xmlns="http://www.w3.org/2000/svg" xmlns:xlink="http://www.w3.org/1999/xlink" x="0px" y="0px"
	 viewBox="0 0 440.9 230.64" style="enable-background:new 0 0 440.9 230.64;" xml:space="preserve">
<g>
	<g>
		<path d="M311.14,138.39c-0.34-0.32-0.62-0.48-0.82-0.48c-0.12,0-0.65,0.47-1.57,1.41c-1.18,1.14-2.17,2-2.98,2.58
			c-1.3,0.94-2.41,1.41-3.34,1.41c-0.79,0-1.41-0.25-1.88-0.73c-0.46-0.48-0.69-1.07-0.69-1.77v-1.57c0.05-1.12,0.68-2.92,1.89-5.41
			c0.97-1.98,1.72-3.34,2.25-4.08c2.19-3.01,4.25-5.24,6.15-6.7c1.44-1.1,2.6-1.64,3.46-1.64c0.52,0,0.92,0.18,1.2,0.53
			c0.18,0.24,0.28,0.45,0.28,0.64c0,0.5-0.23,1.13-0.68,1.9c-0.4,0.66-0.79,1.17-1.16,1.51c-0.6,0.55-1.24,0.97-1.93,1.25
			c-0.02,0.01-0.49,0.16-1.4,0.46c-0.37,0.1-0.54,0.26-0.54,0.47c0,0.21,0.13,0.49,0.41,0.81c0.35,0.45,0.78,0.68,1.28,0.68
			c0.57,0,1.37-0.27,2.4-0.82c1.22-0.63,2.24-1.4,3.02-2.31c0.98-1.17,1.48-2.4,1.48-3.73c0-1.13-0.44-2.02-1.34-2.7
			c-0.67-0.53-1.35-0.79-2.03-0.79h-1.09c-2.15,0-4.72,1.12-7.66,3.37c-2.52,1.9-4.35,3.76-5.5,5.59c-1.75,2.8-3.02,5.12-3.79,6.97
			c-0.77,1.85-1.16,3.51-1.16,4.97c0,2.22,0.84,3.84,2.5,4.87c0.67,0.44,1.5,0.73,2.46,0.89h1.75c1.27,0,3.13-0.85,5.57-2.55
			c1.21-0.76,2.24-1.71,3.1-2.82c0.61-0.81,0.92-1.3,0.92-1.48C311.67,138.95,311.49,138.7,311.14,138.39z"/>
		<path d="M348.74,133.75v-1.24c0-0.28-0.14-0.6-0.42-0.97c-0.34-0.45-0.75-0.67-1.22-0.67c-0.38,0-0.77,0.18-1.15,0.55
			c-0.45,0.42-0.67,0.92-0.67,1.5v0.85c0,0.34,0.16,0.65,0.48,0.93c0.31,0.28,0.47,0.48,0.47,0.59c0,0.89-0.49,2.09-1.48,3.6
			c-0.99,1.51-1.75,2.26-2.3,2.26c-0.65-0.12-0.97-0.4-0.97-0.82v-0.82c0-0.64,0.31-1.82,0.92-3.54c0.6-1.72,0.91-2.59,0.91-2.62
			c0-0.62-0.51-0.93-1.52-0.93c-0.81,0-1.43,0.73-1.87,2.18c-0.37,1.36-0.75,2.72-1.12,4.07c-0.57,1.45-1.41,2.17-2.52,2.17
			c-0.22,0-0.4-0.07-0.56-0.23c-0.16-0.16-0.24-0.35-0.24-0.58c0-1.46,0.94-4.27,2.82-8.44c0-0.29-0.21-0.51-0.64-0.65
			c-0.28-0.12-0.59-0.17-0.89-0.17c-0.81,0-1.58,0.69-2.26,2.07c-0.52,1.03-0.97,2.35-1.37,3.97c-0.29,1.24-0.43,2.04-0.43,2.41
			v1.12c0,0.33-0.17,0.55-0.51,0.63c-0.51,0.15-1,0.42-1.5,0.55c-0.42,0.11-0.83-0.05-1.23-0.18c-0.38-0.12-1.37-0.26-1.37-0.83
			c0-0.25,0.32-0.69,0.95-1.31c0.85-0.84,1.43-1.5,1.75-1.98c0.63-0.92,0.95-1.87,0.95-2.87v-1.08c0-0.6-0.29-1.17-0.87-1.7
			c-0.58-0.53-1.24-0.79-1.98-0.79c-1.36,0-2.62,0.59-3.77,1.77c-1.22,1.26-1.84,2.75-1.84,4.45c0,0.84,0.15,1.63,0.45,2.36
			c0.19,0.39,0.4,0.8,0.6,1.2c-0.72,0.46-1.63,0.75-2.45,0.97c-0.62,0.17-1.3,0.02-1.3-0.74c0-0.42,0.28-1.29,0.85-2.61
			c0.55-1.32,0.84-2.19,0.84-2.6c0-0.52-0.26-0.95-0.77-1.29c-0.05-0.04-0.52-0.28-1.41-0.7c-0.51-0.24-0.77-0.5-0.77-0.78v-0.82
			c0-0.44-0.17-0.79-0.51-1.05c-0.25-0.18-0.47-0.28-0.66-0.28c-0.26,0-0.55,0.13-0.87,0.4c-0.36,0.33-0.56,0.7-0.56,1.12v0.72
			c0,0.19,0.11,0.48,0.34,0.89c0,0.51-0.49,1.78-1.48,3.81c-1,2.03-1.68,3.22-2.06,3.55c-0.24,0.21-0.49,0.36-0.75,0.43
			c-0.26,0.08-0.4,0.14-0.43,0.21c-0.11,0.45-0.19,0.89-0.25,1.33c1.65-0.25,3.07-1.39,4.22-3.42c0.4-0.7,0.85-1.77,1.37-3.21
			c0.37-1.07,0.64-1.6,0.81-1.6c0.18,0,0.43,0.14,0.72,0.42c0.3,0.28,0.45,0.55,0.45,0.82c0-0.03-0.27,0.64-0.8,2.01
			c-0.54,1.37-0.81,2.28-0.81,2.73c0,0.69,0.24,1.23,0.71,1.63c1.12,0.95,2.77,0.62,4.06,0.27c0.64-0.17,1.28-0.35,1.93-0.52
			c0.28-0.08,0.66-0.26,0.96-0.26c0.2,0,0.71,0.19,1.53,0.56c0.82,0.37,1.65,0.56,2.5,0.56c0.07,0,0.12-0.02,0.18-0.03
			c0.16-0.04,0.53,0.05,0.74,0.03c0.54-0.05,0.94-0.29,1.41-0.5c0.33-0.15,0.72-0.22,1.04-0.4c0.02,0,0.3,0.17,0.81,0.5
			c0.52,0.33,1.02,0.5,1.5,0.5c0.47,0,0.97-0.15,1.53-0.46c0.36-0.2,0.76-0.47,1.23-0.81c0.38-0.31,0.59-0.46,0.62-0.46
			c0.04,0,0.17,0.15,0.39,0.46c0.28,0.36,0.55,0.63,0.81,0.81c0.42,0.31,0.89,0.46,1.4,0.46h0.98c1.03,0,2.09-0.72,3.17-2.17
			c0.85-1.14,1.62-2.57,2.33-4.28C348.44,135.27,348.74,134.27,348.74,133.75z M327.07,138.67c-0.32-0.49-0.49-0.93-0.49-1.33v-0.87
			c0-0.65,0.26-1.36,0.79-2.14c0.52-0.78,1.04-1.16,1.57-1.16c0.26,0,0.48,0.09,0.63,0.29c0.17,0.2,0.24,0.43,0.24,0.7
			C329.7,135.56,328.79,137.07,327.07,138.67z"/>
		<path d="M349.06,141.42c-0.45,0-0.8,0.21-1.05,0.65c-0.17,0.3-0.26,0.6-0.26,0.89c0,0.36,0.13,0.65,0.39,0.85
			c0.21,0.18,0.46,0.27,0.73,0.27c0.38,0,0.71-0.15,0.97-0.46c0.27-0.31,0.4-0.67,0.4-1.08
			C350.25,141.8,349.85,141.42,349.06,141.42z"/>
	</g>
	<g>
		<path d="M108.31,143.79v-8.95h4.48V90.1h-4.48v-8.95h35.1l7.16,7.16v21.47l-7.16,7.16h-21.68v17.89h4.47v8.95H108.31z M121.73,108
			h19.89V90.1h-19.89V108z"/>
		<path d="M160.37,143.79v-8.95h4.48V90.1h-4.48v-8.95h17.89v8.95h-4.47V108h17.89V90.1h-4.47v-8.95h17.89v8.95h-4.47v44.74h4.47
			v8.95h-17.89v-8.95h4.47v-17.89h-17.89v17.89h4.47v8.95H160.37z"/>
		<path d="M216.91,143.79v-8.95h4.48V90.1h-4.48v-8.95h17.89v8.95h-4.47v44.74h4.47v8.95H216.91z"/>
		<path d="M246.6,94.58V81.16h38.76v8.95l-27.13,44.74h18.18v-4.47h8.95v13.42H246.6v-8.95l27.13-44.74h-18.18v4.47H246.6z"/>
	</g>
</g>
</svg>
