<svg xmlns="http://www.w3.org/2000/svg" width="46.733" height="23.107" viewBox="0 0 46.733 23.107"><g fill="#231F20"><path d="M5.715 13.181h-1.568v3.782h-2.12v-9.576h4.297c2.233 0 3.507 1.26 3.507 2.851 0 1.007-.608 2.32-1.981 2.689l2.475 4.037h-2.531l-2.079-3.783zm.17-1.554c1.456 0 1.823-.7 1.823-1.312 0-.688-.368-1.299-1.895-1.299h-1.666v2.611h1.738zM18.197 14.964h-3.888l-.693 2h-2.291l3.875-9.577h2.233l3.817 9.577h-2.332l-.721-2zm-1.923-5.273h-.029l-1.342 3.72h2.728l-1.357-3.72zM29.289 7.387h2.122v5.603c0 2.994-2.108 4.151-4.426 4.151-2.32 0-4.427-1.157-4.427-4.151v-5.603h2.121v5.616c0 1.592.792 2.432 2.306 2.432 1.512 0 2.304-.839 2.304-2.432v-5.616zM42.75 10.571h-.028l-2.649 6.392h-1.188l-2.648-6.266h-.027v6.266h-2.101v-9.576h2.416l2.954 6.52 2.954-6.52h2.418v9.576h-2.101z"/></g></svg>