<svg xmlns="http://www.w3.org/2000/svg" width="46.733" height="23.107" viewBox="0 0 46.733 23.107"><g fill="#231F20"><path d="M5.737 8.16h-1.562v3.768h-2.115v-9.541h4.283c2.225 0 3.494 1.256 3.494 2.842 0 1.003-.605 2.31-1.972 2.677l2.464 4.022h-2.521l-2.071-3.768zm.169-1.55c1.451 0 1.816-.697 1.816-1.307 0-.684-.365-1.294-1.888-1.294h-1.659v2.601h1.731zM18.173 9.936h-3.874l-.691 1.991h-2.283l3.863-9.541h2.226l3.804 9.541h-2.326l-.719-1.991zm-1.917-5.252h-.029l-1.337 3.704h2.72l-1.354-3.704zM29.225 2.387h2.114v5.583c0 2.98-2.102 4.135-4.41 4.135-2.312 0-4.409-1.155-4.409-4.135v-5.583h2.111v5.596c0 1.584.79 2.421 2.298 2.421 1.507 0 2.296-.837 2.296-2.421v-5.596zM42.637 5.559h-.028l-2.64 6.368h-1.181l-2.642-6.243h-.026v6.243h-2.094v-9.54h2.408l2.944 6.495 2.942-6.495h2.41v9.54h-2.093z"/></g><g fill="#6D6F71"><path d="M6.901 16.353h-3.434v1.378h3.152v1.127h-3.152v1.668h3.593v1.166h-4.917v-6.488h4.758v1.149zM13.135 15.345c.455.15.824.424 1.106.823.226.323.38.672.463 1.047.082.376.123.734.123 1.075 0 .862-.173 1.593-.519 2.192-.47.807-1.195 1.21-2.177 1.21h-2.798v-6.488h2.797c.403.006.738.053 1.005.141zm-2.486.986v4.235h1.252c.641 0 1.087-.315 1.34-.946.138-.346.207-.759.207-1.237 0-.66-.104-1.167-.31-1.521-.208-.354-.62-.531-1.237-.531h-1.252zM18.298 21.692h-1.347v-6.488h1.347v6.488zM25.497 15.204v1.149h-1.941v5.339h-1.365v-5.339h-1.95v-1.149h5.256zM28.743 21.692h-1.347v-6.488h1.347v6.488zM36.224 21.116c-.49.504-1.199.757-2.126.757-.928 0-1.637-.253-2.126-.757-.658-.619-.986-1.512-.986-2.677 0-1.189.329-2.081.986-2.676.49-.505 1.199-.757 2.126-.757.927 0 1.636.252 2.126.757.654.596.982 1.488.982 2.676 0 1.165-.327 2.058-.982 2.677zm-.847-.986c.315-.396.473-.959.473-1.69 0-.728-.158-1.29-.473-1.688-.315-.398-.742-.597-1.278-.597-.537 0-.966.198-1.286.594-.32.396-.48.96-.48 1.69 0 .731.16 1.294.48 1.69.32.396.749.595 1.286.595.536 0 .963-.198 1.278-.594zM39.436 15.204h1.422l2.576 4.524v-4.524h1.263v6.488h-1.355l-2.642-4.604v4.604h-1.263v-6.488z"/></g></svg>