<?xml version="1.0" standalone="no"?>
<!DOCTYPE svg PUBLIC "-//W3C//DTD SVG 20010904//EN"
 "http://www.w3.org/TR/2001/REC-SVG-20010904/DTD/svg10.dtd">
<svg version="1.0" xmlns="http://www.w3.org/2000/svg"
 width="860.000000pt" height="507.000000pt" viewBox="0 0 860.000000 507.000000"
 preserveAspectRatio="xMidYMid meet">

<g transform="translate(0.000000,507.000000) scale(0.100000,-0.100000)"
fill="#000000" stroke="none">
<path d="M1000 2536 l0 -536 193 0 c253 1 285 14 327 133 16 45 20 82 20 184
0 137 -13 187 -58 227 l-21 18 23 32 c39 51 49 102 45 232 -5 137 -22 185 -80
219 -30 18 -55 20 -241 23 l-208 3 0 -535z m306 309 c11 -17 17 -47 17 -90 0
-83 -17 -105 -80 -105 l-43 0 0 110 0 110 45 0 c37 0 47 -4 61 -25z m8 -420
c33 -34 33 -180 -1 -217 -13 -14 -28 -18 -62 -16 l-46 3 -3 123 -3 122 50 0
c31 0 55 -6 65 -15z"/>
<path d="M1656 3053 c-3 -10 -4 -250 -3 -533 l2 -515 103 -3 102 -3 -2 533 -3
533 -97 3 c-85 2 -97 1 -102 -15z"/>
<path d="M1990 3058 c-1 -7 -1 -242 0 -523 0 -280 0 -516 0 -522 0 -10 27 -13
100 -13 l100 0 1 213 0 212 29 -75 c16 -41 53 -136 83 -210 l53 -135 108 -3
108 -3 -6 24 c-3 13 -41 111 -84 218 l-79 194 39 28 c69 49 82 94 82 287 0
152 -1 169 -23 212 -44 93 -92 108 -333 108 -136 0 -178 -3 -178 -12z m313
-206 c14 -12 17 -32 17 -102 0 -98 -10 -121 -55 -122 -81 -2 -75 -12 -75 121
0 106 2 120 18 124 27 6 75 -4 95 -21z"/>
<path d="M2655 3058 c-3 -7 -4 -247 -3 -533 l3 -520 102 -3 103 -3 2 208 3
207 54 -139 c30 -77 65 -170 79 -207 l25 -68 108 0 c60 0 109 3 109 8 0 4 -48
129 -106 278 l-106 270 96 248 c53 136 96 252 96 257 0 13 -207 11 -216 -2 -3
-6 -37 -95 -75 -197 l-68 -187 -3 195 -3 195 -98 3 c-72 2 -99 -1 -102 -10z"/>
<path d="M3295 3058 c-3 -7 -4 -247 -3 -533 l3 -520 253 -3 252 -2 0 95 c0 93
-1 96 -26 105 -14 6 -79 10 -145 10 l-119 0 0 115 0 114 88 3 87 3 0 100 0
100 -87 3 -88 3 0 104 0 105 114 0 c62 0 128 3 145 6 l32 7 -3 96 -3 96 -248
3 c-193 2 -249 0 -252 -10z"/>
<path d="M3917 3063 c-4 -3 -7 -244 -7 -535 l0 -528 100 0 c55 0 100 3 100 8
0 4 1 116 2 249 1 134 3 241 6 239 2 -3 48 -114 101 -248 l97 -243 97 -3 97
-3 0 536 0 535 -100 0 c-55 0 -100 -3 -100 -7 -1 -5 -1 -113 -2 -241 0 -128
-2 -231 -3 -230 -1 2 -44 104 -95 228 -51 124 -97 231 -103 238 -10 13 -178
18 -190 5z"/>
<path d="M4760 3061 c-117 -36 -177 -139 -168 -284 7 -101 39 -158 157 -281
53 -56 105 -113 114 -128 24 -38 22 -99 -4 -132 -19 -24 -25 -26 -107 -26 -48
0 -104 -3 -124 -6 l-38 -7 0 -98 0 -99 166 0 c186 0 211 6 265 68 81 92 98
265 38 390 -13 25 -68 93 -124 151 -147 153 -158 175 -112 225 19 21 32 25 92
27 107 4 106 4 103 112 l-3 92 -115 2 c-63 1 -126 -2 -140 -6z"/>
<path d="M5097 3063 c-4 -3 -7 -48 -7 -99 l0 -93 34 -6 c18 -4 46 -6 62 -4 16
1 41 1 56 1 l28 -2 2 -427 3 -428 108 -3 107 -3 0 431 0 430 58 2 c52 1 75 3
110 7 9 1 12 28 12 101 l0 100 -283 0 c-156 0 -287 -3 -290 -7z"/>
<path d="M5877 3056 c-92 -25 -163 -112 -188 -231 -14 -68 -20 -424 -9 -509
22 -159 67 -242 155 -286 45 -23 62 -25 175 -25 103 0 131 3 160 19 75 39 118
99 147 201 20 69 29 423 14 536 -16 123 -36 174 -90 230 -34 35 -60 51 -100
63 -65 19 -196 20 -264 2z m211 -210 c32 -31 45 -164 39 -381 -5 -206 -15
-237 -77 -256 -53 -16 -106 -3 -134 34 -26 36 -33 124 -26 374 5 175 7 194 26
220 34 46 129 51 172 9z"/>
<path d="M6614 3052 c-163 -57 -216 -197 -210 -557 5 -262 44 -382 144 -446
63 -40 101 -49 210 -49 l92 0 0 99 0 98 -37 7 c-21 3 -55 6 -76 6 -77 0 -102
34 -116 162 -9 82 -7 267 4 364 7 61 36 112 67 118 13 3 54 8 91 11 l68 7 -3
96 -3 97 -90 2 c-65 2 -104 -2 -141 -15z"/>
<path d="M6925 3058 c-3 -7 -4 -247 -3 -533 l3 -520 100 0 100 0 5 205 c4 181
7 201 18 170 7 -19 42 -113 79 -207 l67 -173 108 0 c59 0 108 3 108 8 0 9 -27
79 -134 349 -42 106 -76 195 -76 198 0 2 43 115 95 251 52 136 95 251 95 256
0 13 -208 10 -216 -4 -4 -6 -38 -95 -75 -197 l-68 -186 -3 195 -3 195 -98 3
c-72 2 -99 -1 -102 -10z"/>
<path d="M7429 2621 c-64 -65 -20 -171 71 -171 33 0 48 6 71 29 64 65 20 171
-71 171 -33 0 -48 -6 -71 -29z m126 -16 c43 -43 26 -115 -31 -129 -86 -22
-135 87 -62 138 32 23 65 20 93 -9z"/>
<path d="M7460 2551 c0 -60 16 -84 27 -41 7 25 11 25 33 -2 20 -26 37 -19 22
8 -7 12 -6 24 1 36 18 28 -3 52 -47 56 l-36 3 0 -60z m60 18 c0 -5 -7 -9 -15
-9 -8 0 -15 7 -15 15 0 9 6 12 15 9 8 -4 15 -10 15 -15z"/>
</g>
</svg>
