<svg width="113" height="80" xmlns="http://www.w3.org/2000/svg" xmlns:svg="http://www.w3.org/2000/svg" version="1.1" xml:space="preserve" viewBox="0 0 1122 793"> <metadata id="metadata8">image/svg+xml</metadata> <defs id="defs6">  <clipPath clipPathUnits="userSpaceOnUse" id="clipPath18">   <path d="m31.2,566.02l841.89,0l0,-595.28l-841.89,0l0,595.28z" id="path16" />  </clipPath> </defs> <g class="layer">  <title>Layer 1</title>  <g id="g10" transform="matrix(5.84713 0 0 -5.84713 -2075.54 1967.71)">   <g id="g12">    <g clip-path="url(#clipPath18)" id="g14">     <g id="g20" transform="translate(408.176 270.289)">      <path d="m31.2,-29.26c-12.2,-0.39 -11.91,15.57 -11.89,16.25l-1.11,15.44c7.07,3.8 14.93,12.89 12.42,21.53c-1.65,5.69 -7.99,7.95 -13.1,7.19c-5.41,-0.8 -10.13,-4.22 -13.64,-7.12c-3.5,-2.88 -6.93,-5.47 -10.56,-5.2c-4.13,0.28 -7.69,3.52 -9.94,6.19c-0.7,0.83 -1.99,0.87 -2.89,0.09c-0.91,-0.78 -1.07,-2.08 -0.37,-2.9c2.71,-3.21 7.08,-7.11 12.54,-7.48c5.63,-0.36 10.47,3.61 13.67,6.24c3.04,2.51 7.1,5.48 11.41,6.12c3.57,0.52 7.88,-1.05 8.91,-4.61c1.93,-6.66 -5.27,-14.42 -11.28,-17.04c-1.55,-0.68 -3.23,-0.81 -4.99,-0.86c0.49,1.39 0.94,2.77 1.38,4.11l0.39,1.24c1.62,5.11 2.73,8.37 3.28,9.69c0.45,1.08 -0.03,2.24 -1.08,2.59c-1.04,0.34 -2.26,-0.25 -2.71,-1.33c-0.91,-2.17 -2.79,-8.11 -3.41,-10.06l-0.39,-1.22c-1.85,-5.73 -3.95,-12.23 -8.7,-16.03c-2.29,-1.83 -4.64,-2.63 -6.96,-2.38c-2.76,0.29 -5.33,2.04 -7.24,4.91c-0.6,0.91 -1.87,1.09 -2.83,0.4c-0.97,-0.68 -1.27,-1.97 -0.68,-2.87c2.51,-3.8 6.04,-6.11 9.93,-6.53c0.41,-0.04 0.83,-0.06 1.24,-0.06c3.04,0 6.1,1.17 8.93,3.43c3.38,2.7 5.58,6.24 7.23,9.97l0.21,0.01c1.68,0.02 3.41,0.06 5.18,0.44l1.04,-14.28c-0.19,-7.05 2.76,-19.99 15.14,-19.98c0.2,0 0.41,0 0.62,0.01c1.14,0.03 2.11,0.98 2.18,2.12c0.07,1.13 -0.78,2.06 -1.93,1.98" fill="#29292a" fill-rule="nonzero" id="path22" />     </g>     <g id="g24" transform="translate(476.787 322.921)">      <path d="m31.2,-29.26c-1.32,-0.77 -3.37,-1.54 -5.55,-0.66c-0.72,0.29 -1.4,0.8 -2.13,1.35c-1.35,1.02 -2.88,2.17 -5.14,2.3c-0.45,0.03 -0.91,0.02 -1.38,-0.02c1.22,2.88 2.27,5.4 3.03,7.2c0.01,0 0.02,0 0.03,0c0.94,0.38 2,0.56 2.99,0.5c1.09,-0.06 2.01,-0.75 3.08,-1.55c0.84,-0.64 1.79,-1.36 2.95,-1.83c1.11,-0.45 2.28,-0.67 3.47,-0.67c0.49,0 0.99,0.06 1.48,0.13c-0.94,-2.25 -1.88,-4.5 -2.83,-6.75m-47.48,-27.34c-4.4,-4.67 -9.63,-7.14 -14.79,-7.01c-1.74,0.04 -7.5,0.54 -8.56,4.94c-0.15,0.64 -0.2,1.36 -0.14,2.14c0.21,2.94 3.13,4.9 5.55,6.03c2.99,1.4 6.2,2.1 9.44,2.1c3.36,0 6.73,-0.76 9.88,-2.27c0.78,-0.37 1.58,-0.76 2.42,-1.15c-1.12,-1.66 -2.38,-3.28 -3.8,-4.79m56.36,38.69c-0.04,0.21 -0.09,0.42 -0.22,0.59c-0.12,0.15 -0.28,0.28 -0.44,0.39c-0.33,0.21 -0.74,0.31 -1.15,0.28c-0.47,-0.03 -0.9,-0.26 -1.3,-0.52c-0.31,-0.2 -0.64,-0.4 -0.97,-0.57c-0.78,-0.39 -1.61,-0.66 -2.46,-0.75c-0.9,-0.09 -1.79,0.03 -2.6,0.36c-0.72,0.29 -1.4,0.81 -2.13,1.36c-1.35,1.01 -2.88,2.16 -5.14,2.29c-1.31,0.08 -2.66,-0.09 -3.97,-0.43c-1.22,-0.32 -2.69,-0.77 -3.28,-2.05c-0.3,-0.64 -0.55,-1.31 -0.83,-1.97c-0.71,-1.69 -1.41,-3.37 -2.12,-5.06c-0.87,-2.06 -1.74,-4.13 -2.6,-6.19c-0.96,-2.28 -1.92,-4.56 -2.88,-6.84c-0.98,-2.35 -1.97,-4.69 -2.95,-7.03c-0.2,-0.48 -1.44,-3.47 -3.27,-7.9c-0.2,0.01 -0.4,0.03 -0.57,0.05c-2.63,0.33 -5.29,1.17 -7.81,2.17c1.35,2.44 2.44,4.83 3.36,6.95c2.46,5.67 4.9,11.33 7.34,17l3.37,7.72c0.46,1.08 -0.01,2.24 -1.05,2.6c-1.05,0.37 -2.26,-0.22 -2.72,-1.29l-3.37,-7.73c-0.25,-0.56 -0.49,-1.13 -0.74,-1.7c-0.42,-0.97 -1.02,-1.99 -1.6,-2.89c-0.59,-0.93 -1.28,-1.82 -2.04,-2.63c-1.5,-1.6 -3.33,-2.96 -5.38,-3.71c-0.54,-0.2 -1.09,-0.35 -1.65,-0.45c-0.06,-0.01 -0.13,-0.02 -0.2,-0.03c-3.98,-0.63 -7.59,1.59 -8.39,5.16c-0.79,3.48 0.63,7.35 2.21,11.15c0.1,0.22 0.18,0.43 0.29,0.65c2.22,4.81 4.28,8.69 6.48,12.21c4.66,7.51 10.2,6.82 10.41,6.79l0.27,-0.02c1.75,-0.06 3.74,-0.93 4.06,-3.23c0.12,-0.85 -0.08,-1.78 -0.5,-2.35c-0.23,-0.32 -0.5,-0.49 -0.88,-0.57c-1.13,-0.23 -1.94,-1.32 -1.82,-2.43c0.12,-1.11 1.14,-1.82 2.28,-1.59c1.48,0.3 2.75,1.13 3.67,2.38c1.11,1.51 1.61,3.56 1.34,5.5c-0.52,3.72 -3.47,6.22 -7.53,6.39c-0.99,0.11 -6.08,0.43 -11.13,-4.41c-0.1,-0.04 -0.21,-0.07 -0.31,-0.12c-2.91,-1.42 -5.7,-1.89 -7.87,-1.33c-1.96,0.51 -3.72,1.63 -5.5,2.84c-6.22,4.24 -15.9,4.48 -21.3,-2.42c-0.68,-0.87 -1.25,-1.82 -1.7,-2.83c-1.16,-2.61 -1.46,-5.52 -0.85,-8.18c0.15,-0.68 0.36,-1.38 0.62,-2.14c0.26,-0.77 0.97,-1.23 1.76,-1.23c0.28,0 0.56,0.06 0.84,0.17c1.08,0.46 1.67,1.67 1.31,2.71c-0.21,0.63 -0.38,1.2 -0.5,1.75c-0.42,1.82 -0.22,3.8 0.57,5.57c0.29,0.66 0.67,1.28 1.11,1.85c4.19,5.36 11.65,3.98 15.6,1.29c1.98,-1.34 4.12,-2.71 6.66,-3.36c1.8,-0.47 3.61,-0.43 5.31,-0.14c-2.06,-3.42 -4.02,-7.16 -6.12,-11.68c-1.4,-3.01 -2.6,-6.3 -3,-9.52c-0.21,-1.67 -0.17,-3.35 0.19,-4.95c1.09,-4.87 5.52,-8.12 10.71,-8.12c0.64,0 1.3,0.05 1.97,0.15c2.11,0.33 3.95,1.1 5.57,2.08c-0.52,-1.2 -1.03,-2.4 -1.55,-3.59c-0.89,-2.05 -1.94,-4.35 -3.24,-6.69c-0.89,0.41 -1.76,0.83 -2.58,1.22c-7.25,3.48 -15.58,3.53 -22.85,0.13c-5.07,-2.38 -7.91,-5.77 -8.21,-9.81c-0.08,-1.19 0,-2.32 0.25,-3.36c1.12,-4.67 5.63,-7.56 12.07,-7.74c0.17,0 0.35,-0.01 0.52,-0.01c6.23,0 12.48,2.99 17.65,8.46c1.74,1.85 3.26,3.84 4.58,5.85c2.81,-1.15 5.84,-2.12 8.94,-2.53c-2.3,-5.58 -5.16,-12.5 -8.01,-19.42c-0.94,0.21 -1.92,0.36 -2.96,0.38c-3.52,0.07 -7.21,-2.12 -9.8,-5.87c-0.67,-0.97 -0.47,-2.23 0.44,-2.81c0.32,-0.2 0.67,-0.29 1.03,-0.29c0.7,0 1.41,0.36 1.86,1c0.63,0.91 2.91,3.87 5.91,3.87c0.03,0 0.06,0 0.09,0c0.6,-0.01 1.2,-0.1 1.8,-0.22c-5.62,-13.63 -10.81,-26.2 -11.19,-27.13c-3.48,-0.25 -6.28,-1.88 -6.43,-3.87c-0.16,-2.17 2.86,-3.92 6.76,-3.92c3.89,0 7.18,1.75 7.35,3.92c0.11,1.48 -1.28,2.75 -3.41,3.42c0.26,0.65 5.12,12.38 10.96,26.5c1.34,-0.37 2.74,-0.66 4.27,-0.66l0.07,0c2.18,0.01 4.02,0.53 5.76,1.26c-0.16,-0.41 -0.32,-0.81 -0.48,-1.21c-0.32,-0.83 -0.63,-1.66 -0.97,-2.48c-0.23,-0.56 -0.47,-1.13 -0.72,-1.71c-1.94,-4.59 -4.15,-9.8 -3,-14.94c1.1,-4.87 5.53,-8.12 10.72,-8.12c0.64,0 1.3,0.06 1.97,0.16c9.45,1.48 13.84,11.48 14.03,11.9c0.46,1.07 -0.01,2.23 -1.05,2.59c-1.04,0.37 -2.26,-0.21 -2.72,-1.28c-0.04,-0.09 -3.59,-8.07 -10.52,-9.15c-3.99,-0.64 -7.59,1.59 -8.4,5.15c-0.86,3.87 0.97,8.21 2.75,12.41c0.25,0.59 0.5,1.17 0.74,1.75c0.35,0.86 0.68,1.72 1.01,2.58c0.9,2.35 1.76,4.58 3.03,6.63c2.24,3.6 5.32,6.18 8.67,7.26c1.85,0.59 3.79,0.48 5.08,-0.28c0.9,-0.53 1.43,-1.36 1.58,-2.46c0.12,-0.85 -0.07,-1.77 -0.49,-2.35c-0.23,-0.31 -0.51,-0.49 -0.88,-0.56c-1.13,-0.24 -1.95,-1.32 -1.82,-2.43c0.12,-1.11 1.14,-1.83 2.27,-1.59c1.49,0.3 2.76,1.12 3.68,2.38c1.1,1.51 1.6,3.56 1.33,5.49c-0.31,2.24 -1.46,4 -3.32,5.1c-2.25,1.33 -5.36,1.55 -8.34,0.6c-4.4,-1.41 -8.38,-4.7 -11.21,-9.25c-0.1,-0.16 -0.18,-0.32 -0.27,-0.49c-0.02,0 -0.03,0 -0.05,-0.01l-1.02,-0.52c-2.49,-1.29 -4.46,-2.31 -6.99,-2.32c-1.03,-0.04 -2.05,0.18 -3.09,0.46c7.9,19.05 16.94,40.87 18.99,45.73c0.85,0.29 1.77,0.43 2.63,0.38c1.1,-0.06 2.02,-0.76 3.08,-1.56c0.84,-0.63 1.79,-1.35 2.96,-1.82c1.1,-0.45 2.27,-0.67 3.47,-0.67c2.24,0 4.57,0.78 6.73,2.29c0.37,0.25 0.69,0.59 0.87,1c0.23,0.55 0.46,1.09 0.69,1.63c0.47,1.09 0.93,2.17 1.39,3.26c0.18,0.42 0.35,0.84 0.53,1.26c0.45,1.08 2.47,5.79 2.58,6.26c0.07,0.27 0.07,0.54 0.02,0.8" fill="#29292a" fill-rule="nonzero" id="path26" />     </g>    </g>   </g>  </g> </g></svg>
