<?xml version="1.0" standalone="no"?>
<!DOCTYPE svg PUBLIC "-//W3C//DTD SVG 20010904//EN"
 "http://www.w3.org/TR/2001/REC-SVG-20010904/DTD/svg10.dtd">
<svg version="1.0" xmlns="http://www.w3.org/2000/svg"
 width="1280.000000pt" height="905.000000pt" viewBox="0 0 1280.000000 905.000000"
 preserveAspectRatio="xMidYMid meet">

<g transform="translate(0.000000,905.000000) scale(0.100000,-0.100000)"
fill="#000000" stroke="none">
<path d="M6248 6300 c-239 -41 -453 -189 -546 -380 -63 -128 -75 -190 -69
-345 9 -230 63 -350 294 -652 l94 -122 -62 -31 c-192 -98 -374 -223 -490 -339
-163 -164 -245 -336 -269 -563 -48 -461 233 -847 708 -976 89 -24 113 -26 297
-26 184 0 208 2 297 26 254 69 469 211 624 414 56 73 58 75 73 55 9 -11 102
-117 206 -235 l190 -216 203 0 204 0 -31 38 c-16 20 -158 185 -314 366 l-284
330 53 105 c77 154 164 394 164 455 0 22 -229 288 -241 280 -5 -3 -9 -12 -9
-21 0 -63 -117 -477 -153 -541 -13 -22 -28 -5 -355 388 -188 225 -342 414
-342 419 0 5 30 26 66 46 161 90 362 269 447 398 55 82 102 190 121 274 20 91
21 260 1 338 -65 255 -275 450 -545 505 -98 20 -244 25 -332 10z m328 -290
c102 -50 174 -133 216 -249 31 -84 31 -243 0 -332 -60 -174 -214 -337 -430
-455 l-53 -29 -35 40 c-230 266 -340 519 -307 710 15 89 62 185 118 240 120
120 333 152 491 75z m15 -1902 c216 -266 396 -489 402 -495 20 -27 -143 -217
-258 -299 -74 -53 -173 -100 -272 -131 -78 -24 -104 -27 -233 -27 -168 0 -227
12 -360 76 -68 33 -101 57 -166 122 -87 87 -129 159 -158 272 -20 78 -21 248
-1 332 38 160 148 303 345 450 69 51 281 180 297 181 7 1 188 -216 404 -481z"/>
<path d="M260 4585 l0 -1675 155 0 155 0 0 175 c0 96 3 175 8 175 4 -1 23 -26
42 -57 52 -82 174 -193 267 -241 132 -69 234 -94 404 -99 113 -4 165 -2 230
12 169 34 306 105 434 227 280 264 415 709 364 1199 -47 464 -249 805 -564
955 -108 51 -185 72 -308 83 -350 33 -648 -106 -829 -385 l-43 -67 -3 686 -2
687 -155 0 -155 0 0 -1675z m1208 480 c224 -53 408 -249 486 -518 56 -192 73
-487 40 -704 -57 -389 -246 -643 -526 -708 -96 -22 -256 -20 -352 5 -227 58
-410 239 -497 493 -54 158 -64 232 -64 467 0 235 10 309 64 467 86 252 269
434 493 493 91 24 266 26 356 5z"/>
<path d="M10670 4590 l0 -1670 154 0 155 0 4 748 c3 717 4 751 24 837 46 197
101 305 208 412 127 125 289 182 485 170 329 -21 488 -189 520 -550 5 -56 9
-445 10 -864 l0 -763 155 0 155 0 0 843 c0 883 -2 929 -46 1077 -48 164 -170
326 -304 404 -226 133 -587 151 -832 43 -127 -56 -260 -165 -335 -274 l-38
-55 -3 656 -2 656 -155 0 -155 0 0 -1670z"/>
<path d="M9030 5339 c-365 -32 -632 -224 -705 -509 -24 -93 -17 -282 14 -362
55 -142 165 -254 326 -332 119 -58 177 -76 498 -155 300 -75 400 -111 491
-180 48 -36 68 -61 95 -114 31 -60 35 -76 35 -145 0 -128 -58 -226 -178 -304
-97 -62 -198 -90 -355 -96 -155 -6 -240 6 -354 50 -152 58 -299 182 -404 338
-25 39 -48 70 -50 70 -8 0 -254 -173 -260 -183 -9 -15 88 -148 168 -227 137
-138 324 -243 526 -297 131 -34 388 -44 532 -19 520 90 798 460 664 886 -25
79 -108 196 -183 257 -78 63 -225 141 -335 176 -44 15 -199 56 -344 91 -317
78 -416 120 -498 210 -61 66 -83 125 -83 217 0 230 187 369 495 369 184 0 333
-51 453 -156 55 -48 128 -143 158 -206 10 -21 21 -38 25 -38 10 0 223 180 228
192 7 19 -91 147 -168 221 -43 41 -109 93 -148 116 -173 102 -410 151 -643
130z"/>
<path d="M3578 5329 c-373 -46 -624 -223 -693 -489 -14 -55 -24 -244 -13 -255
5 -5 262 -75 276 -75 6 0 12 47 14 113 6 142 28 204 103 286 64 68 143 113
252 143 106 28 346 31 442 4 183 -50 303 -166 340 -327 14 -58 14 -220 0 -256
-14 -38 -48 -73 -86 -89 -18 -8 -176 -37 -350 -64 -443 -70 -560 -100 -726
-187 -96 -50 -213 -165 -256 -252 -97 -191 -96 -449 1 -649 23 -47 58 -92 118
-153 71 -73 100 -94 180 -133 147 -71 226 -89 405 -90 126 0 164 3 234 22 181
49 309 122 424 241 38 39 70 71 72 71 1 0 5 -53 8 -117 9 -179 -8 -163 174
-163 149 0 154 1 148 20 -23 73 -27 192 -34 970 -7 837 -8 846 -30 920 -63
210 -208 372 -403 449 -40 16 -109 37 -153 46 -95 20 -338 28 -447 14z m732
-1356 c0 -353 -53 -529 -204 -678 -128 -127 -261 -177 -481 -179 -111 -1 -139
2 -196 22 -175 60 -277 181 -299 354 -23 184 35 326 170 416 83 56 182 86 430
133 267 50 553 109 559 115 17 17 21 -18 21 -183z"/>
</g>
</svg>
