<svg xmlns="http://www.w3.org/2000/svg" width="46.733" height="23.107" viewBox="0 0 46.733 23.107"><path d="M7.644 8.439v9.513h-2.083v-9.513h-3.391v-1.94h8.866v1.94h-3.392zM20.387 17.952l-4.957-7.867v7.867h-2.049v-11.453h2.212l4.894 7.752v-7.752h2.052v11.453h-2.152zM32.817 17.952l-.244-1.261c-.338.662-1.436 1.454-2.873 1.47-1.326.017-2.504-.322-3.408-1.274-1.195-1.244-1.488-2.78-1.488-4.653s.243-3.359 1.488-4.603c.871-.872 2.18-1.342 3.408-1.342 1.406 0 2.616.519 3.39 1.312.565.579.986 1.307 1.051 2.307h-2.133c-.032-.451-.259-.758-.501-1.05-.401-.467-1.032-.692-1.824-.692-.662 0-1.423.29-1.873.774-.792.825-.889 2.244-.889 3.294s.114 2.52.904 3.346c.452.484 1.196.725 1.858.725.742 0 1.322-.259 1.712-.662.613-.646.743-1.356.743-2.228h-2.729v-1.728h4.746v6.266h-1.338zM41.562 8.439v9.513h-2.081v-9.513h-3.393v-1.94h8.865v1.94h-3.391z"/></svg>