<?xml version="1.0" encoding="utf-8"?>
<!-- Generator: Adobe Illustrator 15.1.0, SVG Export Plug-In . SVG Version: 6.00 Build 0)  -->
<!DOCTYPE svg PUBLIC "-//W3C//DTD SVG 1.1//EN" "http://www.w3.org/Graphics/SVG/1.1/DTD/svg11.dtd">
<svg version="1.1" id="Layer_1" xmlns="http://www.w3.org/2000/svg" xmlns:xlink="http://www.w3.org/1999/xlink" x="0px" y="0px"
	 width="2610px" height="1316.43px" viewBox="0 0 2610 1316.43" enable-background="new 0 0 2610 1316.43" xml:space="preserve">
<polygon fill="#7ACEF4" points="0,1147.213 0,1316.43 2610,1316.43 2610,1082.1 "/>
<polygon fill="#1F1615" points="478.228,439.407 478.228,486.98 593.195,486.98 593.195,876.727 649.313,876.727 649.313,486.98 
	764.281,486.98 764.281,439.407 "/>
<g>
	<defs>
		<rect id="SVGID_1_" y="-0.001" width="2610" height="1316.431"/>
	</defs>
	<clipPath id="SVGID_2_">
		<use xlink:href="#SVGID_1_"  overflow="visible"/>
	</clipPath>
	<path clip-path="url(#SVGID_2_)" fill="#1F1615" d="M1080.889,816.953c25.923-14.333,46.346-35.069,61.907-62.822
		c15.549-27.751,23.479-59.776,23.479-96.061c0-36.297-7.931-68.309-23.479-96.061c-30.809-55.204-84.785-83.871-148.521-83.871
		c-47.574,0-90.261,17.378-121.672,47.574c-30.809,30.195-50.016,77.455-50.016,132.358c0,54.891,19.207,102.151,50.016,132.346
		c31.411,30.194,74.098,47.573,121.672,47.573C1026.299,837.989,1054.966,830.972,1080.889,816.953 M784.16,567.796
		c11.89-28.366,28.053-52.447,48.187-72.281c20.423-20.122,44.517-35.984,72.582-47.26c28.053-11.589,57.935-17.378,89.346-17.378
		c31.41,0,61.305,5.789,89.358,17.378c28.053,11.276,52.147,27.138,72.582,47.26c20.435,19.834,36.284,43.915,48.187,72.281
		c11.89,28.053,17.992,58.249,17.992,90.273c0,42.687-10.073,81.415-30.508,116.497c-20.122,34.757-47.561,61.895-82.33,81.729
		c-34.769,19.508-73.196,29.268-115.281,29.268c-42.086,0-80.501-9.76-115.269-29.268c-34.769-19.834-62.22-46.972-82.342-81.729
		c-20.134-35.082-30.195-73.81-30.195-116.497C766.469,626.045,772.269,595.849,784.16,567.796"/>
	<polygon clip-path="url(#SVGID_2_)" fill="#1F1615" points="1625.714,439.407 1498.855,759.315 1371.984,439.407 1353.379,439.407 
		1239.639,876.727 1295.745,876.727 1371.384,583.656 1492.44,876.727 1504.945,876.727 1626.328,583.656 1701.954,876.727 
		1758.061,876.727 1644.32,439.407 	"/>
	<path clip-path="url(#SVGID_2_)" fill="#1F1615" d="M1798.359,770.595h6.102c15.862,20.135,32.927,36.285,51.231,48.802
		c18.606,12.491,39.643,18.594,63.736,18.594c25.622,0,45.743-7.018,60.691-20.736c14.936-13.72,22.565-32.326,22.565-55.505
		c0-22.865-8.545-41.771-26.537-57.333c-17.378-15.549-37.199-26.224-66.78-39.342c-33.24-14.333-59.778-32.012-79.599-53.675
		c-19.821-21.651-29.581-46.045-29.581-73.797c0-32.012,11.89-57.935,35.983-77.456c24.094-19.52,53.375-29.28,88.444-29.28
		c40.556,0,74.411,11.589,101.549,34.768l2.744,60.078h-8.231c-28.366-33.241-60.992-50.017-98.204-50.017
		c-21.037,0-38.415,5.801-52.146,17.077c-13.419,11.289-20.122,25.622-20.122,43c0,36.899,32.626,63.436,93.618,89.359
		c74.411,31.411,114.968,72.281,114.968,129.301c0,37.514-13.105,68.61-39.643,93.619c-26.225,25.009-59.463,37.513-99.72,37.513
		c-49.102,0-90.573-16.765-124.729-50.018L1798.359,770.595z"/>
	<path clip-path="url(#SVGID_2_)" fill="#1F1615" d="M2106.525,458.072c4.273,0,6.178-1.854,6.178-4.874
		c0-3.082-1.967-4.874-6.377-4.874h-8.157v9.748H2106.525z M2094.348,444.641h12.768c6.314,0,9.598,3.157,9.598,8.419
		c0,3.358-1.704,5.989-4.536,6.979c2.243,0.589,3.421,1.967,3.821,4.874c0.589,4.072,0.113,6.102,1.115,8.419v0.251h-3.959
		c-0.727-1.704-0.59-4.461-0.978-7.367c-0.526-4.01-1.378-4.736-5.651-4.736h-8.356v12.103h-3.821V444.641z M2126.385,460.039
		c0-12.692-9.083-21.964-21.65-21.964c-12.554,0-21.625,9.272-21.625,21.964c0,12.767,9.071,22.102,21.625,22.102
		C2117.302,482.141,2126.385,472.806,2126.385,460.039 M2077.709,460.039c0-15.586,11.377-26.963,27.025-26.963
		c15.662,0,27.037,11.377,27.037,26.963c0,15.649-11.451,27.101-27.037,27.101C2089.086,487.14,2077.709,475.688,2077.709,460.039"
		/>
</g>
<polygon fill="#7ACEF4" points="0,0 0,249.561 2610,179.563 2610,0 "/>
<g>
	<defs>
		<rect id="SVGID_3_" y="-0.001" width="2610" height="1316.431"/>
	</defs>
	<clipPath id="SVGID_4_">
		<use xlink:href="#SVGID_3_"  overflow="visible"/>
	</clipPath>
</g>
</svg>
