<?xml version="1.0" standalone="no"?>
<!DOCTYPE svg PUBLIC "-//W3C//DTD SVG 20010904//EN"
 "http://www.w3.org/TR/2001/REC-SVG-20010904/DTD/svg10.dtd">
<svg version="1.0" xmlns="http://www.w3.org/2000/svg"
 width="2000.000000pt" height="2000.000000pt" viewBox="0 0 2000.000000 2000.000000"
 preserveAspectRatio="xMidYMid meet">

<g transform="translate(0.000000,2000.000000) scale(0.100000,-0.100000)"
fill="#000000" stroke="none">
<path d="M9785 18673 c-86 -8 -260 -45 -343 -74 -193 -68 -358 -176 -516 -339
-216 -224 -342 -462 -436 -822 -135 -522 -163 -1057 -90 -1693 66 -562 184
-1093 625 -2800 59 -225 162 -642 230 -925 68 -283 167 -690 220 -904 185
-751 287 -1218 361 -1646 20 -112 43 -217 52 -232 31 -52 102 -71 167 -44 52
22 65 52 86 202 27 198 41 267 140 699 200 875 295 1269 610 2525 500 1996
551 2210 623 2600 100 543 136 956 117 1327 -28 549 -117 978 -267 1293 -202
423 -547 699 -995 795 -169 37 -419 53 -584 38z"/>
<path d="M14288 15599 c-380 -47 -792 -278 -1192 -668 -147 -144 -240 -253
-400 -466 -434 -579 -760 -1102 -1055 -1695 -426 -855 -674 -1627 -746 -2322
-28 -273 -30 -443 -6 -638 11 -96 23 -227 27 -290 4 -63 13 -127 20 -142 23
-45 62 -68 113 -68 91 0 141 58 141 163 0 138 51 256 223 514 307 461 696 838
1237 1200 289 193 480 302 960 548 520 266 796 427 1095 635 407 284 695 568
918 905 238 361 311 773 212 1193 -133 559 -578 1003 -1116 1112 -117 24 -320
33 -431 19z"/>
<path d="M5320 15586 c-314 -57 -567 -191 -787 -419 -331 -342 -487 -888 -388
-1358 71 -338 266 -654 619 -1004 383 -380 792 -646 1731 -1127 674 -345 925
-508 1330 -859 629 -545 867 -874 975 -1343 26 -112 53 -152 110 -165 72 -16
130 21 154 98 8 25 17 105 20 176 4 72 13 184 21 250 78 648 -160 1681 -613
2651 -209 448 -559 1070 -837 1484 -515 768 -909 1179 -1380 1435 -123 67
-265 124 -395 157 -103 27 -134 31 -300 34 -126 2 -209 -1 -260 -10z"/>
<path d="M15315 11213 c-416 -33 -1009 -196 -1530 -418 -707 -302 -1518 -828
-2060 -1334 -219 -205 -456 -476 -599 -684 -50 -73 -60 -95 -64 -139 -5 -64
19 -102 75 -117 50 -14 100 -1 256 65 563 241 1110 274 1793 109 248 -59 501
-137 1124 -345 761 -254 915 -292 1246 -306 307 -14 565 49 813 197 424 254
706 644 796 1099 26 131 31 343 11 478 -70 474 -438 975 -886 1206 -275 142
-655 215 -975 189z"/>
<path d="M4290 11199 c-482 -55 -853 -272 -1154 -674 -173 -231 -262 -414
-313 -647 -25 -117 -25 -399 0 -518 72 -337 241 -646 484 -881 259 -251 553
-389 913 -430 127 -14 358 -7 485 15 186 33 548 135 840 236 604 211 898 303
1245 390 532 136 996 142 1457 20 137 -37 221 -66 386 -137 185 -79 268 -76
297 11 12 39 1 99 -28 145 -82 130 -295 385 -476 569 -662 675 -1458 1188
-2466 1592 -456 182 -813 278 -1150 309 -133 13 -410 12 -520 0z"/>
<path d="M9904 8891 c-122 -20 -228 -73 -309 -155 -107 -109 -157 -237 -158
-406 0 -171 51 -305 159 -420 168 -177 435 -222 659 -110 270 135 383 505 244
797 -62 131 -207 247 -349 281 -65 16 -187 22 -246 13z"/>
<path d="M8150 8139 c-834 -85 -1624 -618 -1974 -1332 -107 -219 -148 -385
-147 -598 0 -291 54 -509 174 -711 211 -354 615 -544 1026 -484 287 43 528
162 726 361 160 160 279 363 359 613 69 213 78 295 86 772 8 437 10 459 56
620 27 97 91 215 149 279 89 96 188 148 324 172 107 19 141 47 141 119 0 84
-54 120 -234 155 -223 44 -469 56 -686 34z"/>
<path d="M11360 8139 c-218 -24 -360 -62 -406 -110 -24 -25 -29 -39 -29 -79 0
-73 26 -94 144 -120 265 -57 405 -205 482 -508 37 -147 49 -300 49 -651 0
-378 14 -484 96 -733 68 -205 172 -381 313 -530 182 -192 394 -314 661 -381
69 -17 114 -21 240 -21 135 1 168 4 255 27 318 85 573 306 702 609 95 225 123
566 68 829 -89 422 -445 908 -895 1221 -323 224 -675 365 -1070 429 -145 23
-476 33 -610 18z"/>
<path d="M6140 3899 c-283 -38 -378 -58 -508 -110 l-82 -32 0 -1188 0 -1189
300 0 300 0 0 979 0 978 58 19 c85 28 228 26 305 -5 119 -47 167 -124 146
-237 -14 -76 -40 -118 -94 -149 -49 -29 -163 -56 -221 -52 l-39 2 -3 -249 -2
-249 157 6 c290 10 462 68 599 202 80 79 121 151 156 272 18 65 22 102 21 228
0 249 -45 368 -193 515 -155 156 -352 233 -660 260 -130 11 -149 11 -240 -1z"/>
<path d="M9410 3898 c-181 -12 -317 -48 -485 -128 -374 -180 -601 -471 -680
-872 -22 -111 -31 -379 -16 -491 54 -406 328 -772 716 -956 107 -51 251 -97
355 -112 149 -21 532 5 647 45 l38 13 3 252 c1 138 0 251 -2 251 -2 0 -55 -9
-118 -19 -252 -43 -423 -36 -597 24 -90 30 -142 60 -215 122 -173 149 -251
327 -263 598 -6 160 9 244 67 361 94 188 283 329 510 379 43 9 147 19 243 22
l167 6 0 248 0 249 -22 1 c-13 0 -72 4 -133 7 -60 4 -157 4 -215 0z"/>
<path d="M11290 3894 c-345 -44 -613 -164 -816 -368 -173 -174 -292 -399 -350
-661 -24 -113 -29 -333 -10 -445 67 -379 298 -709 633 -900 105 -60 273 -125
388 -150 146 -31 416 -39 556 -15 318 53 564 178 764 388 205 214 307 443 335
750 53 579 -271 1107 -805 1316 -157 62 -270 82 -480 86 -99 2 -196 1 -215 -1z
m304 -528 c159 -31 274 -94 401 -221 136 -136 192 -247 216 -433 49 -366 -202
-742 -557 -832 -96 -25 -246 -26 -347 -4 -208 46 -433 217 -531 403 -149 285
-79 681 161 902 171 156 428 228 657 185z"/>
<path d="M13508 3851 c-190 -62 -322 -169 -397 -321 -68 -140 -85 -262 -55
-407 20 -96 49 -163 107 -238 58 -76 100 -111 267 -220 233 -151 354 -256 394
-339 25 -53 32 -172 13 -237 -64 -220 -344 -282 -882 -196 -6 1 -10 -89 -10
-253 l0 -255 75 -17 c236 -55 575 -41 818 34 216 66 401 225 496 428 60 127
71 184 70 365 -1 186 -17 266 -85 403 -65 133 -133 196 -382 358 -117 75 -228
150 -247 167 -76 64 -90 133 -40 191 48 54 94 67 268 73 l152 6 -2 241 -3 241
-235 2 c-234 2 -235 2 -322 -26z"/>
<path d="M2790 3600 l0 -260 260 0 260 0 0 -980 0 -980 295 0 295 0 0 980 0
980 260 0 260 0 0 260 0 260 -815 0 -815 0 0 -260z"/>
<path d="M4690 2620 l0 -1240 295 0 295 0 0 1240 0 1240 -295 0 -295 0 0
-1240z"/>
<path d="M7407 3853 c-4 -3 -7 -561 -7 -1240 l0 -1233 300 0 300 0 0 1240 0
1240 -293 0 c-162 0 -297 -3 -300 -7z"/>
<path d="M14600 2620 l0 -1240 300 0 300 0 0 1240 0 1240 -300 0 -300 0 0
-1240z"/>
<path d="M16185 3850 c-215 -30 -403 -125 -545 -277 -162 -171 -237 -349 -247
-584 -8 -193 30 -347 127 -511 50 -84 162 -204 246 -264 81 -58 211 -119 309
-145 105 -28 316 -31 419 -6 178 44 306 117 441 252 142 142 211 271 251 466
22 110 15 303 -15 407 -111 384 -438 645 -834 666 -51 2 -119 1 -152 -4z m320
-254 c222 -75 393 -259 452 -486 20 -78 22 -233 4 -310 -7 -30 -33 -98 -58
-150 -39 -81 -58 -107 -132 -180 -63 -63 -106 -95 -161 -123 -204 -102 -425
-102 -630 0 -56 28 -97 60 -161 123 -73 73 -94 101 -132 180 -54 113 -71 184
-70 305 1 316 222 588 538 661 94 22 252 13 350 -20z"/>
<path d="M16155 3390 c-33 -5 -85 -17 -115 -27 l-55 -18 -3 -422 -2 -423 105
0 105 0 0 349 c0 385 -4 361 64 361 37 0 66 -25 66 -58 0 -23 -27 -42 -59 -42
-20 0 -21 -6 -21 -90 l0 -90 46 0 c99 0 108 -19 114 -245 l5 -180 103 -3 102
-3 0 188 c0 105 -5 206 -11 228 -13 48 -51 100 -89 124 l-28 17 24 39 c28 46
32 117 10 169 -40 95 -194 149 -361 126z"/>
</g>
</svg>
