<?xml version="1.0" standalone="no"?>
<!DOCTYPE svg PUBLIC "-//W3C//DTD SVG 20010904//EN"
 "http://www.w3.org/TR/2001/REC-SVG-20010904/DTD/svg10.dtd">
<svg version="1.0" xmlns="http://www.w3.org/2000/svg"
 width="600.000000pt" height="168.000000pt" viewBox="0 0 600.000000 168.000000"
 preserveAspectRatio="xMidYMid meet">

<g transform="translate(0.000000,168.000000) scale(0.100000,-0.100000)"
fill="#000000" stroke="none">
<path d="M692 1477 c-25 -30 -35 -100 -21 -147 18 -62 20 -60 -38 -80 -127
-45 -223 -148 -268 -290 -23 -71 -51 -115 -109 -168 -36 -34 -46 -50 -46 -75
1 -41 30 -105 63 -136 l26 -23 -15 47 c-8 27 -14 60 -13 74 0 20 4 16 15 -19
8 -25 24 -56 35 -70 20 -23 21 -24 32 -5 5 10 23 31 39 45 26 24 27 27 13 47
-9 12 -31 24 -54 28 -22 3 -47 12 -57 20 -16 12 -14 17 39 75 36 40 62 81 74
114 10 29 19 44 21 34 2 -9 -6 -38 -17 -64 -12 -26 -19 -49 -17 -51 8 -8 58
62 98 139 51 99 147 199 236 246 l63 33 -25 29 c-30 36 -55 110 -58 168 -1 47
-1 47 -16 29z m-156 -359 c-9 -13 -28 -47 -43 -75 -27 -53 -43 -67 -43 -37 0
24 19 55 58 97 41 42 53 48 28 15z"/>
<path d="M784 1361 c45 -88 109 -121 272 -140 75 -8 85 -7 189 26 61 19 113
35 118 36 4 1 -84 2 -195 2 l-203 0 -66 31 c-36 17 -80 45 -98 63 -17 17 -34
31 -37 31 -2 0 7 -22 20 -49z"/>
<path d="M1020 1119 c-19 -5 -91 -10 -160 -12 -79 -2 -134 -8 -150 -16 -51
-27 -111 -84 -154 -144 -74 -106 -72 -115 10 -36 124 119 127 121 264 129 102
6 124 10 162 33 36 21 83 60 67 56 -2 -1 -20 -5 -39 -10z"/>
<path d="M1180 1015 l0 -55 95 0 95 0 0 -265 0 -265 70 0 70 0 0 265 0 265 95
0 95 0 0 55 0 55 -260 0 -260 0 0 -55z"/>
<path d="M3680 749 l0 -321 193 4 c213 4 228 8 285 72 67 77 53 210 -27 259
l-24 15 21 11 c54 29 70 141 29 202 -12 19 -42 44 -67 57 -41 20 -57 22 -227
22 l-183 0 0 -321z m340 198 c20 -10 26 -21 28 -54 5 -61 -18 -73 -140 -73
l-98 0 0 70 0 70 93 0 c54 0 102 -6 117 -13z m27 -263 c21 -21 24 -32 20 -62
-11 -64 -33 -76 -152 -80 l-105 -4 0 86 0 86 105 0 c100 0 107 -1 132 -26z"/>
<path d="M2200 965 l0 -65 -32 0 c-35 0 -34 4 -29 -77 1 -7 14 -13 30 -13 l30
0 3 -171 c3 -167 3 -171 27 -189 28 -21 88 -31 137 -23 33 5 34 7 34 49 0 42
-1 44 -29 44 -16 0 -33 6 -39 13 -6 7 -10 64 -9 142 l2 130 38 3 c37 3 37 4
37 48 l0 44 -39 0 -39 0 1 63 2 62 -62 3 -63 3 0 -66z"/>
<path d="M584 865 c-54 -54 -104 -140 -104 -182 0 -12 5 -44 11 -71 14 -60 7
-95 -23 -109 l-23 -11 28 -11 c47 -18 114 -14 137 9 30 30 25 60 -21 130 -48
75 -57 115 -35 158 25 48 53 62 121 62 54 0 63 3 86 29 l25 29 -36 11 c-78 23
-106 16 -166 -44z"/>
<path d="M2606 908 c-59 -16 -121 -84 -142 -154 -33 -115 6 -247 90 -303 32
-21 54 -27 118 -30 99 -4 154 15 201 70 42 49 57 97 57 185 -1 103 -42 179
-119 219 -40 20 -153 28 -205 13z m145 -108 c36 -20 51 -67 47 -148 -3 -69 -6
-76 -36 -103 -58 -52 -138 -34 -168 37 -29 70 -11 174 37 208 26 18 90 21 120
6z"/>
<path d="M4731 906 c-113 -37 -175 -175 -141 -315 28 -116 101 -171 230 -171
95 0 147 23 189 81 41 55 54 109 49 189 -7 94 -52 170 -121 207 -41 21 -153
26 -206 9z m156 -118 c34 -38 43 -64 43 -123 0 -92 -40 -145 -110 -145 -69 0
-110 55 -110 150 0 90 40 140 110 140 35 0 51 -5 67 -22z"/>
<path d="M5265 911 c-98 -25 -153 -111 -125 -196 16 -47 41 -62 168 -99 105
-31 107 -32 107 -61 0 -26 -5 -31 -37 -39 -52 -13 -116 7 -128 40 -9 22 -15
24 -70 24 -56 0 -60 -1 -60 -24 0 -37 41 -89 90 -114 40 -20 57 -23 142 -20
107 3 132 15 176 79 19 27 23 43 19 82 -6 68 -41 102 -132 128 -135 38 -150
44 -153 62 -6 30 17 47 62 47 44 0 86 -22 86 -46 0 -11 15 -14 65 -14 l65 0
-6 28 c-12 48 -38 82 -79 102 -46 22 -144 33 -190 21z"/>
<path d="M1760 894 c-79 -34 -121 -103 -127 -209 l-4 -70 23 30 c48 63 131
144 164 160 29 14 43 14 87 5 55 -12 121 -38 99 -39 -7 -1 -28 -17 -47 -36
-33 -35 -33 -35 -101 -30 -82 7 -104 -2 -151 -63 -84 -110 1 -225 167 -225
105 0 191 52 215 131 6 21 4 22 -56 22 -53 0 -65 -4 -85 -25 -19 -20 -33 -25
-73 -25 -59 0 -96 26 -110 78 l-10 32 176 0 176 0 -7 61 c-12 105 -50 168
-120 200 -51 23 -166 25 -216 3z"/>
<path d="M3185 899 c-11 -6 -30 -23 -42 -38 l-23 -26 0 33 0 32 -60 0 -60 0 0
-235 0 -236 63 3 62 3 5 162 c5 154 6 163 29 187 31 33 91 36 121 6 18 -18 20
-33 20 -190 l0 -170 65 0 65 0 0 183 c0 211 -11 251 -73 280 -40 19 -141 22
-172 6z"/>
<path d="M4440 874 l-40 -36 0 31 0 31 -60 0 -60 0 0 -235 0 -235 60 0 60 0 0
118 c1 188 18 230 104 239 l46 6 0 58 0 59 -35 0 c-26 0 -45 -9 -75 -36z"/>
<path d="M5610 495 l0 -65 65 0 65 0 0 65 0 65 -65 0 -65 0 0 -65z"/>
<path d="M346 523 c-11 -11 -6 -43 11 -69 10 -16 18 -51 20 -90 7 -162 94
-185 307 -80 119 59 192 82 293 92 98 10 75 24 -40 24 -121 0 -175 -14 -299
-76 -84 -42 -133 -53 -173 -38 -22 9 -42 50 -50 107 -7 44 -6 47 15 47 12 0
52 -13 90 -30 92 -41 111 -39 154 12 32 37 44 58 32 58 -2 0 -23 -7 -46 -15
-50 -18 -153 -20 -201 -4 -19 6 -50 24 -70 40 -20 15 -39 25 -43 22z"/>
</g>
</svg>
