<?xml version="1.0" standalone="no"?>
<!DOCTYPE svg PUBLIC "-//W3C//DTD SVG 20010904//EN"
 "http://www.w3.org/TR/2001/REC-SVG-20010904/DTD/svg10.dtd">
<svg version="1.0" xmlns="http://www.w3.org/2000/svg"
 width="150.000000pt" height="150.000000pt" viewBox="0 0 150.000000 150.000000"
 preserveAspectRatio="xMidYMid meet">

<g transform="translate(0.000000,150.000000) scale(0.100000,-0.100000)"
fill="#000000" stroke="none">
<path d="M650 1121 c-76 -23 -127 -70 -162 -146 -20 -45 -23 -69 -26 -237 -3
-133 -1 -188 7 -188 6 0 11 10 11 23 0 13 6 32 14 43 14 18 28 19 256 19 228
0 242 -1 256 -19 8 -11 14 -30 14 -44 0 -13 4 -20 10 -17 14 8 13 266 -1 340
-28 153 -127 235 -279 234 -41 0 -86 -4 -100 -8z m201 -102 c90 -27 148 -110
149 -211 0 -95 20 -88 -250 -88 -270 0 -250 -7 -250 88 1 98 54 177 142 209
43 15 160 16 209 2z"/>
<path d="M570 420 c0 -60 0 -60 29 -60 32 0 61 30 61 61 0 21 -46 59 -71 59
-16 0 -19 -8 -19 -60z m63 8 c6 -19 -11 -48 -28 -48 -11 0 -15 12 -15 40 0 37
2 40 19 30 11 -5 21 -15 24 -22z"/>
<path d="M898 443 c-5 -27 3 -83 12 -83 10 0 19 58 12 82 -6 23 -20 23 -24 1z"/>
<path d="M773 432 c-19 -3 -23 -10 -23 -38 0 -41 17 -46 22 -6 2 15 8 27 13
27 6 0 11 -12 13 -27 4 -37 22 -36 22 1 0 34 -16 48 -47 43z"/>
<path d="M842 428 c-9 -9 -8 -16 5 -30 15 -17 15 -18 -1 -18 -9 0 -14 -4 -11
-10 3 -5 15 -10 26 -10 17 0 19 6 16 37 -4 40 -16 50 -35 31z"/>
<path d="M672 398 c2 -26 8 -34 27 -36 27 -4 41 12 41 46 0 15 -5 22 -12 19
-7 -2 -12 -14 -10 -25 2 -15 -2 -22 -12 -22 -10 0 -16 9 -16 25 0 14 -5 25
-11 25 -6 0 -9 -14 -7 -32z"/>
</g>
</svg>
