<svg xmlns="http://www.w3.org/2000/svg" width="46.733" height="23.107" viewBox="0 0 46.733 23.107"><g fill="#231F20" stroke="#231F20" stroke-width=".754"><path d="M11.977 15.423v-.928c-.793.793-1.528 1.045-2.844 1.045-1.373 0-2.148-.233-2.747-.852-.426-.444-.677-1.121-.677-1.819 0-1.702 1.219-2.689 3.25-2.689h3.017v-1.044c0-1.49-.735-2.282-2.631-2.282-1.315 0-1.993.328-2.573 1.18l-.715-.619c.793-1.102 1.78-1.431 3.289-1.431 2.457 0 3.618 1.103 3.618 3.057v6.383h-.987zm0-4.449h-2.902c-1.605 0-2.379.638-2.379 1.876s.754 1.819 2.437 1.819c.851 0 1.664-.078 2.321-.716.349-.329.523-.909.523-1.78v-1.199zM19.112 15.423c-1.47 0-2.244-1.025-2.244-2.437v-6.152h-1.276v-.735h1.276v-2.979h.987v2.979h2.108v.735h-2.108v6.171c0 .967.444 1.548 1.431 1.548h.677v.87h-.851zM29.112 15.423v-5.784c0-1.798-.909-2.785-2.572-2.785s-2.631 1.025-2.631 2.785v5.784h-.987v-13.773h.987v5.552c.697-.813 1.625-1.219 2.747-1.219 2.128 0 3.444 1.335 3.444 3.482v5.958h-.988zM34.178 10.974c0 2.36 1.064 3.676 3.037 3.676 1.103 0 1.78-.329 2.573-1.122l.735.58c-.948.948-1.819 1.432-3.366 1.432-2.573 0-3.965-1.665-3.965-4.779 0-2.998 1.392-4.778 3.734-4.778 2.321 0 3.733 1.702 3.733 4.546v.445h-6.481zm5.165-2.553c-.407-.967-1.354-1.567-2.418-1.567s-2.012.599-2.419 1.567c-.232.58-.29.871-.329 1.76h5.494c-.037-.89-.096-1.18-.328-1.76zm-2.166-4.411h-1.122l1.876-2.843h1.296l-2.05 2.843z"/></g><g fill="#231F20"><path d="M10.198 21.67h-.241l-.844-2.312h.27l.694 2.025.695-2.025h.269l-.843 2.312zM12.963 21.67v-.23c-.197.197-.379.26-.706.26-.34 0-.531-.058-.681-.211-.106-.111-.168-.278-.168-.452 0-.422.302-.667.805-.667h.749v-.258c0-.371-.182-.567-.653-.567-.325 0-.494.083-.637.293l-.178-.154c.197-.274.442-.354.816-.354.609 0 .896.274.896.757v1.582h-.243zm0-1.103h-.719c-.397 0-.59.16-.59.467 0 .307.186.45.604.45.211 0 .413-.019.577-.176.086-.082.129-.226.129-.442v-.299zM15.541 21.67v-1.433c0-.447-.226-.691-.637-.691-.413 0-.653.253-.653.691v1.433h-.244v-2.312h.244v.274c.174-.201.403-.301.68-.301.26 0 .466.075.615.22.154.148.24.368.24.642v1.477h-.245zM16.711 20.567c0 .586.264.913.753.913.273 0 .441-.082.638-.278l.183.143c-.236.235-.452.356-.836.356-.639 0-.983-.413-.983-1.186 0-.742.344-1.184.926-1.184.575 0 .927.421.927 1.126v.11h-1.608zm1.28-.632c-.099-.24-.335-.389-.599-.389-.263 0-.499.149-.599.389-.058.144-.072.216-.082.436h1.363c-.01-.221-.024-.292-.083-.436zM19.79 21.701c-.404 0-.702-.106-.938-.332l.168-.168c.183.191.427.282.759.282.451 0 .695-.159.695-.469 0-.24-.139-.36-.442-.39l-.383-.032c-.465-.039-.696-.245-.696-.604 0-.399.325-.657.829-.657.318 0 .611.09.812.244l-.163.163c-.178-.13-.395-.197-.649-.197-.38 0-.589.163-.589.447 0 .238.145.359.47.386l.373.034c.384.034.676.153.676.605.001.422-.358.688-.922.688zM21.998 21.701c-.403 0-.702-.106-.935-.332l.167-.168c.182.191.427.282.758.282.45 0 .696-.159.696-.469 0-.24-.141-.36-.442-.39l-.384-.032c-.465-.039-.696-.245-.696-.604 0-.399.326-.657.83-.657.316 0 .611.09.812.244l-.164.163c-.178-.13-.394-.197-.648-.197-.379 0-.59.163-.59.447 0 .238.145.359.47.386l.374.034c.384.034.677.153.677.605 0 .422-.358.688-.925.688zM25.039 21.67v-.23c-.197.197-.378.26-.705.26-.341 0-.533-.058-.682-.211-.105-.111-.169-.278-.169-.452 0-.422.303-.667.806-.667h.749v-.258c0-.371-.182-.567-.652-.567-.326 0-.494.083-.638.293l-.177-.154c.196-.274.441-.354.815-.354.609 0 .898.274.898.757v1.582h-.245zm0-1.103h-.718c-.399 0-.591.16-.591.467 0 .307.187.45.605.45.212 0 .412-.019.574-.176.087-.082.131-.226.131-.442v-.299zM27.626 21.499c-.12.12-.326.202-.565.202-.258 0-.484-.058-.686-.328v.298h-.244v-3.416h.244v1.401c.202-.27.428-.325.686-.325.24 0 .445.08.565.201.235.235.299.619.299.984 0 .363-.063.747-.299.983zm-.599-1.953c-.565 0-.652.49-.652.969 0 .48.086.969.652.969.567 0 .653-.489.653-.969-.001-.48-.086-.969-.653-.969zM29.992 19.729c-.138-.14-.245-.183-.436-.183-.398 0-.619.327-.619.701v1.423h-.245v-2.312h.245v.307c.134-.215.403-.335.678-.335.22 0 .393.055.556.22l-.179.179zM31.996 21.67v-.272c-.171.201-.403.303-.681.303-.259 0-.465-.078-.613-.221-.155-.149-.241-.37-.241-.644v-1.477h.244v1.433c0 .447.226.692.638.692.413 0 .652-.254.652-.692v-1.433h.246v2.312h-.245zM34.543 21.67v-1.433c0-.447-.224-.691-.637-.691-.413 0-.653.253-.653.691v1.433h-.245v-2.312h.245v.274c.174-.201.404-.301.682-.301.259 0 .465.075.614.22.154.148.241.368.241.642v1.477h-.247zM36.967 21.445c-.164.163-.384.255-.644.255-.259 0-.479-.093-.642-.255-.244-.244-.288-.599-.288-.93 0-.332.044-.686.288-.93.163-.164.384-.254.642-.254.259 0 .48.09.644.254.245.245.287.598.287.93 0 .331-.043.686-.287.93zm-.164-1.704c-.123-.123-.292-.196-.48-.196s-.355.073-.479.196c-.192.193-.206.505-.206.774 0 .268.013.58.206.773.124.123.292.196.479.196.188 0 .357-.073.48-.196.192-.193.207-.505.207-.773s-.015-.58-.207-.774z"/></g></svg>