<svg xmlns="http://www.w3.org/2000/svg" width="46.733" height="23.107" viewBox="0 0 46.733 23.107"><path fill-rule="evenodd" clip-rule="evenodd" fill="#231F20" d="M8.914 10.031h-.408v3.777h.408l.003-2.512c0-.541.535-1.094 1.283-.949.467.09.77.372.815.935.018.22.005.592.005.919l-.002 1.607h.429c.005-.696.001-1.188.001-1.754 0-.389.014-.538-.013-.785-.08-.732-.36-1.088-.956-1.238-.273-.07-.661-.064-.911.036-.289.117-.465.315-.653.541l-.001-.577zM17.569 9.975c-.43.028-.595.072-.837.221-.509.312-.652 1.282-.074 1.638.554.341 1.91.005 2.084.727.222.93-1.054 1.1-1.713.892-.252-.08-.443-.216-.633-.354l-.26.262c.692.774 3.223.728 3.014-.8-.088-.499-.406-.704-.894-.801-.667-.133-1.774.147-1.562-.949.092-.485.886-.616 1.488-.447.176.06.252.092.503.224l.241-.242-.037-.055c-.311-.181-.746-.3-1.32-.316zM31.842 10.031h-.408v3.777h.406v-2.348l.006-.252c.025-.299.293-.717.74-.825.419-.1.778-.013.968.206l.301-.321-.074-.062c-.164-.141-.434-.216-.73-.22-.307-.003-.606.064-.863.292-.198.157-.284.305-.346.404v-.651zM1.044 10.031l1.377 3.777h.409l1.397-3.777h-.466l-1.123 3.294h-.019l-1.11-3.294h-.465zM34.598 10.031l.001 1.571s.001.533.013.871c.022.681.264 1.156.952 1.334.288.075.699.061.95-.056.263-.123.415-.317.613-.504v.56h.407v-3.777h-.407l-.003 1.558.005.803c.011.704-.467 1.142-1.12 1.118-.368-.013-.656-.16-.816-.41-.082-.128-.166-.333-.166-.586l-.001-2.484-.428.002zM14.927 13.101c-.238.224-.424.295-.643.36-.598.175-1.196-.007-1.476-.575-.113-.229-.158-.528-.153-.883l2.662-.018c.015-.886-.241-1.533-.801-1.844-.739-.408-1.675-.021-1.991.503-.224.371-.278.807-.28 1.238-.003.527.128 1.114.417 1.491.328.422.976.558 1.664.434.463-.083.604-.258.861-.473-.101-.103-.167-.172-.26-.233zm-1.992-2.402c.394-.493 1.13-.538 1.576-.114.25.234.39.623.379 1.139h-2.235c-.011-.444.09-.791.28-1.025zM28.566 10.085c-.296.082-.435.29-.613.541v-2.364h-.409v5.546h.409v-.615l.036.019c.258.603 1.331.866 1.954.399.378-.285.511-.781.557-1.366.115-1.44-.36-2.594-1.934-2.16zm1.335 2.92c-.143.275-.388.454-.644.487-.943.124-1.307-.512-1.312-1.508-.003-.388.015-.833.175-1.135.14-.262.341-.444.669-.504.411-.059.694.029.914.205.458.37.52 1.833.198 2.455zM7.483 10.531c-.44-.722-2.141-.746-2.624-.055l.279.243c.008-.001.186-.301.578-.373.463-.086.893-.047 1.173.146.333.23.392.629.332 1.232-1.364.011-2.39-.171-2.55.911-.143.976.914 1.461 1.863 1.173.321-.081.561-.295.669-.464h.018v.464h.411l.006-1.756c.001-.649.004-1.256-.155-1.521zm-.578 2.793c-.412.297-1.468.279-1.731-.132-.086-.133-.095-.386-.074-.592.074-.772.983-.573 2.121-.597.014.584.041 1.062-.316 1.321zM38.895 10.031h-.407v3.777h.407l.002-2.512c0-.541.533-1.094 1.283-.949.467.09.77.372.815.935.018.22.004.592.004.919l-.002 1.607h.427c.005-.696.001-1.188.001-1.754 0-.389.015-.538-.012-.785-.08-.732-.358-1.088-.954-1.238-.272-.07-.663-.064-.913.036-.288.117-.462.315-.651.541v-.577zM21.326 9.975c-.427.028-.593.072-.835.221-.508.312-.65 1.282-.075 1.638.555.341 1.911.005 2.084.727.223.93-1.056 1.1-1.711.892-.253-.08-.444-.216-.632-.354l-.26.262c.69.774 3.22.728 3.012-.8-.087-.499-.406-.704-.892-.801-.67-.133-1.773.147-1.563-.949.093-.485.884-.616 1.489-.447.177.06.25.092.501.224l.241-.242-.037-.055c-.311-.181-.744-.3-1.322-.316zM26.464 10.531c-.439-.722-2.141-.746-2.622-.055l.277.243c.009-.001.186-.301.576-.373.463-.086.894-.047 1.176.146.332.23.392.629.332 1.232-1.366.011-2.39-.171-2.548.911-.143.976.902 1.427 1.862 1.173.302-.081.471-.223.667-.464h.019v.464h.408l.005-1.756c.003-.649.006-1.256-.152-1.521zm-.576 2.793c-.41.297-1.467.279-1.731-.132-.087-.133-.095-.386-.075-.593.075-.772.981-.573 2.121-.597.015.585.041 1.063-.315 1.322zM45.192 11.573c-.029-.491-.237-1.12-.775-1.406-.606-.319-1.304-.075-1.304-.075-.103.043-.393.145-.657.52-.141.202-.304.679-.304 1.301.001.448.066 1.018.341 1.364.659.826 1.627.514 1.627.514 1.179-.285 1.101-1.717 1.072-2.218zm-.41.956s-.058.827-.909.972c-.297.051-.508-.012-.68-.085-.407-.177-.573-.589-.607-1.062-.049-.668-.043-1.128.227-1.591 0 0 .158-.342.651-.411.491-.069 1.055.113 1.234.664 0 0 .11.363.13.734.021.383-.046.779-.046.779z"/></svg>