<svg xmlns="http://www.w3.org/2000/svg" width="46.733" height="23.107" viewBox="0 0 46.733 23.107"><path fill="#231F20" d="M32.984 13.423h-1.085c-.011.79-.152 1.22-.432 1.451-.286.236-.926.446-1.943.446-1.202 0-1.992-.193-2.332-.554-.338-.359-.552-1.292-.552-2.561 0-1.296.18-2.112.472-2.495.299-.393 1.082-.577 2.008-.584 1.032-.008 1.708.099 2.064.301.371.211.559.63.559 1.243l.004.089h1.079c-.018-.879-.265-1.486-.734-1.806-.5-.34-1.248-.524-2.751-.524-1.584 0-2.556.265-3.051.765-.494.5-.783 1.479-.783 2.909 0 1.527.287 2.737.771 3.214.485.478 1.57.72 3.115.72 2.655 0 3.589-.801 3.589-2.322l.002-.292zM12.881 8.511v7.461h-1.093v-7.461h1.093zM23.228 8.534v7.432h-1.601l-3.61-5.059-.587-.833-.29-.414-.29-.413h-.025l.006.277.006.283v6.1579999999999995h-.976v-7.431h1.595l3.149 4.431.82 1.165.41.578.404.582h.025l-.007-.277-.006-.283v-6.196h.977zM8.147 8.534l-1.54 4.108-.494 1.298-.231.654-.232.649-.025.071h-.188l-.026-.068-.252-.657-.242-.658-.512-1.303-1.608-4.094h-1.16l2.979 7.438h1.799l3.007-7.438zM42.686 14.006l.001-.167-1.151.002v.126c0 .546-.203.878-.56 1.047-.334.159-1.027.237-2.12.237-1.164 0-1.872-.183-2.201-.53-.328-.345-.529-1.055-.529-2.268v-.107h6.529v-.476c-.015-1.562-.264-2.281-.737-2.688-.493-.423-1.55-.653-3.177-.653-1.487 0-2.478.292-2.977.779-.498.485-.751 1.45-.751 2.897 0 1.567.235 2.574.73 3.052.496.478 1.572.721 3.198.721 1.404 0 2.396-.15 2.946-.449.538-.29.799-.788.799-1.523zm-6.558-2.407c0-.992.231-1.622.576-1.927.341-.302 1.046-.471 2.154-.471 1.099 0 1.799.147 2.143.404.353.265.525.803.525 1.646l.01.345.003.11h-5.412v-.107zM44.921 14.973c-.341 0-.619.221-.619.493 0 .283.278.513.619.513.341 0 .619-.231.619-.513 0-.272-.278-.493-.619-.493z"/></svg>