<?xml version="1.0" standalone="no"?>
<!DOCTYPE svg PUBLIC "-//W3C//DTD SVG 20010904//EN"
 "http://www.w3.org/TR/2001/REC-SVG-20010904/DTD/svg10.dtd">
<svg version="1.0" xmlns="http://www.w3.org/2000/svg"
 width="5000.000000pt" height="3047.000000pt" viewBox="0 0 5000.000000 3047.000000"
 preserveAspectRatio="xMidYMid meet">

<g transform="translate(0.000000,3047.000000) scale(0.100000,-0.100000)"
fill="#000000" stroke="none">
<path d="M38882 27730 c-689 -1045 -1255 -1907 -1258 -1915 -5 -13 117 -15
1062 -15 l1069 1 1370 1900 c754 1046 1374 1907 1378 1915 7 12 -166 14 -1180
14 l-1188 -1 -1253 -1899z"/>
<path d="M23987 29113 c-4 -3 -7 -3482 -7 -7730 l0 -7723 930 0 930 0 3 3468
c3 3763 -1 3498 53 3792 74 404 224 766 434 1045 266 353 648 598 1125 720
445 114 1016 121 1485 19 998 -219 1542 -956 1620 -2199 6 -102 10 -1368 10
-3502 l0 -3343 925 0 925 0 -3 3578 c-3 3964 3 3626 -67 4049 -282 1696 -1413
2847 -3090 3142 -547 96 -1191 100 -1715 10 -603 -104 -1164 -330 -1627 -656
l-78 -54 -2 2693 -3 2693 -921 3 c-506 1 -924 -1 -927 -5z"/>
<path d="M17540 25965 l0 -1585 -675 0 -675 0 0 -790 0 -790 675 0 674 0 4
-3212 c3 -3532 -1 -3292 63 -3643 152 -843 561 -1486 1199 -1884 317 -197 682
-319 1145 -382 56 -8 362 -13 888 -16 l802 -4 0 865 0 865 -682 4 c-740 4
-746 5 -923 63 -145 47 -230 99 -336 204 -85 85 -101 107 -152 210 -57 115
-92 222 -124 380 -16 79 -17 309 -20 3318 l-3 3232 1120 0 1120 0 0 790 0 790
-1120 0 -1120 0 0 1585 0 1585 -930 0 -930 0 0 -1585z"/>
<path d="M39055 24499 c-1788 -79 -3113 -1091 -3741 -2858 -344 -965 -475
-2211 -369 -3481 161 -1905 874 -3266 2099 -4003 582 -350 1279 -554 2079
-608 228 -15 843 -6 1057 15 439 44 766 111 1125 230 613 204 1139 520 1713
1029 76 66 262 245 415 397 l279 276 -707 558 -706 558 -212 -209 c-442 -434
-723 -651 -1068 -822 -418 -208 -825 -292 -1419 -292 -257 0 -444 14 -633 46
-833 144 -1428 586 -1792 1330 -227 463 -336 914 -400 1652 l-6 73 3443 2
3443 3 3 345 c5 618 -18 1186 -63 1560 -118 973 -432 1858 -891 2511 -255 363
-583 699 -919 941 -554 399 -1207 641 -1950 723 -119 13 -550 37 -595 33 -8 0
-91 -4 -185 -9z m405 -1729 c497 -37 953 -210 1330 -503 95 -74 291 -269 370
-367 149 -188 266 -395 365 -648 140 -361 203 -630 240 -1021 8 -91 15 -171
15 -178 0 -11 -443 -13 -2500 -13 l-2500 0 5 53 c40 405 58 520 110 721 38
149 106 350 171 511 320 784 1030 1321 1889 1429 206 26 318 30 505 16z"/>
<path d="M9455 24493 c-1175 -71 -1920 -325 -2615 -891 -141 -115 -391 -368
-521 -527 -99 -122 -395 -522 -405 -549 -5 -13 1347 -1191 1366 -1191 5 0 81
105 169 233 245 359 368 507 550 665 339 292 727 445 1304 512 239 27 604 38
879 26 581 -27 979 -113 1317 -286 416 -213 669 -561 776 -1068 50 -237 57
-328 62 -869 l5 -508 -1508 0 c-889 0 -1577 -4 -1674 -10 -1004 -61 -1804
-334 -2410 -823 -133 -107 -362 -342 -463 -474 -328 -431 -523 -937 -593
-1538 -24 -207 -24 -607 0 -805 65 -545 235 -1026 510 -1445 374 -571 975
-998 1691 -1204 312 -89 622 -141 1080 -182 194 -17 1006 -23 1243 -10 849 49
1460 224 2030 582 l92 58 0 -264 0 -265 925 0 925 0 -3 3798 c-3 2909 -6 3819
-16 3892 -28 219 -53 374 -87 524 -107 481 -310 920 -595 1286 -96 124 -308
341 -434 445 -636 524 -1490 813 -2610 885 -141 9 -858 11 -990 3z m2885
-6635 c0 -293 -5 -600 -10 -683 -33 -494 -128 -855 -291 -1105 -55 -84 -200
-227 -328 -323 -376 -284 -810 -423 -1461 -467 -203 -14 -797 -14 -975 0 -561
44 -962 157 -1244 350 -165 113 -311 291 -385 467 -93 222 -133 521 -115 853
32 586 276 976 752 1200 251 118 592 199 967 229 58 4 777 9 1598 10 l1492 1
0 -532z"/>
<path d="M27800 9230 l0 -1820 130 0 130 0 0 154 0 154 93 -92 c147 -148 288
-214 507 -237 87 -10 137 -10 224 -1 148 16 211 34 333 92 77 38 116 64 165
112 115 113 197 260 251 449 88 301 98 752 27 1096 -68 326 -225 564 -443 672
-127 62 -217 83 -392 88 -166 6 -253 -4 -372 -42 -114 -36 -196 -88 -300 -192
l-93 -92 0 739 0 740 -130 0 -130 0 0 -1820z m1153 421 c270 -70 414 -269 473
-656 21 -138 24 -524 5 -670 -42 -328 -157 -539 -347 -638 -102 -52 -185 -70
-334 -70 -209 -1 -334 45 -456 167 -163 162 -234 423 -234 856 0 439 69 697
230 861 73 75 154 120 264 149 101 27 296 27 399 1z"/>
<path d="M12837 9889 c-112 -16 -193 -41 -297 -91 -95 -46 -115 -61 -208 -154
-57 -57 -102 -108 -100 -113 1 -5 43 -44 91 -86 l88 -77 86 92 c75 80 97 96
177 135 102 49 156 62 304 75 119 11 315 -1 407 -25 155 -40 282 -133 337
-247 51 -104 60 -157 65 -385 l5 -211 -488 -5 c-448 -3 -497 -6 -579 -24 -296
-68 -468 -207 -552 -445 -38 -107 -44 -298 -14 -418 33 -135 82 -223 170 -310
162 -160 338 -213 706 -213 163 0 218 4 295 20 164 35 281 92 390 191 32 28
61 52 64 52 3 0 6 -52 6 -115 l0 -115 130 0 131 0 -3 923 c-3 921 -3 922 -26
1002 -87 311 -296 480 -662 540 -104 16 -421 19 -523 4z m953 -1511 c0 -295
-18 -400 -84 -511 -55 -91 -196 -185 -332 -221 -32 -9 -121 -21 -197 -27 -151
-13 -319 -3 -432 26 -235 61 -345 203 -345 445 0 199 78 343 226 418 143 72
208 79 737 81 l427 1 0 -212z"/>
<path d="M15685 9885 c-180 -33 -327 -109 -462 -238 l-63 -60 0 141 0 142
-130 0 -130 0 2 -1227 3 -1228 127 -3 127 -3 3 848 c3 841 4 849 26 928 47
170 139 305 264 385 31 21 97 50 145 66 83 28 97 29 263 29 170 0 178 -1 260
-31 160 -57 260 -145 330 -289 78 -163 74 -108 80 -1070 l5 -860 128 -3 128
-3 -4 888 c-3 880 -3 889 -25 971 -74 280 -251 481 -502 573 -44 16 -119 36
-167 44 -103 18 -311 18 -408 0z"/>
<path d="M18305 9886 c-412 -80 -667 -378 -761 -891 -26 -138 -27 -564 -2
-705 74 -414 245 -672 540 -809 304 -143 750 -131 1045 29 102 55 338 240 323
253 -3 2 -47 36 -98 76 l-92 73 -58 -52 c-189 -170 -369 -240 -617 -240 -275
0 -478 88 -612 264 -53 70 -123 214 -147 301 -23 89 -46 250 -46 333 l0 72
855 0 855 0 0 93 c0 638 -256 1063 -716 1187 -102 28 -362 37 -469 16z m377
-235 c192 -49 350 -176 438 -351 60 -120 88 -236 105 -432 l6 -68 -727 0 -727
0 7 102 c29 416 232 683 581 761 59 13 246 6 317 -12z"/>
<path d="M20819 9886 c-288 -51 -491 -186 -588 -390 -52 -108 -65 -170 -65
-296 1 -185 46 -304 158 -416 53 -53 92 -81 156 -113 157 -77 228 -90 737
-136 266 -24 381 -61 468 -151 57 -58 86 -135 92 -244 15 -237 -114 -407 -362
-478 -116 -33 -212 -45 -375 -45 -316 0 -531 67 -730 228 l-78 63 -87 -88 -87
-87 49 -43 c62 -55 180 -133 260 -171 273 -130 675 -172 1006 -105 208 43 364
123 483 248 124 131 174 264 174 463 0 296 -120 474 -380 566 -112 40 -206 55
-525 84 -154 14 -314 33 -355 41 -152 31 -265 106 -316 211 -21 43 -28 73 -32
146 -16 308 181 484 564 504 256 13 518 -51 695 -171 l54 -36 87 87 c100 100
104 85 -38 167 -96 56 -264 117 -401 147 -126 27 -447 35 -564 15z"/>
<path d="M23170 9886 c-287 -51 -493 -188 -590 -391 -51 -107 -64 -170 -64
-295 1 -185 46 -304 158 -415 103 -102 230 -164 415 -200 42 -8 204 -26 361
-40 381 -33 486 -61 581 -156 64 -64 91 -135 97 -250 4 -79 1 -110 -16 -166
-35 -114 -90 -183 -197 -248 -121 -73 -293 -108 -525 -108 -316 0 -532 68
-729 228 l-78 63 -88 -88 -87 -88 73 -60 c139 -115 291 -191 474 -237 153 -39
248 -49 455 -48 167 1 212 5 310 26 303 65 506 205 604 418 45 98 60 172 59
299 -2 345 -177 537 -547 605 -45 8 -207 26 -361 40 -154 14 -314 33 -355 41
-152 31 -265 106 -316 211 -21 43 -28 73 -32 146 -8 154 28 254 125 350 218
218 805 206 1143 -22 l45 -31 87 87 87 87 -44 32 c-112 79 -301 155 -483 195
-125 27 -447 35 -562 15z"/>
<path d="M25659 9885 c-219 -35 -398 -131 -525 -284 -30 -36 -54 -68 -54 -71
0 -7 175 -160 183 -160 2 0 26 28 52 61 81 103 199 179 332 213 97 25 267 36
403 26 209 -16 330 -60 430 -156 117 -111 149 -215 157 -511 l6 -203 -434 0
c-239 0 -474 -5 -524 -10 -367 -43 -606 -220 -679 -505 -63 -246 4 -522 165
-683 157 -157 345 -214 704 -215 340 -1 522 55 703 218 28 25 53 45 56 45 3 0
6 -52 6 -115 l0 -115 130 0 131 0 -4 918 c-3 913 -3 917 -25 1002 -38 141 -84
223 -181 320 -126 126 -270 192 -491 226 -119 17 -423 17 -541 -1z m978 -1542
c-5 -268 -17 -344 -71 -450 -51 -102 -205 -211 -351 -248 -93 -24 -279 -38
-400 -30 -147 8 -245 29 -331 69 -168 79 -235 196 -235 406 0 241 97 382 313
454 113 38 190 43 652 45 l428 1 -5 -247z"/>
<path d="M31310 9884 c-98 -20 -207 -62 -283 -106 -73 -42 -187 -143 -214
-189 -10 -16 -21 -29 -25 -29 -4 0 -8 70 -8 155 l0 155 -130 0 -130 0 2 -1227
3 -1228 127 -3 127 -3 4 828 c3 740 5 835 21 893 70 267 205 431 417 508 61
22 96 27 200 30 74 2 150 -1 183 -8 78 -16 180 -70 247 -129 l56 -50 93 94 94
94 -24 27 c-78 84 -234 164 -366 190 -95 18 -307 17 -394 -2z"/>
<path d="M35896 9885 c-182 -38 -331 -115 -458 -238 l-58 -55 0 139 0 139
-135 0 -135 0 2 -1227 3 -1228 130 0 130 0 5 860 5 860 23 75 c72 235 228 386
453 440 103 24 299 27 404 5 221 -46 391 -213 450 -439 31 -124 35 -226 35
-1013 l0 -793 130 0 130 0 0 833 c0 889 -3 942 -50 1087 -92 276 -295 468
-575 541 -105 28 -384 36 -489 14z"/>
<path d="M38420 9880 c-320 -68 -564 -283 -675 -593 -70 -195 -103 -465 -91
-748 17 -414 106 -676 300 -877 321 -335 900 -373 1283 -83 273 206 393 533
393 1066 0 491 -94 783 -322 1001 -137 131 -276 202 -468 238 -112 22 -311 20
-420 -4z m400 -227 c36 -8 103 -33 150 -56 116 -56 238 -177 293 -288 47 -95
83 -235 98 -380 17 -167 6 -587 -19 -709 -22 -105 -60 -213 -97 -276 -133
-227 -421 -362 -694 -324 -292 40 -504 222 -584 500 -40 138 -51 253 -51 530
1 348 24 493 106 660 136 276 471 420 798 343z"/>
<path d="M9700 9865 c0 -9 881 -2418 891 -2437 9 -16 24 -18 133 -18 l124 0
15 43 c8 23 209 574 446 1224 237 650 431 1185 431 1188 0 3 -64 4 -142 3
l-142 -3 -365 -1066 c-201 -587 -369 -1065 -372 -1063 -3 2 -170 483 -370
1068 l-364 1066 -142 0 c-79 0 -143 -2 -143 -5z"/>
<path d="M32410 9016 c0 -935 0 -933 60 -1098 101 -275 318 -453 635 -519 89
-19 333 -16 430 5 160 35 305 111 426 225 l79 73 0 -146 0 -146 130 0 130 0 0
1230 0 1230 -129 0 -130 0 -4 -837 c-3 -829 -3 -839 -25 -923 -68 -255 -223
-414 -467 -476 -101 -26 -313 -24 -416 4 -199 53 -336 175 -406 360 -56 150
-55 139 -60 1040 l-5 832 -124 0 -124 0 0 -854z"/>
<path d="M21090 3760 l0 -1520 185 0 185 0 2 817 3 816 78 53 c107 72 235 136
337 170 75 24 100 28 215 28 111 1 140 -3 197 -22 89 -31 156 -90 192 -172 57
-126 58 -149 63 -952 l4 -738 185 0 184 0 0 708 c0 402 -5 758 -11 825 -21
240 -82 392 -208 517 -121 121 -250 174 -447 187 -239 14 -480 -65 -708 -233
l-86 -64 0 550 0 550 -185 0 -185 0 0 -1520z"/>
<path d="M19205 5203 c-380 -35 -717 -235 -849 -505 -143 -293 -83 -662 144
-876 164 -156 376 -229 914 -317 519 -85 671 -187 684 -456 7 -155 -33 -257
-142 -357 -139 -127 -386 -193 -671 -179 -286 13 -616 122 -855 282 -47 31
-96 68 -111 81 -14 13 -33 24 -42 24 -16 0 -17 -21 -17 -244 l0 -244 128 -51
c336 -132 571 -176 937 -175 255 0 351 12 507 64 326 109 537 304 635 585 25
74 27 92 28 240 0 123 -4 175 -18 224 -52 190 -169 322 -375 425 -146 73 -300
114 -707 186 -280 49 -398 79 -491 125 -131 64 -196 154 -217 301 -52 375 335
604 896 529 266 -35 551 -144 726 -276 84 -64 81 -71 81 190 l0 228 -97 38
c-202 77 -459 135 -683 155 -109 9 -318 11 -405 3z"/>
<path d="M24306 4470 c-424 -67 -710 -351 -808 -805 -25 -119 -35 -401 -19
-544 37 -316 165 -571 371 -738 87 -71 223 -138 345 -170 90 -24 117 -26 280
-26 163 0 189 2 279 26 265 71 473 243 596 492 96 195 136 407 127 680 -12
368 -110 626 -313 828 -122 121 -255 195 -426 238 -96 23 -336 34 -432 19z
m312 -326 c320 -65 482 -339 482 -814 0 -467 -168 -748 -485 -815 -287 -60
-550 60 -669 307 -80 165 -101 297 -93 566 9 297 60 460 186 596 138 148 351
207 579 160z"/>
<path d="M26785 4470 c-246 -39 -437 -137 -594 -305 -197 -211 -291 -483 -291
-845 0 -286 58 -510 177 -686 208 -306 564 -459 1028 -440 208 8 411 53 645
144 l75 29 3 202 c1 110 0 201 -3 201 -3 0 -32 -18 -64 -40 -111 -76 -321
-161 -481 -196 -127 -28 -356 -26 -474 4 -313 78 -506 319 -532 665 l-7 87
807 0 806 0 0 124 c0 393 -82 649 -264 829 -157 155 -346 225 -621 232 -82 2
-177 0 -210 -5z m308 -305 c250 -44 397 -223 422 -513 l8 -82 -627 0 c-381 0
-626 4 -626 9 0 27 32 155 50 200 61 156 194 293 341 352 121 47 285 61 432
34z"/>
<path d="M28975 4465 c-132 -21 -205 -43 -314 -97 -87 -43 -117 -64 -185 -132
-124 -124 -176 -247 -178 -417 -1 -242 100 -409 312 -512 117 -57 217 -86 475
-138 349 -69 446 -110 497 -208 24 -46 28 -65 28 -135 0 -68 -4 -91 -26 -134
-59 -118 -194 -177 -429 -188 -256 -13 -517 66 -773 232 -45 30 -87 54 -92 54
-6 0 -10 -80 -10 -206 l0 -205 73 -34 c105 -48 276 -102 402 -127 89 -18 146
-22 300 -23 262 0 407 29 580 118 108 56 247 192 294 289 46 97 64 192 58 309
-10 160 -62 278 -164 369 -122 109 -233 151 -581 221 -348 70 -443 105 -515
190 -56 65 -72 170 -41 262 70 207 455 278 830 152 107 -35 248 -103 324 -154
25 -17 48 -31 53 -31 4 0 7 89 7 199 l0 198 -57 26 c-250 111 -616 163 -868
122z"/>
</g>
</svg>
