<?xml version="1.0" standalone="no"?>
<!DOCTYPE svg PUBLIC "-//W3C//DTD SVG 20010904//EN"
 "http://www.w3.org/TR/2001/REC-SVG-20010904/DTD/svg10.dtd">
<svg version="1.0" xmlns="http://www.w3.org/2000/svg"
 width="1856.000000pt" height="944.000000pt" viewBox="0 0 1856.000000 944.000000"
 preserveAspectRatio="xMidYMid meet">

<g transform="translate(0.000000,944.000000) scale(0.100000,-0.100000)"
fill="#000000" stroke="none">
<path d="M20 7840 l0 -1560 383 2 382 3 3 1218 2 1218 563 -3 c533 -4 565 -5
629 -25 37 -11 93 -35 124 -54 171 -103 252 -272 241 -504 -10 -214 -103 -372
-274 -463 -106 -56 -167 -62 -613 -62 l-400 0 0 -324 0 -325 348 -3 c346 -4
347 -4 437 -32 49 -15 112 -39 140 -54 74 -40 164 -135 203 -215 65 -135 65
-139 70 -614 l3 -433 22 -5 c12 -3 193 -4 402 -3 l380 3 0 515 c0 584 2 568
-82 740 -38 79 -59 108 -132 180 -106 106 -266 201 -378 225 -18 3 -33 10 -33
13 0 4 44 27 98 52 308 141 510 374 591 682 46 178 51 370 11 533 -44 187
-127 333 -270 476 -207 208 -460 330 -771 369 -53 6 -447 10 -1081 10 l-998 0
0 -1560z"/>
<path d="M9780 7839 l0 -1560 783 4 c835 5 822 4 1014 57 245 67 526 249 677
439 256 321 320 715 186 1131 -93 285 -315 546 -580 680 -207 104 -300 120
-707 120 l-313 0 0 -324 0 -323 221 -7 c239 -8 287 -17 377 -68 202 -114 307
-363 258 -608 -35 -170 -137 -305 -289 -382 -103 -51 -158 -58 -514 -58 l-323
0 0 1230 0 1230 -395 0 -395 0 0 -1561z"/>
<path d="M16032 7843 l3 -1558 392 -3 393 -2 2 487 3 488 145 3 c309 7 470
-38 613 -168 58 -53 118 -155 145 -244 10 -36 16 -125 21 -306 l6 -255 394 -3
393 -2 -5 267 c-7 351 -29 459 -129 627 -79 133 -193 236 -346 314 -64 32
-141 65 -169 72 -29 8 -53 17 -53 20 0 3 24 14 53 25 226 80 391 202 486 360
83 138 131 363 131 621 l0 134 -387 -2 -388 -3 -6 -155 c-8 -187 -28 -281 -88
-397 -30 -60 -121 -155 -178 -185 -101 -55 -148 -62 -403 -63 l-235 0 -3 743
-2 742 -395 0 -395 0 2 -1557z"/>
<path d="M14010 8739 c-731 -94 -1190 -580 -1190 -1259 0 -324 113 -607 335
-839 106 -111 210 -189 347 -261 253 -132 534 -191 833 -176 422 22 752 155
1003 407 230 231 342 515 342 869 0 356 -112 642 -340 870 -213 214 -503 345
-860 389 -97 13 -375 12 -470 0z m381 -623 c217 -46 419 -237 483 -456 44
-148 27 -318 -46 -470 -33 -69 -56 -100 -122 -165 -98 -97 -163 -136 -280
-169 -303 -88 -619 54 -757 340 -133 274 -66 588 167 784 66 57 187 118 268
135 81 18 205 18 287 1z"/>
<path d="M4482 8699 c-243 -31 -490 -152 -668 -325 -110 -108 -175 -198 -244
-339 -187 -380 -165 -824 58 -1185 71 -116 235 -286 346 -360 90 -60 234 -130
316 -153 180 -51 171 -51 1043 -55 l817 -3 0 330 0 331 -723 0 c-693 0 -727 1
-803 20 -258 66 -436 323 -409 592 21 220 167 405 376 479 61 22 80 23 432 27
354 3 368 3 359 -15 -6 -10 -119 -200 -251 -422 -133 -222 -241 -405 -241
-407 0 -2 170 -3 377 -2 l378 3 187 295 c104 162 217 341 253 397 l65 102 0
351 0 350 -802 -1 c-442 -1 -831 -5 -866 -10z"/>
<path d="M7572 8699 c-431 -56 -815 -368 -965 -784 -111 -310 -94 -646 47
-940 69 -145 130 -230 240 -341 104 -103 212 -179 335 -237 102 -47 145 -61
271 -89 91 -20 126 -21 917 -25 l822 -4 3 303 c2 167 2 315 0 330 l-3 27 -747
3 -747 3 -65 23 c-263 93 -419 364 -366 634 19 96 43 152 100 232 77 109 195
183 332 211 65 13 139 15 406 13 l328 -3 -86 -145 c-48 -80 -155 -260 -239
-400 -83 -140 -157 -265 -164 -277 l-12 -23 378 0 378 1 51 82 c67 107 342
540 405 638 l49 75 0 352 0 352 -802 -1 c-442 -1 -831 -5 -866 -10z"/>
<path d="M18045 4999 c-593 -41 -1580 -116 -1910 -145 -159 -14 -450 -38 -645
-55 -195 -16 -465 -40 -600 -54 -135 -14 -342 -34 -460 -45 -1264 -117 -3039
-350 -3975 -520 -88 -16 -236 -43 -330 -60 -93 -17 -179 -33 -189 -37 -19 -5
-19 -6 0 -16 21 -11 640 -379 829 -492 66 -40 278 -166 470 -280 193 -115 417
-248 498 -297 82 -48 152 -88 156 -88 4 0 225 87 492 194 266 106 579 229 694
274 116 44 253 97 305 117 700 269 1664 590 2560 850 197 57 244 71 670 188
402 111 935 251 1490 391 228 58 399 105 380 104 -19 0 -215 -13 -435 -29z"/>
<path d="M1065 4879 c1507 -283 3120 -650 4350 -990 847 -234 1417 -407 2265
-689 419 -139 624 -210 1110 -383 176 -63 527 -194 775 -289 116 -44 244 -93
285 -108 121 -45 1033 -410 1295 -518 535 -222 664 -276 980 -410 554 -234
1130 -482 2100 -904 127 -55 275 -119 330 -143 55 -24 253 -109 440 -190 507
-220 571 -246 555 -232 -30 27 -600 385 -1055 662 -726 442 -911 555 -1195
725 -113 68 -389 234 -615 370 -225 136 -601 360 -835 500 -234 139 -456 272
-495 295 -123 75 -490 293 -800 475 -165 97 -451 266 -635 375 -372 220 -837
492 -1320 773 -473 275 -1079 616 -1227 691 l-62 31 -3228 -1 -3228 -1 210
-39z"/>
<path d="M6055 3098 c-962 -351 -1854 -765 -2525 -1173 -789 -479 -1432 -1032
-1948 -1675 -29 -36 -52 -68 -52 -72 0 -5 658 -8 1463 -8 l1462 0 30 43 c104
147 403 463 635 671 706 634 1608 1190 2597 1601 79 33 139 63 135 66 -8 9
-943 315 -1197 393 -589 181 -553 171 -600 154z"/>
<path d="M8370 2281 c-1001 -460 -1993 -1171 -2596 -1861 -106 -122 -194 -232
-194 -243 0 -4 595 -7 1323 -7 l1322 0 30 48 c16 26 72 105 124 177 377 519
801 921 1449 1376 29 21 49 40 44 43 -17 10 -240 96 -727 279 -414 156 -638
237 -655 237 -8 0 -62 -22 -120 -49z"/>
</g>
</svg>
